<svg xmlns="http://www.w3.org/2000/svg" xmlns:xlink="http://www.w3.org/1999/xlink" viewBox="0 0 711.43 475.36">
    <defs>
        <style>.cls-1,.cls-10,.cls-11,.cls-12,.cls-16,.cls-2,.cls-3,.cls-4,.cls-5,.cls-6,.cls-7,.cls-8,.cls-9{fill:none;}.cls-2{stroke:#c87107;}.cls-10,.cls-12,.cls-2,.cls-8,.cls-9{stroke-miterlimit:10;}.cls-11,.cls-3,.cls-8,.cls-9{stroke:#000;}.cls-11,.cls-16,.cls-3,.cls-4,.cls-5,.cls-6,.cls-7{stroke-linecap:round;stroke-linejoin:round;}.cls-4{stroke:#999;}.cls-5{stroke:red;}.cls-6{stroke:#b3b3b3;}.cls-7{stroke:#009245;}.cls-11,.cls-8{stroke-width:0.5px;}.cls-10,.cls-16{stroke:#8c693f;}.cls-12{stroke:#1d386d;}.cls-13{isolation:isolate;}.cls-14{clip-path:url(#clip-path);}.cls-15{clip-path:url(#clip-path-2);}</style>
        <clipPath id="clip-path">
            <polygon class="cls-1" points="549.41 450.79 549.42 444.87 553.73 443.65 553.72 449.57 549.41 450.79" />
        </clipPath>
        <clipPath id="clip-path-2">
            <polygon class="cls-1" points="531.67 463.62 531.68 458.92 535.1 457.96 535.09 462.65 531.67 463.62" />
        </clipPath>
    </defs>
    <title>logo_taskAsset 2</title>
    <g id="Layer_2" data-name="Layer 2">
        <g id="Trace">
            <line class="cls-2" x1="426.9" y1="272.88" x2="449.11" y2="261.85" />
            <path class="cls-3" d="M266.79,397.19a5,5,0,0,0-2.55-2.55,4.27,4.27,0,0,0-.79-.25" />
            <path class="cls-4" d="M255.13,410.39a2.48,2.48,0,0,1,2.7-4.16l.23.17" />
            <path class="cls-3" d="M258.06,402.27a10.58,10.58,0,0,0-3.73,4.77c-1.4,3.95-1.22,7.72.68,9.17" />
            <line class="cls-4" x1="255.13" y1="410.39" x2="256.76" y2="411.29" />
            <path class="cls-5" d="M251.35,423.15a20.82,20.82,0,0,1-6.7-2.26c-5.84-3.68-6.57-13-1.62-20.91a20.86,20.86,0,0,1,2-2.69" />
            <polyline class="cls-4" points="263.45 401.83 273.1 388.43 263.95 380.06" />
            <polyline class="cls-4" points="270.18 400.45 278.29 388.6 267.26 378.48" />
            <path class="cls-2" d="M238.6,395.18l11,3.62s3.68,1.14,2.36-2.07l-1-18.07-9-.79c.76.16,1.41.28,1.9.36,3.51.59,6.81,15.28,8.13,18.5" />
            <path class="cls-2" d="M228.94,375h0v10.12" />
            <path class="cls-3" d="M237.46,399c1.95-1.3,1.51-5.39-1-9.15s-6.1-5.74-8.05-4.44l-5.68,6-.38.32a2,2,0,0,1,.38-.32c1.74-1.16,4.94.61,7.16,3.95s2.61,7,.88,8.13" />
            <path class="cls-4" d="M213,360.49c1-7.84-3.39-11.9-3.39-11.9" />
            <path class="cls-4" d="M207.42,346.5a9.32,9.32,0,0,0-6.6-3.1" />
            <path class="cls-4" d="M209.83,366.81a10.78,10.78,0,0,0,2.3-3.39" />
            <path class="cls-2" d="M402.32,299.06s-8.12.81-15.49,2-31.18,14.65-37,17.77c-4.89,2.61-24.81,16.66-31.18,21.18-1,.68-1.92,1.39-2.82,2.16-6,5.14-25,16.11-25,16.11" />
            <path class="cls-6" d="M420.35,305.62a27.83,27.83,0,0,0-2.65-6.44h0c-.14-.27-.31-.56-.47-.84l-.07-.12c-3-5.1-7-4.18-7-4.18-3.64,2.7-6.41,4.52-7.81,5l9.58,4.8,5.77,2.9,2.82,1.41A4.28,4.28,0,0,0,420.35,305.62Z" />
            <path class="cls-6" d="M417.7,299.18s-5,4.51-5.8,4.68l5.77,2.9c.9-.35,1.83-.76,2.68-1.14A27.83,27.83,0,0,0,417.7,299.18Z" />
            <path class="cls-2" d="M376.16,235.34l-56.5,30.9s-22.19,11.33-33.21,16-25.57,10.21-32.56,14.13-19.09,10.54-25.51,18.28-13,16.56-14.88,23.93" />
            <path class="cls-2" d="M368.84,230.9l-45.07,23.67a374.78,374.78,0,0,1-50.46,24.23c-29.76,11.77-46.37,21.15-53.15,31.4-6.66,10.06-9.21,19.68-9.21,27" />
            <path class="cls-7" d="M4.14,172.41s-3.26,1.83-3.62,3c-.19.63.9,2.6,2.17,1.8,1.8-1.13,1.84-1.68,1.84-1.68" />
            <path class="cls-2" d="M114.14,117.37h0c-.27-.18-3.7-2.3-14.29,0-11.06,2.41-57.54,18.77-68.07,25.38S11.53,156.91,5.29,169.39c0,0-2.94,5.71.6,7.64" />
            <circle class="cls-8" cx="696.1" cy="101.31" r="0.5" />
            <circle class="cls-3" cx="686.22" cy="106.4" r="1" />
            <path class="cls-2" d="M551.24,3c0,1.32-23.81,15.4-26.74,16.91a9.33,9.33,0,0,1-4.73,1.32" />
            <path class="cls-3" d="M710.93,140.47s-12.28,9.73-21.26,14.84-27.06,15.63-28.86,20.26c0,0,.7,2.23,9.49-2.78s40.63-27,40.63-28.82Z" />
            <path class="cls-3" d="M679.47,113.64l-16,54s0,.2,0,.26c.78,1.25,15.26-6.52,17.32-7.64,3.8-2.05,9.21-5,16.15-9.6,5.66-3.77,10.34-7.32,13.95-10.23v-4c0,1.32-6.24,4-6.24,4V106s6.24-2.64,6.24-4" />
            <path class="cls-2" d="M710.93,95.4c0,1.32-23.81,15.4-26.74,16.91a9.27,9.27,0,0,1-4.72,1.33" />
            <path class="cls-3" d="M710.93,102V95.4" />
            <path class="cls-2" d="M710.93,102.85c0,1.33-5.61,3.56-5.61,3.56v32.77s5.61-2.23,5.61-3.55Z" />
            <path class="cls-3" d="M663.55,168s-6.08,3.68-6.27,6.17" />
            <path class="cls-5" d="M680.41,110c3.17,1.66,30.52-17,30.52-17" />
            <path class="cls-2" d="M685,105.46c-4.58,1.85-4.58,4.49-4.58,4.49,3.17,1.66,30.52-17,30.52-17S691.72,102.76,685,105.46Z" />
            <line class="cls-3" x1="679.47" y1="113.64" x2="680.41" y2="109.95" />
            <line class="cls-3" x1="710.93" y1="92.94" x2="710.93" y2="95.4" />
            <path class="cls-3" d="M519.77,21.19l-16,54.05a.63.63,0,0,0,0,.26c.77,1.25,15.26-6.53,17.32-7.64,3.8-2,9.21-5,16.14-9.6,5.67-3.77,10.35-7.32,14-10.23v-4c0,1.32-6.24,4-6.24,4V13.54s6.24-2.65,6.24-4" />
            <path class="cls-3" d="M551.24,9.57V3" />
            <path class="cls-2" d="M551.24,10.41c0,1.32-5.61,3.55-5.61,3.55V46.74s5.61-2.23,5.61-3.56Z" />
            <path class="cls-5" d="M520.72,17.51c3.16,1.65,30.52-17,30.52-17" />
            <line class="cls-3" x1="519.77" y1="21.19" x2="520.72" y2="17.51" />
            <line class="cls-3" x1="551.24" y1="0.5" x2="551.24" y2="2.96" />
            <path class="cls-3" d="M503.82,75.5s-6.09,5.32-5.39,5.92l65.48,56.12L661,175.63" />
            <path class="cls-3" d="M501.08,83.68c-2.54-2.17,11.83-11.11,21.19-15.5,22.78-10.69,29-15.77,29-15.77V48" />
            <line class="cls-3" x1="545.34" y1="56.26" x2="570.24" y2="71.5" />
            <polyline class="cls-3" points="570.24 71.5 561.5 76.79 665.37 136.32 674.3 130.93" />
            <polygon class="cls-2" points="573.25 70.63 562.97 76.76 665.25 135.56 674.65 129.95 573.25 70.63" />
            <path class="cls-3" d="M614,106.86s-12.3,7.08-31.07,16.23c-18.33,8.93-19,14.45-19,14.45" />
            <path class="cls-2" d="M612.13,106s-12.32,6.66-30.74,15.73c-18.13,8.92-18.68,14.8-18.68,14.8" />
            <path class="cls-2" d="M615.77,107.89s-17.08,9.19-32,16.85c-17.09,8.77-18.25,13.44-18.25,13.44" />
            <path class="cls-3" d="M160.33,280.48,198,305.17c11.67-16.73,25.32-23,25.32-23,12.9-12.19,57.41-27.64,57.41-27.64l23.24-12.76S227,190.22,223,188.1s-26.5,5.52-26.5,5.52L126.9,147.7l20.83-9.49s-27.07-18.15-33.59-20.84-41,9.64-70.72,21.54S5.29,178.74,5.29,178.74l136.83,89.79" />
            <polygon class="cls-2" points="150.92 137.78 128.74 147.84 196.58 192.68 219.33 182.36 150.92 137.78" />
            <path class="cls-3" d="M376,300.85c1.44-.51,13.63-4.84,20.51-4.5l5.21,2.39c6.9,3.31,63.95,32.29,90.89,46-26.94-13.69-84-42.67-90.89-46l-5.21-2.39c-6.88-.34-19.07,4-20.51,4.5l-.06,0h-.09c-2.57.9-36.27,12.82-49.53,18.91-11,5.07-30.71,22.87-33.36,27.78a40.14,40.14,0,0,0-3.68,9.92s223.37,114.33,228.09,117,19.28-9.07,43.09-26.27a253,253,0,0,1,51.21-29.1c9.26-4,19.84-3.4,19.84-3.4l-45.35-23.25c-14.74-1.51-32.88,7.75-32.88,7.75l-76.92-40.06a18.77,18.77,0,0,1,5.57-3" />
            <path class="cls-2" d="M630.71,415.33a50.47,50.47,0,0,0-20.57,3S602,422,591.57,427a210.5,210.5,0,0,0-20.91,11.91s-25.79,18.5-35.5,25.09-12.8,6.09-13.54,5.12c-1.56-2.05,3.47-6.56,11.2-15.51,7.44-8.61,34.3-21.72,34.3-21.72s35.43-12.75,41.81-15.16,21.78-1.38,21.78-1.38c-10-4.54-23.62-.75-23.62-.75s-28.73,9.07-42,13.8-30.62,17.95-40.63,28-7.19,18.14-7.19,18.14" />
            <polygon class="cls-2" points="554.15 395.2 574.75 382.92 497.1 342.02 476.51 354.3 554.15 395.2" />
            <path class="cls-2" d="M586.11,392.47s-1-.71-5.29-3-26.67,5.7-26.67,5.7" />
            <path class="cls-3" d="M198,305.17c-5.25,6.73-7.13,24.37-7.13,24.37l8.63,15.88" />
            <path class="cls-3" d="M223.28,282.2s34.15-14.88,57.4-27.63" />
            <path class="cls-9" d="M303.92,241.81s63.92-34.58,77.67-39.82,23.53-10.78,32.88-6.52,25.34,11.26,25.34,11.26l4.28,1.77L478.68,233s.7,1.78-9.78,11.41c-8.57,7.88-42.47,37.6-58.77,49.68,0,0-6.91,5.1-7.81,5" />
            <path class="cls-3" d="M214.26,366.26c12.48,13.56,41.19,13,53.66,12.18s38.57-12.09,38.57-12.09C272.25,381.13,272,358,272,358c-24.69,14.62-50.85.15-50.85.15" />
            <path class="cls-3" d="M339.6,222.81a40,40,0,0,1,9.82,1.66c6.24,1.7,19.42,6.43,19.42,6.43s6.56-1.23,9.49-2.65,37-17.38,45.17-19.18a125.62,125.62,0,0,1,16.32-2.34" />
            <line class="cls-2" x1="478.68" y1="232.95" x2="396.46" y2="296.35" />
            <path class="cls-3" d="M444.1,208.5c-1.69-1.19-11,.57-19.18,2S380.51,229.57,379,230.33s-2.83,5-2.83,5l31.37,25.42s39.78-21.17,52.72-26.65S478.68,233,478.68,233" />
            <path class="cls-3" d="M396.46,296.35s-9.77-2.67-33.43,6.12-27.84,10.06-40.11,15.73c-8.18,3.78-20.46,11.15-29.2,22.4-7.43,9.56-7.89,13.89-6.85,14.55a13.65,13.65,0,0,0,2.37,1.13" />
            <path class="cls-3" d="M373.11,299.14l34.42-38.38L350.13,295s-24.24,13.56-30.38,16.63-8.58,4.14-14.79,6.9c-5.57,2.48-9.08,4.38-12.09,5.88a52.47,52.47,0,0,0-8.29,5.1,30.69,30.69,0,0,0-8.71,9.14c-4.62,7.68-4.1,16.28-3.89,19.37,0,0,7.63-5.48,14.47-3.68" />
            <path class="cls-5" d="M214.26,366.26a8.64,8.64,0,0,0,1-.26c5.48-1.86,7.73-9.86,5-17.88s-9.36-13-14.85-11.17c-3.24,1.1-5.35,4.34-6,8.47" />
            <path class="cls-9" d="M191.75,349.85l7.7-4.43" />
            <path class="cls-10" d="M199.45,345.42l-8.54-15.72-.18-.31c-1.36-2.19-16.95-27.36-30.4-48.91-9.81-15.72-18.47-29.51-19.64-31.06-2.83-3.78-5.86-3.59-6.61-1.51-.52,1.43,2.16,7.91,8,20.62,2.69,5.83,6.06,13,10.1,21.52,12.85,27.21,39.53,59.8,39.53,59.8" />
            <path class="cls-9" d="M208.3,366.26c1.19,1.28,6,0,6,0,2.48-3.52,4.36-14.95-3.31-22.26-6.63-6.31-11.7.75-11.5,1.42" />
            <path class="cls-3" d="M207.29,363.42c3.29,10.64,16,29.62,16,29.62" />
            <polygon class="cls-3" points="432.47 203.5 557.57 132.11 548.59 124.41 420.5 198.18 432.47 203.5" />
            <polygon class="cls-3" points="473.82 229.52 605.61 153.91 591.85 148.51 463.6 222.29 473.82 229.52" />
            <line class="cls-3" x1="237.46" y1="398.95" x2="230.78" y2="403.4" />
            <line class="cls-5" x1="263.45" y1="390.25" x2="263.45" y2="403.34" />
            <path class="cls-3" d="M254.71,417.94a4,4,0,0,1-.78-.07c-3-1.16-3.81-5.65-2.11-11.08a11.67,11.67,0,0,1,6.24-6.93" />
            <path class="cls-3" d="M254.78,422.71a6,6,0,0,1-5.17-.14c-3.56-2-3.77-11.46-.52-18.07a21.17,21.17,0,0,1,5.66-7.17" />
            <path class="cls-5" d="M263.38,415.07h0" />
            <polyline class="cls-5" points="258.06 396.13 258.06 399.86 258.06 409.03" />
            <ellipse class="cls-4" cx="271.44" cy="417.67" rx="2.3" ry="2.12" transform="translate(-213.7 530.65) rotate(-70.09)" />
            <circle class="cls-3" cx="684.72" cy="160.74" r="1.15" />
            <circle class="cls-3" cx="668.79" cy="170.9" r="1.5" />
            <circle class="cls-11" cx="535.86" cy="9.23" r="0.5" />
            <circle class="cls-3" cx="525.98" cy="14.33" r="1" />
            <polyline class="cls-12" points="531.33 33.96 527.93 48.56 532.67 52.9" />
            <path class="cls-12" d="M539.75,35.83,536.4,33.5a4.62,4.62,0,0,0-5.07.46l4.81,4.4" />
            <path class="cls-12" d="M538.63,53.24l3.77-16.16a4.21,4.21,0,0,0-6,0l-3.76,16.16,6-.11" />
            <ellipse class="cls-12" cx="539.15" cy="39.6" rx="1.21" ry="0.95" transform="translate(260.93 503.12) rotate(-63.23)" />
            <circle class="cls-5" cx="208.55" cy="347.48" r="1.5" />
            <circle class="cls-5" cx="212.45" cy="361.92" r="1.5" />
            <ellipse class="cls-3" cx="262" cy="381.22" rx="1.26" ry="1.16" />
            </g>
            <path class="cls-2" d="M525.3,13c-4.58,1.84-4.58,4.49-4.58,4.49,3.16,1.65,30.52-17,30.52-17S532,10.32,525.3,13Z" />
            <path class="cls-16" d="M206.27,364.13a19.16,19.16,0,0,0,3.46,14.68C215,385.86,265.8,462,265.8,462s3.78,4.9,4,1a6.89,6.89,0,0,0-1.23-4.16c-6.3-9.32-40-59.1-45.28-65.77C217.42,385.67,207.22,372.36,206.27,364.13Z" />
            <path class="cls-3" d="M201.55,356.68c-2.27-5.16-6.66-8.22-9.8-6.83-2.51,1.1-3.47,4.7-2.59,8.73l4.25-4.95c1.87-.83,4.49,1,5.84,4.06s.94,6.23-.93,7.05l-5.95.57c2.32,2.85,5.31,4.23,7.62,3.21C203.13,367.14,203.83,361.83,201.55,356.68Z" />
            <path class="cls-3" d="M200,368.52l9-6.29h0c1.13-2.37,1-6-.6-9.63-2.07-4.7-5.9-7.75-8.94-7.19" />
            <path class="cls-5" d="M189.16,358.58l-1.57,1.83a4.73,4.73,0,0,0-1,1.75c-.37,1.32-.23,3.23,3.68,3.35l2.08-.2,5.95-.57c1.87-.82,2.28-4,.93-7.05s-4-4.89-5.84-4.06l-4.25,4.95" />
            <path class="cls-5" d="M266.17,432.53a20.82,20.82,0,0,1-6.7-2.26c-5.51-3.47-6.47-12-2.42-19.55.25-.46.52-.91.8-1.36a17.93,17.93,0,0,1,1.06-1.52c4-5.35,9.82-8.17,14.78-7.43,1.31.2,6.35,3.41,7.16,5" />
            <path class="cls-3" d="M275.36,409a3.48,3.48,0,0,0-2,.09c-2.56.75-5.62,3.67-6.69,7.07-1.62,5.17-1.12,10.1,1.69,11a3,3,0,0,0,.43.1c3,.47,6.72-2.32,8.71-7.16S278.41,409.93,275.36,409Z" />
            <path class="cls-3" d="M279.07,404c-4-1.7-11.36,2.13-15.16,9.86-3.25,6.61-3.13,16.21.52,18.07,3.84,2,11.74-1.67,15.78-9.38S283.56,405.93,279.07,404Z" />
            <path class="cls-3" d="M267,426.24h0c2.57-.61,6.62-2.26,8.21-6.15,2-4.82,1-9.88-1.87-11-2.56.75-5.62,3.67-6.69,7.07" />
            <path class="cls-3" d="M264,378.66v9.15c0,3-1.37,3.67-4.82,7.36s-7.13,1.56-7.13,1.56l-1-18.07h0" />
            <circle class="cls-3" cx="261.88" cy="387.17" r="1.5" />
            <circle class="cls-3" cx="254.78" cy="389.21" r="1.18" />
        </g>
    <!-- </g> -->
</svg>