<svg width="173" height="116" viewBox="0 0 173 116" fill="none" xmlns="http://www.w3.org/2000/svg">
<g clip-path="url(#clip0)">
<path d="M24.9983 103.336C24.9983 103.336 25.368 100.757 22.5959 101.125L19.2694 99.2833L14.0949 95.7834L9.65966 93.5729L7.07241 92.2835L3.93075 91.1782L2.26752 90.4414C2.26752 90.4414 -0.911097 89.8888 0.585811 93.0203L3.93075 95.9676L8.36604 99.6517C8.36604 99.6517 10.3989 101.862 15.2038 102.599L20.0087 103.336L20.9327 102.599C20.9327 102.599 22.9655 101.678 22.9655 104.625L23.8895 104.257C23.8895 104.257 36.4562 113.283 42.7395 115.309C42.7395 115.309 46.0659 117.335 44.5875 113.283L34.7929 106.467C34.7929 106.467 32.9449 104.809 28.14 104.441L24.9983 103.336Z" stroke="#F51919" stroke-opacity="0.8" stroke-miterlimit="10"/>
<path d="M20.9326 102.599L19.8238 103.704L19.4542 104.994H21.6756L22.9655 104.625" stroke="#F51919" stroke-opacity="0.8" stroke-miterlimit="10"/>
<path d="M23.5643 101.125L23.9487 100.963L24.4439 100.757C26.292 100.388 26.0665 102.599 26.0665 102.599L25.0131 103.109" stroke="#F51919" stroke-opacity="0.8" stroke-miterlimit="10"/>
<path d="M23.9487 100.963L23.8895 100.757C23.3351 98.3623 24.8136 97.9939 24.8136 97.9939C24.8136 97.9939 27.5856 97.4412 28.6556 100.713C29.3579 102.848 28.6408 103.684 28.0569 104.006C27.8757 104.108 27.678 104.176 27.4729 104.205" stroke="#F51919" stroke-opacity="0.8" stroke-miterlimit="10"/>
<path d="M24.8191 97.9976L26.6671 96.7081C31.472 95.6029 31.4387 101.916 31.4387 101.916L29.9751 103.113H31.3944C32.2556 102.785 33.0853 102.384 33.8782 101.916C34.987 101.23 34.063 99.6554 34.063 99.6554L30.7365 94.8661C30.7365 94.8661 30.1821 94.1292 28.7037 94.8661L26.6708 96.1555C26.6708 96.1555 26.3012 96.3397 26.6708 96.7081" stroke="#F51919" stroke-opacity="0.8" stroke-miterlimit="10"/>
<path d="M29.9696 103.109C29.9696 103.109 28.1604 104.047 27.9663 104.06" stroke="#F51919" stroke-opacity="0.8" stroke-miterlimit="10"/>
<path d="M25.2109 103.411C25.2109 103.411 25.7376 103.336 27.0312 103.704C28.3248 104.073 27.7076 102.599 27.7076 102.599L26.4768 101.678L26.6616 101.31L27.0312 100.389C27.0312 98.915 25.7376 99.4676 25.7376 99.4676L25.368 99.836L24.444 99.2834C24.444 99.2834 23.3351 99.0992 23.8895 100.204C24.444 101.31 24.1464 100.88 24.1464 100.88" stroke="#F51919" stroke-opacity="0.8" stroke-miterlimit="10"/>
<path d="M31.4332 101.866L31.7844 101.431L32.0653 101.085L33.3145 101.678C33.3145 101.678 34.9778 101.494 33.6841 100.02L32.0985 99.2723L30.9121 97.2571V95.7429C30.9121 95.7429 30.3577 93.9413 29.2489 95.0466V96.0966C29.2489 96.0966 26.9129 96.1776 26.4768 96.336" stroke="#F51919" stroke-opacity="0.8" stroke-miterlimit="10"/>
<path d="M24.4439 100.389C24.6481 100.389 24.8136 100.224 24.8136 100.02C24.8136 99.8167 24.6481 99.6517 24.4439 99.6517C24.2398 99.6517 24.0743 99.8167 24.0743 100.02C24.0743 100.224 24.2398 100.389 24.4439 100.389Z" stroke="#F51919" stroke-opacity="0.8" stroke-miterlimit="10"/>
<path d="M26.292 100.573C26.4961 100.573 26.6616 100.408 26.6616 100.204C26.6616 100.001 26.4961 99.8359 26.292 99.8359C26.0878 99.8359 25.9224 100.001 25.9224 100.204C25.9224 100.408 26.0878 100.573 26.292 100.573Z" stroke="#F51919" stroke-opacity="0.8" stroke-miterlimit="10"/>
<path d="M29.988 95.9675C30.1921 95.9675 30.3576 95.8026 30.3576 95.5991C30.3576 95.3957 30.1921 95.2307 29.988 95.2307C29.7839 95.2307 29.6184 95.3957 29.6184 95.5991C29.6184 95.8026 29.7839 95.9675 29.988 95.9675Z" stroke="#F51919" stroke-opacity="0.8" stroke-miterlimit="10"/>
<path d="M33.3145 101.125C33.5186 101.125 33.6841 100.96 33.6841 100.757C33.6841 100.553 33.5186 100.389 33.3145 100.389C33.1104 100.389 32.9449 100.553 32.9449 100.757C32.9449 100.96 33.1104 101.125 33.3145 101.125Z" stroke="#F51919" stroke-opacity="0.8" stroke-miterlimit="10"/>
<path d="M27.0312 103.336C27.2353 103.336 27.4008 103.171 27.4008 102.967C27.4008 102.764 27.2353 102.599 27.0312 102.599C26.827 102.599 26.6616 102.764 26.6616 102.967C26.6616 103.171 26.827 103.336 27.0312 103.336Z" stroke="#F51919" stroke-opacity="0.8" stroke-miterlimit="10"/>
<path d="M26.4768 96.4944L26.5322 96.522" stroke="#F51919" stroke-opacity="0.8" stroke-miterlimit="10"/>
<path d="M26.5322 96.5478C26.5322 96.5478 28.3248 96.1518 29.2488 96.7044C29.7995 97.0304 30.2819 97.4578 30.6737 97.9625C30.6737 97.9625 31.4665 99.8359 31.4665 100.02C31.4665 100.204 31.6365 101.614 31.6365 101.614" stroke="#F51919" stroke-opacity="0.8" stroke-miterlimit="10"/>
<path d="M34.2293 100.02C34.2293 100.02 37.565 98.3623 37.7498 98.178C37.9346 97.9938 42.5547 91.7309 45.5116 90.8098C45.5116 90.8098 49.762 81.7837 42.1851 79.9417H41.7896L44.4027 76.626C44.4027 76.626 44.9571 76.0734 46.2508 76.0734C47.5444 76.0734 53.0885 80.3101 52.1645 82.889C52.1645 82.889 53.4581 81.4153 53.4581 83.0732C53.4581 84.731 53.2733 86.7573 53.2733 86.7573C53.2733 86.7573 53.0885 87.6783 52.3493 86.9415L52.1645 91.1782C52.1645 91.1782 51.6101 92.4677 50.3164 91.9151C49.2409 91.4177 48.1912 90.8651 47.1748 90.2572L45.5116 90.8098" stroke="#F51919" stroke-opacity="0.8" stroke-miterlimit="10"/>
<path d="M51.7948 88.4152C51.4252 88.4152 48.0988 90.073 48.0988 90.073L50.5012 91.3624C50.5012 91.3624 51.7948 92.0237 51.7948 90.4046V88.4152Z" stroke="#F51919" stroke-opacity="0.8" stroke-miterlimit="10"/>
<path d="M47.1747 90.2572L48.1376 90.0933" stroke="#F51919" stroke-opacity="0.8" stroke-miterlimit="10"/>
<path d="M51.7948 88.4152V87.5531L52.3492 86.9415" stroke="#F51919" stroke-opacity="0.8" stroke-miterlimit="10"/>
<path d="M41.7896 79.9418L39.5979 82.7049C39.5979 82.7049 33.6195 86.9618 30.5092 94.6782" stroke="#F51919" stroke-opacity="0.8" stroke-miterlimit="10"/>
<path d="M46.6148 86.9066L42.3699 83.9943L41.7896 84.1601L39.5978 82.7048" stroke="#F51919" stroke-opacity="0.8" stroke-miterlimit="10"/>
<path d="M44.9664 81.3011L42.3699 83.9943" stroke="#F51919" stroke-opacity="0.8" stroke-miterlimit="10"/>
<path d="M42.3699 79.9895C42.3699 79.9895 42.7302 82.0416 43.8483 82.4652" stroke="#F51919" stroke-opacity="0.8" stroke-miterlimit="10"/>
<path d="M32.7841 90.2572C32.7841 90.2572 37.82 93.5379 39.1709 96.4096" stroke="#F51919" stroke-opacity="0.8" stroke-miterlimit="10"/>
<path d="M35.9775 86.0629C35.9775 86.0629 42.1851 89.3786 42.3699 92.954" stroke="#F51919" stroke-opacity="0.8" stroke-miterlimit="10"/>
<path d="M42.5011 79.0391V75.8542C42.5011 75.8542 42.3698 74.4156 44.2179 75.1524C46.0659 75.8892 47.1747 76.3847 47.1747 76.3847C47.1747 76.3847 46.9899 76.2576 44.9663 75.5392C42.9427 74.8208 43.1072 76.0734 43.1072 76.0734V78.271" stroke="#F51919" stroke-opacity="0.8" stroke-miterlimit="10"/>
<path d="M43.1073 74.9627L55.4891 62.9893L58.6308 60.963L59.0429 60.8433L59.2277 60.7935L59.3386 60.7622L59.6509 60.6757C61.6246 60.1838 66.0488 59.4231 68.9871 61.5156L70.4656 62.6209L71.5744 66.305L82.6626 79.5678L121.471 91.357L122.395 91.5412L133.299 93.9359C133.299 93.9359 143.093 93.3833 136.995 91.9096H131.081C131.081 91.9096 125.907 89.5149 126.461 88.4097C126.461 88.4097 132.929 89.1465 135.332 89.8834C137.734 90.6202 142.724 91.1728 142.724 91.1728C142.724 91.1728 151.964 89.8834 145.496 89.1465L139.028 88.4097C139.028 88.4097 132.929 86.015 133.853 84.7256C134.777 83.4361 137.18 85.8308 137.18 85.8308C137.18 85.8308 141.615 88.4097 150.301 87.6729C150.301 87.6729 155.845 86.3834 151.225 85.2782C151.225 85.2782 143.648 86.015 139.767 83.2519L138.104 81.7783L141.245 79.752C141.245 79.752 139.397 79.3836 137.734 76.2521C136.071 73.1206 136.81 73.3048 133.299 72.568C129.787 71.8312 129.048 72.3838 127.939 69.8049C126.831 67.226 125.907 67.4102 124.059 67.4102C122.211 67.4102 119.623 67.0418 119.069 64.0945C118.514 61.1472 113.34 61.884 113.34 61.884C113.34 61.884 107.981 62.9893 107.057 64.8313L104.285 62.9893L92.8268 56.5421C92.8268 56.5421 89.5003 54.1474 85.9891 54.8842L80.0753 51.5685C80.0753 51.5685 78.2273 50.2791 79.8905 49.1738L65.1063 40.5162C65.1063 40.5162 68.6175 38.4899 68.8023 37.7531C68.9871 37.0162 71.02 33.3321 64.9215 33.5163C58.823 33.7005 59.3774 30.7532 59.3774 30.7532C59.3774 30.7532 60.1166 29.0954 54.9421 28.727C49.7676 28.3586 50.6916 26.1481 50.6916 26.1481C50.6916 26.1481 50.5068 23.5692 46.0715 23.5692C41.6362 23.5692 38.125 22.2798 38.125 20.9903L34.4289 23.2008C34.4289 23.2008 28.8848 21.9114 27.5912 17.3062C27.5912 17.3062 26.1128 10.6748 24.6343 18.043C24.6343 18.043 24.4495 21.9114 29.624 24.4902L27.4064 25.5955C27.4064 25.5955 21.8623 24.8587 21.3079 18.2272C21.3079 18.2272 17.9814 18.043 19.275 22.0956L22.9711 27.8059L20.7535 29.648C20.7535 29.648 17.427 29.0954 16.503 25.2271C16.503 25.2271 14.6549 18.9641 14.2853 26.7007L18.351 32.7795L39.973 55.621L49.398 58.1999L58.2685 60.4104L58.823 60.5946L59.0078 60.7788" stroke="#F51919" stroke-opacity="0.8" stroke-miterlimit="10"/>
<path d="M51.7948 91.6904C51.7948 91.6904 68.6119 91.5983 84.9356 80.2697" stroke="#F51919" stroke-opacity="0.8" stroke-miterlimit="10"/>
<path d="M79.885 49.1793L83.6735 47.0904C83.6735 47.0904 83.8176 46.5857 85.1334 46.9228C85.2203 46.9449 85.3182 46.9707 85.4088 47.0001C86.2884 47.2949 87.1385 47.6762 87.9443 48.1349C91.8972 50.2845 93.5604 51.3898 93.5604 51.3898C93.5604 51.3898 94.4845 52.3108 93.5604 53.0476C92.6364 53.7845 90.1416 55.2342 90.1416 55.2342" stroke="#F51919" stroke-opacity="0.8" stroke-miterlimit="10"/>
<path d="M104.279 62.9948L120.172 44.39C120.172 44.39 122.39 36.8375 114.813 34.4429L85.1278 46.9228" stroke="#F51919" stroke-opacity="0.8" stroke-miterlimit="10"/>
<path d="M51.3328 79.8497L71.5688 66.3105" stroke="#F51919" stroke-opacity="0.8" stroke-miterlimit="10"/>
<path d="M93.8376 51.6661L117.829 35.9294L127.117 9.0353C127.117 9.0353 129.15 10.1405 139.706 2.03547L142.847 0.193412C142.847 0.193412 144.695 -0.175 143.032 3.87753C143.032 3.87753 142.108 6.27221 143.402 7.56165C144.695 8.85109 143.217 11.6142 143.217 11.6142C143.217 11.6142 142.108 13.6404 143.587 15.4825C143.587 15.4825 143.892 17.1109 143.369 18.0485C142.846 18.9861 141.737 21.7529 143.217 22.4897L140.26 25.6212V26.358L132.486 30.779L141.371 26.7264L144.882 24.516C144.882 24.516 145.252 26.5422 149.317 25.6212C153.383 24.7002 153.568 25.8054 154.677 27.0948C155.786 28.3843 160.601 27.0948 160.601 27.0948C160.601 27.0948 163.189 27.2791 163.189 28.5685C163.189 28.5685 163.374 30.2263 169.114 29.8579C169.114 29.8579 172.994 29.4895 172.81 30.779L169.483 32.8052V32.9894C169.483 32.9894 163.004 38.3314 160.967 38.5156C158.931 38.6998 120.311 40.7998 120.311 40.7998" stroke="#F51919" stroke-opacity="0.8" stroke-miterlimit="10"/>
<path d="M51.7025 80.4022L71.846 66.771" stroke="#F51919" stroke-opacity="0.8" stroke-miterlimit="10"/>
<path d="M94.0224 52.4029L118.232 36.377" stroke="#F51919" stroke-opacity="0.8" stroke-miterlimit="10"/>
<path d="M116.042 34.9125L118.878 14.7328C118.878 14.7328 122.907 11.3913 126.807 10.1147" stroke="#F51919" stroke-opacity="0.8" stroke-miterlimit="10"/>
<path d="M127.117 9.21577C127.117 9.21577 127.082 7.55791 139.706 2.21594L140.26 25.8183" stroke="#F51919" stroke-opacity="0.8" stroke-miterlimit="10"/>
<path d="M169.509 33.1865C169.509 33.1865 160.084 37.5319 160.553 38.7514" stroke="#F51919" stroke-opacity="0.8" stroke-miterlimit="10"/>
<path d="M121.466 91.3624L138.098 81.7837C138.098 81.7837 125.347 83.6258 121.466 91.3624Z" stroke="#F51919" stroke-opacity="0.8" stroke-miterlimit="10"/>
<path d="M124.607 88.4151V89.0009L125.361 88.708V87.7078L124.607 88.1388V88.4151Z" stroke="#F51919" stroke-opacity="0.8" stroke-miterlimit="10"/>
<path d="M138.098 81.7837L107.051 64.8368C107.051 64.8368 86.3531 68.7051 82.657 79.5733" stroke="#F51919" stroke-opacity="0.8" stroke-miterlimit="10"/>
<path d="M68.9816 61.521C68.9816 61.521 75.725 54.1233 83.1634 53.3091" stroke="#F51919" stroke-opacity="0.8" stroke-miterlimit="10"/>
<path d="M39.9675 55.6265C39.9675 55.6265 43.2939 44.9426 65.1007 40.5217L34.4234 23.2063C21.6719 26.1536 18.3455 32.785 18.3455 32.785" stroke="#F51919" stroke-opacity="0.8" stroke-miterlimit="10"/>
<path d="M132.486 30.9724L119.882 38.7496" stroke="#F51919" stroke-opacity="0.8" stroke-miterlimit="10"/>
<path d="M131.445 6.81187C131.26 6.6074 130.772 6.72529 130.521 6.99607C130.395 7.13054 130.24 7.39764 130.336 7.54869C130.48 7.77895 131.212 7.75869 131.445 7.36448C131.554 7.19686 131.554 6.97949 131.445 6.81187Z" stroke="#F51919" stroke-opacity="0.8" stroke-miterlimit="10"/>
<path d="M141.371 26.9163L169.509 33.0006" stroke="#F51919" stroke-opacity="0.8" stroke-miterlimit="10"/>
<path d="M122.072 91.0125L131.815 93.2045C131.815 93.2045 139.576 93.4661 138.098 92.2301" stroke="#F51919" stroke-opacity="0.8" stroke-miterlimit="10"/>
<path d="M127.172 88.0763L140.5 90.3494C140.5 90.3494 149.925 90.0731 145.49 89.1521" stroke="#F51919" stroke-opacity="0.8" stroke-miterlimit="10"/>
<path d="M134.417 84.3645C134.417 84.3645 140.131 86.7592 144.751 86.9434L149.741 87.1276C149.741 87.1276 155.896 86.26 150.879 85.3132" stroke="#F51919" stroke-opacity="0.8" stroke-miterlimit="10"/>
<path d="M29.9381 24.5124C29.9381 24.5124 22.7067 21.0327 25.7006 14.8434" stroke="#F51919" stroke-opacity="0.8" stroke-miterlimit="10"/>
<path d="M23.3776 27.7672L20.345 23.2063C20.345 23.2063 18.4711 21.2095 19.6058 18.8" stroke="#F51919" stroke-opacity="0.8" stroke-miterlimit="10"/>
<path d="M18.6818 32.2359L15.019 27.2624C15.019 27.2624 14.4646 25.4535 14.4646 24.5159" stroke="#F51919" stroke-opacity="0.8" stroke-miterlimit="10"/>
</g>
<defs>
<clipPath id="clip0">
<rect width="173" height="116" fill="white"/>
</clipPath>
</defs>
</svg>
