<svg width="170" height="115" viewBox="0 0 170 115" fill="none" xmlns="http://www.w3.org/2000/svg">
<g clip-path="url(#clip0)">
<path d="M5.82814 44.345C5.82814 44.345 2.74033 47.6682 2.27366 50.0577C1.807 52.4473 0.0595703 61.3661 0.0595703 61.3661C0.0595703 61.3661 5.42109 62.7645 5.82814 61.5409C6.23518 60.3173 10.8402 48.9493 10.8402 48.9493C10.8402 48.9493 11.422 46.9381 11.0725 43.6746L5.82814 44.345Z" stroke="#FF0000" stroke-opacity="0.9" stroke-width="0.5" stroke-miterlimit="10"/>
<path d="M12.8796 40.0635C12.8796 40.0635 15.733 38.1202 16.1689 34.4474C16.6067 30.7746 18.0335 22.3227 18.0335 22.3227C18.0335 22.3227 13.3421 19.931 12.4972 22.0862C11.6523 24.2434 7.07812 34.2994 7.07812 34.2994V38.0051" stroke="#FF0000" stroke-opacity="0.9" stroke-width="0.5" stroke-miterlimit="10"/>
<path d="M9.15445 42.0992C11.2174 42.0992 12.8898 41.1141 12.8898 39.8989C12.8898 38.6836 11.2174 37.6985 9.15445 37.6985C7.09145 37.6985 5.41907 38.6836 5.41907 39.8989C5.41907 41.1141 7.09145 42.0992 9.15445 42.0992Z" stroke="#FF0000" stroke-opacity="0.9" stroke-width="0.5" stroke-miterlimit="10"/>
<path d="M9.04548 40.8921C10.2274 40.8921 11.1856 40.3241 11.1856 39.6233C11.1856 38.9226 10.2274 38.3545 9.04548 38.3545C7.86354 38.3545 6.9054 38.9226 6.9054 39.6233C6.9054 40.3241 7.86354 40.8921 9.04548 40.8921Z" stroke="#FF0000" stroke-opacity="0.9" stroke-width="0.5" stroke-miterlimit="10"/>
<path d="M9.15859 40.2341C9.81484 40.2341 10.3468 39.9404 10.3468 39.5781C10.3468 39.2158 9.81484 38.9221 9.15859 38.9221C8.50233 38.9221 7.97034 39.2158 7.97034 39.5781C7.97034 39.9404 8.50233 40.2341 9.15859 40.2341Z" stroke="#FF0000" stroke-opacity="0.9" stroke-width="0.5" stroke-miterlimit="10"/>
<path d="M5.82818 44.3449C5.82818 44.3449 5.78501 43.3681 6.73068 43.2673C7.67634 43.1666 10.9553 42.7717 10.9553 42.7717C10.9553 42.7717 11.8147 43.0041 11.0725 43.6745L5.82818 44.3449Z" stroke="#FF0000" stroke-opacity="0.9" stroke-width="0.5" stroke-miterlimit="10"/>
<path d="M12.8796 40.0635V44.6082C12.8796 44.6082 12.7049 45.3362 11.1836 46.021" stroke="#FF0000" stroke-opacity="0.9" stroke-width="0.5" stroke-miterlimit="10"/>
<path d="M5.42114 39.8989V44.8056" stroke="#FF0000" stroke-opacity="0.9" stroke-width="0.5" stroke-miterlimit="10"/>
<path d="M5.42119 43.4998C5.42119 43.4998 1.97978 42.0151 3.97185 46.6585" stroke="#FF0000" stroke-opacity="0.9" stroke-width="0.5" stroke-miterlimit="10"/>
<path d="M12.8795 44.6062V48.3469C12.8795 48.3469 12.2854 49.5129 10.4742 49.8522" stroke="#FF0000" stroke-opacity="0.9" stroke-width="0.5" stroke-miterlimit="10"/>
<path d="M9.56152 52.1163C18.0437 50.5617 12.8796 46.6565 12.8796 46.6565L55.5949 49.7062" stroke="#FF0000" stroke-opacity="0.9" stroke-width="0.5" stroke-miterlimit="10"/>
<path d="M0.341309 59.9308C0.341309 59.9308 3.5648 59.0177 6.33807 60.1919" stroke="#FF0000" stroke-opacity="0.9" stroke-width="0.5" stroke-miterlimit="10"/>
<path d="M11.9996 23.2831C11.9996 23.2831 14.3309 22.5017 17.7374 24.0995" stroke="#FF0000" stroke-opacity="0.9" stroke-width="0.5" stroke-miterlimit="10"/>
<path d="M160.897 42.2782C160.689 42.0417 159.733 40.8202 159.89 38.5335C160.064 35.9691 161.23 25.1255 161.23 25.1255C161.23 25.1255 164.959 22.9683 166.824 25.1255L168.251 36.1151C168.251 36.1151 168.456 37.7746 167.872 39.465C167.291 41.1575 166.937 41.8505 166.937 41.8505" stroke="#FF0000" stroke-opacity="0.9" stroke-width="0.5" stroke-miterlimit="10"/>
<path d="M161.656 46.677C161.656 46.677 160.753 46.0354 161.919 45.7146L166.464 46.9094C166.464 46.9094 167.28 47.551 166.464 47.697C165.648 47.843 161.656 46.677 161.656 46.677Z" stroke="#FF0000" stroke-opacity="0.9" stroke-width="0.5" stroke-miterlimit="10"/>
<path d="M161.655 46.677C161.655 46.677 159.809 50.9133 160.083 52.3898C160.354 53.8663 161.481 64.9032 161.481 64.9032C161.481 64.9032 162.18 66.6512 167.036 65.37L168.394 53.5558C168.394 53.5558 168.705 51.8469 167.928 50.175C167.151 48.5031 166.462 47.697 166.462 47.697" stroke="#FF0000" stroke-opacity="0.9" stroke-width="0.5" stroke-miterlimit="10"/>
<path d="M164.229 45.5109C166.316 45.5109 168.008 44.5451 168.008 43.3537C168.008 42.1623 166.316 41.1965 164.229 41.1965C162.143 41.1965 160.451 42.1623 160.451 43.3537C160.451 44.5451 162.143 45.5109 164.229 45.5109Z" stroke="#FF0000" stroke-opacity="0.9" stroke-width="0.5" stroke-miterlimit="10"/>
<path d="M164.162 44.3943C165.294 44.3943 166.211 43.7959 166.211 43.0576C166.211 42.3194 165.294 41.7209 164.162 41.7209C163.03 41.7209 162.112 42.3194 162.112 43.0576C162.112 43.7959 163.03 44.3943 164.162 44.3943Z" stroke="#FF0000" stroke-opacity="0.9" stroke-width="0.5" stroke-miterlimit="10"/>
<path d="M164.151 43.5965C164.73 43.5965 165.2 43.3221 165.2 42.9837C165.2 42.6452 164.73 42.3708 164.151 42.3708C163.572 42.3708 163.103 42.6452 163.103 42.9837C163.103 43.3221 163.572 43.5965 164.151 43.5965Z" stroke="#FF0000" stroke-opacity="0.9" stroke-width="0.5" stroke-miterlimit="10"/>
<path d="M168.008 43.3538L168.051 47.7093C168.051 47.7093 167.788 48.2995 167.06 48.5524" stroke="#FF0000" stroke-opacity="0.9" stroke-width="0.5" stroke-miterlimit="10"/>
<path d="M168.051 47.7094C168.051 47.7094 171.928 46.5393 168.316 51.3391" stroke="#FF0000" stroke-opacity="0.9" stroke-width="0.5" stroke-miterlimit="10"/>
<path d="M169.856 48.3467L169.951 54.5653C169.951 54.5653 169.794 55.4928 168.066 56.4285" stroke="#FF0000" stroke-opacity="0.9" stroke-width="0.5" stroke-miterlimit="10"/>
<path d="M97.2042 2.25582L102.506 1.38184L127.622 2.66505C127.622 2.66505 128.498 2.49025 128.555 3.59662C128.613 4.70504 128.555 5.40422 128.555 5.40422C128.555 5.40422 128.498 5.92862 127.622 5.98825C126.748 6.04583 106.178 7.50385 106.178 7.50385C106.178 7.50385 104.256 7.73622 101.4 7.21183C98.5446 6.68744 96.7375 6.307 96.7375 6.307" stroke="#FF0000" stroke-opacity="0.9" stroke-width="0.5" stroke-miterlimit="10"/>
<path d="M96.7376 6.30909C96.7376 6.30909 95.5288 7.24272 95.7611 5.87107C95.7611 5.87107 97.2721 4.36576 96.8096 2.8296C96.6513 2.30316 97.2043 2.25586 97.2043 2.25586C97.2043 2.25586 97.8005 4.89427 96.7376 6.30909Z" stroke="#FF0000" stroke-opacity="0.9" stroke-width="0.5" stroke-miterlimit="10"/>
<path d="M96.7375 2.26013C96.7375 3.47959 95.097 4.46874 93.0741 4.46874C91.0512 4.46874 89.3511 3.47959 89.3511 2.26013C89.3511 1.04066 91.0492 0.0515137 93.0741 0.0515137C95.0991 0.0515137 96.7375 1.04066 96.7375 2.26013Z" stroke="#FF0000" stroke-opacity="0.9" stroke-width="0.5" stroke-miterlimit="10"/>
<path d="M93.1111 3.26775C94.3101 3.26775 95.282 2.70889 95.282 2.0195C95.282 1.3301 94.3101 0.77124 93.1111 0.77124C91.9121 0.77124 90.9402 1.3301 90.9402 2.0195C90.9402 2.70889 91.9121 3.26775 93.1111 3.26775Z" stroke="#FF0000" stroke-opacity="0.9" stroke-width="0.5" stroke-miterlimit="10"/>
<path d="M93.2078 2.52935C93.8913 2.52935 94.4454 2.25498 94.4454 1.91653C94.4454 1.57808 93.8913 1.30371 93.2078 1.30371C92.5243 1.30371 91.9702 1.57808 91.9702 1.91653C91.9702 2.25498 92.5243 2.52935 93.2078 2.52935Z" stroke="#FF0000" stroke-opacity="0.9" stroke-width="0.5" stroke-miterlimit="10"/>
<path d="M89.3511 3.52683C89.3511 4.15815 90.4427 4.77714 90.4427 4.77714C90.4427 4.77714 90.6894 5.97193 89.8609 5.34472C89.0324 4.7175 88.6459 4.20339 88.9379 3.26566C88.9379 3.26566 83.858 2.43075 81.6727 2.40196C79.4874 2.37317 58.4504 2.40196 58.4504 2.40196C58.4504 2.40196 57.6055 2.49861 57.6343 3.26566C57.663 4.03271 57.7514 5.69431 59.2666 5.7231C60.6871 5.74983 78.8789 6.08503 81.1485 6.12616C81.3026 6.12822 81.4548 6.11999 81.609 6.10148C82.7129 5.9637 87.507 5.37145 88.5493 5.37145L89.8609 5.34266" stroke="#FF0000" stroke-opacity="0.9" stroke-width="0.5" stroke-miterlimit="10"/>
<path d="M89.3511 2.26001V3.52677" stroke="#FF0000" stroke-opacity="0.9" stroke-width="0.5" stroke-miterlimit="10"/>
<path d="M88.9379 3.26766C88.9379 3.26766 89.0592 2.92629 89.2771 2.96125" stroke="#FF0000" stroke-opacity="0.9" stroke-width="0.5" stroke-miterlimit="10"/>
<path d="M89.3573 7.88428L89.3635 11.1149C89.3635 11.2466 93.179 14.3703 96.7376 11.1149L96.7314 7.88428" stroke="#FF0000" stroke-opacity="0.9" stroke-width="0.5" stroke-miterlimit="10"/>
<path d="M89.3635 7.06592L89.3573 7.88438C89.3573 8.01599 93.1728 11.1397 96.7314 7.88438L96.7376 7.06592" stroke="#FF0000" stroke-opacity="0.9" stroke-width="0.5" stroke-miterlimit="10"/>
<path d="M89.3635 5.48252C89.4272 5.50102 86.9253 7.58419 87.3364 12.5957C87.3447 12.6944 87.3714 12.7705 87.4146 12.861C87.9737 14.0435 93.8245 17.0623 98.3308 12.75C98.3308 12.75 99.5355 11.3907 96.7376 6.3092V7.06803C93.179 10.0992 89.3635 7.06803 89.3635 7.06803V5.35913" stroke="#FF0000" stroke-opacity="0.9" stroke-width="0.5" stroke-miterlimit="10"/>
<path d="M87.3365 12.5957C87.3365 12.5957 87.2069 10.9814 89.3614 9.5625" stroke="#FF0000" stroke-opacity="0.9" stroke-width="0.5" stroke-miterlimit="10"/>
<path d="M98.5878 11.5923C98.5878 11.5923 98.2815 10.7903 96.7375 9.8916" stroke="#FF0000" stroke-opacity="0.9" stroke-width="0.5" stroke-miterlimit="10"/>
<path d="M9.0332 53.4263C9.0332 53.4263 11.1692 53.2885 12.7049 52.8587C14.2385 52.4289 21.5921 53.817 21.5921 53.817L47.8158 58.3926" stroke="#FF0000" stroke-opacity="0.9" stroke-width="0.5" stroke-miterlimit="10"/>
<path d="M9.46692 52.3508C9.46692 52.3508 11.1712 52.248 12.7048 51.8182C14.2384 51.3884 21.592 52.7765 21.592 52.7765L47.4067 57.2821" stroke="#FF0000" stroke-opacity="0.9" stroke-width="0.5" stroke-miterlimit="10"/>
<path d="M92.9384 28.0416C92.9384 28.0416 90.2494 19.2585 89.8013 17.6463C89.5299 16.6695 89.1311 16.0279 88.8597 15.6721C88.724 15.4952 88.5616 15.3451 88.3931 15.1991C86.3023 13.3936 87.4001 9.8894 87.4001 9.8894" stroke="#FF0000" stroke-opacity="0.9" stroke-width="0.5" stroke-miterlimit="10"/>
<path d="M98.5015 10.7407C98.5015 10.7407 99.4224 13.8048 97.9772 14.5904C97.2351 14.9934 98.2157 16.4987 98.2157 16.4987L102.644 25.3003" stroke="#FF0000" stroke-opacity="0.9" stroke-width="0.5" stroke-miterlimit="10"/>
<path d="M103.633 92.8831L107.596 91.8343C107.596 91.8343 108.53 91.4847 111.56 91.2133C114.59 90.9418 133.705 89.1157 133.705 89.1157C133.705 89.1157 136.268 91.7582 133.705 92.2641C131.141 92.77 114.59 94.7503 114.59 94.7503C114.59 94.7503 112.608 94.9827 110.316 94.9437C108.024 94.9046 103.635 94.9478 103.635 94.9478C103.635 94.9478 105.022 93.389 103.633 92.8831Z" stroke="#FF0000" stroke-opacity="0.9" stroke-width="0.5" stroke-miterlimit="10"/>
<path d="M99.9384 94.4911C101.98 94.4911 103.635 93.4995 103.635 92.2763C103.635 91.0531 101.98 90.0615 99.9384 90.0615C97.897 90.0615 96.2421 91.0531 96.2421 92.2763C96.2421 93.4995 97.897 94.4911 99.9384 94.4911Z" stroke="#FF0000" stroke-opacity="0.9" stroke-width="0.5" stroke-miterlimit="10"/>
<path d="M99.8542 93.4711C101.101 93.4711 102.111 92.8644 102.111 92.1159C102.111 91.3675 101.101 90.7607 99.8542 90.7607C98.6075 90.7607 97.5969 91.3675 97.5969 92.1159C97.5969 92.8644 98.6075 93.4711 99.8542 93.4711Z" stroke="#FF0000" stroke-opacity="0.9" stroke-width="0.5" stroke-miterlimit="10"/>
<path d="M99.8192 92.5231C100.435 92.5231 100.933 92.2625 100.933 91.9411C100.933 91.6197 100.435 91.3591 99.8192 91.3591C99.2038 91.3591 98.705 91.6197 98.705 91.9411C98.705 92.2625 99.2038 92.5231 99.8192 92.5231Z" stroke="#FF0000" stroke-opacity="0.9" stroke-width="0.5" stroke-miterlimit="10"/>
<path d="M95.5431 92.8831C95.5431 92.8831 95.9214 91.8734 96.0961 92.8831C96.2709 93.8928 96.3593 95.0012 97.2905 95.6428C98.2239 96.2844 97.4653 96.9548 96.9411 96.5168C96.4168 96.0788 95.28 95.0506 95.5431 92.8831Z" stroke="#FF0000" stroke-opacity="0.9" stroke-width="0.5" stroke-miterlimit="10"/>
<path d="M95.5432 92.8831L88.9297 92.5232C88.9297 92.5232 86.8019 92.4348 83.0439 93.2224C79.286 94.01 66.9902 95.8752 66.3776 95.9328C65.765 95.9904 63.5221 96.0788 65.765 99.2272L88.5206 98.7892C88.5206 98.7892 88.4918 99.11 91.9003 98.1188C95.3088 97.1276 96.9411 96.5148 96.9411 96.5148" stroke="#FF0000" stroke-opacity="0.9" stroke-width="0.5" stroke-miterlimit="10"/>
<path d="M103.633 92.8831C103.633 92.8831 103.672 93.9812 102.958 94.592C102.245 95.2048 103.143 95.7127 103.633 94.9457V96.6546C103.633 96.6546 103.119 98.9043 99.9364 98.9043C96.6163 98.9043 96.2401 96.7615 96.2401 96.7615V100.874" stroke="#FF0000" stroke-opacity="0.9" stroke-width="0.5" stroke-miterlimit="10"/>
<path d="M105.565 102.112C105.565 103.618 102.849 105.725 99.7514 105.725C96.6533 105.725 94.1432 104.506 94.1432 103.001C94.1432 101.495 96.6554 100.276 99.7514 100.276C102.847 100.276 105.565 100.607 105.565 102.112Z" stroke="#FF0000" stroke-opacity="0.9" stroke-width="0.5" stroke-miterlimit="10"/>
<path d="M94.1431 103.001C94.1431 103.001 93.512 101.703 94.6776 99.8851C94.9572 99.4471 94.9696 98.8877 94.7105 98.4353L94.1431 97.4441" stroke="#FF0000" stroke-opacity="0.9" stroke-width="0.5" stroke-miterlimit="10"/>
<path d="M103.633 96.6565V100.586C103.633 100.586 105.08 100.691 105.487 100.878" stroke="#FF0000" stroke-opacity="0.9" stroke-width="0.5" stroke-miterlimit="10"/>
<path d="M96.2421 100.876C96.2421 100.876 94.5132 101.16 93.9746 101.899" stroke="#FF0000" stroke-opacity="0.9" stroke-width="0.5" stroke-miterlimit="10"/>
<path d="M105.565 102.112C105.565 102.112 106.081 100.286 103.633 98.5566" stroke="#FF0000" stroke-opacity="0.9" stroke-width="0.5" stroke-miterlimit="10"/>
<path d="M101.873 90.3885L96.9411 67.7389C96.9411 67.7389 96.6019 66.4084 97.379 65.8737L120.202 52.8894C120.202 52.8894 120.655 52.583 121.058 52.583H121.979C122.232 52.583 122.486 52.5953 122.737 52.6221L159.071 56.4265L160.619 56.7843" stroke="#FF0000" stroke-opacity="0.9" stroke-width="0.5" stroke-miterlimit="10"/>
<path d="M94.8976 97.2078C94.8976 97.2078 95.4156 98.0345 94.8976 99.2272" stroke="#FF0000" stroke-opacity="0.9" stroke-width="0.5" stroke-miterlimit="10"/>
<path d="M92.5972 92.7226L82.8856 74.3072C82.8856 74.3072 81.9523 73.4517 81.2142 73.9576" stroke="#FF0000" stroke-opacity="0.9" stroke-width="0.5" stroke-miterlimit="10"/>
<path d="M48.2043 61.5388L47.4066 54.5079L57.3813 48.7067C57.3813 48.7067 59.4042 47.7689 60.5884 47.5222L85.3073 33.3574C85.3073 33.3574 85.8007 32.321 86.5901 31.7287C87.3795 31.1365 96.0139 26.3491 96.0139 26.3491L100.171 25.1152L92.4615 31.4326L85.3566 35.9732L74.6994 42.1919L63.4501 48.1638L48.3523 55.3695L48.2043 61.5388Z" stroke="#FF0000" stroke-opacity="0.9" stroke-width="0.5" stroke-miterlimit="10"/>
<path d="M100.171 25.1152L105.29 25.6458L123.681 36.3434L124.051 38.8975C124.051 38.8975 90.4879 37.898 71.2456 68.8433L76.2042 71.1383L85.6033 65.8738C85.6033 65.8738 86.2879 61.9337 86.9067 61.5388C87.5275 61.144 110.248 48.1267 110.248 48.1267L114.911 48.4846L124.651 43.0803L124.045 38.9221" stroke="#FF0000" stroke-opacity="0.9" stroke-width="0.5" stroke-miterlimit="10"/>
<path d="M48.2043 61.5388L48.6977 62.0324L65.5717 72.002L76.377 72.5449L79.1399 71.1383V72.5449L85.9487 68.4978L86.9067 65.8738V70.8051L77.4624 76.0984L73.3549 78.5784C73.3549 78.5784 69.8025 80.6513 66.1021 78.5784C62.4017 76.5055 47.933 68.0289 47.933 68.0289C47.933 68.0289 45.7127 65.919 48.599 63.9942L50.1656 62.9392" stroke="#FF0000" stroke-opacity="0.9" stroke-width="0.5" stroke-miterlimit="10"/>
<path d="M86.9067 61.5388V65.8738" stroke="#FF0000" stroke-opacity="0.9" stroke-width="0.5" stroke-miterlimit="10"/>
<path d="M85.6034 65.8738L85.9487 68.4978" stroke="#FF0000" stroke-opacity="0.9" stroke-width="0.5" stroke-miterlimit="10"/>
<path d="M76.2043 71.1384L76.377 72.545" stroke="#FF0000" stroke-opacity="0.9" stroke-width="0.5" stroke-miterlimit="10"/>
<path d="M77.2034 72.1252L77.4625 76.1003C77.1294 76.0633 69.8745 72.2198 69.8745 72.2198" stroke="#FF0000" stroke-opacity="0.9" stroke-width="0.5" stroke-miterlimit="10"/>
<path d="M86.9067 70.805L110.52 57.1956L121.058 51.2216L122.408 51.1928L159.006 55.0692L160.469 55.4147C156.347 53.0991 160.323 50.4258 160.323 50.4258" stroke="#FF0000" stroke-opacity="0.9" stroke-width="0.5" stroke-miterlimit="10"/>
<path d="M124.651 43.0803V44.7913L157.953 50.2162C158.167 50.2532 158.385 50.2717 158.603 50.2717H160.408" stroke="#FF0000" stroke-opacity="0.9" stroke-width="0.5" stroke-miterlimit="10"/>
<path d="M110.248 48.1268V52.0135L114.96 51.668L124.651 46.239V44.7913" stroke="#FF0000" stroke-opacity="0.9" stroke-width="0.5" stroke-miterlimit="10"/>
<path d="M114.911 48.4846L114.96 51.668" stroke="#FF0000" stroke-opacity="0.9" stroke-width="0.5" stroke-miterlimit="10"/>
<path d="M110.248 52.0134V57.352" stroke="#FF0000" stroke-opacity="0.9" stroke-width="0.5" stroke-miterlimit="10"/>
<path d="M86.9067 69.5837C86.9067 69.5837 90.5928 66.4867 90.9094 68.4979" stroke="#FF0000" stroke-opacity="0.9" stroke-width="0.5" stroke-miterlimit="10"/>
<path d="M93.6128 59.4003L90.9115 65.804C90.9115 65.804 91.1705 66.8034 91.6146 65.804C92.0586 64.8046 94.2789 59.6121 94.2789 59.6121C94.2789 59.6121 94.3899 58.9191 93.6128 59.4003Z" stroke="#FF0000" stroke-opacity="0.9" stroke-width="0.5" stroke-miterlimit="10"/>
<path d="M91.925 60.1898L89.2236 66.5935C89.2236 66.5935 89.4827 67.593 89.9267 66.5935C90.3708 65.5941 92.591 60.4016 92.591 60.4016C92.591 60.4016 92.702 59.7086 91.925 60.1898Z" stroke="#FF0000" stroke-opacity="0.9" stroke-width="0.5" stroke-miterlimit="10"/>
<path d="M95.2985 58.5138L92.5972 64.9175C92.5972 64.9175 92.8562 65.917 93.3003 64.9175C93.7443 63.9181 95.9646 58.7256 95.9646 58.7256C95.9646 58.7256 96.0756 58.0326 95.2985 58.5138Z" stroke="#FF0000" stroke-opacity="0.9" stroke-width="0.5" stroke-miterlimit="10"/>
<path d="M96.9862 57.5226L94.2849 63.9263C94.2849 63.9263 94.5439 64.9258 94.988 63.9263C95.4321 62.9269 97.6523 57.7344 97.6523 57.7344C97.6523 57.7344 97.7633 57.0414 96.9862 57.5226Z" stroke="#FF0000" stroke-opacity="0.9" stroke-width="0.5" stroke-miterlimit="10"/>
<path d="M98.6721 56.3937L95.9708 62.7974C95.9708 62.7974 96.2299 63.7968 96.6739 62.7974C97.118 61.798 99.3382 56.6055 99.3382 56.6055C99.3382 56.6055 99.4492 55.9125 98.6721 56.3937Z" stroke="#FF0000" stroke-opacity="0.9" stroke-width="0.5" stroke-miterlimit="10"/>
<path d="M100.36 55.5216L97.6586 61.9253C97.6586 61.9253 97.9176 62.9248 98.3617 61.9253C98.8057 60.9259 101.026 55.7334 101.026 55.7334C101.026 55.7334 101.137 55.0404 100.36 55.5216Z" stroke="#FF0000" stroke-opacity="0.9" stroke-width="0.5" stroke-miterlimit="10"/>
<path d="M102.218 54.4029L99.517 60.8067C99.517 60.8067 99.776 61.8061 100.22 60.8067C100.664 59.8073 102.884 54.6148 102.884 54.6148C102.884 54.6148 102.995 53.9217 102.218 54.4029Z" stroke="#FF0000" stroke-opacity="0.9" stroke-width="0.5" stroke-miterlimit="10"/>
<path d="M103.733 53.6217L101.032 60.0254C101.032 60.0254 101.291 61.0249 101.735 60.0254C102.179 59.026 104.4 53.8335 104.4 53.8335C104.4 53.8335 104.511 53.1405 103.733 53.6217Z" stroke="#FF0000" stroke-opacity="0.9" stroke-width="0.5" stroke-miterlimit="10"/>
<path d="M105.419 52.5707L102.718 58.9744C102.718 58.9744 102.977 59.9738 103.421 58.9744C103.865 57.975 106.085 52.7825 106.085 52.7825C106.085 52.7825 106.196 52.0895 105.419 52.5707Z" stroke="#FF0000" stroke-opacity="0.9" stroke-width="0.5" stroke-miterlimit="10"/>
<path d="M107.107 51.8387L104.406 58.2425C104.406 58.2425 104.665 59.2419 105.109 58.2425C105.553 57.2431 107.773 52.0506 107.773 52.0506C107.773 52.0506 107.884 51.3575 107.107 51.8387Z" stroke="#FF0000" stroke-opacity="0.9" stroke-width="0.5" stroke-miterlimit="10"/>
<path d="M121.718 51.2094C121.718 51.2094 121.226 48.7561 124.433 49.1016V46.3604" stroke="#FF0000" stroke-opacity="0.9" stroke-width="0.5" stroke-miterlimit="10"/>
<path d="M48.2619 64.239C48.2619 64.239 45.0837 66.1803 47.748 68.9565L51.5224 71.3995L67.2123 80.0242C67.2123 80.0242 70.1356 81.6529 73.318 79.8761C76.5004 78.0994 81.2164 75.1628 81.2164 75.1628C82.0325 74.7351 82.6534 75.4733 82.6534 75.4733L91.666 92.7227" stroke="#FF0000" stroke-opacity="0.9" stroke-width="0.5" stroke-miterlimit="10"/>
<path d="M48.266 58.9724L64.8275 68.7014V66.9185L71.2457 66.8691V68.8433V70.8052H64.8275V69.5096H66.0651V68.029H67.6193V69.5096H68.5074V68.029H70.2096V69.5096H71.2457" stroke="#FF0000" stroke-opacity="0.9" stroke-width="0.5" stroke-miterlimit="10"/>
<path d="M64.8275 69.707V68.7014" stroke="#FF0000" stroke-opacity="0.9" stroke-width="0.5" stroke-miterlimit="10"/>
<path d="M113.875 56.2249L126.308 88.6097H128.306L128.744 87.4252L116.181 55.1782" stroke="#FF0000" stroke-opacity="0.9" stroke-width="0.5" stroke-miterlimit="10"/>
<path d="M126.308 88.6099L124.03 90.035" stroke="#FF0000" stroke-opacity="0.9" stroke-width="0.5" stroke-miterlimit="10"/>
<path d="M112.617 94.9004L107.658 97.8637C107.658 97.8637 106.4 99.1778 106.474 100.222L105.419 100.677" stroke="#FF0000" stroke-opacity="0.9" stroke-width="0.5" stroke-miterlimit="10"/>
<path d="M97.1919 105.425L94.4351 106.97C94.4351 106.97 92.7453 106.562 91.2651 106.97L85.6034 110.449C85.6034 110.449 83.0131 116.076 88.9338 114.743L94.4351 111.609C94.4351 111.609 95.4959 111.189 95.4712 109.314L107.658 102.528C107.658 102.528 108.867 103.268 110.766 102.256C112.666 101.245 121.424 95.9883 121.424 95.9883C121.424 95.9883 122.229 95.4248 122.283 93.8064" stroke="#FF0000" stroke-opacity="0.9" stroke-width="0.5" stroke-miterlimit="10"/>
<path d="M130.35 89.4344L134.696 86.835C134.696 86.835 136.546 87.2052 137.853 86.4155C139.161 85.6259 143.108 83.3556 143.108 83.3556C143.108 83.3556 146.044 78.6916 140 78.8396L134.842 82.2451C134.842 82.2451 133.265 83.4296 133.635 84.392L128.744 87.4273" stroke="#FF0000" stroke-opacity="0.9" stroke-width="0.5" stroke-miterlimit="10"/>
<path d="M135.169 82.0271C135.169 82.0271 138.026 83.2548 137.853 86.4135" stroke="#FF0000" stroke-opacity="0.9" stroke-width="0.5" stroke-miterlimit="10"/>
<path d="M139.424 79.2181C139.424 79.2181 142.876 79.1461 142.648 83.6188" stroke="#FF0000" stroke-opacity="0.9" stroke-width="0.5" stroke-miterlimit="10"/>
<path d="M133.635 84.3899C133.635 84.3899 135.286 84.7601 134.842 86.8576" stroke="#FF0000" stroke-opacity="0.9" stroke-width="0.5" stroke-miterlimit="10"/>
<path d="M121.308 93.9277C121.308 93.9277 121.67 95.1739 121.424 95.9883" stroke="#FF0000" stroke-opacity="0.9" stroke-width="0.5" stroke-miterlimit="10"/>
<path d="M107.783 97.7898C107.783 97.7898 111.558 97.9276 110.559 102.363" stroke="#FF0000" stroke-opacity="0.9" stroke-width="0.5" stroke-miterlimit="10"/>
<path d="M106.474 100.225C106.474 100.225 107.855 100.506 107.658 102.53" stroke="#FF0000" stroke-opacity="0.9" stroke-width="0.5" stroke-miterlimit="10"/>
<path d="M86.0659 110.165C86.0659 110.165 89.8629 110.373 89.2133 114.585" stroke="#FF0000" stroke-opacity="0.9" stroke-width="0.5" stroke-miterlimit="10"/>
<path d="M91.265 106.97C91.265 106.97 95.2533 107.996 94.5543 111.545" stroke="#FF0000" stroke-opacity="0.9" stroke-width="0.5" stroke-miterlimit="10"/>
<path d="M53.3767 72.4175L51.2633 75.3088L45.4413 78.8377C45.4413 78.8377 43.4924 78.1467 42.3823 78.8377C41.2721 79.5286 37.1523 81.7249 37.1523 81.7249C37.1523 81.7249 33.2298 87.2526 39.6686 86.5863L45.7867 82.9094C45.7867 82.9094 46.5185 82.1773 46.5514 81.1327C46.5535 81.0771 46.5535 81.0196 46.5514 80.9599L53.0395 77.1596L54.2237 76.6167" stroke="#FF0000" stroke-opacity="0.9" stroke-width="0.5" stroke-miterlimit="10"/>
<path d="M94.4351 106.97C94.4351 106.97 95.5144 107.864 95.4712 109.314" stroke="#FF0000" stroke-opacity="0.9" stroke-width="0.5" stroke-miterlimit="10"/>
<path d="M51.2634 75.3088C51.2634 75.3088 51.5225 76.9992 53.0396 77.1596" stroke="#FF0000" stroke-opacity="0.9" stroke-width="0.5" stroke-miterlimit="10"/>
<path d="M45.4413 78.8376C45.4413 78.8376 46.5267 79.7507 46.5514 80.9599" stroke="#FF0000" stroke-opacity="0.9" stroke-width="0.5" stroke-miterlimit="10"/>
<path d="M42.7441 78.6689C42.7441 78.6689 46.311 79.7732 45.6038 83.0203" stroke="#FF0000" stroke-opacity="0.9" stroke-width="0.5" stroke-miterlimit="10"/>
<path d="M37.1523 81.7249C37.1523 81.7249 41.2475 82.3418 39.6686 86.5863" stroke="#FF0000" stroke-opacity="0.9" stroke-width="0.5" stroke-miterlimit="10"/>
<path d="M80.2666 75.7489C80.4022 76.1643 80.4742 76.5921 80.4742 77.0301C80.4742 81.0072 74.5802 84.2317 67.3089 84.2317C60.0375 84.2317 54.1436 81.0072 54.1436 77.0301C54.1436 75.8682 54.6472 74.7701 55.5415 73.7974" stroke="#FF0000" stroke-opacity="0.9" stroke-width="0.5" stroke-miterlimit="10"/>
<path d="M79.6375 76.2567C79.7012 76.524 79.732 76.7975 79.732 77.0731C79.732 80.6924 74.1917 83.6269 67.3582 83.6269C60.5247 83.6269 54.9844 80.6924 54.9844 77.0731C54.9844 76.0078 55.4654 75.0002 56.3165 74.1118" stroke="#FF0000" stroke-opacity="0.9" stroke-width="0.5" stroke-miterlimit="10"/>
<path d="M64.5893 89.2355C65.5712 88.9969 66.1275 87.8166 65.8319 86.5993C65.5362 85.3821 64.5005 84.5888 63.5186 84.8274C62.5367 85.0661 61.9804 86.2463 62.2761 87.4636C62.5718 88.6809 63.6074 89.4742 64.5893 89.2355Z" stroke="#FF0000" stroke-opacity="0.9" stroke-width="0.5" stroke-miterlimit="10"/>
<path d="M64.6825 89.6192C65.8266 89.3411 66.4727 87.9572 66.1255 86.528C65.7784 85.0988 64.5695 84.1657 63.4254 84.4438C62.2813 84.7218 61.6353 86.1058 61.9824 87.535C62.3296 88.9641 63.5385 89.8973 64.6825 89.6192Z" stroke="#FF0000" stroke-opacity="0.9" stroke-width="0.5" stroke-miterlimit="10"/>
<path d="M57.2067 81.7249L57.0176 86.6418L67.8599 92.5211V86.4259" stroke="#FF0000" stroke-opacity="0.9" stroke-width="0.5" stroke-miterlimit="10"/>
<path d="M67.8228 92.521L67.5144 92.7225L56.777 86.8185C56.5549 86.7301 56.485 86.4977 56.557 86.3784C56.6187 86.2756 56.8078 86.2262 56.9805 86.3147" stroke="#FF0000" stroke-opacity="0.9" stroke-width="0.5" stroke-miterlimit="10"/>
<path d="M67.8228 92.521V95.3055L56.5303 88.6734V86.5039" stroke="#FF0000" stroke-opacity="0.9" stroke-width="0.5" stroke-miterlimit="10"/>
<path d="M76.3303 90.3739C77.1277 88.7664 76.8062 86.9828 75.6121 86.3901C74.4181 85.7974 72.8037 86.6201 72.0063 88.2276C71.2089 89.8351 71.5305 91.6186 72.7245 92.2113C73.9186 92.804 75.5329 91.9813 76.3303 90.3739Z" stroke="#FF0000" stroke-opacity="0.9" stroke-width="0.5" stroke-miterlimit="10"/>
<path d="M74.0663 86.323L76.9609 84.2995L78.4081 83.043C78.7679 82.2719 77.9127 81.3506 77.9127 81.3506" stroke="#FF0000" stroke-opacity="0.9" stroke-width="0.5" stroke-miterlimit="10"/>
<path d="M67.8228 95.3054L73.986 92.4285C73.47 92.7287 72.9067 92.8336 72.3702 92.6814C71.0504 92.3071 70.4048 90.516 70.9249 88.6816C71.184 87.7686 71.6835 87.018 72.2818 86.5409L76.3687 83.8202L77.8201 82.6604C78.0257 81.7576 77.4973 81.5869 77.4973 81.5869" stroke="#FF0000" stroke-opacity="0.9" stroke-width="0.5" stroke-miterlimit="10"/>
<path d="M74.0512 88.0474C74.1996 87.7483 74.1401 87.4166 73.9184 87.3065C73.6967 87.1964 73.3966 87.3497 73.2483 87.6488C73.0999 87.9479 73.1594 88.2796 73.3811 88.3897C73.6028 88.4998 73.9028 88.3465 74.0512 88.0474Z" stroke="#FF0000" stroke-opacity="0.9" stroke-width="0.5" stroke-miterlimit="10"/>
<path d="M75.2524 91.24C75.4007 90.9409 75.3413 90.6092 75.1196 90.4991C74.8978 90.3891 74.5978 90.5424 74.4494 90.8415C74.3011 91.1406 74.3605 91.4723 74.5822 91.5823C74.804 91.6924 75.104 91.5391 75.2524 91.24Z" stroke="#FF0000" stroke-opacity="0.9" stroke-width="0.5" stroke-miterlimit="10"/>
<path d="M73.2105 90.5198C73.3589 90.2207 73.2994 89.889 73.0777 89.7789C72.856 89.6689 72.5559 89.8221 72.4076 90.1212C72.2592 90.4204 72.3187 90.7521 72.5404 90.8621C72.7621 90.9722 73.0621 90.8189 73.2105 90.5198Z" stroke="#FF0000" stroke-opacity="0.9" stroke-width="0.5" stroke-miterlimit="10"/>
<path d="M76.199 88.6387C76.3474 88.3396 76.2879 88.0079 76.0662 87.8978C75.8445 87.7878 75.5445 87.941 75.3961 88.2401C75.2477 88.5393 75.3072 88.871 75.5289 88.981C75.7506 89.0911 76.0506 88.9378 76.199 88.6387Z" stroke="#FF0000" stroke-opacity="0.9" stroke-width="0.5" stroke-miterlimit="10"/>
<path d="M71.4451 83.8677C70.8017 84.2831 70.2034 84.8486 69.708 85.5478C68.4807 87.2731 68.2237 89.3255 68.9 90.7896L71.8604 92.5191" stroke="#FF0000" stroke-opacity="0.9" stroke-width="0.5" stroke-miterlimit="10"/>
<path d="M69.9896 84.0815C69.3461 84.4969 68.7479 85.0625 68.2524 85.7617C68.0592 86.0331 68.0057 86.175 67.8618 86.4608" stroke="#FF0000" stroke-opacity="0.9" stroke-width="0.5" stroke-miterlimit="10"/>
<path d="M60.5618 2.5293V5.74967" stroke="#FF0000" stroke-opacity="0.9" stroke-width="0.5" stroke-miterlimit="10"/>
<path d="M124.651 2.5293V6.13012" stroke="#FF0000" stroke-opacity="0.9" stroke-width="0.5" stroke-miterlimit="10"/>
<path d="M67.6172 95.9883L68.5341 99.2271" stroke="#FF0000" stroke-opacity="0.9" stroke-width="0.5" stroke-miterlimit="10"/>
<path d="M130.705 89.4961L131.649 92.7226" stroke="#FF0000" stroke-opacity="0.9" stroke-width="0.5" stroke-miterlimit="10"/>
<path d="M161.32 26.7131C161.896 26.4766 162.856 26.1619 164.079 26.1475C165.401 26.1311 166.437 26.4704 167.027 26.7131" stroke="#FF0000" stroke-opacity="0.9" stroke-width="0.5" stroke-miterlimit="10"/>
<path d="M161.374 63.8771C161.999 63.6776 162.986 63.4431 164.205 63.4925C165.523 63.546 166.55 63.9058 167.171 64.1773" stroke="#FF0000" stroke-opacity="0.9" stroke-width="0.5" stroke-miterlimit="10"/>
</g>
<defs>
<clipPath id="clip0">
<rect width="170" height="115" fill="white"/>
</clipPath>
</defs>
</svg>
