<svg width="166" height="109" viewBox="0 0 166 109" fill="none" xmlns="http://www.w3.org/2000/svg">
<g clip-path="url(#clip0)">
<path d="M125.539 1.92173C125.539 1.92173 125.438 1.91468 125.426 2.01806C125.415 2.11909 125.514 2.13084 125.514 2.13084C125.514 2.13084 125.612 2.14258 125.627 2.03921C125.638 1.93348 125.539 1.92173 125.539 1.92173Z" stroke="white" stroke-width="0.4946" stroke-miterlimit="10" stroke-linecap="round" stroke-linejoin="round"/>
<path d="M122.705 2.8924C122.705 2.8924 122.575 2.88535 122.557 3.01692C122.54 3.14849 122.67 3.16259 122.67 3.16259C122.67 3.16259 122.799 3.17904 122.816 3.04512C122.834 2.90885 122.705 2.8924 122.705 2.8924Z" stroke="white" stroke-width="0.4911" stroke-miterlimit="10" stroke-linecap="round" stroke-linejoin="round"/>
<path d="M162.035 23.4574C162.035 23.4574 161.934 23.4503 161.922 23.5537C161.91 23.6547 162.009 23.6665 162.009 23.6665C162.009 23.6665 162.108 23.6782 162.122 23.5749C162.134 23.4715 162.035 23.4574 162.035 23.4574Z" stroke="white" stroke-width="0.4933" stroke-miterlimit="10" stroke-linecap="round" stroke-linejoin="round"/>
<path d="M159.864 36.7319C159.864 36.7319 159.608 36.7484 159.608 37.0068C159.608 37.2653 159.864 37.2629 159.864 37.2629C159.864 37.2629 160.121 37.2629 160.121 36.9974C160.121 36.7319 159.864 36.7319 159.864 36.7319Z" stroke="white" stroke-width="0.9866" stroke-miterlimit="10" stroke-linecap="round" stroke-linejoin="round"/>
<path d="M155.692 39.3118C155.692 39.3118 155.358 39.3329 155.358 39.6712C155.358 40.0096 155.692 40.0049 155.692 40.0049C155.692 40.0049 156.027 40.0049 156.027 39.6595C156.027 39.3141 155.692 39.3118 155.692 39.3118Z" stroke="white" stroke-width="0.9866" stroke-miterlimit="10" stroke-linecap="round" stroke-linejoin="round"/>
<path d="M98.8523 62.5694L103.994 60.0437" stroke="white" stroke-width="0.9797" stroke-miterlimit="10"/>
<path d="M61.7773 91.0733C61.6455 90.8031 61.4477 90.5987 61.1864 90.4883C61.1275 90.4624 61.0663 90.4436 61.0027 90.4319" stroke="white" stroke-width="0.9797" stroke-miterlimit="10" stroke-linecap="round" stroke-linejoin="round"/>
<path d="M59.0769 94.1018C58.8108 93.9326 58.7331 93.5779 58.9073 93.3147C59.0792 93.0516 59.4347 92.9787 59.7008 93.1479C59.7196 93.1597 59.7384 93.1738 59.7549 93.1879" stroke="white" stroke-width="0.9797" stroke-miterlimit="10" stroke-linecap="round" stroke-linejoin="round"/>
<path d="M59.7573 92.2388C59.3829 92.509 59.0486 92.9013 58.8932 93.3336C58.5683 94.2382 58.6107 95.1028 59.051 95.4364" stroke="white" stroke-width="0.9797" stroke-miterlimit="10" stroke-linecap="round" stroke-linejoin="round"/>
<path d="M59.0768 94.1018L59.4559 94.3086" stroke="white" stroke-width="0.9797" stroke-miterlimit="10" stroke-linecap="round" stroke-linejoin="round"/>
<path d="M58.2034 97.027C57.8267 97.0011 56.9744 96.7098 56.6518 96.5077C55.3004 95.6643 55.1309 93.5168 56.2774 91.7124C56.4187 91.4892 56.5718 91.2848 56.7413 91.0945" stroke="white" stroke-width="0.9797" stroke-miterlimit="10" stroke-linecap="round" stroke-linejoin="round"/>
<path d="M61.0051 92.1378L63.2371 89.067L61.1205 87.1475" stroke="white" stroke-width="0.9797" stroke-miterlimit="10" stroke-linecap="round" stroke-linejoin="round"/>
<path d="M62.5614 91.8205L64.4402 89.1045L61.8857 86.7832" stroke="white" stroke-width="0.9797" stroke-miterlimit="10" stroke-linecap="round" stroke-linejoin="round"/>
<path d="M55.2509 90.6127L57.8078 91.4421C57.8078 91.4421 58.6601 91.7029 58.354 90.9675L58.1186 86.823L56.0326 86.6421C56.2092 86.6797 56.3598 86.7055 56.4729 86.7243C57.2851 86.8606 58.0503 90.2274 58.3564 90.9652" stroke="white" stroke-width="0.9797" stroke-miterlimit="10"/>
<path d="M53.0143 85.9892C53.0096 85.9868 53.0072 85.9868 53.0072 85.9868V88.3081" stroke="white" stroke-width="0.9797" stroke-miterlimit="10"/>
<path d="M54.9849 91.4798C55.4369 91.1814 55.3357 90.2416 54.7565 89.3817C54.1773 88.5218 53.3439 88.066 52.8895 88.362L51.5757 89.7271L51.4886 89.8022C51.5145 89.774 51.5451 89.7482 51.5757 89.7271C51.9783 89.4616 52.7199 89.868 53.2332 90.6316C53.7465 91.3952 53.8383 92.2316 53.4357 92.4971" stroke="white" stroke-width="0.9797" stroke-miterlimit="10" stroke-linecap="round" stroke-linejoin="round"/>
<path d="M49.3037 82.6387C49.5368 80.8413 48.5244 79.9297 48.5244 79.9297" stroke="white" stroke-width="0.9797" stroke-miterlimit="10" stroke-linecap="round" stroke-linejoin="round"/>
<path d="M47.9946 79.4129C47.9946 79.4129 47.4837 78.7762 46.502 78.741" stroke="white" stroke-width="0.9797" stroke-miterlimit="10" stroke-linecap="round" stroke-linejoin="round"/>
<path d="M48.588 84.1071C48.8823 83.8722 49.1201 83.3318 49.1201 83.3318" stroke="white" stroke-width="0.9797" stroke-miterlimit="10" stroke-linecap="round" stroke-linejoin="round"/>
<path d="M93.1616 68.5747C93.1616 68.5747 91.2804 68.7603 89.5759 69.0423C87.8689 69.3242 82.3549 72.402 80.9987 73.1163C79.8663 73.7154 75.254 76.9366 73.7778 77.9727C73.5541 78.1301 73.3351 78.2922 73.1256 78.4684C71.7294 79.6479 67.3408 82.1618 67.3408 82.1618" stroke="white" stroke-width="0.9797" stroke-miterlimit="10"/>
<path d="M97.3361 70.0783C97.2442 69.707 97.0488 69.1902 96.7216 68.6028C96.7216 68.6028 96.7239 68.6051 96.7216 68.6028C96.6886 68.5417 96.6509 68.4736 96.6133 68.4101C96.6085 68.4007 96.6015 68.3913 96.5968 68.3819C95.9093 67.2119 94.9699 67.4234 94.9699 67.4234C94.127 68.0436 93.4866 68.4595 93.1617 68.5746L95.3795 69.6742L96.7145 70.3391L97.3667 70.6633C97.4161 70.5834 97.409 70.379 97.3361 70.0783Z" stroke="white" stroke-width="0.9797" stroke-miterlimit="10" stroke-linecap="round" stroke-linejoin="round"/>
<path d="M96.7215 68.6006C96.7215 68.6006 95.5702 69.6344 95.3795 69.6743L96.7145 70.3392C96.924 70.2593 97.1383 70.1653 97.336 70.0784C97.2442 69.7072 97.0488 69.1903 96.7215 68.6006Z" stroke="white" stroke-width="0.9797" stroke-miterlimit="10" stroke-linecap="round" stroke-linejoin="round"/>
<path d="M87.1014 53.9631L74.0179 61.0469C74.0179 61.0469 68.8806 63.6477 66.3308 64.7074C63.7786 65.7693 60.4095 67.0475 58.7896 67.9473C57.1698 68.8472 54.3704 70.3626 52.8824 72.1388C51.3944 73.915 49.864 75.9356 49.4355 77.6249" stroke="white" stroke-width="0.9797" stroke-miterlimit="10"/>
<path d="M85.4062 52.9458L74.9691 58.3731C74.9691 58.3731 70.1779 61.2325 63.2865 63.9297C56.3952 66.6269 52.5504 68.779 50.98 71.1285C49.4379 73.4357 48.8469 75.6419 48.8469 77.3147" stroke="white" stroke-width="0.9797" stroke-miterlimit="10"/>
<path d="M0.960626 39.563C0.960626 39.563 0.202506 39.9835 0.120102 40.2561C0.0753681 40.4018 0.32729 40.8529 0.623945 40.6673C1.04068 40.4065 1.05009 40.2819 1.05009 40.2819" stroke="white" stroke-width="0.9804" stroke-miterlimit="10" stroke-linecap="round" stroke-linejoin="round"/>
<path d="M26.4306 26.9135C26.4306 26.9135 26.4282 26.9135 26.4259 26.9111C26.3623 26.8689 25.5689 26.3849 23.1179 26.9135C20.5563 27.4656 9.79434 31.2178 7.35518 32.7332C4.93484 34.2369 2.67225 35.9802 1.22665 38.8419C1.22665 38.8419 0.543868 40.1529 1.36556 40.5946" stroke="white" stroke-width="0.9797" stroke-miterlimit="10"/>
<path d="M127.642 0.678955C127.642 0.98204 122.128 4.21024 121.45 4.55797C120.772 4.90569 120.355 4.86105 120.355 4.86105" stroke="white" stroke-width="0.9797" stroke-miterlimit="10"/>
<path d="M165.762 32.4443C165.762 32.4443 162.899 34.6928 160.806 35.8699C158.713 37.0493 154.496 39.4811 154.077 40.5501C154.077 40.5501 154.24 41.0646 156.29 39.9087C158.339 38.7527 165.765 33.6684 165.765 33.2526C165.765 32.8367 165.762 32.4443 165.762 32.4443Z" stroke="white" stroke-width="0.9866" stroke-miterlimit="10" stroke-linecap="round" stroke-linejoin="round"/>
<path d="M158.426 26.2463L154.703 38.7291C154.703 38.7291 154.696 38.7738 154.706 38.7879C154.887 39.0768 158.263 37.2795 158.746 37.0234C159.631 36.5511 160.893 35.8721 162.511 34.8055C163.832 33.9362 164.922 33.1162 165.765 32.4419V31.5232C165.765 31.8287 164.309 32.4419 164.309 32.4419V24.4771C164.309 24.4771 165.765 23.8662 165.765 23.5608" stroke="white" stroke-width="0.9866" stroke-miterlimit="10" stroke-linecap="round" stroke-linejoin="round"/>
<path d="M165.762 22.0337C165.762 22.3391 160.21 25.5908 159.528 25.9409C158.845 26.291 158.426 26.2463 158.426 26.2463" stroke="white" stroke-width="0.9866" stroke-miterlimit="10"/>
<path d="M165.885 23.5796V22.05" stroke="white" stroke-width="0.9874" stroke-miterlimit="10" stroke-linecap="round" stroke-linejoin="round"/>
<path d="M165.885 23.7722C165.885 24.0777 164.576 24.5945 164.576 24.5945V32.1693C164.576 32.1693 165.885 31.6524 165.885 31.347V23.7722Z" stroke="white" stroke-width="0.9874" stroke-miterlimit="10"/>
<path d="M154.713 38.7971C154.713 38.7971 153.296 39.6476 153.251 40.2233" stroke="white" stroke-width="0.9866" stroke-miterlimit="10" stroke-linecap="round" stroke-linejoin="round"/>
<path d="M158.645 25.3956C159.382 25.7786 165.76 21.4673 165.76 21.4673" stroke="white" stroke-width="0.9866" stroke-miterlimit="10" stroke-linecap="round" stroke-linejoin="round"/>
<path d="M159.714 24.3573C158.645 24.7826 158.645 25.3934 158.645 25.3934C159.382 25.7764 165.76 21.4651 165.76 21.4651C165.76 21.4651 161.282 23.7347 159.714 24.3573Z" stroke="white" stroke-width="0.9866" stroke-miterlimit="10"/>
<path d="M158.426 26.2463L158.645 25.3958" stroke="white" stroke-width="0.9866" stroke-miterlimit="10" stroke-linecap="round" stroke-linejoin="round"/>
<path d="M165.885 21.4814V22.05" stroke="white" stroke-width="0.9874" stroke-miterlimit="10" stroke-linecap="round" stroke-linejoin="round"/>
<path d="M120.357 4.8611L116.659 17.2547C116.659 17.2547 116.652 17.2993 116.661 17.3134C116.84 17.6001 120.195 15.8168 120.673 15.5607C121.551 15.0908 122.806 14.4165 124.412 13.3592C125.723 12.4946 126.806 11.6817 127.642 11.0144V10.1028C127.642 10.4059 126.199 11.0144 126.199 11.0144V3.10603C126.199 3.10603 127.642 2.49986 127.642 2.19678" stroke="white" stroke-width="0.9797" stroke-miterlimit="10" stroke-linecap="round" stroke-linejoin="round"/>
<path d="M128.857 2.21556V0.686035" stroke="white" stroke-width="0.9892" stroke-miterlimit="10" stroke-linecap="round" stroke-linejoin="round"/>
<path d="M127.642 2.3894C127.642 2.69249 126.342 3.20468 126.342 3.20468V10.7207C126.342 10.7207 127.642 10.2085 127.642 9.90543V2.3894Z" stroke="white" stroke-width="0.9797" stroke-miterlimit="10"/>
<path d="M120.576 4.01515C121.309 4.39342 127.644 0.11499 127.644 0.11499" stroke="white" stroke-width="0.9797" stroke-miterlimit="10" stroke-linecap="round" stroke-linejoin="round"/>
<path d="M120.357 4.8612L120.576 4.01538" stroke="white" stroke-width="0.9797" stroke-miterlimit="10" stroke-linecap="round" stroke-linejoin="round"/>
<path d="M128.857 0.11499V0.685917" stroke="white" stroke-width="0.9892" stroke-miterlimit="10" stroke-linecap="round" stroke-linejoin="round"/>
<path d="M116.661 17.3135C116.661 17.3135 115.253 18.5352 115.413 18.6715L130.576 31.5397L153.048 40.2727" stroke="white" stroke-width="0.9797" stroke-miterlimit="10" stroke-linecap="round" stroke-linejoin="round"/>
<path d="M116.03 19.1882C115.441 18.6925 118.768 16.6413 120.937 15.6334C126.21 13.1829 127.644 12.0175 127.644 12.0175V11.012" stroke="white" stroke-width="0.9797" stroke-miterlimit="10" stroke-linecap="round" stroke-linejoin="round"/>
<path d="M126.276 12.9011L132.042 16.3948" stroke="white" stroke-width="0.9797" stroke-miterlimit="10" stroke-linecap="round" stroke-linejoin="round"/>
<path d="M132.042 16.3948L130.02 17.6095L154.07 31.2577L156.14 30.0218" stroke="white" stroke-width="0.9797" stroke-miterlimit="10" stroke-linecap="round" stroke-linejoin="round"/>
<path d="M132.739 16.1975L130.361 17.6025L154.042 31.0839L156.22 29.7987L132.739 16.1975Z" stroke="white" stroke-width="0.9797" stroke-miterlimit="10"/>
<path d="M142.169 24.5029C142.169 24.5029 139.322 26.1288 134.976 28.2245C130.731 30.2709 130.578 31.5397 130.578 31.5397" stroke="white" stroke-width="0.9797" stroke-miterlimit="10" stroke-linecap="round" stroke-linejoin="round"/>
<path d="M141.743 24.3054C141.743 24.3054 138.889 25.8302 134.623 27.9095C130.425 29.9559 130.298 31.3022 130.298 31.3022" stroke="white" stroke-width="0.9797" stroke-miterlimit="10"/>
<path d="M142.585 24.7402C142.585 24.7402 138.63 26.8477 135.176 28.6028C131.218 30.614 130.95 31.683 130.95 31.683" stroke="white" stroke-width="0.9797" stroke-miterlimit="10"/>
<path d="M37.1267 64.3125L45.838 69.9748C48.5409 66.1381 51.7005 64.7096 51.7005 64.7096C54.6882 61.9137 64.9935 58.373 64.9935 58.373L70.3757 55.4479C70.3757 55.4479 52.5551 43.6182 51.6369 43.1319C50.7187 42.6432 45.5013 44.3982 45.5013 44.3982L29.3877 33.8702L34.2119 31.6945C34.2119 31.6945 27.9445 27.5336 26.433 26.9157C24.9238 26.2978 16.9494 29.1265 10.058 31.8543C3.16433 34.5844 1.229 40.9868 1.229 40.9868L32.9123 61.5754" stroke="white" stroke-width="0.9797" stroke-miterlimit="10" stroke-linecap="round" stroke-linejoin="round"/>
<path d="M34.9465 31.5935L29.8115 33.9007L45.5201 44.1821L50.787 41.8161L34.9465 31.5935Z" stroke="white" stroke-width="0.9797" stroke-miterlimit="10"/>
<path d="M87.0543 68.9835C87.3886 68.866 90.2115 67.8745 91.8031 67.9521L93.0086 68.4995C94.6072 69.2584 107.815 75.9028 114.055 79.0417C107.815 75.9028 94.6072 69.2584 93.0086 68.4995L91.8031 67.9521C90.2115 67.8745 87.3886 68.8684 87.0543 68.9835ZM87.0543 68.9835C87.0496 68.9835 87.0449 68.9858 87.0401 68.9882C87.0378 68.9905 87.0354 68.9905 87.0331 68.9905C87.0307 68.9905 87.0307 68.9905 87.0284 68.9905V68.9929C87.026 68.9929 87.0237 68.9929 87.0213 68.9929C87.0213 68.9929 87.0213 68.9929 87.019 68.9952C86.4233 69.202 78.6208 71.9345 75.5506 73.3301C72.9937 74.493 68.4403 78.5741 67.8258 79.6995C67.2019 80.8437 66.9735 81.9738 66.9735 81.9738C66.9735 81.9738 118.695 108.189 119.79 108.796C120.885 109.402 124.254 106.716 129.768 102.772C135.282 98.8267 139.482 97.0082 141.627 96.099C143.772 95.1897 146.221 95.3189 146.221 95.3189L135.72 89.9879C132.306 89.6426 128.106 91.7642 128.106 91.7642L110.295 82.5777C110.591 82.3192 111.046 82.0866 111.585 81.8822" stroke="white" stroke-width="0.9797" stroke-miterlimit="10" stroke-linecap="round" stroke-linejoin="round"/>
<path d="M146.046 95.2343C143.278 95.084 141.281 95.9251 141.281 95.9251C141.281 95.9251 139.393 96.7638 136.982 97.908C134.618 99.0287 132.141 100.638 132.141 100.638C132.141 100.638 126.168 104.879 123.92 106.39C121.671 107.9 120.955 107.788 120.786 107.564C120.426 107.092 121.589 106.058 123.378 104.01C125.102 102.036 131.32 99.0287 131.32 99.0287C131.32 99.0287 139.525 96.1036 141.001 95.5515C142.479 94.997 146.046 95.2343 146.046 95.2343ZM146.046 95.2343C143.727 94.1935 140.575 95.0628 140.575 95.0628C140.575 95.0628 133.924 97.1421 130.86 98.2252C127.797 99.3083 123.771 102.342 121.452 104.639C119.133 106.935 119.79 108.798 119.79 108.798" stroke="white" stroke-width="0.9797" stroke-miterlimit="10"/>
<path d="M128.318 90.6174L133.085 87.8004L115.107 78.4236L110.337 81.2406L128.318 90.6174Z" stroke="white" stroke-width="0.9797" stroke-miterlimit="10"/>
<path d="M135.718 89.9926C135.718 89.9926 135.477 89.8305 134.493 89.3113C133.535 88.8061 128.318 90.6199 128.318 90.6199" stroke="white" stroke-width="0.9797" stroke-miterlimit="10"/>
<path d="M45.838 69.9749C44.6207 71.5185 44.1852 75.5643 44.1852 75.5643L46.1841 79.2037" stroke="white" stroke-width="0.9797" stroke-miterlimit="10" stroke-linecap="round" stroke-linejoin="round"/>
<path d="M51.7005 64.7096C51.7005 64.7096 59.609 61.2982 64.9911 58.373" stroke="white" stroke-width="0.9797" stroke-miterlimit="10" stroke-linecap="round" stroke-linejoin="round"/>
<path d="M70.3756 55.4458C70.3756 55.4458 85.1778 47.5163 88.3609 46.3157C91.5441 45.1127 93.8091 43.844 95.9751 44.8214C98.1435 45.7964 101.842 47.4035 101.842 47.4035L102.834 47.81L110.843 53.4158C110.843 53.4158 111.006 53.8247 108.578 56.0332C106.594 57.8399 98.7439 64.6535 94.9698 67.4235C94.9698 67.4235 93.3688 68.5936 93.1616 68.5748" stroke="white" stroke-width="0.9797" stroke-miterlimit="10"/>
<path d="M49.6144 83.9827C52.5033 87.0934 59.1522 86.9713 62.0387 86.7763C64.9275 86.5812 70.9689 84.0039 70.9689 84.0039C63.0393 87.3942 62.9781 82.0867 62.9781 82.0867C57.2616 85.437 51.2037 82.1196 51.2037 82.1196" stroke="white" stroke-width="0.9797" stroke-miterlimit="10" stroke-linecap="round" stroke-linejoin="round"/>
<path d="M78.6373 51.0921C78.6373 51.0921 79.466 51.0827 80.9093 51.4727C82.3525 51.8627 85.4062 52.9459 85.4062 52.9459C85.4062 52.9459 86.9271 52.6639 87.6052 52.3397C88.2833 52.0155 96.1823 48.3526 98.0635 47.9414C99.9447 47.5303 101.842 47.4058 101.842 47.4058" stroke="white" stroke-width="0.9797" stroke-miterlimit="10" stroke-linecap="round" stroke-linejoin="round"/>
<path d="M110.841 53.4158L91.8032 67.9521" stroke="white" stroke-width="0.9797" stroke-miterlimit="10"/>
<path d="M102.834 47.8096C102.443 47.5371 100.296 47.9389 98.3932 48.2654C96.4908 48.5897 88.1091 52.6426 87.7606 52.8141C87.4098 52.9879 87.1038 53.963 87.1038 53.963L94.3671 59.7921C94.3671 59.7921 103.578 54.938 106.575 53.6834C109.572 52.4264 110.841 53.4179 110.841 53.4179" stroke="white" stroke-width="0.9797" stroke-miterlimit="10" stroke-linecap="round" stroke-linejoin="round"/>
<path d="M91.8031 67.952C91.8031 67.952 89.5405 67.3411 84.0595 69.357C78.5784 71.3728 77.6131 71.6642 74.7713 72.9634C72.8784 73.8304 70.0342 75.5197 68.0095 78.0971C66.2884 80.2892 66.1824 81.283 66.4226 81.4334C66.6627 81.5837 66.9712 81.6942 66.9712 81.6942" stroke="white" stroke-width="0.9797" stroke-miterlimit="10" stroke-linecap="round" stroke-linejoin="round"/>
<path d="M86.395 68.5934L94.3647 59.7922L81.0741 67.6348C81.0741 67.6348 75.4635 70.7432 74.0391 71.4481C72.5958 72.1623 72.052 72.3973 70.6158 73.0293C69.3256 73.5978 68.5133 74.0349 67.8164 74.3779C66.8487 74.8548 66.4344 75.172 65.8975 75.5479C65.5632 75.7805 64.5908 76.4736 63.8798 77.6437C62.8109 79.4034 62.9333 81.377 62.9804 82.0866C62.9804 82.0866 64.7486 80.8296 66.3308 81.2431" stroke="white" stroke-width="0.9797" stroke-miterlimit="10" stroke-linecap="round" stroke-linejoin="round"/>
<path d="M49.6145 83.9827C49.6922 83.9686 49.7675 83.9474 49.8452 83.9239C51.1166 83.4987 51.6369 81.6637 51.0083 79.8241C50.3797 77.9844 48.8422 76.8402 47.5709 77.2655C46.8198 77.5169 46.3324 78.2593 46.1865 79.2062" stroke="white" stroke-width="0.9797" stroke-miterlimit="10" stroke-linecap="round" stroke-linejoin="round"/>
<path d="M44.4019 80.2188L46.1842 79.2039" stroke="white" stroke-width="0.9797" stroke-miterlimit="10"/>
<path d="M46.1841 79.2037L44.2064 75.5996C44.1922 75.5738 44.1781 75.5503 44.164 75.5268C43.8509 75.0263 40.2392 69.2536 37.1267 64.3127C34.8547 60.7085 32.8487 57.5461 32.5779 57.1914C31.9234 56.3244 31.2218 56.369 31.0476 56.846C30.9275 57.1749 31.5467 58.6598 32.9099 61.5732C33.5338 62.91 34.3132 64.5453 35.2479 66.5071C38.2238 72.745 44.4018 80.2187 44.4018 80.2187" stroke="white" stroke-width="0.9797" stroke-miterlimit="10"/>
<path d="M48.2348 83.9827C48.5079 84.2764 49.6145 83.9827 49.6145 83.9827C50.189 83.1745 50.6245 80.5548 48.8469 78.8796C47.3119 77.4323 46.137 79.0511 46.1841 79.2062" stroke="white" stroke-width="0.9797" stroke-miterlimit="10"/>
<path d="M47.9993 83.3318C48.7598 85.7706 51.7005 90.1218 51.7005 90.1218" stroke="white" stroke-width="0.9797" stroke-miterlimit="10" stroke-linecap="round" stroke-linejoin="round"/>
<path d="M100.142 46.661L129.109 30.2921L127.03 28.5276L97.369 45.4416L100.142 46.661Z" stroke="white" stroke-width="0.9797" stroke-miterlimit="10" stroke-linecap="round" stroke-linejoin="round"/>
<path d="M109.718 52.6286L140.233 35.2917L137.048 34.0535L107.349 50.9698L109.718 52.6286Z" stroke="white" stroke-width="0.9797" stroke-miterlimit="10" stroke-linecap="round" stroke-linejoin="round"/>
<path d="M54.9849 91.48L53.438 92.4973" stroke="white" stroke-width="0.9797" stroke-miterlimit="10" stroke-linecap="round" stroke-linejoin="round"/>
<path d="M61.0051 89.4851V92.4854" stroke="white" stroke-width="0.9797" stroke-miterlimit="10" stroke-linecap="round" stroke-linejoin="round"/>
<path d="M58.9803 95.831C58.9168 95.831 58.8603 95.8263 58.799 95.8146C58.1163 95.5491 57.9161 94.52 58.3093 93.2748C58.5424 92.5417 59.1852 91.9027 59.7549 91.6865" stroke="white" stroke-width="0.9797" stroke-miterlimit="10" stroke-linecap="round" stroke-linejoin="round"/>
<path d="M58.9968 96.9259C58.5589 97.0857 58.1421 97.0857 57.8007 96.893C56.9767 96.4301 56.9273 94.2663 57.6807 92.7508C58.0244 92.0601 58.4906 91.5033 58.9921 91.1062" stroke="white" stroke-width="0.9797" stroke-miterlimit="10" stroke-linecap="round" stroke-linejoin="round"/>
<path d="M60.9892 95.1731C60.9861 95.1762 60.9861 95.1762 60.9892 95.1731" stroke="white" stroke-width="0.9797" stroke-miterlimit="10" stroke-linecap="round" stroke-linejoin="round"/>
<path d="M59.7573 90.8313V91.6865V93.7893" stroke="white" stroke-width="0.9797" stroke-miterlimit="10" stroke-linecap="round" stroke-linejoin="round"/>
<path d="M123.034 7.78857L122.246 11.1366L123.343 12.1304" stroke="white" stroke-width="0.9797" stroke-miterlimit="10"/>
<path d="M124.981 8.21858L124.207 7.6829C123.599 7.32577 123.034 7.78862 123.034 7.78862L124.146 8.79891" stroke="white" stroke-width="0.9797" stroke-miterlimit="10"/>
<path d="M124.725 12.2105L125.596 8.50531C124.847 7.8545 124.216 8.50531 124.216 8.50531L123.345 12.2105L124.725 12.1846" stroke="white" stroke-width="0.9797" stroke-miterlimit="10"/>
<path d="M121.636 2.98607C120.574 3.40898 120.574 4.01515 120.574 4.01515C121.306 4.39342 127.642 0.11499 127.642 0.11499C127.642 0.11499 123.194 2.3658 121.636 2.98607Z" stroke="white" stroke-width="0.9797" stroke-miterlimit="10"/>
<path d="M47.7639 83.4939C47.7639 83.4939 47.3518 85.2419 48.5644 86.8584C49.7769 88.4748 61.5466 105.936 61.5466 105.936C61.5466 105.936 62.4224 107.062 62.4695 106.155C62.4883 105.816 62.3777 105.483 62.187 105.201C60.7296 103.063 52.9294 91.649 51.7004 90.1195C50.3443 88.4325 47.9828 85.3805 47.7639 83.4939Z" stroke="white" stroke-width="0.9797" stroke-miterlimit="10" stroke-linecap="round" stroke-linejoin="round"/>
<path d="M46.6715 81.7858C46.1464 80.6016 45.1293 79.9015 44.4018 80.2187C43.8203 80.4701 43.599 81.2971 43.8014 82.2204L44.7856 81.0856C45.2188 80.8953 45.8262 81.3135 46.137 82.016C46.4502 82.7209 46.3536 83.4445 45.9228 83.6325L44.5454 83.764C45.0822 84.4172 45.7744 84.7344 46.3089 84.4994C47.0364 84.1846 47.1988 82.9652 46.6715 81.7858Z" stroke="white" stroke-width="0.9797" stroke-miterlimit="10" stroke-linecap="round" stroke-linejoin="round"/>
<path d="M46.3089 84.5019L48.3925 83.0593C48.6539 82.5189 48.6209 81.6778 48.2536 80.8531C47.7733 79.7771 46.888 79.0769 46.1841 79.2038" stroke="white" stroke-width="0.9797" stroke-miterlimit="10" stroke-linecap="round" stroke-linejoin="round"/>
<path d="M43.8014 82.2205L43.4389 82.641C43.3376 82.7585 43.2552 82.8924 43.2128 83.0428C43.1281 83.3459 43.1587 83.7829 44.0651 83.8111L44.5478 83.7641L45.9251 83.6325C46.3583 83.4446 46.4525 82.7209 46.1394 82.0161C45.8262 81.3112 45.2211 80.8954 44.7879 81.0857L43.8014 82.2205Z" stroke="white" stroke-width="0.9797" stroke-miterlimit="10" stroke-linecap="round" stroke-linejoin="round"/>
<path d="M61.6338 99.1767C61.2571 99.1508 60.4048 98.8595 60.0822 98.6574C58.8061 97.861 58.5848 95.9085 59.5219 94.1746C59.5807 94.0689 59.6419 93.9655 59.7079 93.8621C59.7832 93.74 59.8656 93.6248 59.9527 93.5144C60.8756 92.288 62.2271 91.6419 63.376 91.811C63.6797 91.858 64.8475 92.5934 65.0335 92.9482" stroke="white" stroke-width="0.9797" stroke-miterlimit="10" stroke-linecap="round" stroke-linejoin="round"/>
<path d="M63.7621 93.7845C63.6256 93.7422 63.4631 93.7516 63.2912 93.8057C62.6979 93.9772 61.9892 94.6468 61.742 95.4268C61.3677 96.6133 61.483 97.7434 62.1329 97.9455C62.1658 97.9549 62.1988 97.9643 62.2318 97.969C62.9287 98.077 63.788 97.438 64.2495 96.3267C64.7251 95.1895 64.4684 93.996 63.7621 93.7845Z" stroke="white" stroke-width="0.9797" stroke-miterlimit="10" stroke-linecap="round" stroke-linejoin="round"/>
<path d="M64.6191 92.6406C63.6962 92.2529 61.9893 93.1293 61.1111 94.9008C60.3576 96.4162 60.3859 98.6177 61.2311 99.0453C62.1211 99.4941 63.9481 98.6623 64.8828 96.8932C65.8175 95.124 65.6621 93.0776 64.6191 92.6406Z" stroke="white" stroke-width="0.9797" stroke-miterlimit="10" stroke-linecap="round" stroke-linejoin="round"/>
<path d="M61.8221 97.7342C62.4201 97.5932 63.3571 97.2149 63.7244 96.3245C64.1835 95.2202 63.9552 94.0596 63.2912 93.8035C62.6979 93.975 61.9892 94.6446 61.742 95.4246" stroke="white" stroke-width="0.9797" stroke-miterlimit="10" stroke-linecap="round" stroke-linejoin="round"/>
<path d="M61.1205 86.8253C61.1205 86.8253 61.1205 88.2421 61.1205 88.9235C61.1205 89.6072 60.8026 89.7646 60.0045 90.6104C59.2063 91.4539 58.354 90.9675 58.354 90.9675L58.1186 86.823H58.128" stroke="white" stroke-width="0.9797" stroke-miterlimit="10" stroke-linecap="round" stroke-linejoin="round"/>
<path d="M160.055 24.4464C160.055 24.4464 159.923 24.437 159.907 24.571C159.89 24.7025 160.02 24.7166 160.02 24.7166C160.02 24.7166 160.149 24.7331 160.166 24.5968C160.185 24.4629 160.055 24.4464 160.055 24.4464Z" stroke="white" stroke-width="0.4933" stroke-miterlimit="10" stroke-linecap="round" stroke-linejoin="round"/>
<path d="M63.0134 95.5139C63.0158 95.5139 63.0888 95.4951 63.15 95.5233C63.1806 95.5374 63.2089 95.5609 63.23 95.5985C63.2512 95.6384 63.2654 95.6972 63.2654 95.7911C63.2654 95.8875 63.2465 95.9556 63.2253 96.0097C63.1924 96.0872 63.1406 96.1412 63.0935 96.1765C63.0699 96.1929 63.0488 96.2047 63.0323 96.2117L63.0158 96.2187L63.0111 96.2211H63.0087C63.004 96.2235 62.931 96.2399 62.8722 96.2141C62.8416 96.2 62.8133 96.1788 62.7945 96.1412C62.7733 96.1036 62.7592 96.0472 62.7592 95.958C62.7615 95.8616 62.778 95.7935 62.7992 95.7395C62.8321 95.6596 62.8863 95.6008 62.9357 95.5609C62.9593 95.5421 62.9828 95.528 62.997 95.521L63.0134 95.5139ZM63.0134 95.2931L63.0087 95.2954C63.004 95.3001 62.9098 95.333 62.8086 95.4364C62.7592 95.4904 62.7074 95.5632 62.665 95.6619C62.625 95.7559 62.5991 95.8757 62.6014 96.0073C62.5991 96.1365 62.6226 96.2352 62.6626 96.3033C62.7215 96.4091 62.8039 96.4443 62.8722 96.4537C62.9405 96.4631 62.997 96.4466 63.0087 96.4466H63.0111C63.0181 96.4419 63.1123 96.4185 63.2136 96.3174C63.2654 96.2681 63.3172 96.1953 63.3595 96.1013C63.3996 96.0049 63.4255 95.8851 63.4255 95.7512C63.4255 95.6173 63.4019 95.5116 63.3619 95.4411C63.3007 95.3307 63.2136 95.2978 63.1429 95.2884C63.0723 95.2743 63.0181 95.2907 63.0134 95.2931Z" fill="white"/>
<path d="M128.567 101.406L128.572 101.404C128.588 101.399 128.65 101.392 128.704 101.416C128.737 101.43 128.763 101.453 128.784 101.491C128.805 101.531 128.819 101.587 128.819 101.684C128.819 101.782 128.8 101.848 128.779 101.902C128.746 101.98 128.694 102.034 128.647 102.069C128.624 102.085 128.603 102.097 128.586 102.104L128.57 102.111L128.565 102.114H128.563C128.563 102.114 128.56 102.114 128.558 102.116C128.539 102.121 128.478 102.132 128.424 102.109C128.391 102.097 128.365 102.076 128.346 102.038C128.325 102.001 128.311 101.944 128.311 101.855C128.311 101.759 128.329 101.691 128.351 101.637C128.384 101.557 128.438 101.496 128.487 101.458C128.511 101.439 128.532 101.425 128.548 101.418L128.567 101.406ZM128.567 101.186L128.563 101.188C128.555 101.19 128.464 101.225 128.362 101.329C128.313 101.383 128.261 101.456 128.219 101.552C128.179 101.648 128.153 101.768 128.153 101.9C128.153 102.027 128.176 102.128 128.214 102.196C128.271 102.304 128.355 102.337 128.424 102.346C128.492 102.356 128.546 102.341 128.56 102.337H128.563C128.57 102.334 128.661 102.309 128.765 102.208C128.817 102.158 128.869 102.085 128.911 101.991C128.951 101.895 128.977 101.775 128.977 101.641C128.977 101.507 128.953 101.402 128.913 101.331C128.852 101.221 128.765 101.186 128.694 101.178C128.626 101.169 128.572 101.183 128.567 101.186Z" fill="white"/>
<path d="M124.628 104.879C124.626 104.879 124.567 104.895 124.52 104.874C124.496 104.865 124.475 104.846 124.461 104.818C124.445 104.79 124.433 104.75 124.433 104.675C124.433 104.599 124.447 104.548 124.463 104.505C124.489 104.444 124.529 104.397 124.567 104.367C124.588 104.35 124.605 104.339 124.617 104.334L124.631 104.327L124.633 104.325C124.647 104.322 124.694 104.315 124.734 104.334C124.758 104.346 124.781 104.362 124.795 104.393C124.81 104.423 124.824 104.468 124.824 104.543C124.824 104.621 124.81 104.672 124.795 104.712C124.77 104.773 124.73 104.816 124.692 104.839C124.673 104.853 124.657 104.863 124.645 104.867L124.631 104.874L124.628 104.879ZM124.633 104.327V104.32V104.327ZM124.633 104.327V104.32V104.327ZM124.631 104.108L124.626 104.111C124.621 104.113 124.541 104.141 124.454 104.233C124.412 104.278 124.365 104.343 124.332 104.426C124.296 104.508 124.275 104.614 124.275 104.724C124.275 104.834 124.294 104.919 124.329 104.98C124.379 105.074 124.452 105.102 124.511 105.109C124.567 105.116 124.614 105.105 124.628 105.102H124.631H124.633C124.638 105.1 124.718 105.076 124.805 104.992C124.847 104.95 124.894 104.886 124.93 104.804C124.965 104.722 124.986 104.616 124.986 104.503C124.986 104.388 124.965 104.299 124.93 104.235C124.878 104.139 124.8 104.111 124.741 104.104C124.68 104.094 124.635 104.106 124.631 104.108Z" fill="white"/>
<path d="M124.843 9.41675C124.84 9.41675 124.765 9.4379 124.722 9.38856C124.699 9.36036 124.687 9.31807 124.687 9.25464C124.687 9.05493 124.814 8.9868 124.847 8.97505C124.887 8.96565 125.003 8.9539 125.003 9.14891C125 9.34862 124.88 9.40266 124.843 9.41675ZM124.845 8.7542L124.84 8.75655C124.732 8.79884 124.529 8.9633 124.529 9.30163C124.529 9.4238 124.558 9.52013 124.612 9.57887C124.699 9.6705 124.817 9.64465 124.84 9.6376L124.843 9.63525C124.97 9.59766 125.158 9.42615 125.158 9.10192C125.158 8.77769 124.97 8.7166 124.845 8.7542Z" fill="white"/>
<path d="M60.4047 88.583C60.4047 88.583 59.9197 88.6112 59.9197 89.0858C59.9197 89.5604 60.4047 89.551 60.4047 89.551C60.4047 89.551 60.8898 89.551 60.8898 89.067C60.8921 88.583 60.4047 88.583 60.4047 88.583Z" stroke="white" stroke-width="0.9797" stroke-miterlimit="10" stroke-linecap="round" stroke-linejoin="round"/>
<path d="M60.4094 87.4105C60.4236 87.4059 60.4636 87.4011 60.4966 87.4199C60.5154 87.4293 60.5295 87.4434 60.5436 87.4669C60.5554 87.4904 60.5648 87.5233 60.5648 87.5844C60.5648 87.6479 60.5554 87.6901 60.5413 87.7207C60.5225 87.7653 60.4895 87.7982 60.4589 87.8217C60.4424 87.8335 60.4283 87.8382 60.4189 87.8429L60.4071 87.8476H60.4047C60.4024 87.8476 60.3529 87.8593 60.3153 87.8429C60.2964 87.8358 60.2799 87.8217 60.2682 87.8006C60.2564 87.7794 60.247 87.7489 60.247 87.6878C60.247 87.6244 60.2588 87.5844 60.2729 87.5515C60.2941 87.5022 60.3247 87.4669 60.3576 87.4411C60.3741 87.4293 60.3882 87.4199 60.3977 87.4152L60.4094 87.4105ZM60.4071 87.1897L60.4024 87.192C60.3953 87.1944 60.327 87.2202 60.2493 87.3001C60.2117 87.3401 60.1716 87.3964 60.141 87.4716C60.1081 87.5468 60.0892 87.6361 60.0892 87.7371C60.0892 87.8335 60.1057 87.911 60.1363 87.965C60.1811 88.0473 60.247 88.0755 60.2988 88.0802C60.3482 88.0872 60.3882 88.0778 60.4024 88.0731H60.4047H60.4071C60.4118 88.0708 60.4824 88.052 60.5601 87.9744C60.5978 87.9345 60.6402 87.8805 60.6708 87.8053C60.7037 87.7301 60.7226 87.6384 60.7226 87.5374C60.7226 87.4364 60.7037 87.3565 60.6731 87.3001C60.626 87.2132 60.5578 87.1873 60.506 87.1826C60.4518 87.1756 60.4094 87.1873 60.4071 87.1897Z" fill="white"/>
<path d="M58.9944 90.1336C58.985 90.136 58.952 90.1406 58.9285 90.1289L58.8955 90.0984C58.8861 90.0819 58.879 90.0608 58.879 90.0138C58.879 89.9644 58.8861 89.9339 58.8955 89.9081C58.9096 89.8728 58.9355 89.8446 58.9591 89.8258L58.992 89.8047L58.9991 89.8C59.0085 89.7976 59.0415 89.7929 59.065 89.807L59.098 89.8423C59.1051 89.8611 59.1121 89.8846 59.1121 89.9315C59.1121 89.9832 59.1051 90.0138 59.0956 90.0349C59.0815 90.0702 59.0603 90.0937 59.0344 90.1125L59.0038 90.1289L58.9968 90.1313H58.9944C58.9968 90.1313 58.9944 90.1336 58.9944 90.1336ZM58.9968 89.5815L58.992 89.5838C58.9873 89.5885 58.9261 89.6097 58.8602 89.6802C58.8272 89.7154 58.7919 89.7624 58.7637 89.8305C58.7354 89.8963 58.7189 89.9762 58.7189 90.0631C58.7189 90.1453 58.7331 90.2135 58.7613 90.2628C58.8013 90.3357 58.8578 90.3592 58.9026 90.3639C58.9402 90.3709 58.9732 90.3639 58.9873 90.3592L58.992 90.3568H58.9944C59.0085 90.3521 59.0627 90.3357 59.1263 90.2746C59.1616 90.2393 59.1969 90.19 59.2251 90.1266C59.2534 90.0631 59.2699 89.9809 59.2699 89.8916C59.2699 89.8047 59.2534 89.7342 59.2275 89.6848C59.1851 89.6097 59.1263 89.5862 59.0815 89.5815C59.0368 89.5697 59.0038 89.5791 58.9968 89.5815Z" fill="white"/>
<path d="M48.2395 79.3071C48.2395 79.3071 47.8911 79.3283 47.8911 79.6666C47.8911 80.0049 48.2395 80.0002 48.2395 80.0002C48.2395 80.0002 48.588 80.0002 48.588 79.6525C48.588 79.3071 48.2395 79.3071 48.2395 79.3071Z" stroke="white" stroke-width="0.9797" stroke-miterlimit="10" stroke-linecap="round" stroke-linejoin="round"/>
<path d="M49.2825 82.6387C49.2825 82.6387 48.934 82.6598 48.934 82.9981C48.934 83.3365 49.2825 83.3318 49.2825 83.3318C49.2825 83.3318 49.6309 83.3318 49.6309 82.9841C49.6309 82.6387 49.2825 82.6387 49.2825 82.6387Z" stroke="white" stroke-width="0.9797" stroke-miterlimit="10" stroke-linecap="round" stroke-linejoin="round"/>
</g>
<defs>
<clipPath id="clip0">
<rect width="166" height="109" fill="white"/>
</clipPath>
</defs>
</svg>
