<svg width="273" height="68" viewBox="0 0 273 68" fill="none" xmlns="http://www.w3.org/2000/svg">
<rect width="273" height="68" rx="19" fill="white"/>
<path d="M52.366 25.666L46.58 41H44.27L38.484 25.666H40.618L45.436 38.888L50.254 25.666H52.366ZM56.5632 25.666V41H54.5612V25.666H56.5632ZM70.9753 34.51C70.9753 34.8913 70.9533 35.2947 70.9093 35.72H61.2733C61.3466 36.908 61.7499 37.8393 62.4833 38.514C63.2313 39.174 64.1333 39.504 65.1893 39.504C66.0546 39.504 66.7733 39.306 67.3453 38.91C67.9319 38.4993 68.3426 37.9567 68.5773 37.282H70.7333C70.4106 38.4407 69.7653 39.3867 68.7973 40.12C67.8293 40.8387 66.6266 41.198 65.1893 41.198C64.0453 41.198 63.0186 40.9413 62.1093 40.428C61.2146 39.9147 60.5106 39.1887 59.9973 38.25C59.4839 37.2967 59.2273 36.1967 59.2273 34.95C59.2273 33.7033 59.4766 32.6107 59.9753 31.672C60.4739 30.7333 61.1706 30.0147 62.0653 29.516C62.9746 29.0027 64.0159 28.746 65.1893 28.746C66.3333 28.746 67.3453 28.9953 68.2253 29.494C69.1053 29.9927 69.7799 30.682 70.2493 31.562C70.7333 32.4273 70.9753 33.41 70.9753 34.51ZM68.9073 34.092C68.9073 33.3293 68.7386 32.6767 68.4013 32.134C68.0639 31.5767 67.6019 31.1587 67.0153 30.88C66.4433 30.5867 65.8053 30.44 65.1013 30.44C64.0893 30.44 63.2239 30.7627 62.5053 31.408C61.8013 32.0533 61.3979 32.948 61.2953 34.092H68.9073ZM89.6778 28.944L85.9158 41H83.8478L80.9438 31.43L78.0398 41H75.9718L72.1878 28.944H74.2338L77.0058 39.064L79.9978 28.944H82.0438L84.9698 39.086L87.6978 28.944H89.6778ZM112.028 28.724C112.967 28.724 113.803 28.922 114.536 29.318C115.269 29.6993 115.849 30.2787 116.274 31.056C116.699 31.8333 116.912 32.7793 116.912 33.894V41H114.932V34.18C114.932 32.9773 114.631 32.0607 114.03 31.43C113.443 30.7847 112.644 30.462 111.632 30.462C110.591 30.462 109.762 30.7993 109.146 31.474C108.53 32.134 108.222 33.0947 108.222 34.356V41H106.242V34.18C106.242 32.9773 105.941 32.0607 105.34 31.43C104.753 30.7847 103.954 30.462 102.942 30.462C101.901 30.462 101.072 30.7993 100.456 31.474C99.8399 32.134 99.5319 33.0947 99.5319 34.356V41H97.5299V28.944H99.5319V30.682C99.9279 30.0513 100.456 29.5673 101.116 29.23C101.791 28.8927 102.531 28.724 103.338 28.724C104.35 28.724 105.245 28.9513 106.022 29.406C106.799 29.8607 107.379 30.528 107.76 31.408C108.097 30.5573 108.655 29.8973 109.432 29.428C110.209 28.9587 111.075 28.724 112.028 28.724ZM125.454 41.198C124.325 41.198 123.298 40.9413 122.374 40.428C121.465 39.9147 120.746 39.1887 120.218 38.25C119.705 37.2967 119.448 36.1967 119.448 34.95C119.448 33.718 119.712 32.6327 120.24 31.694C120.783 30.7407 121.516 30.0147 122.44 29.516C123.364 29.0027 124.398 28.746 125.542 28.746C126.686 28.746 127.72 29.0027 128.644 29.516C129.568 30.0147 130.294 30.7333 130.822 31.672C131.365 32.6107 131.636 33.7033 131.636 34.95C131.636 36.1967 131.357 37.2967 130.8 38.25C130.257 39.1887 129.517 39.9147 128.578 40.428C127.639 40.9413 126.598 41.198 125.454 41.198ZM125.454 39.438C126.173 39.438 126.847 39.2693 127.478 38.932C128.109 38.5947 128.615 38.0887 128.996 37.414C129.392 36.7393 129.59 35.918 129.59 34.95C129.59 33.982 129.399 33.1607 129.018 32.486C128.637 31.8113 128.138 31.3127 127.522 30.99C126.906 30.6527 126.239 30.484 125.52 30.484C124.787 30.484 124.112 30.6527 123.496 30.99C122.895 31.3127 122.411 31.8113 122.044 32.486C121.677 33.1607 121.494 33.982 121.494 34.95C121.494 35.9327 121.67 36.7613 122.022 37.436C122.389 38.1107 122.873 38.6167 123.474 38.954C124.075 39.2767 124.735 39.438 125.454 39.438ZM136.27 30.902C136.622 30.2127 137.121 29.6773 137.766 29.296C138.426 28.9147 139.226 28.724 140.164 28.724V30.792H139.636C137.392 30.792 136.27 32.0093 136.27 34.444V41H134.268V28.944H136.27V30.902ZM153.475 34.51C153.475 34.8913 153.453 35.2947 153.409 35.72H143.773C143.847 36.908 144.25 37.8393 144.983 38.514C145.731 39.174 146.633 39.504 147.689 39.504C148.555 39.504 149.273 39.306 149.845 38.91C150.432 38.4993 150.843 37.9567 151.077 37.282H153.233C152.911 38.4407 152.265 39.3867 151.297 40.12C150.329 40.8387 149.127 41.198 147.689 41.198C146.545 41.198 145.519 40.9413 144.609 40.428C143.715 39.9147 143.011 39.1887 142.497 38.25C141.984 37.2967 141.727 36.1967 141.727 34.95C141.727 33.7033 141.977 32.6107 142.475 31.672C142.974 30.7333 143.671 30.0147 144.565 29.516C145.475 29.0027 146.516 28.746 147.689 28.746C148.833 28.746 149.845 28.9953 150.725 29.494C151.605 29.9927 152.28 30.682 152.749 31.562C153.233 32.4273 153.475 33.41 153.475 34.51ZM151.407 34.092C151.407 33.3293 151.239 32.6767 150.901 32.134C150.564 31.5767 150.102 31.1587 149.515 30.88C148.943 30.5867 148.305 30.44 147.601 30.44C146.589 30.44 145.724 30.7627 145.005 31.408C144.301 32.0533 143.898 32.948 143.795 34.092H151.407ZM161.235 34.928C161.235 33.696 161.484 32.618 161.983 31.694C162.482 30.7553 163.164 30.0293 164.029 29.516C164.909 29.0027 165.892 28.746 166.977 28.746C167.916 28.746 168.788 28.966 169.595 29.406C170.402 29.8313 171.018 30.396 171.443 31.1V24.72H173.467V41H171.443V38.734C171.047 39.4527 170.46 40.0467 169.683 40.516C168.906 40.9707 167.996 41.198 166.955 41.198C165.884 41.198 164.909 40.934 164.029 40.406C163.164 39.878 162.482 39.1373 161.983 38.184C161.484 37.2307 161.235 36.1453 161.235 34.928ZM171.443 34.95C171.443 34.0407 171.26 33.2487 170.893 32.574C170.526 31.8993 170.028 31.386 169.397 31.034C168.781 30.6673 168.099 30.484 167.351 30.484C166.603 30.484 165.921 30.66 165.305 31.012C164.689 31.364 164.198 31.8773 163.831 32.552C163.464 33.2267 163.281 34.0187 163.281 34.928C163.281 35.852 163.464 36.6587 163.831 37.348C164.198 38.0227 164.689 38.5433 165.305 38.91C165.921 39.262 166.603 39.438 167.351 39.438C168.099 39.438 168.781 39.262 169.397 38.91C170.028 38.5433 170.526 38.0227 170.893 37.348C171.26 36.6587 171.443 35.8593 171.443 34.95ZM187.85 34.51C187.85 34.8913 187.828 35.2947 187.784 35.72H178.148C178.222 36.908 178.625 37.8393 179.358 38.514C180.106 39.174 181.008 39.504 182.064 39.504C182.93 39.504 183.648 39.306 184.22 38.91C184.807 38.4993 185.218 37.9567 185.452 37.282H187.608C187.286 38.4407 186.64 39.3867 185.672 40.12C184.704 40.8387 183.502 41.198 182.064 41.198C180.92 41.198 179.894 40.9413 178.984 40.428C178.09 39.9147 177.386 39.1887 176.872 38.25C176.359 37.2967 176.102 36.1967 176.102 34.95C176.102 33.7033 176.352 32.6107 176.85 31.672C177.349 30.7333 178.046 30.0147 178.94 29.516C179.85 29.0027 180.891 28.746 182.064 28.746C183.208 28.746 184.22 28.9953 185.1 29.494C185.98 29.9927 186.655 30.682 187.124 31.562C187.608 32.4273 187.85 33.41 187.85 34.51ZM185.782 34.092C185.782 33.3293 185.614 32.6767 185.276 32.134C184.939 31.5767 184.477 31.1587 183.89 30.88C183.318 30.5867 182.68 30.44 181.976 30.44C180.964 30.44 180.099 30.7627 179.38 31.408C178.676 32.0533 178.273 32.948 178.17 34.092H185.782ZM192.935 30.594V37.7C192.935 38.2867 193.059 38.7047 193.309 38.954C193.558 39.1887 193.991 39.306 194.607 39.306H196.081V41H194.277C193.162 41 192.326 40.7433 191.769 40.23C191.211 39.7167 190.933 38.8733 190.933 37.7V30.594H189.371V28.944H190.933V25.908H192.935V28.944H196.081V30.594H192.935ZM197.759 34.928C197.759 33.696 198.008 32.618 198.507 31.694C199.005 30.7553 199.687 30.0293 200.553 29.516C201.433 29.0027 202.408 28.746 203.479 28.746C204.535 28.746 205.451 28.9733 206.229 29.428C207.006 29.8827 207.585 30.4547 207.967 31.144V28.944H209.991V41H207.967V38.756C207.571 39.46 206.977 40.0467 206.185 40.516C205.407 40.9707 204.498 41.198 203.457 41.198C202.386 41.198 201.418 40.934 200.553 40.406C199.687 39.878 199.005 39.1373 198.507 38.184C198.008 37.2307 197.759 36.1453 197.759 34.928ZM207.967 34.95C207.967 34.0407 207.783 33.2487 207.417 32.574C207.05 31.8993 206.551 31.386 205.921 31.034C205.305 30.6673 204.623 30.484 203.875 30.484C203.127 30.484 202.445 30.66 201.829 31.012C201.213 31.364 200.721 31.8773 200.355 32.552C199.988 33.2267 199.805 34.0187 199.805 34.928C199.805 35.852 199.988 36.6587 200.355 37.348C200.721 38.0227 201.213 38.5433 201.829 38.91C202.445 39.262 203.127 39.438 203.875 39.438C204.623 39.438 205.305 39.262 205.921 38.91C206.551 38.5433 207.05 38.0227 207.417 37.348C207.783 36.6587 207.967 35.8593 207.967 34.95ZM214.408 26.986C214.026 26.986 213.704 26.854 213.44 26.59C213.176 26.326 213.044 26.0033 213.044 25.622C213.044 25.2407 213.176 24.918 213.44 24.654C213.704 24.39 214.026 24.258 214.408 24.258C214.774 24.258 215.082 24.39 215.332 24.654C215.596 24.918 215.728 25.2407 215.728 25.622C215.728 26.0033 215.596 26.326 215.332 26.59C215.082 26.854 214.774 26.986 214.408 26.986ZM215.376 28.944V41H213.374V28.944H215.376ZM220.79 24.72V41H218.788V24.72H220.79ZM228.47 41.198C227.546 41.198 226.717 41.044 225.984 40.736C225.25 40.4133 224.671 39.9733 224.246 39.416C223.82 38.844 223.586 38.1913 223.542 37.458H225.61C225.668 38.0593 225.947 38.5507 226.446 38.932C226.959 39.3133 227.626 39.504 228.448 39.504C229.21 39.504 229.812 39.3353 230.252 38.998C230.692 38.6607 230.912 38.2353 230.912 37.722C230.912 37.194 230.677 36.8053 230.208 36.556C229.738 36.292 229.012 36.0353 228.03 35.786C227.135 35.5513 226.402 35.3167 225.83 35.082C225.272 34.8327 224.788 34.4733 224.378 34.004C223.982 33.52 223.784 32.8893 223.784 32.112C223.784 31.496 223.967 30.9313 224.334 30.418C224.7 29.9047 225.221 29.5013 225.896 29.208C226.57 28.9 227.34 28.746 228.206 28.746C229.54 28.746 230.618 29.0833 231.44 29.758C232.261 30.4327 232.701 31.3567 232.76 32.53H230.758C230.714 31.8993 230.457 31.3933 229.988 31.012C229.533 30.6307 228.917 30.44 228.14 30.44C227.421 30.44 226.849 30.594 226.424 30.902C225.998 31.21 225.786 31.6133 225.786 32.112C225.786 32.508 225.91 32.838 226.16 33.102C226.424 33.3513 226.746 33.5567 227.128 33.718C227.524 33.8647 228.066 34.0333 228.756 34.224C229.621 34.4587 230.325 34.6933 230.868 34.928C231.41 35.148 231.872 35.4853 232.254 35.94C232.65 36.3947 232.855 36.9887 232.87 37.722C232.87 38.382 232.686 38.976 232.32 39.504C231.953 40.032 231.432 40.45 230.758 40.758C230.098 41.0513 229.335 41.198 228.47 41.198Z" fill="black"/>
</svg>
