<svg width="919" height="831" viewBox="0 0 919 831" fill="none" xmlns="http://www.w3.org/2000/svg">
<path d="M299.415 667.566C303.015 673.528 298.77 681.144 291.806 681.218L90.8826 683.347C83.9728 683.42 79.5617 676.002 82.9259 669.966L179.984 495.829C183.348 489.793 191.978 489.643 195.55 495.558L299.415 667.566Z" fill="url(#paint0_linear)"/>
<path d="M818.415 667.566C822.015 673.528 817.77 681.144 810.806 681.218L609.883 683.347C602.973 683.42 598.562 676.002 601.926 669.966L698.984 495.829C702.348 489.793 710.978 489.643 714.55 495.558L818.415 667.566Z" fill="url(#paint1_linear)"/>
<path d="M549.555 263.873C556.501 263.863 560.84 271.392 557.348 277.397L456.777 450.347C453.299 456.328 444.653 456.311 441.199 450.316L341.704 277.653C338.249 271.657 342.57 264.169 349.489 264.159L549.555 263.873Z" fill="url(#paint2_linear)"/>
<path d="M211.733 492.061C208.274 486.058 212.611 478.562 219.539 478.568L419.948 478.736C426.876 478.742 431.2 486.245 427.731 492.242L327.381 665.718C323.912 671.715 315.252 671.708 311.792 665.705L211.733 492.061Z" fill="url(#paint3_linear)"/>
<path d="M470.733 492.244C467.274 486.241 471.611 478.745 478.539 478.751L678.948 478.918C685.876 478.924 690.2 486.428 686.731 492.425L586.381 665.901C582.912 671.898 574.252 671.891 570.792 665.888L470.733 492.244Z" fill="url(#paint4_linear)"/>
<path d="M557.429 667.566C561.029 673.528 556.784 681.144 549.82 681.218L348.896 683.347C341.987 683.42 337.575 676.002 340.94 669.966L437.998 495.829C441.362 489.793 449.992 489.643 453.564 495.558L557.429 667.566Z" fill="url(#paint5_linear)"/>
<path d="M557.415 233.566C561.015 239.528 556.77 247.144 549.806 247.218L348.883 249.347C341.973 249.42 337.562 242.002 340.926 235.966L437.984 61.8286C441.348 55.7927 449.978 55.6427 453.55 61.558L557.415 233.566Z" fill="url(#paint6_linear)"/>
<path d="M423.415 450.566C427.015 456.528 422.77 464.144 415.806 464.218L214.883 466.347C207.973 466.42 203.562 459.002 206.926 452.966L303.984 278.829C307.348 272.793 315.978 272.643 319.55 278.558L423.415 450.566Z" fill="url(#paint7_linear)"/>
<path d="M688.415 449.566C692.015 455.528 687.77 463.144 680.806 463.218L479.883 465.347C472.973 465.42 468.562 458.002 471.926 451.966L568.984 277.829C572.348 271.793 580.978 271.643 584.55 277.558L688.415 449.566Z" fill="url(#paint8_linear)"/>
<path d="M482.905 471.447L589.067 289.475C592.355 283.837 600.507 283.856 603.77 289.508L708.282 470.527C711.545 476.179 707.485 483.248 700.959 483.277L490.285 484.23C483.708 484.26 479.59 477.128 482.905 471.447Z" stroke="white" stroke-opacity="0.7"/>
<path d="M431.024 484.311L220.9 484.135C214.356 484.129 210.273 477.042 213.549 471.379L318.764 289.493C322.04 283.829 330.219 283.836 333.486 289.506L438.396 471.567C441.663 477.236 437.568 484.316 431.024 484.311Z" stroke="white" stroke-opacity="0.7"/>
<path d="M295.356 708.99L85.2317 708.814C78.6884 708.809 74.6048 701.722 77.8812 696.058L183.096 514.173C186.372 508.509 194.551 508.516 197.818 514.185L302.728 696.247C305.995 701.916 301.9 708.996 295.356 708.99Z" stroke="white" stroke-opacity="0.7"/>
<path d="M833.653 708.99L623.529 708.814C616.985 708.809 612.902 701.722 616.178 696.058L721.393 514.173C724.669 508.509 732.848 508.516 736.115 514.185L841.025 696.247C844.292 701.916 840.196 708.996 833.653 708.99Z" stroke="white" stroke-opacity="0.7"/>
<path d="M573.332 288.087L467.884 469.425C464.599 475.074 456.434 475.058 453.171 469.396L348.851 288.359C345.589 282.697 349.669 275.624 356.204 275.615L565.972 275.314C572.532 275.305 576.63 282.416 573.332 288.087Z" stroke="white" stroke-opacity="0.7"/>
<path d="M437.699 511.88L331.537 693.853C328.248 699.49 320.097 699.471 316.834 693.819L212.322 512.8C209.059 507.148 213.119 500.079 219.645 500.05L430.318 499.097C436.896 499.067 441.013 506.199 437.699 511.88Z" stroke="white" stroke-opacity="0.7"/>
<path d="M489.577 499.017L699.702 499.193C706.245 499.199 710.329 506.286 707.052 511.95L601.838 693.835C598.561 699.499 590.382 699.492 587.115 693.822L482.205 511.761C478.939 506.092 483.034 499.012 489.577 499.017Z" stroke="white" stroke-opacity="0.7"/>
<path d="M347.27 695.24L452.718 513.902C456.003 508.253 464.168 508.269 467.43 513.931L571.75 694.969C575.013 700.631 570.932 707.703 564.398 707.712L354.63 708.013C348.069 708.022 343.972 700.911 347.27 695.24Z" stroke="white" stroke-opacity="0.7"/>
<path d="M566.247 260.082L355.583 262.314C349.057 262.383 344.891 255.377 348.068 249.676L449.832 67.0976C453.009 61.3971 461.159 61.2554 464.532 66.8421L573.433 247.189C576.833 252.819 572.824 260.012 566.247 260.082Z" stroke="white" stroke-opacity="0.7"/>
<defs>
<linearGradient id="paint0_linear" x1="189.987" y1="471.5" x2="189.987" y2="684" gradientUnits="userSpaceOnUse">
<stop stop-color="#F51919"/>
<stop offset="1" stop-color="#000022"/>
</linearGradient>
<linearGradient id="paint1_linear" x1="708.987" y1="471.5" x2="708.987" y2="684" gradientUnits="userSpaceOnUse">
<stop stop-color="#F51919"/>
<stop offset="1" stop-color="#000022"/>
</linearGradient>
<linearGradient id="paint2_linear" x1="449" y1="226" x2="449" y2="452" gradientUnits="userSpaceOnUse">
<stop stop-color="#F51919"/>
<stop offset="1" stop-color="#000022"/>
</linearGradient>
<linearGradient id="paint3_linear" x1="320" y1="409" x2="320" y2="652.5" gradientUnits="userSpaceOnUse">
<stop stop-color="#F51919"/>
<stop offset="1" stop-color="#000022"/>
</linearGradient>
<linearGradient id="paint4_linear" x1="579" y1="409.183" x2="579" y2="652.683" gradientUnits="userSpaceOnUse">
<stop stop-color="#F51919"/>
<stop offset="1" stop-color="#000022"/>
</linearGradient>
<linearGradient id="paint5_linear" x1="448.001" y1="471.5" x2="448.001" y2="684" gradientUnits="userSpaceOnUse">
<stop stop-color="#F51919"/>
<stop offset="1" stop-color="#000022"/>
</linearGradient>
<linearGradient id="paint6_linear" x1="447.987" y1="37.5001" x2="447.987" y2="250" gradientUnits="userSpaceOnUse">
<stop stop-color="#F51919"/>
<stop offset="1" stop-color="#000022"/>
</linearGradient>
<linearGradient id="paint7_linear" x1="313.987" y1="254.5" x2="313.987" y2="467" gradientUnits="userSpaceOnUse">
<stop stop-color="#F51919"/>
<stop offset="1" stop-color="#000022"/>
</linearGradient>
<linearGradient id="paint8_linear" x1="578.987" y1="253.5" x2="578.987" y2="466" gradientUnits="userSpaceOnUse">
<stop stop-color="#F51919"/>
<stop offset="1" stop-color="#000022"/>
</linearGradient>
</defs>
</svg>
