<svg width="392" height="355" viewBox="0 0 392 355" fill="none" xmlns="http://www.w3.org/2000/svg">
<path d="M28.9714 90.25L195.839 352.208L362.706 90.25H28.9714Z" stroke="#F40000" stroke-width="3"/>
<path d="M183.13 136.396C179.632 136.396 176.739 135.241 174.451 132.931C172.163 130.621 171.019 127.794 171.019 124.45C171.019 121.106 172.163 118.279 174.451 115.969C176.739 113.659 179.632 112.504 183.13 112.504C185.264 112.504 187.222 113.021 189.004 114.055C190.786 115.067 192.161 116.442 193.129 118.18L191.083 119.368C190.357 117.96 189.279 116.838 187.849 116.002C186.419 115.166 184.846 114.748 183.13 114.748C180.248 114.748 177.894 115.683 176.068 117.553C174.242 119.423 173.329 121.722 173.329 124.45C173.329 127.178 174.242 129.477 176.068 131.347C177.894 133.217 180.248 134.152 183.13 134.152C184.846 134.152 186.419 133.734 187.849 132.898C189.279 132.062 190.357 130.94 191.083 129.532L193.129 130.687C192.183 132.425 190.808 133.811 189.004 134.845C187.222 135.879 185.264 136.396 183.13 136.396ZM204.188 136.396C202.076 136.396 200.261 135.901 198.743 134.911C197.247 133.899 196.202 132.513 195.608 130.753L197.588 129.598C198.006 131.028 198.776 132.15 199.898 132.964C201.02 133.756 202.461 134.152 204.221 134.152C205.937 134.152 207.268 133.778 208.214 133.03C209.182 132.26 209.666 131.248 209.666 129.994C209.666 128.784 209.226 127.871 208.346 127.255C207.466 126.639 206.014 126.001 203.99 125.341C201.592 124.549 200.008 123.911 199.238 123.427C197.478 122.371 196.598 120.842 196.598 118.84C196.598 116.882 197.28 115.342 198.644 114.22C200.008 113.076 201.691 112.504 203.693 112.504C205.497 112.504 207.059 112.977 208.379 113.923C209.699 114.847 210.678 116.035 211.316 117.487L209.369 118.576C208.313 116.024 206.421 114.748 203.693 114.748C202.263 114.748 201.108 115.1 200.228 115.804C199.348 116.508 198.908 117.487 198.908 118.741C198.908 119.885 199.304 120.743 200.096 121.315C200.888 121.887 202.197 122.47 204.023 123.064C204.859 123.35 205.453 123.559 205.805 123.691C206.179 123.801 206.707 123.999 207.389 124.285C208.093 124.549 208.61 124.791 208.94 125.011C209.27 125.209 209.666 125.495 210.128 125.869C210.612 126.221 210.953 126.584 211.151 126.958C211.371 127.31 211.558 127.75 211.712 128.278C211.888 128.784 211.976 129.334 211.976 129.928C211.976 131.886 211.261 133.459 209.831 134.647C208.401 135.813 206.52 136.396 204.188 136.396Z" fill="white"/>
<path d="M214.661 178.674C213.588 177.609 212.612 176.637 211.555 175.716C196.396 162.143 183.968 165.044 178.322 168.216C177.048 168.932 175.66 169.923 174.27 171.067C173.344 170.382 172.235 170.274 171.636 170.866L171.25 171.248C169.049 170.752 166.731 170.823 164.509 171.736C158.171 174.339 155.625 180.701 155.625 188.753C155.625 202.427 163.593 212.445 168.002 219.51C170.9 224.152 174.642 230.615 174.642 234.687H177.78C177.78 229.732 173.82 222.916 170.671 217.873C166.252 210.792 158.763 201.539 158.765 188.75C158.765 182 160.582 176.709 165.71 174.606C166.572 174.255 167.491 174.068 168.421 174.054L168.228 174.245C167.63 174.84 167.739 175.938 168.431 176.856C167.276 178.235 166.276 179.609 165.554 180.874C162.354 186.471 159.427 198.79 173.119 213.816C174.062 214.878 175.038 215.84 176.104 216.897C200.251 240.834 218.815 239.492 228.135 230.253C237.455 221.014 238.81 202.613 214.661 178.674ZM207.695 175.78C203.391 177.694 199.445 180.759 195.618 183.784L181.296 169.585C187.262 166.862 196.25 166.27 207.695 175.78ZM178.921 170.871L193.588 185.41C191.651 187.029 189.783 188.729 187.989 190.504C186.215 192.266 184.517 194.101 182.897 196.006L168.229 181.466C170.569 177.836 175.255 173.189 178.921 170.871V170.871ZM173.181 209.991C163.589 198.647 164.185 189.737 166.934 183.822L181.255 198.018C178.207 201.811 175.116 205.724 173.181 209.991V209.991ZM226.3 228.431C215.541 239.097 197.011 233.982 177.939 215.076C176.974 214.122 176.029 213.147 175.104 212.154C176.911 207.578 180.543 203.036 183.867 198.9C185.445 196.939 187.76 194.37 189.848 192.301C191.926 190.241 194.52 187.943 196.499 186.379C200.68 183.071 205.251 179.476 209.877 177.685C210.821 178.54 211.964 179.639 212.825 180.495C231.896 199.399 237.059 217.766 226.3 228.431Z" fill="white"/>
</svg>
