<svg width="392" height="355" viewBox="0 0 392 355" fill="none" xmlns="http://www.w3.org/2000/svg">
<path d="M28.9714 90.25L195.839 352.208L362.706 90.25H28.9714Z" stroke="#F40000" stroke-width="3"/>
<path d="M109.91 133.822H121.13V136H107.6V112.9H120.965V115.078H109.91V123.262H120.14V125.44H109.91V133.822ZM127.409 133.822H137.969V136H125.099V112.9H127.409V133.822ZM143.587 133.822H154.807V136H141.277V112.9H154.642V115.078H143.587V123.262H153.817V125.44H143.587V133.822ZM169.406 136.396C165.908 136.396 163.015 135.241 160.727 132.931C158.439 130.621 157.295 127.794 157.295 124.45C157.295 121.106 158.439 118.279 160.727 115.969C163.015 113.659 165.908 112.504 169.406 112.504C171.54 112.504 173.498 113.021 175.28 114.055C177.062 115.067 178.437 116.442 179.405 118.18L177.359 119.368C176.633 117.96 175.555 116.838 174.125 116.002C172.695 115.166 171.122 114.748 169.406 114.748C166.524 114.748 164.17 115.683 162.344 117.553C160.518 119.423 159.605 121.722 159.605 124.45C159.605 127.178 160.518 129.477 162.344 131.347C164.17 133.217 166.524 134.152 169.406 134.152C171.122 134.152 172.695 133.734 174.125 132.898C175.555 132.062 176.633 130.94 177.359 129.532L179.405 130.687C178.459 132.425 177.084 133.811 175.28 134.845C173.498 135.879 171.54 136.396 169.406 136.396ZM197.401 112.9V115.078H190.306V136H187.996V115.078H180.901V112.9H197.401ZM214.893 136L209.481 126.76H203.013V136H200.703V112.9H209.943C211.857 112.9 213.485 113.582 214.827 114.946C216.191 116.288 216.873 117.916 216.873 119.83C216.873 121.392 216.4 122.789 215.454 124.021C214.53 125.231 213.342 126.045 211.89 126.463L217.533 136H214.893ZM203.013 115.078V124.582H209.943C211.219 124.582 212.308 124.12 213.21 123.196C214.112 122.25 214.562 121.128 214.562 119.83C214.562 118.51 214.112 117.388 213.21 116.464C212.308 115.54 211.219 115.078 209.943 115.078H203.013ZM220.844 112.9H223.154V136H220.844V112.9ZM239.241 136.396C235.743 136.396 232.85 135.241 230.562 132.931C228.274 130.621 227.13 127.794 227.13 124.45C227.13 121.106 228.274 118.279 230.562 115.969C232.85 113.659 235.743 112.504 239.241 112.504C241.375 112.504 243.333 113.021 245.115 114.055C246.897 115.067 248.272 116.442 249.24 118.18L247.194 119.368C246.468 117.96 245.39 116.838 243.96 116.002C242.53 115.166 240.957 114.748 239.241 114.748C236.359 114.748 234.005 115.683 232.179 117.553C230.353 119.423 229.44 121.722 229.44 124.45C229.44 127.178 230.353 129.477 232.179 131.347C234.005 133.217 236.359 134.152 239.241 134.152C240.957 134.152 242.53 133.734 243.96 132.898C245.39 132.062 246.468 130.94 247.194 129.532L249.24 130.687C248.294 132.425 246.919 133.811 245.115 134.845C243.333 135.879 241.375 136.396 239.241 136.396ZM268.094 136L265.949 130.324H254.993L252.848 136H250.406L259.283 112.9H261.659L270.536 136H268.094ZM255.818 128.146H265.124L260.471 115.771L255.818 128.146ZM275.812 133.822H286.372V136H273.502V112.9H275.812V133.822Z" fill="white"/>
<path d="M235.667 223H227.001V214.333H235.667C238.051 214.333 240.001 216.283 240.001 218.667C240.001 221.05 238.051 223 235.667 223ZM235.667 240.333H227.001V231.667H235.667C238.051 231.667 240.001 233.617 240.001 236C240.001 238.383 238.051 240.333 235.667 240.333ZM209.667 210C204.901 210 201.001 213.9 201.001 218.667H192.334V236H201.001C201.001 240.767 204.901 244.667 209.667 244.667H222.667V210H209.667Z" fill="white"/>
<path d="M166.333 179.666C166.333 182.05 168.283 184 170.667 184H185.833C189.43 184 192.333 186.903 192.333 190.5C192.333 194.096 189.43 197 185.833 197H179.333C169.757 197 162 204.756 162 214.333C162 223.91 169.757 231.666 179.333 231.666H188V223H179.333C174.567 223 170.667 219.1 170.667 214.333C170.667 209.566 174.567 205.666 179.333 205.666H185.833C194.197 205.666 201 198.863 201 190.5C201 182.136 194.197 175.333 185.833 175.333H170.667C168.283 175.333 166.333 177.283 166.333 179.666Z" fill="white"/>
</svg>
