<svg width="500" height="453" viewBox="0 0 500 453" fill="none" xmlns="http://www.w3.org/2000/svg">
<path d="M36.2282 338.25L250 2.79117L463.772 338.25H36.2282Z" fill="#000022" stroke="#F51919" stroke-width="3"/>
<path d="M220.718 244.266C218.21 244.266 215.905 243.683 213.802 242.518C211.725 241.353 210.065 239.731 208.824 237.654C207.608 235.551 207 233.195 207 230.586C207 227.977 207.608 225.633 208.824 223.556C210.065 221.479 211.725 219.857 213.802 218.692C215.905 217.527 218.21 216.944 220.718 216.944C223.226 216.944 225.519 217.527 227.596 218.692C229.699 219.857 231.345 221.479 232.536 223.556C233.752 225.633 234.36 227.977 234.36 230.586C234.36 233.195 233.752 235.551 232.536 237.654C231.32 239.731 229.673 241.353 227.596 242.518C225.519 243.683 223.226 244.266 220.718 244.266ZM220.718 238.338C222.846 238.338 224.543 237.629 225.81 236.21C227.102 234.791 227.748 232.917 227.748 230.586C227.748 228.23 227.102 226.355 225.81 224.962C224.543 223.543 222.846 222.834 220.718 222.834C218.565 222.834 216.842 223.531 215.55 224.924C214.283 226.317 213.65 228.205 213.65 230.586C213.65 232.942 214.283 234.829 215.55 236.248C216.842 237.641 218.565 238.338 220.718 238.338ZM244.359 217.324V233.284C244.359 234.88 244.752 236.109 245.537 236.97C246.322 237.831 247.475 238.262 248.995 238.262C250.515 238.262 251.68 237.831 252.491 236.97C253.302 236.109 253.707 234.88 253.707 233.284V217.324H260.205V233.246C260.205 235.627 259.698 237.641 258.685 239.288C257.672 240.935 256.304 242.176 254.581 243.012C252.884 243.848 250.984 244.266 248.881 244.266C246.778 244.266 244.891 243.861 243.219 243.05C241.572 242.214 240.268 240.973 239.305 239.326C238.342 237.654 237.861 235.627 237.861 233.246V217.324H244.359ZM278.372 244L272.824 233.93H271.266V244H264.768V217.324H275.674C277.777 217.324 279.563 217.691 281.032 218.426C282.527 219.161 283.641 220.174 284.376 221.466C285.111 222.733 285.478 224.151 285.478 225.722C285.478 227.495 284.971 229.079 283.958 230.472C282.97 231.865 281.501 232.853 279.55 233.436L285.706 244H278.372ZM271.266 229.332H275.294C276.485 229.332 277.371 229.041 277.954 228.458C278.562 227.875 278.866 227.052 278.866 225.988C278.866 224.975 278.562 224.177 277.954 223.594C277.371 223.011 276.485 222.72 275.294 222.72H271.266V229.332ZM124.358 251.324C127.17 251.324 129.627 251.881 131.73 252.996C133.832 254.111 135.454 255.681 136.594 257.708C137.759 259.709 138.342 262.027 138.342 264.662C138.342 267.271 137.759 269.589 136.594 271.616C135.454 273.643 133.82 275.213 131.692 276.328C129.589 277.443 127.144 278 124.358 278H114.364V251.324H124.358ZM123.94 272.376C126.397 272.376 128.31 271.705 129.678 270.362C131.046 269.019 131.73 267.119 131.73 264.662C131.73 262.205 131.046 260.292 129.678 258.924C128.31 257.556 126.397 256.872 123.94 256.872H120.862V272.376H123.94ZM148.471 256.53V261.926H157.173V266.942H148.471V272.794H158.313V278H141.973V251.324H158.313V256.53H148.471ZM182.862 259.912C182.862 261.457 182.507 262.876 181.798 264.168C181.088 265.435 179.999 266.461 178.53 267.246C177.06 268.031 175.236 268.424 173.058 268.424H169.03V278H162.532V251.324H173.058C175.186 251.324 176.984 251.691 178.454 252.426C179.923 253.161 181.025 254.174 181.76 255.466C182.494 256.758 182.862 258.24 182.862 259.912ZM172.564 263.256C173.805 263.256 174.73 262.965 175.338 262.382C175.946 261.799 176.25 260.976 176.25 259.912C176.25 258.848 175.946 258.025 175.338 257.442C174.73 256.859 173.805 256.568 172.564 256.568H169.03V263.256H172.564ZM202.851 273.288H192.895L191.299 278H184.497L194.149 251.324H201.673L211.325 278H204.447L202.851 273.288ZM201.179 268.272L197.873 258.506L194.605 268.272H201.179ZM227.866 278L222.318 267.93H220.76V278H214.262V251.324H225.168C227.271 251.324 229.057 251.691 230.526 252.426C232.021 253.161 233.136 254.174 233.87 255.466C234.605 256.733 234.972 258.151 234.972 259.722C234.972 261.495 234.466 263.079 233.452 264.472C232.464 265.865 230.995 266.853 229.044 267.436L235.2 278H227.866ZM220.76 263.332H224.788C225.979 263.332 226.866 263.041 227.448 262.458C228.056 261.875 228.36 261.052 228.36 259.988C228.36 258.975 228.056 258.177 227.448 257.594C226.866 257.011 225.979 256.72 224.788 256.72H220.76V263.332ZM258.241 251.324V256.53H251.173V278H244.675V256.53H237.607V251.324H258.241ZM291.712 251.324V278H285.214V262.002L279.248 278H274.004L268 261.964V278H261.502V251.324H269.178L276.664 269.792L284.074 251.324H291.712ZM302.883 256.53V261.926H311.585V266.942H302.883V272.794H312.725V278H296.385V251.324H312.725V256.53H302.883ZM340.808 278H334.31L323.442 261.546V278H316.944V251.324H323.442L334.31 267.854V251.324H340.808V278ZM364.708 251.324V256.53H357.64V278H351.142V256.53H344.074V251.324H364.708ZM377.621 278.266C375.671 278.266 373.923 277.949 372.377 277.316C370.832 276.683 369.591 275.745 368.653 274.504C367.741 273.263 367.26 271.768 367.209 270.02H374.125C374.227 271.008 374.569 271.768 375.151 272.3C375.734 272.807 376.494 273.06 377.431 273.06C378.394 273.06 379.154 272.845 379.711 272.414C380.269 271.958 380.547 271.337 380.547 270.552C380.547 269.893 380.319 269.349 379.863 268.918C379.433 268.487 378.888 268.133 378.229 267.854C377.596 267.575 376.684 267.259 375.493 266.904C373.771 266.372 372.365 265.84 371.275 265.308C370.186 264.776 369.249 263.991 368.463 262.952C367.678 261.913 367.285 260.558 367.285 258.886C367.285 256.403 368.185 254.465 369.983 253.072C371.782 251.653 374.125 250.944 377.013 250.944C379.952 250.944 382.321 251.653 384.119 253.072C385.918 254.465 386.881 256.416 387.007 258.924H379.977C379.927 258.063 379.61 257.391 379.027 256.91C378.445 256.403 377.697 256.15 376.785 256.15C376 256.15 375.367 256.365 374.885 256.796C374.404 257.201 374.163 257.797 374.163 258.582C374.163 259.443 374.569 260.115 375.379 260.596C376.19 261.077 377.457 261.597 379.179 262.154C380.902 262.737 382.295 263.294 383.359 263.826C384.449 264.358 385.386 265.131 386.171 266.144C386.957 267.157 387.349 268.462 387.349 270.058C387.349 271.578 386.957 272.959 386.171 274.2C385.411 275.441 384.297 276.429 382.827 277.164C381.358 277.899 379.623 278.266 377.621 278.266Z" fill="#E5E5E5"/>
</svg>
