<svg width="392" height="355" viewBox="0 0 392 355" fill="none" xmlns="http://www.w3.org/2000/svg">
<path d="M28.9714 264.75L195.839 2.79195L362.706 264.75H28.9714Z" stroke="#F40000" stroke-width="3"/>
<path d="M103.14 216.9V240H100.83V220.398L92.7454 233.928H92.4154L84.3304 220.398V240H82.0204V216.9H84.8914L92.5804 229.77L100.269 216.9H103.14ZM123.792 240L121.647 234.324H110.691L108.546 240H106.104L114.981 216.9H117.357L126.234 240H123.792ZM111.516 232.146H120.822L116.169 219.771L111.516 232.146ZM144.05 216.9H146.36V240H144.38L131.51 221.19V240H129.2V216.9H131.18L144.05 235.71V216.9ZM167.008 240L164.863 234.324H153.907L151.762 240H149.32L158.197 216.9H160.573L169.45 240H167.008ZM154.732 232.146H164.038L159.385 219.771L154.732 232.146ZM193.655 229.011V230.199C193.655 233.059 192.632 235.479 190.586 237.459C188.54 239.417 185.801 240.396 182.369 240.396C178.871 240.396 175.978 239.241 173.69 236.931C171.402 234.621 170.258 231.794 170.258 228.45C170.258 225.106 171.402 222.279 173.69 219.969C175.978 217.659 178.871 216.504 182.369 216.504C184.503 216.504 186.461 217.021 188.243 218.055C190.025 219.089 191.4 220.464 192.368 222.18L190.322 223.368C189.596 221.96 188.518 220.838 187.088 220.002C185.658 219.166 184.085 218.748 182.369 218.748C179.487 218.748 177.133 219.683 175.307 221.553C173.481 223.423 172.568 225.722 172.568 228.45C172.568 231.178 173.481 233.477 175.307 235.347C177.133 237.217 179.487 238.152 182.369 238.152C184.965 238.152 187.044 237.503 188.606 236.205C190.168 234.885 191.059 233.213 191.279 231.189H182.105V229.011H193.655ZM199.927 237.822H211.147V240H197.617V216.9H210.982V219.078H199.927V227.262H210.157V229.44H199.927V237.822ZM236.236 216.9V240H233.926V220.398L225.841 233.928H225.511L217.426 220.398V240H215.116V216.9H217.987L225.676 229.77L233.365 216.9H236.236ZM243.82 237.822H255.04V240H241.51V216.9H254.875V219.078H243.82V227.262H254.05V229.44H243.82V237.822ZM273.859 216.9H276.169V240H274.189L261.319 221.19V240H259.009V216.9H260.989L273.859 235.71V216.9ZM295.958 216.9V219.078H288.863V240H286.553V219.078H279.458V216.9H295.958Z" fill="white"/>
<path d="M232 186H166C162.964 186 160.371 184.929 158.223 182.787C156.074 180.645 155 178.06 155 175.032C155 172.005 156.074 169.42 158.223 167.278C160.371 165.136 162.964 164.065 166 164.065H232C235.036 164.065 237.629 165.136 239.777 167.278C241.926 169.42 243 172.005 243 175.032C243 178.06 241.926 180.645 239.777 182.787C237.629 184.929 235.036 186 232 186ZM171.457 169.548C169.939 169.548 168.65 170.091 167.59 171.176C166.53 172.262 166 173.561 166 175.075C166 176.589 166.53 177.874 167.59 178.931C168.65 179.988 169.939 180.516 171.457 180.516C172.975 180.516 174.279 179.988 175.367 178.931C176.456 177.874 177 176.589 177 175.075C177 173.561 176.456 172.262 175.367 171.176C174.279 170.091 172.975 169.548 171.457 169.548ZM226.5 169.548H193.5C191.953 169.548 190.65 170.091 189.59 171.176C188.53 172.262 188 173.561 188 175.075C188 176.589 188.53 177.874 189.59 178.931C190.65 179.988 191.953 180.516 193.5 180.516H226.5C227.99 180.516 229.279 179.988 230.367 178.931C231.456 177.874 232 176.589 232 175.075C232 173.561 231.456 172.262 230.367 171.176C229.279 170.091 227.99 169.548 226.5 169.548ZM223.75 136.645H220.312C219.797 138.644 218.966 140.587 217.82 142.472L219.453 144.1C220.484 145.128 221 146.37 221 147.827C221 149.284 220.484 150.526 219.453 151.554C218.422 152.583 217.176 153.097 215.715 153.097C214.254 153.097 213.008 152.583 211.977 151.554L210.344 149.841C208.453 150.983 206.505 151.811 204.5 152.326V155.839C204.5 157.381 203.97 158.681 202.91 159.737C201.85 160.794 200.561 161.323 199.043 161.323C197.525 161.323 196.221 160.794 195.133 159.737C194.044 158.681 193.5 157.381 193.5 155.839V152.326C191.495 151.811 189.547 150.983 187.656 149.841L185.938 151.554C184.906 152.583 183.66 153.097 182.199 153.097C180.738 153.097 179.492 152.583 178.461 151.554C177.43 150.526 176.914 149.284 176.914 147.827C176.914 146.37 177.43 145.128 178.461 144.1L180.18 142.386C179.034 140.558 178.203 138.644 177.688 136.645H174.25C172.703 136.645 171.4 136.117 170.34 135.06C169.28 134.003 168.75 132.718 168.75 131.204C168.75 129.69 169.28 128.391 170.34 127.305C171.4 126.22 172.703 125.677 174.25 125.677H177.688C178.203 123.678 179.034 121.736 180.18 119.851L178.461 118.137C177.43 117.109 176.914 115.866 176.914 114.41C176.914 112.953 177.43 111.711 178.461 110.682C179.492 109.654 180.738 109.14 182.199 109.14C183.66 109.14 184.906 109.654 185.938 110.682L187.656 112.482C189.547 111.339 191.495 110.511 193.5 109.997V106.484C193.5 104.999 194.03 103.713 195.09 102.628C196.15 101.543 197.439 101 198.957 101C200.475 101 201.779 101.543 202.867 102.628C203.956 103.713 204.5 104.999 204.5 106.484V109.997C206.505 110.511 208.424 111.311 210.258 112.396L211.977 110.682C213.008 109.654 214.254 109.14 215.715 109.14C217.176 109.14 218.422 109.654 219.453 110.682C220.484 111.711 221 112.953 221 114.41C221 115.866 220.484 117.109 219.453 118.137L217.734 119.765C218.938 121.707 219.797 123.678 220.312 125.677H223.75C225.297 125.677 226.6 126.22 227.66 127.305C228.72 128.391 229.25 129.69 229.25 131.204C229.25 132.718 228.706 134.003 227.617 135.06C226.529 136.117 225.24 136.645 223.75 136.645ZM199 120.194C195.964 120.194 193.371 121.265 191.223 123.407C189.074 125.549 188 128.134 188 131.161C188 134.189 189.074 136.774 191.223 138.916C193.371 141.058 195.964 142.129 199 142.129C202.036 142.129 204.629 141.058 206.777 138.916C208.926 136.774 210 134.189 210 131.161C210 128.134 208.926 125.549 206.777 123.407C204.629 121.265 202.036 120.194 199 120.194Z" fill="white"/>
</svg>
