<svg width="392" height="355" viewBox="0 0 392 355" fill="none" xmlns="http://www.w3.org/2000/svg">
<path d="M28.9714 264.75L195.839 2.79195L362.706 264.75H28.9714Z" stroke="#F40000" stroke-width="3"/>
<path d="M126.359 221.9V245H124.049V225.398L115.964 238.928H115.634L107.549 225.398V245H105.239V221.9H108.11L115.799 234.77L123.488 221.9H126.359ZM133.943 242.822H145.163V245H131.633V221.9H144.998V224.078H133.943V232.262H144.173V234.44H133.943V242.822ZM159.762 245.396C156.264 245.396 153.371 244.241 151.083 241.931C148.795 239.621 147.651 236.794 147.651 233.45C147.651 230.106 148.795 227.279 151.083 224.969C153.371 222.659 156.264 221.504 159.762 221.504C161.896 221.504 163.854 222.021 165.636 223.055C167.418 224.067 168.793 225.442 169.761 227.18L167.715 228.368C166.989 226.96 165.911 225.838 164.481 225.002C163.051 224.166 161.478 223.748 159.762 223.748C156.88 223.748 154.526 224.683 152.7 226.553C150.874 228.423 149.961 230.722 149.961 233.45C149.961 236.178 150.874 238.477 152.7 240.347C154.526 242.217 156.88 243.152 159.762 243.152C161.478 243.152 163.051 242.734 164.481 241.898C165.911 241.062 166.989 239.94 167.715 238.532L169.761 239.687C168.815 241.425 167.44 242.811 165.636 243.845C163.854 244.879 161.896 245.396 159.762 245.396ZM188.409 221.9H190.719V245H188.409V234.209H175.869V245H173.559V221.9H175.869V232.031H188.409V221.9ZM211.367 245L209.222 239.324H198.266L196.121 245H193.679L202.556 221.9H204.932L213.809 245H211.367ZM199.091 237.146H208.397L203.744 224.771L199.091 237.146ZM231.625 221.9H233.935V245H231.955L219.085 226.19V245H216.775V221.9H218.755L231.625 240.71V221.9ZM239.205 221.9H241.515V245H239.205V221.9ZM257.601 245.396C254.103 245.396 251.21 244.241 248.922 241.931C246.634 239.621 245.49 236.794 245.49 233.45C245.49 230.106 246.634 227.279 248.922 224.969C251.21 222.659 254.103 221.504 257.601 221.504C259.735 221.504 261.693 222.021 263.475 223.055C265.257 224.067 266.632 225.442 267.6 227.18L265.554 228.368C264.828 226.96 263.75 225.838 262.32 225.002C260.89 224.166 259.317 223.748 257.601 223.748C254.719 223.748 252.365 224.683 250.539 226.553C248.713 228.423 247.8 230.722 247.8 233.45C247.8 236.178 248.713 238.477 250.539 240.347C252.365 242.217 254.719 243.152 257.601 243.152C259.317 243.152 260.89 242.734 262.32 241.898C263.75 241.062 264.828 239.94 265.554 238.532L267.6 239.687C266.654 241.425 265.279 242.811 263.475 243.845C261.693 244.879 259.735 245.396 257.601 245.396ZM286.455 245L284.31 239.324H273.354L271.209 245H268.767L277.644 221.9H280.02L288.897 245H286.455ZM274.179 237.146H283.485L278.832 224.771L274.179 237.146ZM294.173 242.822H304.733V245H291.863V221.9H294.173V242.822Z" fill="white"/>
<g clip-path="url(#clip0)">
<path fill-rule="evenodd" clip-rule="evenodd" d="M187.58 162.711L215.72 134.293C221.305 137.204 227.951 136.665 232.221 132.358C235.508 129.033 236.623 124.263 235.632 119.663L228.38 126.973L221.919 128.253L214.1 120.433L215.444 113.714L222.634 106.544C218.084 105.543 213.357 106.655 210.065 109.98C205.796 114.292 205.262 121.001 208.149 126.65L180.009 155.073C174.42 152.162 167.773 152.705 163.499 157.008C160.221 160.333 159.106 165.102 160.093 169.698L167.349 162.388L173.805 161.113L181.634 168.933L180.281 175.651L173.091 182.822C177.641 183.818 182.368 182.711 185.655 179.386C189.924 175.079 190.463 168.36 187.58 162.711V162.711Z" fill="white"/>
</g>
<defs>
<clipPath id="clip0">
<rect width="81" height="77" fill="white" transform="translate(155 106)"/>
</clipPath>
</defs>
</svg>
