<svg xmlns="http://www.w3.org/2000/svg" viewBox="0 0 1080 1080"><defs><style>.a{fill:none;stroke:red;stroke-linecap:round;stroke-linejoin:round;stroke-width:4px;}</style></defs><title>drone-9(red)</title><path class="a" d="M108.75,565.31l25.32-48.37,4.54,4.53s-8.7,5.29,3,7.56l2.27,4.16-30.24,41.57Z"/><polyline class="a" points="141.63 529.03 159.44 534.89 195.87 476.92 190.2 467.14 138.61 521.47"/><path class="a" d="M174,511.68v23.78s-3.25,6.23-7.5,3.54-7.09-4.11-7.09-4.11"/><path class="a" d="M157.54,501.53S150,500.11,151.4,508"/><path class="a" d="M140.6,537.72l59.8,27.22s5.48-32.32-8.69-53.26a60.79,60.79,0,0,0-10.27-11.8"/><path class="a" d="M167.31,491.25c-7.09-2.84-14-3.76-19.82-4.55a10.82,10.82,0,0,0-7.75,1.52,10,10,0,0,0-2.35,2.23l0,0c-3,3.88-3.3,9.27-3.3,9.27v17.2"/><path class="a" d="M200.4,564.94l129.26-32.51-54.23-15.12s.94-4.15,21.92-11.33,83.15-25.89,133-32.13,38.92-6.8,54.61-3.21l148.91,44.6L866,583.36l199.84,59.25s11,5.38-30.9,33.45-77.38,38.26-85.32,36.56,12.19-21.82,35.15-34.86,64.06-35.86,81.07-35.15"/><line class="a" x1="949.6" y1="712.62" x2="329.66" y2="532.43"/><path class="a" d="M137.37,490.47a228.17,228.17,0,0,1,61.33-41.19c36.57-16.44,112-56.41,193.89-33.73s84.54,33.74,89,54.29"/><path class="a" d="M439,430.15l46.89,12.61s8.15.57,5.39,14.74l-9.61,9.36"/><path class="a" d="M655.62,394.81s-51-15.54-61.77-18.38,6.52-10.49,13.32-12.75,21-.57,21-.57l40.07,7.57"/><path class="a" d="M725.2,381.43C797,395,883,411.13,887,411.68c6.81.94,1.89,3.78,1.89,3.78s-11,5.85-18.14,8.88-18,3-18,3L723.14,407.91l-34-5.11,35.34-14.74.77-6.63,11.89-101.85L715,281.09l-46.76,89.59-12.6,24.13L647.9,409.6l-160,33.85"/><path class="a" d="M649.6,424l73.54-16L717.82,510.7s-15.69,8.69-22.49,4L649.6,424,491.24,457.5"/><path class="a" d="M167.24,466.81s-136-79.89-137.3-81.4-6.8-4.54,3.78-8.5,52-15.31,75-12.67,17.76.19,43.84,8.13,140.47,41.84,140.47,41.84"/><path class="a" d="M143.9,652.24s-48.76,13.23-33.26,63.12S174,746,174,746,193.79,684.37,143.9,652.24Z"/><path class="a" d="M133,656.87s2.78-12.94,18.09-17.48,50.27-17.19,50.27-17.19,22.48-3.4,40.82,46.86-2.46,75.4-2.46,75.4a74.62,74.62,0,0,0-30.24,5.18c-16.25,6.35-31.93,11.64-37.6,8.81s-15.31-8.81-15.31-8.81"/><path class="a" d="M180.73,629.52l-1.12-28.87s-.32-12.28,11.75-5.48,46.46,23.63,46.46,23.63,20.22,11.9,20.22,31-1.89,105.82-1.89,105.82l-16.44-11.15"/><polyline class="a" points="201.22 752.77 216.28 762.04 248.95 750.73"/><polyline class="a" points="216.28 762.04 242.73 779.61 326.45 749.64 384.09 710.83 256.15 755.61"/><path class="a" d="M182.79,593.65s1.17-4.48,11.23-6.74,96.81-25.09,96.81-25.09"/><polyline class="a" points="290.83 542.2 290.83 567.21 324.56 589.74 384.8 573.44 372.61 565.22 372.61 544.98"/><path class="a" d="M485.52,577.73v92.66s.9,4.53-15.83,10.77-85.6,29.67-85.6,29.67"/><path class="a" d="M524.56,589.08,514.27,612.2a53.83,53.83,0,0,1-6,10.26L485.52,653"/><line class="a" x1="431.12" y1="694.72" x2="469.34" y2="729.49"/><line class="a" x1="411.37" y1="701.51" x2="457.13" y2="745.4"/><path class="a" d="M522.7,733.31s-19.25-26-45.35-9.95c-28.35,17.47-32.46,56.87-22.11,65.8,13.3,11.48,21,17.29,30.63,15.59s28.89-11.91,35.41-29.77S528.41,739.33,522.7,733.31Z"/><path class="a" d="M501.44,745.22s-22.39,3.4-20.41,28.06,25.8.29,26.93-7.93S511.93,747.77,501.44,745.22Z"/><path class="a" d="M511.83,723.36s-40.44,10.33-44.69,43.69c-1.35,10.57-1,26.76,2.84,33.22"/><path class="a" d="M309.76,755.61s2.7,22.49-20.54,40.45-42.33,4.34-42.33,4.34-20.06-11.29-17.78-29.83"/><path class="a" d="M290.39,762.55s-6.08,18-16.29,21-14.24-7-15.06-9.81"/><path class="a" d="M204.94,755.61s5.15,27.2,28.27,31.74"/></svg>