<svg xmlns="http://www.w3.org/2000/svg" xmlns:xlink="http://www.w3.org/1999/xlink" viewBox="0 0 595.28 841.89"><defs><style>.a,.c{fill:none;}.b{clip-path:url(#a);}.c{stroke:#ed2024;stroke-miterlimit:10;stroke-width:4px;}</style><clipPath id="a"><polyline class="a" points="595.28 0 595.28 841.89 0 841.89 0 0"/></clipPath></defs><title>drone-11(red)</title><g class="b"><path class="c" d="M289.44,285.36,330.12,276v17.28a7.15,7.15,0,0,1-4.2,3.66c-3,.9-36.78,10.32-36.78,10.32Z"/><path class="c" d="M228.6,248.82s26.1,11.34,26.64,27.18l28.62,4.5s29.34-16.56,62.82-15.84l7.08-11.58s-27.12-9.36-32.88-26.28l-23.24-2.28s-18,7.56-21.52,6.72L276,201.12s5-2,4.8-3-7.56-12.72-16.32,0c0,0,2.16,2.64,4.44,2.52l.48,32.52.05.92S244.26,238.2,239,238Z"/><path class="c" d="M353.76,253.08c4.38,3.72,62.4,11.22,62.4,11.22l34.92,4.14,46.92,4,7.92,2.16,13.08,1.2s-.72,2.64,1.08-3.48a7.66,7.66,0,0,1,7.59-5.77s3.11-3.11,5.49-5S536,261,536,261l2.69,6.51c7,3.12,5.88,5.4,5.88,5.4l-.84,7.44c18,11.28,2.88,16.56,2.88,16.56L556.44,324a21.41,21.41,0,0,1,3.12,11.52c-.24,6.48-14.4.48-14.4.48l-21.84-40.8-3.6-.72L401.4,274.56a261.28,261.28,0,0,0-54-6.72c-28.08-.24-61.56,14.64-61.56,14.64l-2.16,1.44-7.8,8.52-34.56,47.88s-14.16,29.76-19.68,43.92-31.44,13.2-31.44,13.2l-31.68,72.24c-10.32,5.52-13.2-4.8-13.2-4.8l22.08-72L170,390c-4.56-9.12,9.6-19.23,9.6-19.23l.09-2c-1.26-8.46,7-10,7-10s4-5,3.51-5.94.36-2.88.36-2.88L208,307.32l2-4.95,1.17-2c5.49-8.37,12.24,4.5,12.24,4.5l-3.42,23s32.22-44.82,32.76-45.63.72-4.5.72-4.5c-1.2-15-27.72-27.24-27.72-27.24l-3.84-.72L99.72,235.44c-10,.84-27-1.44-27-1.44L48.06,260.16s-6.66,3.24-8.1.54S44.64,253,44.64,253l20.25-24.3a11.23,11.23,0,0,1,3.55-1.3l5.18-4.91.63-.49-.32-5.36s-.76-4.27,4.37-4.77l2.29-6.48s.45-3.06,2.88-.18L85,207.11l12.42-13.05,10.89-10.85s5-2.16,8.1,3.87l-13,24s-1.35,1.44-10.71,1a9.58,9.58,0,0,1,1.62,3.15,37.35,37.35,0,0,1,.72,4.68s31.5,5.13,41,6.93,43.47,6.84,43.47,6.84S236.7,239.46,239,238"/><path class="c" d="M320.88,226.8l16-24.12h6.24a14.78,14.78,0,0,0,2.4-7.2l.6-3.23L359.4,181.2s1.2-3.72-5.64-6.6v-5.76l1.44-1.56-4.68-19.8s-7.32-6.36-7.92-.84-2.42,16.8-2.42,16.8-.1,2.28.86,2.28-6,1.56-3.84,3.84l-.24,5.52s-7.56-.12-8.28,7c0,0-10,23.76-31,42.48"/><line class="c" x1="289.44" y1="285.36" x2="289.14" y2="281.1"/><line class="c" x1="330.12" y1="276" x2="323.41" y2="270.53"/><path class="c" d="M330.12,284.52s5-2.88,5.16-4-4.56-7.75-9.36-10"/><path class="c" d="M336.69,268.4l.75,32.2s7.68,1.8,7.8,0-.72-11,7.92-15.7,10.68-7.46,36.72-4.4S470,292.2,470,292.2l45.24,8.28s2.76-.36,1.8-1.92l9,1.84"/><path class="c" d="M523.32,295.2l-1.08-3s-1.8-1,3.36-4.08,10.08-6.6,10.08-8.52h3.24V282s1.8-.24,3.72,3.72a89,89,0,0,1,4,11.16"/><path class="c" d="M519,275.76l-1.44,7.92s1.92,5.52,7,4.56"/><path class="c" d="M544.14,276.59s-.18,1.57-5.22,3h-3.24s-13.09,1.94-15.14-8.57"/><path class="c" d="M538.68,267.48c-5.23,6.29-11-1-11-1l-.54,3.53s7.07,6.06,11.7,1Z"/><path class="c" d="M524.18,267.27l-4.4-3.75L506.34,228.9a10.47,10.47,0,0,1,10.2,3.78c4,5.22,18.29,27.82,18.29,27.82"/><path class="c" d="M285.84,282.48l-3.24,14.67,1.08,1.8s-3.15,4.54-6.21,2.45c0,0-20.43,20.5-30.51,40.12l-2.77,5.3c-2.91,5.55-7.07,13.45-7.13,13.43h0L235,364.68l-11.43,24.54s-1.59,13.92-35.72,13.59"/><path class="c" d="M170,390s18.06-7.08,21.84-13.56l3.28.23-.31,9.94-4.65,10.83"/><path class="c" d="M191.88,376.44a15,15,0,0,1-12.24-5.67v9.75s.63,3.42,2.41,3.78"/><path class="c" d="M195.16,376.67s14.9-6.17,13.19-11.3-7.83-8.28-10.17-7.83l-4.32-5s-1.91-3.19-3.6.27"/><path class="c" d="M198.18,357.54c2.65,3-.27,5.76-.27,5.76s-7.92,2.61-10.44.66a3.33,3.33,0,0,1-1.33-2.37,5.43,5.43,0,0,1,.61-2.79"/><path class="c" d="M186.13,361.11v4.8s8,3.9,13.58-1l-.34-4.95"/><path class="c" d="M199.71,357.63l13.23-1.44s3,1.17,3.87-7S220,327.93,220,327.93"/><path class="c" d="M208.49,366.84l1.09,14.58s-1.65,6.93-15.61,7.25"/><line class="c" x1="225.42" y1="320.33" x2="221.09" y2="320.33"/><path class="c" d="M207.14,309.42l-8.78-9.54s-3.58-4.8,4.39-5.76,20.81-6.24,26.57-9.48c0,0,2.4-4.44-1.92-11.28s-10.56-16.8-24.48-18L117.72,244,74.4,238.32a19.67,19.67,0,0,1-4.12-1.73"/><polyline class="c" points="68.65 227.16 82.31 220.74 84.69 220.74 72.72 234"/><path class="c" d="M85,207.11a17,17,0,0,1,2.88,3.64s3.15-.45,4.86,1.35"/><path class="c" d="M74,218.14s7.72,3.87,20.44-2.25"/><line class="c" x1="74.25" y1="221.96" x2="74.94" y2="224.2"/><path class="c" d="M77.6,228.6s12.67,2.31,17.71-4.89L95,219.93"/><path class="c" d="M263.64,317l25.5,1.7s6.44-.52,13.24-1.43a86.26,86.26,0,0,0,12.26-2.35c7.56-2.34,19.44-5.46,19.44-5.46l8.52-5.82,2.12-2.42"/><path class="c" d="M325.92,296.94s10.14,2.19,4.2,4.24S291.06,312,291.06,312h-2.94v-4.38l1-.36"/><polyline class="c" points="283.68 298.95 284.22 299.46 284.46 318.35"/><path class="c" d="M237.44,303.61,233.1,299s-5.36-6.87,11.09-4.74"/><path class="c" d="M239.13,268.55l.09,2.41,0,5.76,0,6.12-2.44,2.28s-.38-9.78-.5-12.12c-.05-.95,1.24-2.84,2.79-4.76,2.26-2.78,5.06-5.61,5.06-5.61v14l-4.68.09"/><line class="c" x1="228.6" y1="284.52" x2="236.84" y2="285.12"/><polyline class="c" points="218.97 249.5 222.36 258.6 220.66 261.36 222.84 264.96 222.06 265.73"/><path class="c" d="M280.2,318.35s-12,78.61,3.48,74.29l-7.91,16.08-8.53-2.16,2.64-9.12s-12.48-31.08-2.64-78.78l.2-1"/><path class="c" d="M192.71,402.81l14.47,30.87,6.12-8.1s1.26-.09,0-26.68"/><polyline class="c" points="186.13 406.73 199.37 432.96 207.18 433.68"/><path class="c" d="M512.43,300l-2.91,7.84s-.15,5,19.73-1.53"/><path class="c" d="M505.38,298.67l-5.82,32.77s4.2,8.28,16.8,3.72l17.32-20.61"/><path class="c" d="M508.32,319.08l-2.88,10.2s1.8,3.84,6.24,1.08S521,320.28,521,320.28,519.6,313.8,508.32,319.08Z"/><polyline class="c" points="269.44 234.07 269.44 245.88 276.6 245.28 276.12 231.24"/><path class="c" d="M302.93,317.15s-4.4,36-5.66,37.51l6.91.45,6.41-12.46h-2.25s3.41-23.52,3.1-26.95"/><path class="c" d="M337.24,307.26s30,52.37-15,70.49l-1.08,3.91L347,385.8l1.11-4.32-6.66-4.81s34-38.27,3.78-76.07c0,0,6.8-16.58,32.16-17.52l.46-3.69"/><path class="c" d="M336.84,202.68h-1.1l-1.3-23.07s9.4-3.51,11.74-6.48h3.69L346,192.44"/><path class="c" d="M341,165.72h.69l2.43-5s1.17-3.78,2.88,0,2.34,5,2.34,5,4.71,1.08,4.38,3.12"/><path class="c" d="M353.76,174.6v4.68s-.15,2.64-5.47,1.86"/><line class="c" x1="336.96" y1="175.08" x2="336.96" y2="178.59"/><path class="c" d="M337.2,169.56a13.54,13.54,0,0,0,9,3.57"/><path class="c" d="M353.76,169.56s.67,1.18-3.91,3.69"/><path class="c" d="M324.15,233.07s11.55-24.57,28.65-39.78l8-8.1,1-1.35s1.07-4.09-3.48-6.18"/><path class="c" d="M341.73,165.72s2.94,3.13,7.65,0"/><path class="c" d="M78.3,211.83s4.62,4.23,9.54-1.08"/><path class="c" d="M255.6,253.74c.42.48,7.92,8.16,7.92,8.16l11.22-2.4-7.92-8.7Z"/><path class="c" d="M292.2,259.74l12.54-3.12s14.1-1.92,6,2.64l-13.1,4S283.74,263.82,292.2,259.74Z"/><polyline class="c" points="269.44 245.88 267.18 243.54 269.44 243.06"/><path class="c" d="M276.48,241.68l9.36-2.52s10.2-.06,5,2.52l-14,2.79"/><path class="c" d="M268.92,200.64s-.48.66,7.08.48"/><path class="c" d="M265.85,196.31a12.28,12.28,0,0,0,13.84,0"/><path class="c" d="M268.32,193.92s6.71,1.61,8.16-.57"/><path class="c" d="M235,364.68l24.57,4,2.76-4S244.18,349,244.67,345.9"/><path class="c" d="M237.06,360.24c3.42-.72,5.82-1.2,5.82-1.2l-2.91-4.2"/><path class="c" d="M208.8,426.84s2.88-2.88,2.76-3.24,0-11.76,0-11.76-6.19-4.84-6.12,6.72Z"/><polyline class="c" points="198.24 402.82 201.77 409.32 209.58 402.81 209.58 400.34"/><path class="c" d="M75.79,238.5c.17,1,20.87,34.5,20.87,34.5a44.68,44.68,0,0,0,9.54,1.38l4.32-2.88-3.94-29"/><path class="c" d="M97.73,241.36l2.35,9.08S94,252.89,86.45,245.9s-5.06-6.67-5.06-6.67"/><path class="c" d="M98.28,269.52l5.76.9-2-9.9-8.91-5.58s-3-.72-.45,5A45.78,45.78,0,0,0,98.28,269.52Z"/><polyline class="c" points="338.17 209.81 338.17 224.03 342.5 224.21 343.58 202.87"/><polyline class="c" points="348.06 197.87 345.15 220.69 342.5 224.21"/><path class="c" d="M273,263.3l4.54,4.06s2.76.72,1.56-1.32-4.38-4.14-4.38-4.14S272.92,261.77,273,263.3Z"/><polygon class="c" points="330.6 249 332.64 248.4 334.8 249.96 332.7 250.8 330.6 249"/><polygon class="c" points="334.2 252 336.69 253.92 337.56 252.96 336.69 250.8 334.2 252"/><polygon class="c" points="316.56 263.3 314.52 265.44 318 265.44 316.56 263.3"/><polygon class="c" points="304.68 265.44 304.08 267.48 306.36 267.48 304.68 265.44"/><polygon class="c" points="295.56 268.4 295.08 270.53 296.88 270.53 295.56 268.4"/><polygon class="c" points="321.72 241.2 325.92 241.2 324.15 238.56 321.72 241.2"/><polygon class="c" points="285.36 233.07 288 233.88 288.6 231.24 285.36 233.07"/><path class="c" d="M294,227.64s1.8,1,2.76,0S295.32,225.84,294,227.64Z"/><polygon class="c" points="238.92 249.6 240.26 251.28 241.56 251.28 240.26 248.4 238.92 249.6"/></g></svg>