<?xml version="1.0" encoding="utf-8"?>
<!-- Generator: Adobe Illustrator 23.0.1, SVG Export Plug-In . SVG Version: 6.00 Build 0)  -->
<svg version="1.1" id="Layer_1" xmlns="http://www.w3.org/2000/svg" xmlns:xlink="http://www.w3.org/1999/xlink" x="0px" y="0px"
	 viewBox="0 0 936.3 629.8" style="enable-background:new 0 0 936.3 629.8;" xml:space="preserve">
<style type="text/css">
	.st0{fill:none;stroke:#FFFFFF;stroke-width:4;stroke-linecap:round;stroke-linejoin:round;}
</style>
<title>drone -4(white)</title>
<path class="st0" d="M135.3,561c0,0,2-14-13-12l-18-10l-28-19l-24-12l-14-7l-17-6l-9-4c0,0-17.2-3-9.1,14l18.1,16l24,20
	c0,0,11,12,37,16l26,4l5-4c0,0,11-5,11,11l5-2c0,0,68,49,102,60c0,0,18,11,10-11l-53-37c0,0-10-9-36-11L135.3,561z"/>
<polyline class="st0" points="113.3,557 107.3,563 105.3,570 117.3,570 124.3,568 "/>
<path class="st0" d="M127.5,549l2.1-0.9l2.7-1.1c10-2,8.8,10,8.8,10l-5.7,2.8"/>
<path class="st0" d="M129.6,548.2l-0.3-1.1c-3-13,5-15,5-15s15-3,20.8,14.8c3.8,11.6-0.1,16.1-3.2,17.9c-1,0.6-2,0.9-3.2,1.1"/>
<path class="st0" d="M134.3,532.1l10-7c26-6,25.8,28.3,25.8,28.3l-7.9,6.5h7.7c4.7-1.8,9.2-4,13.4-6.5c6-3.7,1-12.3,1-12.3l-18-26
	c0,0-3-4-11,0l-11,7c0,0-2,1,0,3"/>
<path class="st0" d="M162.2,559.8c0,0-9.8,5.1-10.8,5.2"/>
<path class="st0" d="M136.4,561.5c0,0,0.3,0.6,7.3,2.6c3,0.9,4.6-0.3,5.4-1.9c1.2-2.5,0.4-5.4-1.8-7l-4-3l4.4-4.1
	c2.6-5.9-1.9-8.8-3.9-9.1c-1.3-0.2-2.7,0.2-3.7,1l-2.8,2.2l-5-3c0,0-5.3-1.5-3.7,5l1,4.1"/>
<path class="st0" d="M170.1,553.1l1.9-2.4l1.5-1.9l6.8,3.2c0,0,9-1,2-9l-8.6-4l-6.4-10.9v-8.2c0,0-3-9.8-9-3.8v5.7
	c0,0-11.6,2.5-14,3.3"/>
<circle class="st0" cx="142.6" cy="545" r="2"/>
<path class="st0" d="M185.2,543c0,0,18.1-9,19.1-10s26-35,42-40c0,0,23-49-18-59h-2.1l14.1-18c0,0,3-3,10-3c7,0,37,23,32,37
	c0,0,7-8,7,1s-1,20-1,20s-1,5-5,1l-1,23c0,0-3,7-10,4c-5.8-2.7-11.5-5.7-17-9l-9,3"/>
<path class="st0" d="M280.3,480c-2,0-20,9-20,9l13,7c0,0,7,3.6,7-5.2V480z"/>
<line class="st0" x1="255.3" y1="490" x2="260.5" y2="489.2"/>
<polyline class="st0" points="280.3,480 280.3,475.4 283.3,472 "/>
<path class="st0" d="M226.1,434l-11.9,15c0,0-32.3,23.1-49.2,65"/>
<polyline class="st0" points="252.2,471.9 229.3,456 226.1,457 214.3,449 "/>
<line class="st0" x1="243.3" y1="441.4" x2="229.3" y2="456"/>
<path class="st0" d="M229.3,434.3c0,0,1.9,11.1,8,13.4"/>
<path class="st0" d="M177.4,490c0,0,27.3,17.8,34.6,33.4"/>
<path class="st0" d="M194.7,467.3c0,0,33.6,18,34.6,37.4"/>
<path class="st0" d="M230,429.1v-17.3c0,0-0.7-7.8,9.3-3.8s16,6.7,16,6.7s-1-0.7-12-4.6s-10.1,2.9-10.1,2.9v12"/>
<path class="st0" d="M233.3,407l67-65l17-11l2.2-0.6l1-0.3l0.6-0.2l1.7-0.5c10.7-2.7,34.6-6.8,50.5,4.6l8,6l6,20l60,72l210,64l5,1
	l59,13c0,0,53-3,20-11h-32c0,0-28-13-25-19c0,0,35,4,48,8s40,7,40,7s50-7,15-11l-35-4c0,0-33-13-28-20s18,6,18,6s24,14,71,10
	c0,0,30-7,5-13c0,0-41,4-62-11l-9-8l17-11c0,0-10-2-19-19s-5-16-24-20s-23-1-29-15s-11-13-21-13s-24-2-27-18s-31-12-31-12
	s-29,6-34,16l-15-10l-62-35c0,0-18-13-37-9l-32-18c0,0-10-7-1-13l-80-47c0,0,19-11,20-15s12-24-21-23s-30-15-30-15s4-9-24-11
	s-23-14-23-14s-1-14-25-14s-43-7-43-14l-20,12c0,0-30-7-37-32c0,0-8-36-16,4c0,0-1,21,27,35l-12,6c0,0-30-4-33-40c0,0-18-1-11,21
	l20,31l-12,10c0,0-18-3-23-24c0,0-10-34-12,8l22,33l117,124l51,14l48,12l3,1l1,1"/>
<path class="st0" d="M280.3,497.8c0,0,91-0.5,179.3-62"/>
<path class="st0" d="M432.3,267l20.5-11.3c0,0,0.8-2.7,7.9-0.9c0.5,0.1,1,0.3,1.5,0.4c4.8,1.6,9.4,3.7,13.7,6.2
	c21.4,11.7,30.4,17.7,30.4,17.7s5,5,0,9s-18.5,11.9-18.5,11.9"/>
<path class="st0" d="M564.3,342l86-101c0,0,12-41-29-54l-160.6,67.8"/>
<line class="st0" x1="277.8" y1="433.5" x2="387.3" y2="360"/>
<path class="st0" d="M507.8,280.5l129.8-85.4l50.3-146c0,0,11,6,68.1-38l17-10c0,0,10-2,1,20c0,0-5,13,2,20s-1,22-1,22s-6,11,2,21
	c0,0,1.7,8.8-1.2,13.9s-8.8,20.1-0.8,24.1l-16,17v4l-42.1,24l48.1-22l19-12c0,0,2,11,24,6s23,1,29,8s32.1,0,32.1,0s14,1,14,8
	c0,0,1,9,32.1,7c0,0,21-2,20,5l-18,11v1c0,0-35.1,29-46.1,30s-220,12.4-220,12.4"/>
<line class="st0" x1="279.8" y1="436.5" x2="388.8" y2="362.5"/>
<line class="st0" x1="508.8" y1="284.5" x2="639.8" y2="197.6"/>
<path class="st0" d="M627.9,189.6l15.4-109.6c0,0,21.8-18.1,42.9-25.1"/>
<path class="st0" d="M687.8,50.1c0,0-0.2-9,68.1-38l3,128.1"/>
<path class="st0" d="M917.2,180.2c0,0-51,23.6-48.5,30.2"/>
<path class="st0" d="M657.3,496l90-52C747.3,444,678.3,454,657.3,496z"/>
<path class="st0" d="M747.3,444l-168-92c0,0-112,21-132,80"/>
<path class="st0" d="M373.3,334c0,0,36.5-40.2,76.7-44.6"/>
<path class="st0" d="M216.3,302c0,0,18-58,136-82l-166-94c-69,16-87,52-87,52"/>
<line class="st0" x1="716.9" y1="168.2" x2="648.7" y2="210.4"/>
<line class="st0" x1="765" y1="146.2" x2="917.2" y2="179.2"/>
</svg>
