<?xml version="1.0" encoding="utf-8"?>
<!-- Generator: Adobe Illustrator 23.0.1, SVG Export Plug-In . SVG Version: 6.00 Build 0)  -->
<svg version="1.1" id="Layer_1" xmlns="http://www.w3.org/2000/svg" xmlns:xlink="http://www.w3.org/1999/xlink" x="0px" y="0px"
	 viewBox="0 0 1080 1080" style="enable-background:new 0 0 1080 1080;" xml:space="preserve">
<style type="text/css">
	.st0{fill:none;stroke:#FFFFFF;stroke-width:4;stroke-miterlimit:10;}
</style>
<title>drone -2(white)</title>
<path class="st0" d="M104.9,496.9c0,0-15,16.1-17.3,27.8s-10.8,55-10.8,55s26.1,6.8,28.1,0.8s24.4-61.2,24.4-61.2s2.8-9.8,1.1-25.6
	L104.9,496.9z"/>
<path class="st0" d="M139.2,476.1c0,0,13.9-9.5,16-27.3s9.1-59,9.1-59s-22.8-11.6-26.9-1.1S111,448.1,111,448.1v18"/>
<ellipse class="st0" cx="121.1" cy="475.3" rx="18.2" ry="10.7"/>
<ellipse class="st0" cx="120.5" cy="473.9" rx="10.4" ry="6.2"/>
<ellipse class="st0" cx="121.1" cy="473.7" rx="5.8" ry="3.2"/>
<path class="st0" d="M104.9,496.9c0,0-0.2-4.8,4.4-5.3s20.6-2.4,20.6-2.4s4.2,1.1,0.6,4.4L104.9,496.9z"/>
<path class="st0" d="M139.2,476.1v22.1c0,0-0.9,3.5-8.3,6.9"/>
<line class="st0" x1="102.9" y1="475.3" x2="102.9" y2="499.1"/>
<path class="st0" d="M102.9,492.8c0,0-16.7-7.2-7,15.4"/>
<path class="st0" d="M139.2,498.2v18.2c0,0-2.9,5.7-11.7,7.3"/>
<path class="st0" d="M123,534.7c41.3-7.6,16.1-26.5,16.1-26.5L347,523"/>
<path class="st0" d="M78.2,572.7c0,0,15.7-4.4,29.2,1.3"/>
<path class="st0" d="M134.9,394.5c0,0,11.3-3.8,27.9,4"/>
<path class="st0" d="M859.2,486.9c-1-1.1-5.7-7.1-4.9-18.2c0.8-12.5,6.5-65.2,6.5-65.2s18.1-10.5,27.2,0l6.9,53.4
	c0.5,5.5-0.1,11-1.8,16.3c-1.3,4-2.8,7.8-4.5,11.6"/>
<path class="st0" d="M862.9,508.2c0,0-4.4-3.1,1.3-4.7l22.1,5.8c0,0,4,3.1,0,3.8S862.9,508.2,862.9,508.2z"/>
<path class="st0" d="M862.9,508.2c0,0-9,20.6-7.7,27.8s6.8,60.8,6.8,60.8s3.4,8.5,27,2.3l6.6-57.5c0.8-5.6,0-11.3-2.3-16.4
	c-3.8-8.1-7.1-12-7.1-12"/>
<ellipse class="st0" cx="875.4" cy="492.1" rx="18.4" ry="10.5"/>
<ellipse class="st0" cx="875" cy="490.6" rx="10" ry="6.5"/>
<ellipse class="st0" cx="875" cy="490.3" rx="5.1" ry="3"/>
<path class="st0" d="M893.8,492.1l0.2,21.2c-1,1.9-2.7,3.4-4.8,4.1"/>
<path class="st0" d="M894,513.3c0,0,18.9-5.7,1.3,17.6"/>
<path class="st0" d="M902.8,516.4l0.5,30.2c0,0-0.8,4.5-9.2,9.1"/>
<path class="st0" d="M549.3,292.2l25.8-4.2l122.2,6.2c0,0,4.3-0.9,4.5,4.5c0.2,2.9,0.2,5.9,0,8.8c0,0-0.3,2.5-4.5,2.8
	S593,317.8,593,317.8s-9.3,1.1-23.2-1.4s-22.7-4.4-22.7-4.4"/>
<path class="st0" d="M547.1,311.9c0,0-5.9,4.5-4.8-2.1c0,0,7.3-7.3,5.1-14.8c-0.8-2.6,1.9-2.8,1.9-2.8S552.3,305.1,547.1,311.9z"/>
<path class="st0" d="M547.1,292.3c0,5.9-8,10.7-17.8,10.7s-18.1-4.8-18.1-10.7s8.3-10.7,18.1-10.7S547.1,286.3,547.1,292.3z"/>
<ellipse class="st0" cx="529.4" cy="291.1" rx="10.6" ry="6.1"/>
<ellipse class="st0" cx="529.9" cy="290.6" rx="6" ry="3"/>
<path class="st0" d="M511.1,298.4c0,3.1,5.3,6.1,5.3,6.1s1.2,5.8-2.8,2.8s-5.9-5.5-4.5-10.1c0,0-24.7-4.1-35.3-4.2s-113,0-113,0
	s-4.1,0.5-4,4.2s0.6,11.8,7.9,12l106.4,2c0.7,0,1.5,0,2.2-0.1c5.4-0.7,28.7-3.5,33.8-3.5l6.4-0.1"/>
<line class="st0" x1="511.1" y1="292.3" x2="511.1" y2="298.4"/>
<path class="st0" d="M509.1,297.2c0,0,0.6-1.7,1.7-1.5"/>
<path class="st0" d="M511.2,319.6v15.7c0,0.6,18.6,15.8,35.9,0v-15.7"/>
<path class="st0" d="M511.2,315.6v4c0,0.6,18.6,15.8,35.9,0v-4"/>
<path class="st0" d="M511.2,307.9c0.3,0.1-11.9,10.2-9.9,34.6c0,0.4,0.2,0.9,0.4,1.3c2.7,5.8,31.2,20.4,53.1-0.5
	c0,0,5.9-6.6-7.8-31.3v3.7c-17.3,14.7-35.9,0-35.9,0v-8.3"/>
<path class="st0" d="M501.4,342.5c0,0-0.6-7.9,9.9-14.8"/>
<path class="st0" d="M556.1,337.6c0,0-1.5-3.9-9-8.3"/>
<path class="st0" d="M120.5,541.1c0,0,10.4-0.7,17.9-2.8s43.2,4.7,43.2,4.7l127.6,22.3"/>
<path class="st0" d="M122.6,535.8c5.3-0.4,10.6-1.2,15.8-2.6c7.5-2.1,43.2,4.7,43.2,4.7l125.6,21.9"/>
<path class="st0" d="M528.6,417.6c0,0-13.1-42.7-15.3-50.5c-0.9-3.5-2.5-6.7-4.6-9.6c-0.7-0.8-1.4-1.6-2.3-2.3
	c-10.2-8.8-4.8-25.8-4.8-25.8"/>
<path class="st0" d="M555.7,333.5c0,0,4.5,14.9-2.6,18.7c-3.6,2,1.2,9.3,1.2,9.3l21.5,42.8"/>
<path class="st0" d="M580.6,732.9l19.3-5.1c0,0,4.5-1.7,19.3-3s107.7-10.2,107.7-10.2s12.5,12.8,0,15.3s-93,12.1-93,12.1
	c-6.9,0.7-13.8,1-20.8,0.9c-11.2-0.2-32.5,0-32.5,0S587.4,735.4,580.6,732.9z"/>
<ellipse class="st0" cx="562.7" cy="730" rx="18" ry="10.8"/>
<ellipse class="st0" cx="562.2" cy="729.2" rx="11" ry="6.6"/>
<ellipse class="st0" cx="562.1" cy="728.3" rx="5.4" ry="2.8"/>
<path class="st0" d="M541.3,732.9c0,0,1.8-4.9,2.7,0s1.3,10.3,5.8,13.4s0.8,6.4-1.7,4.3S540,743.5,541.3,732.9z"/>
<path class="st0" d="M541.3,732.9l-32.2-1.8c0,0-10.3-0.4-28.6,3.4s-78.1,12.9-81.1,13.2s-13.9,0.7-3,16l110.7-2.1
	c0,0-0.1,1.6,16.4-3.3s24.5-7.8,24.5-7.8"/>
<path class="st0" d="M580.6,732.9c0,0,0.2,5.3-3.3,8.3s0.9,5.5,3.3,1.7v8.3c0,0-2.5,10.9-18,10.9c-16.2,0-18-10.4-18-10.4v20"/>
<path class="st0" d="M590,777.8c0,7.3-13.2,17.6-28.3,17.6s-27.3-5.9-27.3-13.3s12.2-13.3,27.3-13.3S590,770.5,590,777.8z"/>
<path class="st0" d="M534.5,782.1c0,0-3.1-6.3,2.6-15.2c1.3-2.1,1.4-4.8,0.2-7l-2.8-4.8"/>
<path class="st0" d="M580.6,751.3v19.1c0,0,7,0.5,9,1.4"/>
<path class="st0" d="M544.7,771.8c0,0-8.4,1.4-11,5"/>
<path class="st0" d="M590,777.8c0,0,2.5-8.9-9.4-17.3"/>
<path class="st0" d="M572.1,720.8l-24-110.1c0,0-1.7-6.5,2.1-9.1l111-63.1c1.2-0.8,2.7-1.3,4.2-1.5h4.5c1.2,0,2.5,0.1,3.7,0.2
	l176.7,18.5l7.5,1.7"/>
<path class="st0" d="M538.1,754c0,0,2.5,4,0,9.8"/>
<path class="st0" d="M526.9,732.2l-47.2-89.5c0,0-4.5-4.2-8.1-1.7"/>
<path class="st0" d="M311,580.5l-3.9-34.2l48.5-28.2c0,0,9.8-4.6,15.6-5.8l120.2-68.9c1.5-3,3.6-5.7,6.2-7.9
	c3.8-2.9,45.8-26.2,45.8-26.2l20.2-6l-37.5,30.7l-34.6,22.1l-51.8,30.2l-54.7,29l-73.4,35L311,580.5z"/>
<path class="st0" d="M563.8,403.4l24.9,2.6l89.5,52l1.8,12.4c0,0-163.3-4.8-256.9,145.6l24.1,11.2l45.7-25.6c0,0,3.3-19.2,6.3-21.1
	s113.5-65.2,113.5-65.2l22.7,1.7l47.4-26.3l-3-20.2"/>
<path class="st0" d="M311,580.5l2.4,2.4l82.1,48.5L448,634l13.4-6.8v6.8l33.1-19.7l4.7-12.8v24l-45.9,25.7l-20,12.1
	c0,0-17.3,10.1-35.3,0s-88.4-51.3-88.4-51.3s-10.8-10.3,3.2-19.6l7.6-5.1"/>
<line class="st0" x1="499.3" y1="580.5" x2="499.3" y2="601.6"/>
<line class="st0" x1="492.9" y1="601.6" x2="494.6" y2="614.4"/>
<line class="st0" x1="447.2" y1="627.2" x2="448" y2="634"/>
<path class="st0" d="M452.1,632l1.3,19.3c-1.6-0.2-36.9-18.9-36.9-18.9"/>
<path class="st0" d="M499.3,625.6l114.9-66.2l51.3-29l6.6-0.1l178,18.8l7.1,1.7c-20-11.3-0.7-24.3-0.7-24.3"/>
<path class="st0" d="M682.9,490.8v8.3l162,26.4c1,0.2,2.1,0.3,3.2,0.3h8.8"/>
<polyline class="st0" points="612.8,515.3 612.8,534.2 635.7,532.5 682.9,506.1 682.9,499.1 "/>
<line class="st0" x1="635.5" y1="517" x2="635.7" y2="532.5"/>
<line class="st0" x1="612.8" y1="534.2" x2="612.8" y2="560.2"/>
<path class="st0" d="M499.3,619.6c0,0,17.9-15.1,19.5-5.3"/>
<path class="st0" d="M523.7,574l-13.1,31.1c0,0,1.3,4.9,3.4,0c2.2-4.9,13-30.1,13-30.1S527.5,571.6,523.7,574z"/>
<path class="st0" d="M540.1,565.8L526.9,597c0,0,1.3,4.9,3.4,0s13-30.1,13-30.1S543.9,563.5,540.1,565.8z"/>
<path class="st0" d="M556.5,555.5l-13.1,31.1c0,0,1.3,4.9,3.4,0s13-30.1,13-30.1S560.3,553.2,556.5,555.5z"/>
<path class="st0" d="M573.7,545.8L560.6,577c0,0,1.3,4.9,3.4,0s13-30.1,13-30.1S577.5,543.5,573.7,545.8z"/>
<path class="st0" d="M589.3,536.9L576.2,568c0,0,1.3,4.9,3.4,0s13-30.1,13-30.1S593.1,534.6,589.3,536.9z"/>
<path class="st0" d="M668.6,530.3c0,0-2.4-11.9,13.2-10.3v-13.3"/>
<path class="st0" d="M311.3,593.6c0,0-15.5,9.4-2.5,22.9l18.4,11.9l76.3,41.9c9.4,4.6,20.5,4.4,29.7-0.7
	c15.5-8.6,38.4-22.9,38.4-22.9c4-2.1,7,1.5,7,1.5l43.8,83.9"/>
<polyline class="st0" points="311.3,568 391.9,615.3 391.9,606.7 423.1,606.4 423.1,616 423.1,625.6 391.9,625.6 391.9,619.3 
	397.9,619.3 397.9,612.1 405.4,612.1 405.4,619.3 409.8,619.3 409.8,612.1 418,612.1 418,619.3 423.1,619.3 "/>
<line class="st0" x1="391.9" y1="620.2" x2="391.9" y2="615.3"/>
<polyline class="st0" points="630.4,554.7 690.9,712.2 700.6,712.2 702.8,706.4 641.7,549.6 "/>
<line class="st0" x1="690.9" y1="712.2" x2="679.8" y2="719.1"/>
<path class="st0" d="M624.3,742.8l-24.1,14.4c0,0-6.1,6.4-5.8,11.5l-5.1,2.2"/>
<path class="st0" d="M549.3,793.9l-13.4,7.5c0,0-8.2-2-15.4,0l-27.5,16.9c0,0-12.6,27.4,16.2,20.9l26.8-15.2c0,0,5.2-2,5-11.2
	l59.3-33c0,0,5.9,3.6,15.1-1.3s51.9-30.5,51.9-30.5s3.9-2.7,4.2-10.6"/>
<path class="st0" d="M710.6,716.2l21.1-12.6c0,0,9,1.8,15.4-2s25.6-14.9,25.6-14.9s14.3-22.7-15.1-22l-25.1,16.6
	c0,0-7.7,5.8-5.9,10.4l-23.8,14.8"/>
<path class="st0" d="M734,680.2c0,0,13.9,6,13.1,21.3"/>
<path class="st0" d="M754.7,666.5c0,0,16.8-0.3,15.7,21.4"/>
<path class="st0" d="M726.6,691.6c0,0,8,1.8,5.9,12"/>
<path class="st0" d="M666.6,738c0,0,1.8,6.1,0.6,10"/>
<path class="st0" d="M600.8,756.8c0,0,18.4,0.7,13.5,22.2"/>
<path class="st0" d="M594.4,768.6c0,0,6.7,1.4,5.8,11.2"/>
<path class="st0" d="M495.2,817c0,0,18.5,1,15.3,21.5"/>
<path class="st0" d="M520.5,801.4c0,0,19.4,5,16,22.3"/>
<path class="st0" d="M336.2,633.4l-10.3,14.1l-28.3,17.2c0,0-9.5-3.4-14.9,0s-25.4,14-25.4,14s-19.1,26.9,12.2,23.6l29.8-17.9
	c2.2-2.4,3.5-5.4,3.8-8.6c0-0.3,0-0.6,0-0.8l31.6-18.5l5.8-2.6"/>
<path class="st0" d="M535.9,801.4c3.2,2.9,5,7.1,5,11.4"/>
<path class="st0" d="M325.9,647.5c0,0,1.3,8.2,8.6,9"/>
<path class="st0" d="M297.6,664.6c0,0,5.3,4.4,5.4,10.3"/>
<path class="st0" d="M284.5,663.8c0,0,17.4,5.4,13.9,21.2"/>
<path class="st0" d="M257.2,678.7c0,0,19.9,3,12.2,23.6"/>
<path class="st0" d="M467,649.6c0.7,2,1,4.1,1,6.2c0,19.3-28.7,35-64,35s-64-15.7-64-35c0-5.7,2.5-11,6.8-15.7"/>
<path class="st0" d="M463.9,652.1c0.3,1.3,0.5,2.7,0.5,4c0,17.6-27,31.9-60.2,31.9S344,673.7,344,656.1c0-5.2,2.3-10.1,6.5-14.4"/>
<ellipse transform="matrix(0.9717 -0.2362 0.2362 0.9717 -155.3877 111.5874)" class="st0" cx="388.1" cy="704.5" rx="8.9" ry="11"/>
<ellipse transform="matrix(0.9717 -0.2362 0.2362 0.9717 -155.3877 111.5874)" class="st0" cx="388.1" cy="704.5" rx="10.4" ry="13"/>
<polyline class="st0" points="354.8,678.7 353.9,702.6 406.6,731.2 406.6,701.5 "/>
<path class="st0" d="M406.4,731.2l-1.5,1l-52.2-28.7c-0.9-0.3-1.4-1.2-1.1-2.1c0,0,0-0.1,0-0.1c0.5-0.6,1.4-0.7,2.1-0.3"/>
<polyline class="st0" points="406.4,731.2 406.4,744.7 351.5,712.5 351.5,701.9 "/>
<ellipse transform="matrix(0.4445 -0.8958 0.8958 0.4445 -398.0059 789.1924)" class="st0" cx="437.3" cy="715.5" rx="15.8" ry="11.7"/>
<path class="st0" d="M436.8,701l14.1-9.8l7-6.1c1.8-3.8-2.4-8.2-2.4-8.2"/>
<path class="st0" d="M406.4,744.7l30-14c-2.3,1.5-5.2,1.9-7.9,1.2c-6.4-1.8-9.6-10.5-7-19.5c1.1-4.1,3.4-7.7,6.6-10.4l19.8-13.2
	l7.1-5.6c1-4.4-1.6-5.2-1.6-5.2"/>
<ellipse transform="matrix(0.4445 -0.8958 0.8958 0.4445 -393.0804 783.0027)" class="st0" cx="434.8" cy="708.4" rx="2.9" ry="2.2"/>
<ellipse transform="matrix(0.4445 -0.8958 0.8958 0.4445 -403.7369 796.8527)" class="st0" cx="440.6" cy="723.9" rx="2.9" ry="2.2"/>
<ellipse transform="matrix(0.4445 -0.8958 0.8958 0.4445 -406.1169 786.0139)" class="st0" cx="430.7" cy="720.4" rx="2.9" ry="2.2"/>
<ellipse transform="matrix(0.4445 -0.8958 0.8958 0.4445 -389.8517 793.9673)" class="st0" cx="445.2" cy="711.3" rx="2.9" ry="2.2"/>
<path class="st0" d="M424,689.1c-3.3,2.2-6.2,4.9-8.5,8.2c-6,8.4-7.2,18.4-3.9,25.5l14.4,8.4"/>
<path class="st0" d="M417,690.1c-3.3,2.2-6.2,4.9-8.5,8.2c-0.7,1.1-1.4,2.2-1.9,3.4"/>
<line class="st0" x1="371.1" y1="293.6" x2="371.1" y2="309.2"/>
<line class="st0" x1="682.9" y1="293.6" x2="682.9" y2="311.1"/>
<line class="st0" x1="405.4" y1="748" x2="409.9" y2="763.8"/>
<line class="st0" x1="712.3" y1="716.5" x2="716.9" y2="732.2"/>
<path class="st0" d="M861.2,411.2c8.9-3.7,18.9-3.7,27.8,0"/>
<path class="st0" d="M861.5,591.9c9.3-3,19.3-2.4,28.2,1.5"/>
</svg>
