<svg xmlns="http://www.w3.org/2000/svg" viewBox="0 0 1080 1080"><defs><style>.a{fill:none;stroke:#fff;stroke-linecap:round;stroke-linejoin:round;stroke-width:4px;}</style></defs><title>drone-8(white)</title><path class="a" d="M51.58,411.58,70,354.89l18.42,2.27,3.4,57s-27.77,2.84-30,6Z"/><path class="a" d="M69.16,432.84,32.31,455.52l3.12,75.4,23-7.65,14.45-83.06S68.31,439.93,69.16,432.84Z"/><ellipse class="a" cx="97.5" cy="430.29" rx="3.97" ry="2.27"/><path class="a" d="M93.54,430.29v5.1s4.15,2.65,7.93,0v-5.1"/><ellipse class="a" cx="98.89" cy="447.13" rx="3.97" ry="2.27"/><path class="a" d="M94.92,447.13v5.1s4.16,2.64,7.94,0v-5.1"/><ellipse class="a" cx="377.14" cy="643.21" rx="5.39" ry="3.08"/><path class="a" d="M371.76,643.21v6.93s5.64,3.59,10.77,0v-6.93"/><ellipse class="a" cx="28.34" cy="438.21" rx="3.97" ry="1.9"/><path class="a" d="M24.37,438.58v5.1s4.16,2.65,7.94,0v-5.1"/><path class="a" d="M61.22,423.2C72.4,422,78,424.7,80.68,427.09a4.72,4.72,0,0,1,.78,6.2c-2.31,3.37-5.8,5.34-9.73,6.6"/><path class="a" d="M51.58,443.66c-10.2,2.59-12.19-5.08-12.19-5.08,0-10.7,12.19-12.54,12.19-12.54"/><line class="a" x1="41.42" y1="449.92" x2="39.39" y2="438.58"/><path class="a" d="M82.28,430.29l1.48,20A49.17,49.17,0,0,1,70,456.61"/><polyline class="a" points="32.31 442.74 39.97 441.83 41.24 441.68"/><polyline class="a" points="82.76 436.75 93.65 435.46 93.66 435.46"/><polyline class="a" points="101.47 434.53 103.74 434.26 105.3 455.52 69.42 459.86"/><line class="a" x1="77.14" y1="437.42" x2="77.13" y2="437.42"/><line class="a" x1="58.05" y1="439.68" x2="58.04" y2="439.68"/><polyline class="a" points="24.37 443.68 23.38 465.44 32.67 464.31"/><polyline class="a" points="23.38 465.44 32.31 503.14 34.27 502.87"/><path class="a" d="M54,413.58s-8.37,11.61,0,15.29a8.27,8.27,0,0,0,6,0s2.41-5.95,1.85-8.78"/><path class="a" d="M61.22,437.73c-3.83-6.6,3.4-14.81,3.4-14.81s8.36,5.24,5,14.81"/><polyline class="a" points="33.45 482.97 33.45 482.95 30.29 468.87 32.85 468.54"/><polyline class="a" points="68.72 463.89 99.77 459.86 103.63 479.78 105.3 488.4 63.52 493.78"/><line class="a" x1="103.63" y1="479.78" x2="65.17" y2="484.29"/><polygon class="a" points="324.75 412.86 352.34 410.54 361.6 426.61 332.69 430.2 324.75 412.86"/><path class="a" d="M329.34,423.27l-69.41,6.93s-3.78-.44-3,7.53L105.3,455.52l4.39,36.85-47.06,6.55"/><path class="a" d="M334.56,457.22l-70.85,9.26s-2.83,1.7-3.78-5l-151.8,17.79"/><line class="a" x1="256.91" y1="437.73" x2="259.93" y2="461.47"/><polyline class="a" points="352.34 410.54 387.68 365.76 415.27 355.17 527.9 343.83 566.45 346.86 645.44 371.8 664.56 386.24 653 434.54 624.65 450.04 492.37 465.16 445.5 461 361.6 426.61 364.06 464.02 335.33 468.32 332.69 430.2"/><path class="a" d="M420.18,395.24s-9.07-3.41,2.27-5.67,53.29-17,56.69-20,12.66-3.22,22.49,0,96.57,30.8,96.57,30.8,11,1.32,0,7.18-53.48,24.76-53.48,24.76-6.43,4.72-20.6,0c-12.85-4.29-62.47-25.22-84.18-30.42a106.88,106.88,0,0,1-14.44-4.51Z"/><path class="a" d="M420.18,395.24l26.65-8.51s-2.84-.38,17.38-2.27,44.6-4.53,44.6-4.53,8.32-1.13,15.88,1.51,33.07,11,33.07,11-1,6.17,3.59,7.18c3.84.84,5.78-.33,7-4.34l32.26,10.84"/><polygon class="a" points="371.33 359.71 400.53 349.5 415.27 355.17 387.68 365.76 371.33 359.71"/><line class="a" x1="371.33" y1="359.71" x2="371.33" y2="386.47"/><polyline class="a" points="527.9 343.83 533.95 336.28 570.13 338.35 566.45 346.86"/><line class="a" x1="570.13" y1="338.35" x2="570.13" y2="348.02"/><polygon class="a" points="645.44 371.8 676.15 369.06 691.05 383.17 664.56 386.24 645.44 371.8"/><polygon class="a" points="624.65 450.04 649.32 459.58 677 444.94 653 434.54 624.65 450.04"/><polygon class="a" points="624.65 450.04 623.8 488.97 647.61 497.94 649.32 459.58 624.65 450.04"/><line class="a" x1="647.61" y1="497.94" x2="659.71" y2="491.52"/><line class="a" x1="677" y1="444.94" x2="677" y2="455.71"/><polyline class="a" points="658.66 436.99 663.68 421.13 689.57 418.39 691.05 383.36 664.56 386.24 663.68 421.13"/><polygon class="a" points="445.5 461 436.81 475.36 483.02 480.18 492.37 465.16 445.5 461"/><polygon class="a" points="492.37 504.98 484.29 520.72 483.02 480.18 492.37 465.16 492.37 504.98"/><line class="a" x1="436.81" y1="475.36" x2="436.81" y2="499.03"/><path class="a" d="M331,601.22H296.21L92.5,578.92l12.8-8.31,205.27,13.22s12.48,12.48,20.41,14.74Z"/><line class="a" x1="330.23" y1="620.31" x2="322.04" y2="632.94"/><polyline class="a" points="315.32 643.31 312.84 647.14 380.87 655.83 401.81 621.09 401.82 621.08"/><polyline class="a" points="380.87 655.84 383.33 700.62 412.24 645.82 411.48 632.14"/><path class="a" d="M326.09,636.27c0,1.91-2.41,3.45-5.39,3.45a7.64,7.64,0,0,1-2.74-.48c-1.58-.6-2.64-1.7-2.64-3,0-1.9,2.41-3.44,5.38-3.44a8.36,8.36,0,0,1,1.34.11C324.37,633.32,326.09,634.67,326.09,636.27Z"/><path class="a" d="M326.09,636.27V644c-5.13,4-10.77,0-10.77,0v-7.76"/><path class="a" d="M380.87,594.8h31.75s9.07,1.13,21.92,2.64S636,625.79,636,625.79l-3,20-226.4-14S396,602,380.87,600.09Z"/><path class="a" d="M385.79,608.49s-24.73,25.24-54.51,3.79"/><path class="a" d="M331.69,602.56a11,11,0,0,1,0-6.6c.72-2.47,2-6,3.78-7.21,2.83-2,8.69,7,8.78,7.94s.57,8.78-3.3,10.2C337.72,608.05,333.39,607.62,331.69,602.56Z"/><path class="a" d="M368.52,598.34a8.77,8.77,0,0,1,.43-6.29c1.51-3.28,4-8.28,5-7.84,1.51.66,6.89,7.18,6.89,10.59s-.56,7.46-5.29,7.93C371.82,603.11,369.74,602.17,368.52,598.34Z"/><path class="a" d="M342.86,594.26s7-5.53,26.61-3.33"/><path class="a" d="M380.87,594.8l45.74-69.93s23.43-9.82,23.81,17.39l-34.12,53"/><path class="a" d="M418,538s-1.6-12.21,5.77-21S444.18,489,444.18,489s15.88-17.43,28.91-1.77S472,519,472,519l12.33,1.7"/><path class="a" d="M472,519l-14.74,24.66s-3.68,11.26-14.17,10"/><path class="a" d="M419,526.4s11.14-17,29.89-2.22a9.61,9.61,0,0,1,1.35,1.28c2,2.33,7.68,9.6,7,18.22"/><line class="a" x1="623.8" y1="488.97" x2="492.37" y2="504.98"/><line class="a" x1="364.06" y1="464.02" x2="436.81" y2="495.77"/><path class="a" d="M684.19,376.67l59.19-5.2s11.62,17.29,2.69,31.61l-56.16,7.1"/><path class="a" d="M745.7,375.7l110.92-11.31s9.5,8.5,3.12,20l-111.15,13"/><polyline class="a" points="845.43 365.53 846.56 348.8 870.09 364.39 868.24 395.92 849.8 385.53"/><path class="a" d="M886.39,355.46s10.48-7.52,9.92-15.45l5.67-3.55s-2,5.25,13.18,7.09l83.62,55.28s-14.17,6.52-16.3,6.52S886.39,355.46,886.39,355.46Z"/><path class="a" d="M873.88,330.73,802.76,283l14.74,2.41,69.62,41-6.12.09s-3.26-3.69-4.49-2.32c-1.78,2-2.94,4.23-2.7,9a2.2,2.2,0,0,0,1.9,2,13.8,13.8,0,0,0,3.63,0,2.11,2.11,0,0,0,1.81-2.12L881,326.5"/><path class="a" d="M896.15,342.42s-7.17-2.36-2.82-8.08,5.19-7.29,6.73,3.32"/><path class="a" d="M873.81,333.22s-12.18,4.69-2.38,10.4c5.18,3,16.3,3.9,23.86,1.52"/><path class="a" d="M881.11,331.44s8.54-.15,12.22,2.9"/><polyline class="a" points="868.24 395.92 920.68 388.91 920.68 373.59"/><polyline class="a" points="902.82 364.16 873.7 367.01 871.65 392.52 917.5 386.14 918.08 372.22"/><path class="a" d="M872.42,382.88l40.89-3.47s3.06-2.21,2.81-8.23"/><line class="a" x1="870.09" y1="364.39" x2="896.89" y2="361.03"/><line class="a" x1="846.56" y1="348.8" x2="867.12" y2="347.48"/><path class="a" d="M867.64,338.73,866.69,355s7.06,7.73,27.59,4.68"/><path class="a" d="M911.14,492.37l4.16-9.07,85.61-54.05,17.57,10.58-64.06,63.88s-24.57-8.88-41.58-6.43Z"/><path class="a" d="M904.91,513.91l-.25.16a6.69,6.69,0,0,0-1.38,1.15h0a23.13,23.13,0,0,0-4,6.37,44.77,44.77,0,0,0-1.72,4.42l-9.61,7.39-5.33,4.1-5.46,4.2-16.35,12.58h0l-11.84,9.11L844.21,567,791.9,607.27l-24-3.4,63.2-60.4,15-14.36,3.39-3.23,3.42-3.27a145.79,145.79,0,0,0,26.8-3l.75-.16c3.34-.72,6.28-1.49,8.75-2.21,3.7-1.09,6.39-2.07,7.93-2.68h0c1-.39,1.49-.62,1.49-.62Z"/><path class="a" d="M831.1,543.47l-104-36.17c-1.89,4.53-9.26,3.4-9.26,3.4l-64.16-23.81c-9.54-20.6,10.9-33.64,10.9-33.64L730.48,474s6.61,2.13,5.86,7.61L851.8,520.34"/><path class="a" d="M724,510.13s-10-4.91-8.07-18.61,11.24-18.89,18.38-15.26"/><line class="a" x1="904.66" y1="514.07" x2="904.21" y2="513.91"/><polyline class="a" points="882.6 537.5 926.26 552.84 953.28 531.3 927.75 522.25"/><polyline class="a" points="881.59 505.89 875.43 503.71 846.13 524.69 849.52 525.88"/><path class="a" d="M953.28,531.3l-6.23,40.44s-28,23.43-28,22.49,7.18-41.39,7.18-41.39"/><polyline class="a" points="919.08 594.23 844.21 567.03 848.94 563.39 913.6 587.42 919.08 556.05 877.13 541.7"/><line class="a" x1="846.13" y1="524.69" x2="846.13" y2="529.11"/><line class="a" x1="916.13" y1="572.92" x2="860.78" y2="554.28"/><path class="a" d="M889.24,517.21a24.46,24.46,0,0,1-2.39-1.65h0c-3.55-2.75-5.58-5.86-5.37-8.77v-.11a4.54,4.54,0,0,1,.1-.74s0,0,0-.05c1.44-6.18,13.06-8.84,26-5.95s22.35,10.3,21,16.51a7.42,7.42,0,0,1-3.95,4.68,16.14,16.14,0,0,1-3.44,1.4h0c-4.83,1.41-11.51,1.49-18.59-.09-1.12-.25-2.22-.54-3.28-.85"/><path class="a" d="M887.93,533.4a44.53,44.53,0,0,0,12.48,4.74c13,2.91,24.6.22,26-6a4.54,4.54,0,0,0,.1-.74v-.11"/><line class="a" x1="903.28" y1="515.22" x2="903.27" y2="515.22"/><line class="a" x1="897.18" y1="514.53" x2="897.17" y2="514.53"/><line class="a" x1="921.14" y1="522.53" x2="921.13" y2="522.53"/><line class="a" x1="886.85" y1="515.56" x2="886.84" y2="515.56"/><polyline class="a" points="881.58 505.94 881.48 506.68 881.47 506.79 879.74 519.58"/><line class="a" x1="928.53" y1="516.45" x2="926.41" y2="532.15"/><path class="a" d="M911.14,500.88s-.52-17-5.48-11.06-5.22,6.66-5.09,9.07"/><path class="a" d="M898.67,513.91s-1.11-4.6,1.88-8,4.41-7.76,6.68-1.66,3.11,16,.7,19.33"/><path class="a" d="M597.06,261.25l139.28,9.45v7.75l-123-3.4s-2.07-10.21-14.74-11Z"/><path class="a" d="M570.13,261.25C557,259.17,444,256,440.4,256s-1.32,1.51-1.32,1.51c84,4.65,122.51,5.36,130.62,5.46"/><path class="a" d="M573.48,269.76a10.66,10.66,0,0,0,2.47-.39,1.78,1.78,0,0,0,1.3-1.52,23.05,23.05,0,0,0-.07-5.79,16.61,16.61,0,0,0-1.09-4c-2.18-5.2-6,3.21-6,3.21-.18.6-.32,1.16-.43,1.68-.6,2.74-.32,4.43.41,5.44l0,0h0"/><path class="a" d="M261.49,289.74a8.92,8.92,0,0,0,2-.29,1.34,1.34,0,0,0,1-1.13,15.53,15.53,0,0,0-.05-4.3,11.6,11.6,0,0,0-.87-3c-1.73-3.86-4.73,2.39-4.73,2.39a12.48,12.48,0,0,0-.34,1.25c-.48,2-.26,3.29.32,4,0,0,0,0,0,0h0A2.84,2.84,0,0,0,261.49,289.74Z"/><path class="a" d="M250.51,295.15a8.36,8.36,0,0,0,2-.29,1.33,1.33,0,0,0,1-1.13,15.53,15.53,0,0,0-.05-4.3,11.6,11.6,0,0,0-.87-3c-1.73-3.86-4.73,2.39-4.73,2.39a12.48,12.48,0,0,0-.34,1.25c-.48,2-.26,3.29.32,4l0,0h0A3.87,3.87,0,0,0,250.51,295.15Z"/><path class="a" d="M590.35,263.48a6,6,0,0,1,.42-3.65c1-2.34,3.14-6.44,4.83-3.07a12.31,12.31,0,0,1,.75,8.89S591.33,267.71,590.35,263.48Z"/><polygon class="a" points="599.61 314.26 607.65 299.52 608.68 270.32 598.86 285.72 599.61 314.26"/><polyline class="a" points="563.35 313.14 562.86 313.13 562.86 283.83 598.86 285.72"/><line class="a" x1="599.61" y1="314.26" x2="585.54" y2="313.83"/><line class="a" x1="570.53" y1="276.21" x2="562.86" y2="283.83"/><line class="a" x1="608.69" y1="270.32" x2="598.52" y2="269.85"/><path class="a" d="M594.55,269.67h0"/><path class="a" d="M598.56,268.15c-16,7.05-28.43.25-28.43.25v7.5c10.79,8.66,22,4.05,26.4,1.56a3.94,3.94,0,0,0,2-3.43Z"/><path class="a" d="M570.11,268.37l0,0"/><path class="a" d="M596.79,263.3c3.37,2,1.77,4.85,1.77,4.85"/><path class="a" d="M577.18,262.06a35.83,35.83,0,0,1,10.62-.81c.9.05,1.74.12,2.5.2"/><path class="a" d="M574.15,296.35s10.91-10.63,15.31,0A14.15,14.15,0,0,1,588.32,309c-4,6.52-11.14,20.83-11.14,20.83S570,316.34,558.28,321Z"/><path class="a" d="M558.28,321a13.69,13.69,0,0,0-6.38,5c-3,4-7.8,10.88-7.8,10.88"/><path class="a" d="M577.18,329.8s1.65,7.37-.62,11.77a39.1,39.1,0,0,1-4.57,7"/><path class="a" d="M281.66,321.16s-17.57,2.45-9.45,18.14l62.35,23.81s-2.44-15.68,8.61-19.28Z"/><path class="a" d="M386.54,354.39,354,343.83s-5.48-3.67-10.87,0"/><path class="a" d="M371.33,383.14s-35.84-13.42-36.77-20"/><polyline class="a" points="280.83 342.59 261.72 348.75 260.21 319.17 291.61 309.92 291.61 324.83"/><path class="a" d="M261.72,348.75l-31.46-11.44s-2.65-1.13-3.5-8.5-2-22.77-2-22.77l35.43,13.13"/><path class="a" d="M257.09,322.2,228,311.71l1.7,20.41s-.09,2.27,3.69,3.59,25,9,25,9Z"/><path class="a" d="M265.31,284.12l12.76-6.52,98.27-23.53,8.88,5.76L299,290.45s-17.48-5.95-33.26-3.88Z"/><path class="a" d="M244.43,295.27l-123,36.28H110.83l95.24-29.86S234.61,294.13,244.43,295.27Z"/><path class="a" d="M274.2,293.38V306.7s-12,8.6-32.09,2.07l-.42-11S263.14,305.94,274.2,293.38Z"/><path class="a" d="M241.69,297.72c0-.42-.08-1-.13-1.6a6,6,0,0,1,0-1c.05-2,1-4.36,6.29-6.22"/><path class="a" d="M264.59,287c8.06,1.26,9.61,6.35,9.61,6.35"/><path class="a" d="M253,287.58c.66-.12,1.36-.25,2.1-.36,1.11-.17,2.15-.29,3.13-.37"/><line class="a" x1="291.61" y1="309.92" x2="274.2" y2="303.11"/><line class="a" x1="224.78" y1="306.04" x2="241.79" y2="300.18"/><path class="a" d="M617.85,489l57,221.86s6.11-1.89,7.24,13.23-.09,17.19-2.93,18.33-6.23,2.26-7.93,0-12.76-4-12.76-4-.28-8.79-3.12-12.76-.28-9.07-.28-9.07L596.69,491.52"/><path class="a" d="M513.35,906.51l142.3-115.94c18.7-2,15.12-21.51-1.42-32.88-18.78-12.89-21.54,1.42-21.54,1.42l-146,112.82"/><path class="a" d="M682.52,718.29s15.93-1.7,22.45,12.76,5.1,20.69-4,28.34-37.06,28.36-37.06,28.36"/><path class="a" d="M687.22,718.43l102.6-78.85s.75-7.75,10.2-13.23,22.87-10.77,30.81,0,6,22.87,0,28.16-15.31,12.29-21,11.15l-101.2,83"/><path class="a" d="M820.64,662.22s4.75-10.92,0-18.29-14.51-18.42-28.24-10.63"/><line class="a" x1="636.31" y1="753.63" x2="658.23" y2="735.3"/><path class="a" d="M475.74,874.67s7.18-6.24,15.69-1.32,29.48,32.5,17.38,42.89S482,941.57,466.29,938,447,913.22,447,913.22s-2.84-13.79,7.55-22.11S475.74,874.67,475.74,874.67Z"/><path class="a" d="M446.67,909.45s3-10.4,11.31-2.94,23.47,24.4,9.66,31.73"/><path class="a" d="M199.13,672.09s-4.4-6.38-12.76-1.85-25.8,12-25.51,23.53,4.39,22.4,15.45,23.25,22-5,28.2-9.22,7.94-6.8,6.24-16.58S199.13,672.09,199.13,672.09Z"/><path class="a" d="M161.65,689.35s7-2.1,13,10.52,1.7,17.15,1.7,17.15"/><path class="a" d="M196.42,669.74,331,601.22l.76,28.06c29.39,26.37,54.71-4.06,54.71-4.06l-.93-23.66"/><polyline class="a" points="210.94 700.62 312.84 647.14 317.38 693.63 383.33 700.62"/><path class="a" d="M412.32,485.08l-22.42,83.4s2.71,8.37,1.44,10.31"/><path class="a" d="M395,477.54l-22.15,88.67s-7,6.32-4.76,18c0,0,.49,6.63,15.1,7"/><path class="a" d="M398.33,568.1s-6.45-1-8.43.38"/><line class="a" x1="367.08" y1="580.39" x2="341.45" y2="592.34"/><path class="a" d="M459.42,540l51.8-28.21s.28-7,9.35-3.4,13.89,16,12.48,20.83l-114.84,63"/><path class="a" d="M519,536.94s14.34,2.06,14.06-7.72"/><path class="a" d="M530.86,534.64l9.27-4a16.4,16.4,0,0,0,6.23-4.73c1.94-2.42,4.06-5.8,4-9-.14-5.81-1-10.35-8.65-16s-28.79,7.52-28.79,7.52"/></svg>