<?xml version="1.0" encoding="utf-8"?>
<!-- Generator: Adobe Illustrator 23.0.1, SVG Export Plug-In . SVG Version: 6.00 Build 0)  -->
<svg version="1.1" id="Layer_1" xmlns="http://www.w3.org/2000/svg" xmlns:xlink="http://www.w3.org/1999/xlink" x="0px" y="0px"
	 viewBox="0 0 1080 1080" style="enable-background:new 0 0 1080 1080;" xml:space="preserve">
<style type="text/css">
	.st0{fill:none;stroke:#FFFFFF;stroke-width:4;stroke-linecap:round;stroke-linejoin:round;}
	.st1{fill:none;stroke:#FFFFFF;stroke-width:4;stroke-miterlimit:10;}
</style>
<title>drone -3(white)</title>
<path class="st0" d="M769.5,498.3c3.3-0.4,8-1,11.7-1.7c19.7-3.8,31.1-5,31.3-7.7s0.4-7.5,0.4-7.5s-3,4-32.1,8.2
	c-3.1,0.4-6.8,1.2-9.5,1.5"/>
<path class="st0" d="M563.2,494.8c0,0,143.6-6,150-6.4s20.4-0.1,26.1,1.4c4.5,1.2,9.2,1.8,13.9,1.8"/>
<path class="st0" d="M534,625.4l1,1.3c0.2,0.3,0.2,0.7-0.1,1c-0.1,0.1-0.1,0.1-0.2,0.1l-61.9,17.1c-0.4,0.1-0.8,0.2-1.2,0.3
	l-38.9,4.8c-0.6,0.1-1.2-0.4-1.3-1l-0.8-6.3c-0.1-0.6,0.2-1.2,0.8-1.5l61.9-20.4c6.1-2,12.6-2.9,19-2.6l15.3,0.7
	c0.9,0,1.8,0.3,2.5,0.9l0,0"/>
<path class="st0" d="M530.1,616.2c-0.9-3.2-1.1-6.6-0.5-9.9c0.9-5.9,3-23.2,6.8-29.9c2.7-4.8,6-10.5,7.7-13.3
	c0.6-1.1,1.9-1.7,3.1-1.5l8.1,1.1c1.1,0.1,2,1.1,2,2.2l1.1,39.8c0.1,3.4-1.1,6.7-3.5,9.2l-5.7,6.4c-0.1,0.2-0.1,0.4,0.1,0.6
	c0.1,0,0.1,0.1,0.2,0.1l6.2,1.2c1.4,0.3,2.8,0.8,4,1.5l34.8,20.1c2.9,1.7,5.6,3.6,8.2,5.8l24.1,20.6c1,0.8,1.1,2.3,0.3,3.3
	c0,0-0.1,0.1-0.1,0.1l-6.5,6.7c-1.2,1.2-3,1.6-4.5,0.8l-65.1-30.9c-1-0.5-1.9-1.2-2.6-2.1l-15.9-19.8"/>
<path class="st0" d="M530.1,616.7c0-0.3,0.1-0.7,0.3-0.9c0.7-1.3,3-4.6,6.4-4.6c3.2,0.1,6.1,1.9,7.7,4.6c0.2,0.3,0.3,0.6,0.3,1v5.2
	c0,0-8.6,8.8-14.5-0.1V616.7z"/>
<path class="st0" d="M550.2,562.1l0.8-54l14.8-5.9l147.8-7.6c0,0,14.7-1.5,23.8,1.9c4.6,1.7,10.8,2.7,18.3,2.7"/>
<path class="st0" d="M532,538.5L532,538.5c2.8,0,5.2,2.3,5.2,5.2v29.8c0,2.8-2.3,5.2-5.2,5.2h0c-2.8,0-5.2-2.3-5.2-5.2v-29.8
	C526.8,540.8,529.1,538.5,532,538.5z"/>
<path class="st0" d="M755.8,453.2c0,0,0.5-4.4,4.4-4.4s6,1.7,6,4.4v5c0,0-5.2,3.7-10.4,0L755.8,453.2z"/>
<path class="st0" d="M734.7,468.7c0,0-4.5,0.9-5.5,3.3s-14,3.5-14,3.5l-116.6-1.7l29-22c2.6-3-1.6-5.7-1.6-5.7"/>
<path class="st0" d="M751,483.7c-5.6-1.1-10.7-3.6-15-7.3c-0.5-0.5-0.8-1.3-0.7-2v-10.1c0,0-0.1-6.5,1.8-7.5
	c1.2-0.6,2.4-1.3,3.5-2.1"/>
<path class="st0" d="M781.8,465v15.8c-3.2,1.1-6.4,2-9.7,2.6"/>
<path class="st0" d="M766.2,452.7c0,0,24.2-6.2,34.2-6.6l20.6-0.9l4.7,5.7c0.4,0.4,0.3,1-0.1,1.4c-0.1,0.1-0.2,0.1-0.3,0.2l-30.7,11
	c-3,1.1-6.1,1.6-9.2,1.6h-15.9c-0.2,0-0.3,0.1-0.3,0.3c0,0,0,0,0,0c0.5,2.4,3.5,16.9,3,21.1c-0.3,2.9-2.2,9.3-2.8,12.5
	c-0.2,1-1.2,1.7-2.2,1.6c0,0,0,0-0.1,0h-8.9c-1.3,0-2.5-0.8-2.8-2.1l-8.5-28.7c-0.1-0.4,0-0.8,0.2-1.2l7.4-9.6l-35.3-10.6
	c0,0-28.9-10.8-28.9-12.7s7-2.6,12.1-1c4.3,1.5,34.2,9.9,43,12.4c1.6,0.5,3.1,1.2,4.5,2.1l5.3,3.5l0.8,0"/>
<path class="st0" d="M781.8,473.1c0,0,10.5,1,22.4,2.4c10,1.2,8.6,5.9,8.6,5.9"/>
<path class="st0" d="M568,628.7c-1.4-7.6-4.9-13.9-12.6-15.2"/>
<path class="st0" d="M566.4,657.8L566.4,657.8l-16.2,50.3c-5.6,9.8-12,7.9-16.2,4.8c-2.7-2-4.8-4.7-6.1-7.8
	c-3.5-8.1-13.9-30.8-17.3-40.7c-3.4-10.2-3.9-13.9-3.9-13.9v-15.1"/>
<path class="st0" d="M561.5,655.4c-5.3,4.8-15.6,8.1-26.3,8.5c-16.3,0.6-26.9-12.6-26.9-12.6v-11.2c0-0.7,0.5-1.4,1.2-1.6l18.5-6
	c1.6-0.5,3.4-0.3,4.9,0.6c1.3,0.9,2.7,1.3,4.3,1.4"/>
<path class="st0" d="M525.7,635.8l-11.8,3.9c-0.7,0.2-1.1,0.8-1.1,1.5v7c0,0.3,0.2,0.6,0.4,0.8l6.7,4.4c0.2,0.2,0.6,0.1,0.7-0.1
	c0.1-0.1,0.1-0.2,0.1-0.3v-4.4l6.6-9.8c0.5-0.7,0.5-1.6,0.1-2.3l0,0C527,635.9,526.3,635.6,525.7,635.8z"/>
<path class="st0" d="M552.4,651.1c-5.5,4.8-20.7,4.1-23.8,3.9c-0.3,0-0.6-0.3-0.6-0.6v-5c0-0.3,0.1-0.5,0.3-0.7l6.2-7.7
	c0.3-0.3,0.7-0.4,1.1-0.3c1.4,0.6,4.7,1.8,7.5,1.4"/>
<path class="st0" d="M508.2,647.8c0,0,18.6,24,50.2,6.1"/>
<path class="st0" d="M532.9,633c0,0-3.3-1.5-4-3.6"/>
<path class="st0" d="M534.6,403.7c0,0-1-5.9,2.9-8.5s3.3-8.9,3.3-8.9s1.3,0.8,1.4,1.8s0,5.7,0,5.7c-0.4,1.2-1.2,2.3-2.3,3.1
	c-1.7,1.3-1.1,4.3-1.1,4.3"/>
<path class="st0" d="M540.8,386.4c-12.9,12.8-34.9,1.8-34.9,1.8v-7c0,0,0.1-2,5.3-3.5c5.2-1.5,8.1-2.3,8.1-2.3"/>
<path class="st0" d="M509.5,385.6v-4.4c0,0,4.5-1.7,6-1.2c0,0-2.3,0.7-2.5,1.9c-0.1,1.6-0.1,3.1,0,4.7c-0.7-0.1-1.3-0.3-2-0.5
	C510.5,386,510,385.8,509.5,385.6z"/>
<path class="st0" d="M517.5,386.8v-3.7c0,0,4-2.3,4.9-2.2c0,0,3.8,1.4,6.5,0.9l4.3,1.2v3.7C533.3,386.8,522.7,388.9,517.5,386.8z"/>
<path class="st0" d="M519.3,371l-18.4-1.1l-39.7,7.8l2.1,3.9c0,0,25.3-1.4,41.3-4.7c7.9-1.6,11.9-2.5,13.9-2.9
	c0.9-0.1,1.8-0.4,2.6-0.7"/>
<path class="st0" d="M519.3,370.6v-3.2c0,0,4.1-4.5,7.5-0.1v3.1c0,0.1,0,0.2,0,0.3c-0.4,1.8-2.1,3-3.9,2.8
	C520.8,373.5,519.2,372.5,519.3,370.6z"/>
<path class="st0" d="M520.6,366.2c0,0,0.5-7.5,1.3-8.6c1.6-2.1,3.4-4,5.3-5.8c0,0,3.2-4,8.7,1.4c0.5,0.5,0.8,1.1,0.8,1.8v12
	c0,1.7-0.9,3.3-2.4,4.1l0,0l20.3,5.9c1.6,0.5,3.2,1.1,4.7,2l13.9,8.3c0.4,0.2,0.5,0.7,0.3,1c0,0.1-0.1,0.1-0.1,0.2l-3.2,3.1
	c-0.6,0.6-1.5,0.9-2.4,0.6l-27.7-6.8c-3.8-0.9-7.4-2.5-10.7-4.5l-10.9-6.9l0,0"/>
<line class="st0" x1="753.8" y1="458.7" x2="735.6" y2="460.5"/>
<path class="st0" d="M750.5,464l-10,2.4c0,0-2,0.8-2,2.3c0,2.1-0.5,4,1.2,5.3c2.9,2.2,6.2,3.8,9.7,4.7"/>
<path class="st0" d="M769.4,465l7.5,5.8c0.7,0.6,1.2,1.5,1.2,2.4v2c0.1,0.9-0.2,1.9-0.8,2.6c-1,1.1-3.6,1-5.7,1.4"/>
<line class="st0" x1="774" y1="465" x2="781.8" y2="469.2"/>
<path class="st0" d="M286.6,465.2v-2.1c0-1.2,0.6-2.4,1.6-3.1c2.1-1.5,6-3.2,8.9,1.1c0.2,0.3,0.3,0.7,0.3,1.1v2.5
	c0,0.4-0.2,0.9-0.6,1c-2.9,1.2-6.1,1.5-9.1,0.6C287,466.3,286.6,465.8,286.6,465.2z"/>
<path class="st0" d="M297.4,463.3L297.4,463.3c0.7,0.6,1.7,0.8,2.6,0.3l4.6-2.7c1.6-0.9,3.3-1.6,5.1-1.9c8.8-1.6,36.7-6.3,60.8-5.5
	c0.9,0,1.6,0.6,1.8,1.5l0.9,3.4c0.2,0.8-0.3,1.7-1.1,1.9c0,0,0,0,0,0l-48.8,12.3c-2.4,0.6-4.8,0.9-7.2,0.9h-19.5
	c-1.1,0-2.1,0.4-2.8,1.2l-21.9,22.6c-0.5,0.5-1,1-1.5,1.4l-12.9,10.8c-0.7,0.6-1.6,0.9-2.6,0.9h-7c-0.4,0-0.8-0.3-0.8-0.8
	c0-0.2,0-0.4,0.2-0.5l20.2-28.2c1.1-1.5,2.4-2.8,4-3.8l13.8-8.7c0.3-0.2,0.4-0.5,0.2-0.8c-0.1-0.1-0.2-0.2-0.3-0.2l-27.8-14
	c-1.1-0.5-2.1-1.2-3-2l-6.7-5.9c0,0-4.9-4.8,7.6-4.8c0.3,0,0.7,0.1,1,0.2l34.8,14.2c0.6,0.2,0.9,0.8,0.9,1.4v1.8"/>
<path class="st0" d="M251.6,503l-12.3-2.2c-1-0.2-1.9-0.9-2.3-1.9c-2-5.6-1.1-8.5,0.3-10l0,0c0.7-0.8,1.7-1.4,2.8-1.6l26.1-4.8"/>
<path class="st0" d="M413.8,490.4l31.1-1.3c1.5-0.1,2.7-1.4,2.6-2.9l0,0c-0.1-1.5-1.3-2.7-2.9-2.6l-31,1.3"/>
<path class="st0" d="M405.3,485.3l-26.9,1.1c-1.5,0.1-2.7,1.3-2.6,2.9l0,0c0.1,1.5,1.3,2.7,2.9,2.6l26.8-1.1"/>
<path class="st0" d="M413.7,495.5c15.5,0.2,26.7,0.3,26.7,0.3"/>
<path class="st0" d="M295.6,502.3c13.4,0.1,21-5.6,21-5.6s3-3.2,21.4-2.5c11.1,0.5,42.3,0.9,67.5,1.2"/>
<path class="st0" d="M282.5,486.2c6.8,3.6,15.7,2.2,20,1.2c1.5-0.4,4.9-1.2,5.1-3.1V481c-0.9-2.4-12-3.9-17.5-2.7"/>
<path class="st0" d="M318.2,473.3l0.2,0.3c0.3,0.5,0.5,1.2,0.5,1.8v10.4c-0.2,1.7-1.1,3.2-2.5,4.3c-5.1,2.9-20.3,12-39.1,1.4"/>
<path class="st0" d="M298.4,473.4c0,0,16.2,1.8,16.5,3.7c0.2,1.2,0.2,2.5,0,3.7c0,0,0,0.1,0.1,0.1c0,0,0.1,0,0.1,0
	c0.7-0.5,3.3-2.4,3.8-3.8"/>
<path class="st0" d="M269.6,499.2c12,2,24.2,3.7,29.7,3"/>
<path class="st0" d="M256,496.7c-6.3-1.2-11.4-2.2-14.1-2.7c-5.9-1.1-4.8-4.8-4.7-5.1l0,0"/>
<path class="st0" d="M278.8,464.3c0,0-9,4.5-7.4,12.8"/>
<path class="st0" d="M297.1,461.1c2.2,0,4.3,0.1,6.5,0.3"/>
<path class="st0" d="M405.4,502.2c-24.4-0.3-56.4-0.7-65-0.7c-14.4,0-19.1,2.3-19.1,2.3c-19.5,9.3-44.2,3.8-44.2,3.8l-14.4-2.5"/>
<path class="st0" d="M413.7,510c6.1-3,12.3-5.4,18.8-7.4l-18.8-0.3"/>
<path class="st0" d="M509.5,618l9-4.9c2.1-1.2,3.3-3.5,3-5.8l-10.1-82.4c0,0-45.4,34.6-54.4,30.7s-50.7-30.8-50.7-30.8
	c-3.9-4-4.1-6.5-0.9-9.6"/>
<path class="st0" d="M598.8,388.1v0.2l21.7,9.5c0.1-0.9,0.2-1.9,0.2-2.8c1.8-0.8,3.7-0.8,5.5,0l0.2,4.2l2.1,2.5l-32.3,24.8
	l-39.9,29.4c0,0-17.2-8.5-17.9,3.4l-50.4,25l-14.2-8.9l-21.7-8.6c0,0-4.8-3.2-24.3-1.1l-22.3,9.8c-2,0.4-4-0.2-5.5-1.6
	c-1.3-1.3-2-3.1-1.8-5l6.2-5.3c0,0,1.6-7.1,8.5-2.7l39.2-17.5c1.4-14.9,9.2-3.9,9.2-3.9l52.7-28c0,0,1-4.8-2.9-7.1s-6.4-4.2-6.4-8.3
	V391c0.1-1.1,0.6-2.1,1.4-2.8c0,0-1.4,7.8,5.4,9.2c6.8,1.3,6.6,12.1,6.6,12.1l20.4-7l25.7-7.4l27.4-6.2l0.1-5.8c2.2-1,4.7-1,6.8,0
	L598.8,388.1l0.2,4.1h-7.4v-3.1"/>
<path class="st0" d="M617.7,410l-2,36.4c2.3,3.2,9.2,0,9.2,0l1.1-42.7"/>
<polyline class="st0" points="615.7,440.8 599.2,433.8 599.2,424.3 "/>
<path class="st0" d="M500.2,478.3v40.7c4.3,5,10,0,10,0l-0.8-45.3"/>
<path class="st0" d="M482.5,481c-5.9,3-14.2,7.1-21.7,10.9"/>
<path class="st0" d="M452.9,495.8l-10.3,5.1c-0.6,0.7,3,2.8,4.6,3.1c2.3,0.5,4.7,0.1,6.9-0.9l33.9-18.8"/>
<path class="st0" d="M501.7,470v-7.3c4.7-3,7,0,7,0v7.3H501.7z"/>
<path class="st0" d="M569.8,464.1l18.3-10.1c-1.8-4.8-7.1-4.4-7.1-4.4l-21.3,11.1L569.8,464.1z"/>
<path class="st0" d="M451.8,504l1.6,42c3.2,2.3,7.6,2.3,10.8,0l-1.9-47.4"/>
<path class="st0" d="M452.9,497.2v-9.6c5.8-5.8,7.9-0.6,7.9-0.6v10.1H452.9z"/>
<path class="st0" d="M482.7,516.6l11.7-10.5c-1.9-0.9-4-1.5-6.1-1.8c-4.7-0.7-8.4,0.3-12.6,1.5c-4.5,1.3-8.9,3.2-12.9,5.6l0.4,9.8
	l7.2-3.6C479.3,513,482.7,516.6,482.7,516.6z"/>
<path class="st0" d="M509.7,486l17.1,10.5c3.8,6,47.2-24.3,47.2-24.3c8.9-4.8-14.2-11.4-14.2-11.4l-6.2-2.4
	c-5-0.2-43.3,21.1-43.3,21.1"/>
<polyline class="st0" points="620.5,397.9 620.5,402.5 626,402.5 626.5,399.2 "/>
<line class="st0" x1="590.8" y1="403.1" x2="590.8" y2="411.9"/>
<line class="st0" x1="598.5" y1="402" x2="598.5" y2="410.7"/>
<polyline class="st0" points="452,443.5 451.8,449.7 461.2,449.7 461.2,439.6 "/>
<line class="st0" x1="511.4" y1="524.8" x2="598.5" y2="473.8"/>
<line class="st0" x1="405.4" y1="475.6" x2="405.4" y2="479.2"/>
<line class="st0" x1="413.7" y1="471.9" x2="413.7" y2="478.8"/>
<line class="st0" x1="405.4" y1="490.7" x2="405.4" y2="502.3"/>
<polyline class="st0" points="405.4,485.3 405.4,486 405.4,490.7 "/>
<line class="st0" x1="405.4" y1="478.8" x2="405.4" y2="485.3"/>
<path class="st0" d="M405.4,514.8v-12.4"/>
<path class="st0" d="M405.4,514.8v5.1c1.3,0.8,2.8,1.2,4.4,1.2c1.4,0,2.7-0.5,3.9-1.2v-17.5"/>
<path class="st0" d="M605.4,404.5c0,0-3.7,6-9.7,7.4s-12.1-2.5-12.1-2.5s3.7-6,9.7-7.4S605.4,404.5,605.4,404.5z"/>
<path class="st0" d="M405.4,479.2c-29.4,1.5-64.4,3.2-70.1,3.4c-10.2,0.4-16.4-2-16.4-2s-16,18.5-38.5,7.8"/>
<path class="st0" d="M413.7,477.1l13.6-5.1c3.7-3.4,22.5,0,22.5,0l7.5,4.2l-9.7,0.9l-33.9,1.7"/>
<rect x="561.2" y="418.2" transform="matrix(0.1054 -0.9944 0.9944 0.1054 74.0283 947.2494)" class="st0" width="4.7" height="28.6"/>
<rect x="564.1" y="415.5" transform="matrix(0.1054 -0.9944 0.9944 0.1054 85.247 942.1937)" class="st0" width="4.5" height="16.4"/>
<rect x="541" y="410.6" transform="matrix(0.9713 -0.238 0.238 0.9713 -84.2199 141.3819)" class="st0" width="4.7" height="17.8"/>
<rect x="551.4" y="411.7" transform="matrix(0.9713 -0.238 0.238 0.9713 -83.1387 143.683)" class="st0" width="3.9" height="8.8"/>
<ellipse transform="matrix(0.7071 -0.7071 0.7071 0.7071 -171.9569 479.1896)" class="st0" cx="492.5" cy="447.2" rx="2.5" ry="2"/>
<ellipse transform="matrix(0.7071 -0.7071 0.7071 0.7071 -172.3939 487.6699)" class="st0" cx="502.5" cy="451.9" rx="2.5" ry="2"/>
<circle class="st0" cx="529.7" cy="488.9" r="3.9"/>
<circle class="st0" cx="566.9" cy="468.6" r="3.3"/>
<circle class="st1" cx="548.8" cy="469.5" r="2.4"/>
<polygon class="st1" points="544,480.4 542.3,482 538.7,478.6 544.2,474.2 547.6,477.1 545.6,479 549.2,482 547.6,483.5 "/>
<line class="st0" x1="413.7" y1="490.4" x2="413.7" y2="502.3"/>
<line class="st0" x1="413.7" y1="484.9" x2="413.7" y2="490.4"/>
<line class="st0" x1="413.7" y1="478.8" x2="413.7" y2="484.9"/>
</svg>
