<?xml version="1.0" encoding="utf-8"?>
<!-- Generator: Adobe Illustrator 23.0.1, SVG Export Plug-In . SVG Version: 6.00 Build 0)  -->
<svg version="1.1" id="Layer_1" xmlns="http://www.w3.org/2000/svg" xmlns:xlink="http://www.w3.org/1999/xlink" x="0px" y="0px"
	 viewBox="0 0 1080 1080" style="enable-background:new 0 0 1080 1080;" xml:space="preserve">
<style type="text/css">
	.st0{fill:none;stroke:#FF0000;stroke-width:4;stroke-miterlimit:10;}
	.st1{fill:none;stroke:#FF0000;stroke-width:4;stroke-linecap:square;stroke-linejoin:round;}
	.st2{fill:none;stroke:#FF0000;stroke-width:4;stroke-linecap:round;stroke-linejoin:round;}
</style>
<title>drone -5(red)</title>
<path class="st0" d="M510.1,460.6c-38.8-18-77.6-36-116.5-53.9l-17.1,7.5l-71.1-38.1l9.3-4.6l-30-14.2
	c-38.3,14.6-56.8,25.8-55.5,33.3c0.5,2.8,3.8,5.2,9.9,7L429,507.8c-0.1-2,0.2-4.1,0.9-6c1.3-3.2,3.3-4.1,9.2-8.7
	c6.6-5.2,6.8-6.3,11.5-9.2c2.3-1.4,4.1-2.3,6.9-3.7c7.5-3.6,12.4-5.9,19.3-8.7C487.7,467.2,498.8,463.6,510.1,460.6z"/>
<polygon class="st0" points="314.8,371.5 393.7,406.7 376.6,414.2 305.5,376.1 "/>
<path class="st0" d="M429,507.9c0.4-2-0.3-6.5,2.9-9c3.4-2.7,11-15.2,50.3-29.1c7.4-2.6,14.8-6.3,28-9.2
	c48.5,28.7,97,57.4,145.4,86.2c-17.1,7-27.5,11.3-33.5,13.8c-15.8,6.5-22.9,9.3-30.3,16.5c-4.7,4.7-8.6,10.1-11.5,16
	C529.9,564.7,479.5,536.3,429,507.9z"/>
<path class="st0" d="M641.3,628.7l137.5,80c4.2-4.5,8.7-8.6,13.5-12.4c12.6-9.8,27.1-17,42.5-21.1c-7.8-5.4-15.6-10.7-23.4-16.1
	l-9.9,3.5l-71.1-43.3l19.9-6.6l-94.8-65.9c-17.1,7-27.5,11.3-33.5,13.8c-15.8,6.5-22.9,9.3-30.3,16.5c-4.7,4.7-8.6,10.1-11.5,16
	L641.3,628.7"/>
<path class="st0" d="M834.8,676.5c-7.9,7.2-16.5,13.6-25.7,19c-9.2,5.4-18.9,9.8-29,13.3"/>
<path class="st0" d="M742.1,615.4l8.3-2.7l61.1,46.3l-5,1.8"/>
<path class="st0" d="M730.5,619.3l11.6-3.8"/>
<path class="st0" d="M736.3,622.8l-5.8-3.5"/>
<path class="st0" d="M766.6,641.2l-30.2-18.4"/>
<path class="st0" d="M774.1,645.8l-7.5-4.6"/>
<path class="st0" d="M801.6,662.5l-27.5-16.8"/>
<path class="st0" d="M806.6,660.8l-5,1.8"/>
<path class="st1" d="M477,534.9l-6.3,5.1c-5.5-5.1-13.8,0-13.8,0l-63.3,34.8c-105.5,79.4-52.3,117.8-52.3,117.8
	c33,15.7,94.5-18.3,94.5-18.3l60.5-35.3"/>
<path class="st1" d="M485.4,556.2l-63.3,37.6c-73.8,39.9-80.9,95.6-80.9,95.6"/>
<path class="st0" d="M373.5,561.7c0.2,4.4-3.1,8.1-7.5,8.3s-8.1-3.1-8.3-7.5c0-0.3,0-0.5,0-0.8c0-4.4,3.5-8.1,7.9-8.2
	c4.4,0.1,8,3.7,7.9,8.1C373.5,561.6,373.5,561.7,373.5,561.7z"/>
<line class="st0" x1="361.2" y1="555.1" x2="374.6" y2="548.3"/>
<line class="st0" x1="369.7" y1="569" x2="405.9" y2="548"/>
<path class="st0" d="M406.3,547l24.6-12.1c5-15.9-11.9-14.8-11.9-14.8l-29.6,16.8"/>
<line class="st0" x1="419" y1="520.1" x2="434.7" y2="511.1"/>
<line class="st0" x1="431" y1="534.9" x2="453.1" y2="522.5"/>
<ellipse class="st0" cx="501.9" cy="639.8" rx="5.5" ry="7.7"/>
<line class="st0" x1="504.6" y1="646.5" x2="540" y2="627.8"/>
<path class="st0" d="M523,616.8l32.1-18.8c0,0,13.5-0.7,10.8,15.6L540,627.8"/>
<line class="st0" x1="498.3" y1="634" x2="510.1" y2="626.2"/>
<line class="st0" x1="555.1" y1="598" x2="571.6" y2="588.2"/>
<line class="st0" x1="565.9" y1="613.6" x2="589" y2="598.2"/>
<path class="st0" d="M456.9,540c2.6-1.2,20.8,10.4,18.6,8.9l24.8,14c20.2,0.5,14.9,52.9,14.9,52.9"/>
<line class="st1" x1="665.1" y1="553.5" x2="723.2" y2="518.3"/>
<line class="st1" x1="766.6" y1="474.7" x2="708.9" y2="508.9"/>
<line class="st1" x1="649.9" y1="543.5" x2="691.4" y2="518.8"/>
<line class="st1" x1="775.2" y1="489.1" x2="724.4" y2="517.6"/>
<path class="st0" d="M762.7,476.7c-0.4,0.3,10.6,1.2,10.6,14.3"/>
<line class="st0" x1="766.6" y1="474.7" x2="769.7" y2="472.9"/>
<path class="st0" d="M778.9,499.3l-0.3-1L748,403.8c6.6-5.9,13.8-11.2,21.3-15.8c8.7-5.3,17.9-9.7,27.5-13.1
	c10.2,31.3,20.4,62.7,30.7,94c-6.5,6.8-13.9,12.8-21.8,17.9C797.3,492.1,788.3,496.3,778.9,499.3z"/>
<path class="st0" d="M778.9,499.3c6.5-7,13.9-13.1,21.9-18.2c8.3-5.3,17.3-9.4,26.7-12.3"/>
<polyline class="st0" points="798.4,379.9 813.3,369.8 841.7,455.8 827.5,466.6 "/>
<path class="st0" d="M744.9,402.4c12.3-10.8,26-19.7,40.8-26.6c8.3-3.9,16.9-7.1,25.7-9.6c-30.3-18-60.6-36-90.8-54.1
	c-20.7,7.1-40.1,17.7-57.4,31.2c-2.7,2.1-5.3,4.3-7.7,6.4C685.4,367.2,715.2,384.8,744.9,402.4z"/>
<path class="st0" d="M796.8,376c2.7-1,5.3-2.2,7.8-3.6c2.9-1.7,5.6-3.8,7.9-6.3"/>
<line class="st0" x1="744.9" y1="402.4" x2="748" y2="403.8"/>
<path class="st0" d="M720.7,312l-2.4-2.8c-12.7,5-25.1,10.8-37.1,17.4c-10.8,6-21.3,12.6-31.4,19.7l5.7,3.2"/>
<polyline class="st0" points="649.9,346.4 620.2,403.8 683.6,366.1 "/>
<path class="st0" d="M674.5,371.5c0,0,13.5-0.7,10.8,15.6"/>
<path class="st0" d="M628.3,398.6c0,0,13.5-0.7,10.8,15.6"/>
<path class="st0" d="M651.9,385.1c0,0,13.5-0.7,10.8,15.6"/>
<line class="st0" x1="555.1" y1="440.4" x2="517.5" y2="464.9"/>
<line class="st0" x1="584.9" y1="445" x2="532.6" y2="474.7"/>
<polyline class="st0" points="561,427 534,408.2 562.3,422.7 "/>
<line class="st0" x1="574.3" y1="428" x2="620.2" y2="403.8"/>
<polyline class="st0" points="568.8,427.7 599.6,442.6 568.2,424.8 "/>
<line class="st0" x1="485.4" y1="556.2" x2="499.6" y2="547.7"/>
<path class="st0" d="M373.4,696v8.5c7.3,2.3,6.6-1.5,6.6-1.5c0-0.4-0.2-7.8-0.2-7.8"/>
<path class="st0" d="M561.5,491l47.7,1.5c30.3,2,19.1,38.1,19.1,38.1"/>
<path class="st0" d="M626.3,499.3c4.4-5.9,10.1-10.7,16.7-13.9c5.5-2.7,11.4-4.4,17.5-4.9c2.4-0.2,4.7,0.6,6.4,2.3
	c1.5,1.6,2,3.5,1.5,4.8c-0.2,0.5-0.2,1.4-0.7,1.7c-1.3,1-2.3,2.4-2.9,4c-0.4,1-1.3,1.6-2.1,2.7c-3.8,5.6-10.5,6.4-12.4,6.6
	c-0.3,0-0.5,0-0.8,0.1c-1.4,0.3-5.9,1.1-6,1.1l-5.4,1l-1.3,0.3c-2.2,0.8-4.5,1.6-6.7,2.4"/>
<line class="st2" x1="378.5" y1="705.2" x2="378.5" y2="715.6"/>
<line class="st2" x1="375.9" y1="710.4" x2="375.9" y2="718.5"/>
<polyline class="st2" points="375.9,705.6 375.9,709.3 375.9,710.4 "/>
<polyline class="st2" points="384.1,712.5 392.3,703.1 383.5,694.3 "/>
<polyline class="st2" points="378.8,713.1 387.4,703.6 380,696.2 "/>
<ellipse transform="matrix(0.3405 -0.9402 0.9402 0.3405 -430.2632 842.7542)" class="st2" cx="385.7" cy="728.1" rx="2" ry="1.8"/>
<path class="st2" d="M381.3,741c-2-0.3-3.9-1-5.7-2c-4.7-3-5.5-10.4-2.1-16.9c0.2-0.4,0.4-0.8,0.7-1.2c0.3-0.4,0.6-0.9,0.9-1.3
	c3.4-4.6,8.4-7.1,12.6-6.4c1.1,0.2,5.4,3,6.1,4.3"/>
<path class="st2" d="M389.1,720.6c-0.6-0.1-1.2-0.1-1.7,0.1c-2.7,1.1-4.9,3.3-5.8,6.1c-1.4,4.5-1,8.8,1.5,9.5c0.1,0,0.2,0.1,0.4,0.1
	c2.6,0.4,5.8-2,7.6-6.2C392.7,726,391.7,721.4,389.1,720.6z"/>
<path class="st2" d="M392.3,716.3c-3.5-1.5-9.8,1.8-13.1,8.5c-2.8,5.7-2.7,14.1,0.5,15.7s10.2-1.4,13.7-8.1S396.2,717.9,392.3,716.3
	z"/>
<path class="st2" d="M381.8,735.5L381.8,735.5c2.2-0.5,5.7-2,7.1-5.3c1.7-4.2,0.9-8.6-1.6-9.5c-2.7,1.1-4.9,3.3-5.8,6.1"/>
<path class="st2" d="M370.8,732.1c0.2-0.1,0.4-0.2,0.6-0.4"/>
<path class="st2" d="M375.9,711.2c-0.7-0.9-1.6-1.6-2.7-2.1c-5.2-2.4-12,1.2-15.2,8s-1.7,14.4,3.5,16.9c3.2,1.4,6.9,1.3,10-0.3"/>
<path class="st2" d="M376.1,717.6c-0.3-2.7-1.6-4.8-3.6-5.6c-3.6-1.4-8.4,2-10.6,7.6s-1.1,11.3,2.6,12.8c2.3,0.8,4.9,0.6,7-0.6"/>
<ellipse transform="matrix(0.3405 -0.9402 0.9402 0.3405 -434.4163 824.7567)" class="st2" cx="370.7" cy="722.1" rx="2" ry="1.8"/>
<path class="st0" d="M631.6,663c8.3,3.4,18.3-2,22.4-11.9c1.9-4.5,2.2-9.5,0.9-14.2"/>
<path class="st0" d="M637.5,626.5c-4.9,1.9-11.3,6.6-13.7,12.4c-4.1,10-0.6,20.8,7.7,24.2"/>
<line class="st0" x1="618.7" y1="615.5" x2="625.5" y2="635.6"/>
<path class="st0" d="M642.4,629.6c-4.3,1.9-10.3,6.7-12.9,12.5c-3.4,7.4-3.3,15-0.3,19.7"/>
<ellipse transform="matrix(0.4196 -0.9077 0.9077 0.4196 -215.1022 957.5355)" class="st0" cx="641.2" cy="647" rx="8.7" ry="6.3"/>
<path class="st2" d="M637.5,654.7c2.7-0.6,6.5-2.2,8-5.4c2.1-4.4,0.7-9.7-2.3-10.7"/>
<ellipse transform="matrix(0.3405 -0.9402 0.9402 0.3405 -185.1542 1028.7789)" class="st2" cx="640.8" cy="646.4" rx="2" ry="1.8"/>
<path class="st2" d="M375,719.7c-0.4-0.8-1.1-1.5-1.9-1.8c-2.1-0.7-4.5,1.1-5.4,3.8s0.1,5.6,2.2,6.2c0.5,0.2,1.1,0.2,1.6,0.1"/>
<path class="st2" d="M376,718.4c-0.6-0.9-1.5-1.6-2.5-2c-2.9-0.9-6.3,1.4-7.5,5.2s0.2,7.6,3.2,8.5c0.5,0,1.1,0,1.6-0.1"/>
<path class="st0" d="M555.5,425.3c0.3-0.4,0.7-0.7,1.2-1"/>
<path class="st0" d="M556.1,424.8c-0.5,0.4-0.9,1-1,1.7c-0.4,2.7,4.2,5.9,8.4,6.7c3.9,0.7,7.9-0.3,11.1-2.7l0,0
	c0.9,0.3,1.7,0.7,2.5,1.2l0,0"/>
<path class="st0" d="M555.1,440.4V427"/>
<line class="st0" x1="555.1" y1="441.2" x2="555.1" y2="440.4"/>
<path class="st0" d="M569.1,430.1c-1.1-8.6-2.4-12.3-4.1-12.3s-3.2,2.6-4.3,11"/>
<path class="st0" d="M574.9,442.7c-2.5,0.8-5.1,1.1-7.7,1.1c-5.2,0-9.7-1.4-12.1-3.4"/>
<polyline class="st0" points="685.7,386.8 593.1,440.4 584.5,445.2 "/>
<path class="st0" d="M574.5,431.2c0.1,4,0.2,8,0.4,12"/>
<polyline class="st0" points="380.8,538.9 353.8,520.1 382.1,534.6 "/>
<line class="st0" x1="419.4" y1="554.5" x2="388" y2="536.7"/>
<line class="st0" x1="388.6" y1="539.6" x2="419.4" y2="554.5"/>
<path class="st0" d="M376.3,536.2c-0.7,0.6-1.2,1.3-1.4,2.2c-0.4,2.7,4.2,5.9,8.4,6.7c3.9,0.7,7.9-0.3,11.1-2.7l-0.1,0.7"/>
<path class="st0" d="M374.9,552.3v-13.4"/>
<path class="st0" d="M388.9,542c-1.1-8.6-2.4-12.3-4.1-12.3s-3.2,2.6-4.3,11"/>
<path class="st0" d="M394.3,554c-2.2,0.7-4.5,1.7-7.3,1.7c-4.5,0-8.8-1.4-12.4-4"/>
<path class="st0" d="M394.3,543.1c0.1,4-0.1,6.9,0,10.9"/>
<polyline class="st0" points="515.8,616.8 488.8,598 517.1,612.5 "/>
<line class="st0" x1="554.4" y1="632.4" x2="523" y2="614.6"/>
<line class="st0" x1="523.6" y1="617.5" x2="554.4" y2="632.4"/>
<path class="st0" d="M511.5,614.2c-0.7,0.5-1.2,1.3-1.5,2.1c-0.4,2.7,4.2,5.9,8.4,6.7c3.9,0.7,7.9-0.3,11.1-2.7l0,0
	c0.9,0.3,1.7,0.7,2.5,1.2l0,0"/>
<path class="st0" d="M509.9,630.2v-13.4"/>
<path class="st0" d="M524,619.9c-1.1-8.6-2.4-12.3-4.1-12.3s-3.2,2.6-4.3,11"/>
<path class="st0" d="M529.7,632.5c-2.5,0.8-5.1,1.1-7.7,1.1c-5.2,0-10.1-1.5-12.5-3.5"/>
<path class="st0" d="M529.4,621c0.1,4-0.1,7.4,0,11.4"/>
<polyline class="st0" points="697.7,509 670.7,490.2 699,504.7 "/>
<line class="st0" x1="736.3" y1="524.6" x2="704.9" y2="506.8"/>
<line class="st0" x1="705.5" y1="509.7" x2="736.3" y2="524.6"/>
<path class="st0" d="M693,506.4c-0.6,0.6-1,1.3-1.2,2.1c-0.4,2.7,4.2,5.9,8.4,6.7c3.9,0.7,7.9-0.3,11.1-2.7l0,0
	c0.9,0.3,1.7,0.7,2.5,1.2l0,0"/>
<path class="st0" d="M691.8,522.4V509"/>
<path class="st0" d="M705.8,512.1c-1.1-8.6-2.4-12.3-4.1-12.3s-3.2,2.6-4.3,11"/>
<path class="st0" d="M711.3,523.7c-2.2,0.7-4.5,2.1-7.3,2.1c-5.2,0-10.1-1.4-12.5-3.4"/>
<path class="st0" d="M711.2,513.2c0.1,4-0.1,6.9,0,10.9"/>
</svg>
