<?xml version="1.0" encoding="utf-8"?>
<!-- Generator: Adobe Illustrator 23.0.1, SVG Export Plug-In . SVG Version: 6.00 Build 0)  -->
<svg version="1.1" id="Layer_1" xmlns="http://www.w3.org/2000/svg" xmlns:xlink="http://www.w3.org/1999/xlink" x="0px" y="0px"
	 viewBox="0 0 1080 1080" style="enable-background:new 0 0 1080 1080;" xml:space="preserve">
<style type="text/css">
	.st0{fill:none;stroke:#FF0000;stroke-width:4;stroke-linecap:round;stroke-linejoin:round;}
</style>
<title>drone -7(red)-01</title>
<path class="st0" d="M425.8,716.3c-0.2,0.4-0.5,0.9-0.8,1.5c-5.6,9.5-26.5,41.7-37.3,53c-11.5,11.9-46.4,43.7-46.4,43.7
	s-15.3-4-23.6-3.7c0,0,42.7-65.1,46.4-72.4s2.4-9.9,40.4-29.8c0.8,0.6,1.7,1.2,2.6,1.7c4.2,2.3,12.8,5.5,20.3-1.7
	C427.2,708.5,429.7,709.2,425.8,716.3z"/>
<path class="st0" d="M433.3,689.9v21.5c-2.3,2.7-5.1,4.9-8.4,6.3c0.3-0.6,0.6-1.1,0.8-1.5c4-7.1,1.4-7.8,1.4-7.8
	c-7.5,7.2-16.1,4-20.3,1.7v-20.2C420.2,678,433.3,689.9,433.3,689.9z"/>
<path class="st0" d="M433.3,699.6l9.7-3.9c2.3-0.9,4.7-1.5,7.1-1.8l60.6-6.2c1.1-0.1,2.1-0.2,3.2-0.2l77.8-0.3
	c1.1,0,2.1,0.7,2.5,1.7l4.4,11.7c0.5,1.4-0.2,3-1.6,3.6c-0.1,0.1-0.3,0.1-0.4,0.1c-15.1,3.1-72.8,15.2-87.5,17.1
	c-16.7,2.1-46.2,8.3-84.2-3.6"/>
<path class="st0" d="M406.9,706.3l-52.1-33.9c-4.6-3-8.9-6.5-12.9-10.4l-25-25c-0.3-0.3-0.3-0.7,0-0.9c0.1-0.1,0.2-0.2,0.3-0.2
	l15.5-3.1c1.8-0.4,3.7-0.1,5.3,0.9l38.5,23l0.7,0.4l30.8,16c4.8,2.5,8.5,6.6,10.5,11.6l0,0"/>
<path class="st0" d="M92.8,455.4c-11.8,1.8-27.4,5-33,10.1c-9.3,8.5-51,34.3-51,34.3h13.9L93.7,461l5.6-3"/>
<path class="st0" d="M108.8,450.4c12.8-7.1,118.2-5.7,118.2-5.7v8.8c0,0-59.2,9.1-79,10.5s-54.2-3-54.2-3"/>
<path class="st0" d="M91.6,454.5v-12c0,0,8.3-10.8,17.3,0v11.1C108.8,453.5,102.1,463,91.6,454.5z"/>
<path class="st0" d="M91.6,453.1c0,0-33.7-15.5-42.3-34.1h15.3l38,19"/>
<polyline class="st0" points="139.9,464.3 139.9,485.8 208.7,492 "/>
<path class="st0" d="M68,475v17c0,0,4.2,13.5,34.6,10c33.2-3.9,37.4-16.3,37.4-16.3"/>
<line class="st0" x1="260.2" y1="509.9" x2="243.9" y2="508.4"/>
<line class="st0" x1="209.9" y1="505.1" x2="124.9" y2="497"/>
<path class="st0" d="M260.2,518.9c0,0-123.2-16-150.1-13.5s-41-9.8-42.1-13.4"/>
<polygon class="st0" points="257.8,502.6 203.2,498.5 218.1,484.4 249.6,487 250.8,489.3 250.8,489.3 250.8,489.3 257.5,502.1 "/>
<polygon class="st0" points="216.6,499.5 207.9,506.8 242.6,509.9 246.9,504.7 253.6,505.4 255.1,502.6 "/>
<line class="st0" x1="459.4" y1="651.6" x2="453.1" y2="693.4"/>
<polygon class="st0" points="426.4,614.8 464.2,616.1 459.3,647.3 419.4,647.3 "/>
<polyline class="st0" points="419.4,647.3 421.9,651.6 459.7,651.6 464.6,624.1 464.2,616.1 479.5,555.7 "/>
<line class="st0" x1="459.3" y1="647.3" x2="459.7" y2="651.6"/>
<line class="st0" x1="420.9" y1="649.9" x2="415.2" y2="678.8"/>
<path class="st0" d="M936.1,507.9h8.5c4.3,0,8.5,0.8,12.5,2.3l50.8,19c1.9,0.7,3.7,1.5,5.5,2.4l42.6,21.8c0.3,0.1,0.4,0.5,0.3,0.7
	c0,0.1-0.1,0.2-0.2,0.2l-10.4,7.8c-0.6,0.5-1.4,0.6-2.2,0.4l-91.9-29.1c-6.3-2-12.2-5-17.5-9l-13.7-10.2c-0.4-0.3-0.5-0.8-0.2-1.2
	c0.1-0.1,0.2-0.2,0.4-0.3l14-4.5C935.1,507.9,935.6,507.9,936.1,507.9z"/>
<path class="st0" d="M915.9,506.5l-4.3-1.1l-0.4-25.2c0-1.2,0.3-2.3,0.9-3.3l8-12.9c0.6-0.9,1.6-1.3,2.7-1l13.2,3.6
	c1.4,0.4,2.5,1.4,2.9,2.8l10.6,31.9c0.4,1.1,0.1,2.3-0.7,3.1l-3.4,3.4"/>
<path class="st0" d="M795.1,517l-4-3.3c-0.3-0.2-0.3-0.6-0.1-0.9c0.1-0.1,0.2-0.2,0.4-0.2l81.5-9.8c2.7-0.3,5.3-0.5,8-0.4
	c9.9,0.1,33.7,1.2,44.5,8.2l-46.5,5.5c-0.5,0.1-1,0.1-1.5,0.1l-77.2,2.5C798.4,518.8,796.6,518.2,795.1,517z"/>
<path class="st0" d="M915.4,511.8l-0.6,5.9c5.6,4.2,10.8,4.2,14.5,3.1"/>
<path class="st0" d="M915.9,506.5L915.9,506.5l0.2-1.8l0.9-8c0,0,10.4-8.5,18.1,0v11.2"/>
<path class="st0" d="M534.4,339.1l0.2-0.1c0,0,8.1-10.4,18-11.3c6.2-0.6,10.1,0.5,12.1,1.3c1,0.4,1.6,1.6,1.4,2.7
	c-1.7,7.3-5.5,14-10.8,19.2c0,0,34.6,11.4,46.6,20.8c1.1,0.9,1.3,2.6,0.4,3.7c-0.3,0.4-0.8,0.7-1.3,0.9c-4.7,1.5-12.5,3.5-17.9,2.2
	c-6.3-1.5-34.4-9.1-48.8-17.8l0,0"/>
<path class="st0" d="M525.7,353.1c-6.1,0.4-87.1,5.6-90.4,4.3s-4.9-3.4,0-4.3s63.9-9.3,89.4-4.4l0.8-0.9"/>
<path class="st0" d="M525.5,349.3v-6c0,0,6.8-9.9,14.5,0v15.4c0,0-7.3,4.6-14.2,0L525.5,349.3z"/>
<path class="st0" d="M962.4,536.8v15.7c0,0-5.7,10.1-10,11.3c-7,2-49.6,6-70.9-17.6v-19.8c0,0,2.1-3.5,3.3-3.5v-7.5"/>
<path class="st0" d="M907.5,561.6c0,0-31.5-6.5-49.2-7.6s-252.5-24.1-252.5-24.1v6.3c0,0.6-5,2.5-11.3,0.8
	c-4.5-1.2-11.9-1.6-17.7-1.8c-5.5-0.1-10.9,0.8-16,2.7l-9.9,3.6c-2,0.7-3.9,1.7-5.7,2.8c-5.7,3.6-20.2,11.8-32.9,10.9
	c-2.2-0.1-4.4,0.2-6.4,1l-14.2,5.4c-2.5,0.9-4.6,2.6-6.1,4.7c-4.4,6.1-13.1,19.8-15.2,33.5c-2.8,18.5-14.1,93.5-14.1,93.5"/>
<path class="st0" d="M884.2,548.9c0,0-259.5-21.1-278.5-24.7"/>
<ellipse class="st0" cx="650.3" cy="322" rx="4.5" ry="2.2"/>
<path class="st0" d="M646.8,323.3c-3,0.5-5.1,1.6-5.1,2.8c0,0.4,0.2,0.7,0.5,1c1.2,1.2,4.5,2.1,8.3,2.1s7.1-0.9,8.3-2.1
	c0.3-0.3,0.5-0.6,0.5-1c0-1.3-2.2-2.4-5.3-2.9"/>
<path class="st0" d="M642.2,327.2L642.2,327.2c-0.3,0.3-0.5,0.6-0.5,1c0,1.7,3.9,3.1,8.8,3.1s8.8-1.4,8.8-3.1c0-0.4-0.2-0.7-0.5-1"
	/>
<line class="st0" x1="659.2" y1="326.2" x2="659.2" y2="328.2"/>
<line class="st0" x1="641.7" y1="328.2" x2="641.7" y2="326.2"/>
<path class="st0" d="M647,331.1c0,0,6,16.6,5.9,24.8s0,26.3,0,26.3s2.7,2.3,7,0v-25c0,0-0.4-8.5-2.5-14.7s-4-11.1-4-11.1"/>
<ellipse class="st0" cx="696.3" cy="488" rx="6" ry="2.6"/>
<ellipse class="st0" cx="702.5" cy="390.2" rx="5.1" ry="2.2"/>
<line class="st0" x1="697.4" y1="392.5" x2="697.4" y2="390.2"/>
<path class="st0" d="M707.6,390.2v6.1l-0.1,0"/>
<ellipse class="st0" cx="628.4" cy="362.8" rx="5.1" ry="2.2"/>
<line class="st0" x1="628.4" y1="452" x2="628" y2="424.3"/>
<path class="st0" d="M624.4,448.4L624.4,448.4v-1.3v-1.9c0-0.1,0-0.1,0-0.2l-0.5-20.4"/>
<path class="st0" d="M633.5,362.8v6.1c0,0-5.1,2.8-10.2,0v-6.1"/>
<path class="st0" d="M574.3,492.8c1.6,0.5,2.6,1.3,2.6,2.2c0,1.5-2.7,2.6-6,2.6s-6-1.2-6-2.6c0-1,1.2-1.9,3.1-2.3"/>
<ellipse class="st0" cx="571.9" cy="399.8" rx="5.1" ry="2.2"/>
<line class="st0" x1="575.3" y1="418" x2="575" y2="443.2"/>
<line class="st0" x1="574.9" y1="449.9" x2="574.9" y2="449.9"/>
<polyline class="st0" points="568.5,439.9 568.5,439.9 568.7,417.1 "/>
<path class="st0" d="M574.5,479.8l-0.2,13v2.2c-2.6,1.4-6.3,0-6.3,0v-2.3l0.1-15.3"/>
<path class="st0" d="M577,399.8v6.1c0,0-5.1,2.8-10.2,0v-6.1"/>
<ellipse class="st0" cx="468.2" cy="512.9" rx="5.6" ry="2.2"/>
<path class="st0" d="M473.8,512.9v6.1c0,0-5.6,2.8-11.1,0v-6.1"/>
<ellipse class="st0" cx="433.3" cy="531.1" rx="5.6" ry="2.2"/>
<path class="st0" d="M438.9,531.1v6.1c0,0-5.6,2.8-11.1,0v-6.1"/>
<ellipse class="st0" cx="432.1" cy="492.1" rx="5" ry="3.5"/>
<ellipse class="st0" cx="647" cy="466.6" rx="5.1" ry="2.2"/>
<path class="st0" d="M652.1,466.6v6.1c0,0-5.1,2.8-10.2,0v-6.1"/>
<ellipse class="st0" cx="600.6" cy="472.5" rx="5.1" ry="2.2"/>
<path class="st0" d="M704.8,405.6l-5.5,82.4c-1.8,0.8-3.9,0.8-5.7,0l4.7-80.1l0,0"/>
<path class="st0" d="M623.3,367l-14.9,3.2c3.7,3.6-2.5,5.1-2.5,5.1l-7,1.5l0,0l-7.5,1.6l0,0c-11.6,2.6-26.8,6-31.5,7.3
	c-4.1,1.1-6.1,2.3-7.1,3.1c-0.7,0.6-0.9,1.6-0.4,2.4l8.8,15.6c1.3,2.3,3.6,3.8,6.1,4.2l1,0.1l6.3,1l47.5,7.1l0,0
	c0.9,0.1,1.8,0.1,2.7-0.2l3.4-1l45.3-13.1c0,0-1.7-4,6-5.3s14.5,5.3,14.5,5.3l5-2.2"/>
<path class="st0" d="M705.2,400l5.5-2.4l-3.1-1.2c-0.8,0.4-5.4,2.5-10.1,0v-3.9L659.9,378"/>
<path class="st0" d="M633.5,368.3c1.7,0.3,3.4,0.7,5,1.3c1.2,0.5,6.8,2.7,14.4,5.6"/>
<path class="st0" d="M552,390.2l-0.3,8.6c0,0.4,0.1,0.7,0.3,1l9.7,14.3c0.9,1.4,2.4,2.3,4.1,2.6l2.1,0.3l6.3,0.9l47.6,6.5l2.9,0.4
	c0.8,0.1,1.7,0.1,2.5-0.2l1.3-0.4l45.7-12.8c0,0-0.1-2.5,6.2-4.7s12.8,3.1,12.8,3.1l5.3-1.9l0,0l6.5-2.3l5.8-2.1v-5.9"/>
<line class="st0" x1="705.2" y1="400" x2="698.6" y2="402.9"/>
<line class="st0" x1="598" y1="470.7" x2="588.5" y2="466"/>
<path class="st0" d="M575.3,436.1l22.3-6.2c0,0,5.9-0.2,10.3,1.7s14.2,6.6,14.2,6.6s1.9,0.8,2.3,6.9c0,0.1,0,0.2,0,0.2v0.2
	c0,0.5,0,1.1,0,1.7l0,0c-0.1,0.4-0.1,0.9,0,1.3l0,0c0.4,1.3,2,3.2,7.5,5.2c9.2,3.3,46,20.4,46,20.4l-43.1,14.6l-8.3-4.1l0,0"/>
<path class="st0" d="M464,481.6l116-33.2c0,0,7.4-2.1,7.5,3.6s0,13.9,0,13.9s-1.9,5.3-6,6.6s-114,32.9-114,32.9s-7,2.3-7.5-3
	c-0.3-4.6-0.3-9.2,0-13.7C460,488.7,459.9,482.8,464,481.6z"/>
<path class="st0" d="M462.9,505.9l-34.4-18.8c0,0-2.8-0.8-2.6-7.2s0.3-7.4,0.3-7.4s0.3-8.3,12.2-11.7s105.1-28.5,105.1-28.5
	c3.5-1.1,7.2-0.9,10.6,0.5c5.2,2.3,31.8,15.9,31.8,15.9"/>
<path class="st0" d="M586.3,468.4l9.2,4.1v6.1c5.1,2.8,10.2,0,10.2,0v-6.1"/>
<path class="st0" d="M652.1,468.9c0.8,0.3,1.4,0.8,2,1.4c0.5,0.5,0.6,1.3,0.2,1.9l0,0c-2.1,3.2-16.4,5.2-16.4,5.2l-31.8,5
	c0,0-7.5,1.1-11.3-0.6s-19.5-7.5-19.5-7.5"/>
<path class="st0" d="M605.7,476.1l34-6.8c0,0,0.8-0.3,2.2-0.6"/>
<line class="st0" x1="644" y1="468.4" x2="644" y2="468.4"/>
<path class="st0" d="M654.3,472.2v7.1l-47.7,8.9c0,0-7.1,1.4-11.5-0.4s-28.4-11-28.4-11"/>
<path class="st0" d="M677.8,474c0,0,2-0.5,2.2,4.6s0,14.6,0,14.6s0.6,4.4-6.2,6.5s-22.5,8.3-22.5,8.3l78.6,10.7l56.8,8l94.9,9.3"/>
<line class="st0" x1="606.7" y1="488.3" x2="605.7" y2="529.9"/>
<path class="st0" d="M594.2,487.5v42.4h-20.8c-4.2-0.7-8.5-0.1-12.4,1.5c-2.6,1.2-6.4,2.7-10,4.2c-4.8,1.9-9.4,4.2-13.8,7
	c-6.7,4.3-14.4,6.6-22.3,6.8c-5.9,0.1-11.8,1-17.5,2.7l-7.8,2.3c0,0-3.1,2-7.6,8.1c-4.3,5.8-6.6,9.3-6.6,9.3"/>
<path class="st0" d="M640.3,482v33.3c0,0,6.2,2.6,11-0.1v-7.1"/>
<path class="st0" d="M651.3,479.9v28.1l42.3-1.1l18-6.4c0,0,4.7-1.5,4.7-4.1s1.9-5.2-4.7-8.1S664,463.6,664,463.6s-6.4-3.3-12.7-1.7
	"/>
<path class="st0" d="M711.6,488.3c0,0,7,5.7-4,8.1s-14,3.8-14,3.8l-26.7,2"/>
<path class="st0" d="M506.8,354.3c0,0-3.4,0.4-3.6,6.4s0,20.9,0,20.9s4.9,8.6,26.8,8.6s30.4-7.1,30.4-7.1l-0.3-11.4
	c0,0-10.7,9.7-29.2,9.7S503.1,371,503.1,371"/>
<path class="st0" d="M522.8,389.9c0,0,1.3,41.8-13.9,51.7"/>
<path class="st0" d="M549,388.1c0,0-5,38.4,3,44"/>
<path class="st0" d="M337,354.3l-15,30.9c0,0-2.4,4.3,1.6,6.1s32.3,17.1,32.3,17.1s3.7,0.7,5.1-2.5s15.9-33.2,15.9-33.2s3-4-0.9-6.4
	s-33.5-15.9-33.5-15.9S339.9,348.4,337,354.3z"/>
<path class="st0" d="M335.8,354.2l2.3-4.8c0,0,2-4.5,7.1-2.1c6.4,3,39.7,17.7,39.7,17.7s4.7,1.7,0,11.2s-15.3,31.6-15.3,31.6
	s-2.4,9.6-12.5,4.5s-33.7-17.7-33.7-17.7s-6.1-2.4-2.7-9.6C325,375.5,335.8,354.2,335.8,354.2z"/>
<path class="st0" d="M302.8,333.6c0,0,4.1-14.2,18.5-5.9c15.3,8.9,79.6,36.9,79.6,36.9s7.5,2.8,1.1,14.7s-50.5,108.1-50.5,108.1
	s-4.1,13.2-14.5,6s-84.1-51.9-84.1-51.9s-3.8-1.6,2.2-12S302.8,333.6,302.8,333.6z"/>
<path class="st0" d="M283.3,406.3l17.7-37c1.3-2.6,4.4-3.8,7.1-2.5l12.3,5.9c2.6,1.3,3.8,4.4,2.5,7.1l-17.7,37
	c-1.3,2.6-4.4,3.8-7.1,2.5l-12.3-5.9C283.1,412.1,282,408.9,283.3,406.3z"/>
<path class="st0" d="M394.9,515.9c1.7,0.7,2.9,1.2,3.3,1.4c4,1.9,5.3-1.1,5.3-1.1s0.5-1.1,1.5-3.1"/>
<path class="st0" d="M341.8,495.6c0,0,10,3.8,21.7,8.2"/>
<path class="st0" d="M410.1,502.9l1.7-3.5c14.4-29,42.9-86.4,46.5-94c4.9-10.2-0.9-10.4-0.9-10.4L402,365.2"/>
<line class="st0" x1="299.2" y1="473.2" x2="299.2" y2="469.9"/>
<path class="st0" d="M250.8,489.3L250.8,489.3"/>
<line class="st0" x1="416.4" y1="501" x2="411.8" y2="499.5"/>
<path class="st0" d="M250.6,485.1l14.8,22.9c1.7,2.5,4.1,4.5,6.9,5.5l49,18.2c3,1.1,6.3,1.2,9.4,0.2l17.5-5.5
	c-1.3-10.2,21.2-11.2,21.2-11.2l13.4-4.1"/>
<path class="st0" d="M416.4,501v8.9l-11.3,3.2l-10.2,2.8l-25.3,7.1c0,0-13.3-0.3-16.4,2.6s-3.4,8.2-3.4,8.2l-18.5,6.9
	c-3.3,1.3-7,1.2-10.4-0.1l-49.8-19.8c-3-1.2-5.5-3.5-7.1-6.4l-6.2-11.8l-0.3-0.5l-6.7-12.7l0,0l0,0c-0.3-0.9-4-13.6,20-13.1
	c14.3,0.3,15.9,0,15.9,0l12.6-3l-4.7,24.4c0,0,0.6,5,12.3,6.8c5.2,0.7,10.5,0.8,15.8,0.4c26.9-1.9,31.5,1,31.5,1s6.6,0.8,9.4-1.9
	l0,0c6.5,2.5,13.4,5.1,19.4,7.4l27.3-8.3L416.4,501z"/>
<line class="st0" x1="311.5" y1="477.4" x2="306.7" y2="504.7"/>
<line class="st0" x1="273.6" y1="521.7" x2="273.6" y2="541.1"/>
<line class="st0" x1="260.2" y1="507.2" x2="262.4" y2="559.5"/>
<path class="st0" d="M262.4,554.9c0,0-19.1,4-11.7,9.6c7.3,5.6,17.5,12.6,25.7,27l0.7,1.2c0.3,0.5,0.8,1,1.4,1.3
	c5.2,2.3,31.7,14.3,42.7,25.9c0.2,0.3,0.7,0.3,0.9,0.1c0,0,0,0,0.1-0.1l6-5.8c1.1-1,2.5-1.7,4-1.8l23.4-1.7c0,0,7.9,0.6,12.1-5.1
	c3.6-4.7,24.8-12.5,31.9-15.1c1.6-0.6,3.3-0.9,5-0.9c6.3-0.1,21.7,0.4,27.1,7"/>
<path class="st0" d="M248.8,561.5v8.5c0,0.7,0.4,1.4,1,1.7c3.5,2.1,15.8,10.3,26.4,28.4c0.4,0.6,0.9,1.1,1.6,1.4
	c5.5,2.2,30.7,12.6,42.4,25.3c0.9,1,2.2,1.6,3.5,1.7c4.2,0.4,8.5-0.2,12.4-1.6c7.9-2.8,11.2-6.7,23.7-8.4c0,0,3.1,0.1,9.4-6.4
	c4.9-5.1,22.1-11,29.6-13.4c2.3-0.8,4.8-1.1,7.2-0.9c6.3,0.3,18.8,1.4,24.7,4.9"/>
<path class="st0" d="M358.1,610.6l-25.3,12.8c0,0-4.8,2.1-7.2,0c-1.2-1-2.4-2.2-3.4-3.4"/>
<line class="st0" x1="428.6" y1="614.8" x2="435.4" y2="575.4"/>
<polyline class="st0" points="434.3,615.1 441,575 475.2,555.7 457.6,615.9 "/>
<line class="st0" x1="439.7" y1="583.1" x2="472.8" y2="563.8"/>
<ellipse transform="matrix(0.9477 -0.3192 0.3192 0.9477 -165.8596 117.6031)" class="st0" cx="275.8" cy="564.8" rx="9.2" ry="19.6"/>
<path class="st0" d="M262.7,552.6c0,0-1.1-11.4,13.5-10.2c11.7,0.9,16.7,24.4,15.3,34.9c-0.7,5-3.3,9.5-8.1,11
	c-4.5,1.3-10.1,0-14.8-10.8"/>
<path class="st0" d="M282.6,545.5c0,0,6.7-7.1,11.5,5.4s6.6,25.8-3,28.4"/>
<path class="st0" d="M278.9,543.1c0,0,9.8-9.7,16-4.1s15.3,25.8,11,37.7s-16,5.8-16,5.8"/>
<polyline class="st0" points="352.6,526.1 352.6,538.4 344.3,541.6 345.7,583.1 335.6,586.9 "/>
<path class="st0" d="M335.6,539.1v69c0,0-7.3,3.7-13.5,1V541"/>
<path class="st0" d="M299.9,583.5c0,0,2.5,4.3,6.9,4s15.4-2,15.4-2"/>
<path class="st0" d="M289.5,537.2c0,0,6.4-0.6,7-2.8c0.3-1.2,0.3-2.4,0-3.6"/>
<path class="st0" d="M389,694.6c-24.7,8.9-21.3,30.3-21.3,30.3l0.4,6.2"/>
<path class="st0" d="M381.5,776.8c7.4,4.7,19.3,9,38.6,9.5c40.1,1,50.8-24,52.4-28.4c0.1-0.4,0.3-4.4,0.4-7.9
	c0.6-18.1-3.1-25.1-3.1-25.1"/>
<path class="st0" d="M472.1,733.9c0,0-1.3,20.7-19,26.7s-34.1,10.2-59.6,3.5"/>
<path class="st0" d="M473.8,515.1l2.4,1.5c0,0,0.6,3.1-3.4,5.4s-32.2,17.4-32.2,17.4s-5.6,3.3-11.5,2.2c-3.8-0.7-6-2.2-6.2-3.9v-0.1
	c0-0.1,0-0.2,0-0.3c0.1-1.2,1.3-2.4,3.8-3.5l1-0.4l1.8-0.8"/>
<path class="st0" d="M466.9,510.8L466.9,510.8c-8.6-5.4-21.2-13.3-29.9-18.6c-2.3-1.4-4.2-2.6-5.8-3.5l0,0c-1-0.6-1.8-1-2.4-1.4
	l-0.4-0.2l0,0h-0.1c-0.1,0-0.1-0.1-0.2-0.1c0,0-0.1,0-0.1,0l0,0c-6.6-3.5-8.9-1.9-9.1-1.8l0,0c-2.4,13.5,11.7,13.6,11.7,13.6
	s10.7,7.9,18.8,14.4c8.1,6.4-0.7,10.3-0.7,10.3s-6.1,3-12.1,5.9"/>
<path class="st0" d="M418.7,490.1v10.1c0,0,1.4,6.6,11.4,7.1l14.4,9.6c0,0,4.6,3,0.6,8.2"/>
<path class="st0" d="M412.5,511l12.2,5.8c3.7,1.1,7.5,1.5,11.3,1c2.8-0.5,5.6-0.8,8.5-0.9"/>
<line class="st0" x1="403.5" y1="516.2" x2="428.5" y2="533.1"/>
<path class="st0" d="M439.7,547.8v25.6c0,0-6.5,4.7-13.3,0v-25.6"/>
<path class="st0" d="M441,575c0,0-8.7,5.8-14.7,0.9s-27.8-20.9-27.8-20.9s-11.1,1.5-15.7-3.6s-1.6-8.5-1.6-8.5L361,529.6
	c-2.8-0.6-5.6-0.5-8.4,0.3"/>
<path class="st0" d="M434,583.5c0,0-4.7,2.8-9.2-2.3s-28-19.6-28-19.6s-17.1,0.2-17-11.7l-19.9-13.3l-0.4-0.3
	c-0.9-0.7-4.6-3.3-6.9-1.5"/>
<path class="st0" d="M396.8,516.7v31.7c0,0-4.9,5.8-12.2,0v-29.6"/>
<path class="st0" d="M446.7,544.1c0,0,12.4,9.3,3.7,13.2s-10.8,4.2-10.8,4.2"/>
<path class="st0" d="M396.8,521l26.2,16.3l0.1,8.5c7.7,5.5,16.6,2,16.6,2s31.7-16.3,35.6-19c3.3-2.2,2.6-6.2,2.6-8
	c-0.1-1.5-0.6-3-1.6-4.2"/>
<path class="st0" d="M439.7,547.8l6.4,5c0,0,4,4.5-0.4,6.4"/>
<path class="st0" d="M462.3,536v19.7c0,0,5.5,4.3,12.9,0v-24.6"/>
<path class="st0" d="M475.4,544.3c0,0,4.5,5,9.7,4.6s69.6-21.1,69.6-21.1s9.5-2.5-1.1-8.1s-5.5-7-1.4-6.8s24.7,6.8,24.7,6.8l7-1.6"
	/>
<path class="st0" d="M540,502.1l12.5-2.3c0,0,4.3-1.6,15.5,3s17.1,9.7,26.2,10"/>
<path class="st0" d="M550.9,507.6c0,0,6-2,14,2.5s24.7,7.5,29.3,17.5"/>
<line class="st0" x1="640.3" y1="508.1" x2="605.7" y2="512.9"/>
<path class="st0" d="M68,482.4c12.4,9.8,29,12.4,43.8,7c25.5-9.2,28.2-16.1,28.2-16.1"/>
<path class="st0" d="M962.4,540.4c0,0-18.1,14.9-42.3,11.3c-18.7-2.8-33.8-11.3-38.5-25.3"/>
</svg>
