<?xml version="1.0" encoding="utf-8"?>
<!-- Generator: Adobe Illustrator 23.0.1, SVG Export Plug-In . SVG Version: 6.00 Build 0)  -->
<svg version="1.1" id="Layer_1" xmlns="http://www.w3.org/2000/svg" xmlns:xlink="http://www.w3.org/1999/xlink" x="0px" y="0px"
	 viewBox="0 0 1080 1080" style="enable-background:new 0 0 1080 1080;" xml:space="preserve">
<style type="text/css">
	.st0{fill:none;stroke:#FF0000;stroke-width:4;stroke-linecap:round;stroke-linejoin:round;}
	.st1{fill:none;stroke:#FF0000;stroke-width:4;stroke-miterlimit:10;}
</style>
<title>drone -6(red)</title>
<path class="st0" d="M953.9,506.2l-0.1-0.2c0,0-2.3-6-5.7-14.4s-29.5-20.4-29.5-20.4c-24.9-9.1-19.7,11.3-15.1,17
	s40.4,38.2,40.4,38.2c0.2,5,1,6,1,6s29.8,40.5,42,53.6s9.9,16.7,15,22.7c3.2,3.6,7.5,6.1,12.2,7.1c0,0,10.2-28.9-17.6-49
	s-34.3-31.2-34.3-31.2l-2.7-9.3l0,0"/>
<ellipse class="st0" cx="954.8" cy="507.8" rx="4.9" ry="1.6"/>
<path class="st0" d="M949.9,520.3c-3,0.6-5,1.8-5,3.1c0,1.9,4.2,3.5,9.3,3.5c1.9,0,3.7-0.2,5.5-0.7l0,0c2.3-0.6,3.7-1.7,3.7-2.8
	s-1.4-2.1-3.7-2.8"/>
<path class="st0" d="M949.9,507.8v14.5c3,1.7,6.7,1.8,9.8,0.3v-14.8"/>
<path class="st0" d="M944.8,526.6c-9.3,1-15,2.8-15.1,6c-0.2,3.6,8.4,7.7,21.8,8.9"/>
<path class="st0" d="M959.8,526.6c8.7,1.2,14.9,4.6,14.9,8.5c0,3.1-1.5,4.8-7.5,6.4"/>
<path class="st0" d="M978.2,602.4C978.2,602.4,978.2,602.4,978.2,602.4c-1.2,7-17.2,10.4-35.9,7.5c-9.3-1.5-17.5-4.2-23.3-7.4
	c-1.8-1-3.5-2.2-5.1-3.5c-2.6-2.3-3.9-4.8-3.6-7.1"/>
<line class="st0" x1="918.4" y1="540.3" x2="910.3" y2="591.8"/>
<line class="st0" x1="986.2" y1="550.9" x2="978.2" y2="602.4"/>
<path class="st0" d="M960.5,552.9L960.5,552.9c-3.6-0.2-7.1-0.6-10.6-1.2c-12.4-2-22-5.8-21.6-8.4"/>
<path class="st0" d="M928.2,543.3c0,0,1.7-10.8,1.5-10.7c-4.8,1.3-10.9,5.1-11.3,7.7c-1,6.3,13.4,13.8,32.1,16.8
	c4.6,0.7,9.3,1.1,14,1.2l0,0c7.5,0,13.7-1,17.5-2.9c2.4-1.2,3.9-2.7,4.2-4.5c0.7-4.2-2.2-9.8-12-13.3"/>
<line class="st0" x1="974.5" y1="537.6" x2="973.7" y2="548"/>
<path class="st0" d="M910.3,591.8h-11.9c-2,0-3.5,1.6-3.5,3.5c0,0.6,0.2,1.2,0.5,1.8c0.6,1.1,1.8,1.8,3.1,1.8h15.5"/>
<path class="st0" d="M979.8,591.8h11.6c0.3,0,0.5,0,0.8,0.1"/>
<path class="st0" d="M995,595.4c0,0.1,0,0.3,0,0.4c-0.1,0.8-0.4,1.5-1,2.1c-0.7,0.6-1.6,1-2.5,1h-12.8"/>
<path class="st0" d="M994.5,597.2c0.3,0.5,0.5,1.1,0.5,1.8c0,2-1.6,3.5-3.5,3.5h-13.2"/>
<path class="st0" d="M895.4,597.2c-0.3,0.5-0.5,1.1-0.5,1.8c0,2,1.6,3.5,3.5,3.5H919"/>
<line class="st0" x1="894.9" y1="595.4" x2="894.9" y2="598.9"/>
<line class="st0" x1="995" y1="595.4" x2="995" y2="598.9"/>
<path class="st0" d="M948.8,610.7c0,0,7.2,9.5,14.5,8.5c2.1-0.2,3.8-1.8,4.2-3.9c0.2-1.6-0.3-3.5-3.2-4.9"/>
<path class="st0" d="M942.3,609.9c0,0,8.3,10.5,15.3,12.5c1.5,0.4,3,0.6,4.5,0.6c2.5-0.2,4.2-2.8,4.6-4.5l0.7-3.2"/>
<path class="st0" d="M986.8,602.5c5.1,10.4-5.7,17.1-22.3,19.5"/>
<path class="st0" d="M630.1,569.3l1.1-23.4c0-1.5,0-2.8,0.1-4.1c0.1-1.7,0.3-3.3,0.5-4.8l0,0c1.8-10.4,6.6-15.3,11.3-17.5
	c4.2-1.9,9-2.2,13.3-0.6l191.4,64c5.8,1.9,11.5,4.4,16.9,7.2c18.3,9.6,64.3,32.7,83.9,32.9c3.4,0,6.8-0.1,9.9-0.3"/>
<path class="st0" d="M913.4,572.1C802.1,553.8,675,497.8,675,497.8c-0.9,0-20,8.5-27.8,11.9l-0.7,0.3c-1.7,0.7-3.6,1.2-5.5,1.3h-2.1
	L616,511c1.6,1,2.9,2.4,3.8,4c0.8,1.4,1.5,2.8,2,4.3c1.9,5.2,3.1,12.1,3.7,19.1c0.2,1.5,0.3,3.1,0.4,4.6c0.5,8.8,0.6,17.6,0.2,26.5
	h16.3c0.5-27.2,15.1-30.4,17.7-30.8c0.3,0,0.6-0.1,0.8-0.2c2.1-0.5,11.4-2.4,24.3,1.9c4.8,1.6,16.3,5,31.2,9.6
	c30.5,9.3,75.4,23.5,108.7,36.9c37,15,79.3,30.6,102,38.3c12.9,4.5,26.7,6,40.3,4.4c13.5-1.7,26.3-6.6,20.5-19.6"/>
<ellipse class="st0" cx="364" cy="587.8" rx="5.4" ry="2.1"/>
<path class="st0" d="M374.6,606.2c0,1.8-1.7,3.4-4.2,4.4c-3.8,1.4-8,1.4-11.9,0c-1.6-0.5-2.9-1.5-3.8-2.8c-0.3-0.5-0.4-1-0.4-1.5
	c0-1.8,1.7-3.5,4.4-4.4v5.1c0,1.2,2.4,2.1,5.5,2.1s5.2-0.9,5.2-2.1v-5.3C372.3,602.5,374.6,604.2,374.6,606.2z"/>
<polyline class="st0" points="358.6,606.9 358.6,601.8 358.6,587.8 "/>
<polyline class="st0" points="369.4,587.8 369.4,601.5 369.4,606.9 "/>
<path class="st0" d="M354.7,607.7l-0.5,0.6l-3.8,5.1l-7.8,10.5l-9.6,12.8l-2.9,3.8l-4.7,6.3c0,0-6.2,42.9-9.6,78.5l11.4,6.6
	c0,0,16.3-13.7,24.3-26c0.8-1.2,1.5-2.5,2.2-3.9c6.5-13.1,14.7-37.4,13.9-54.1c0-0.1,0-0.2,0-0.3c-0.1-3.1-0.3-5.7-0.4-7.9
	c-0.6-9.7-1-11.9-1-11.9s-0.7-5,4.8-9.8c0.9-0.8,1.8-1.7,2.6-2.7c0.1-0.1,0.1-0.1,0.1-0.2c0.8-0.9,1.4-2,1.9-3.1
	c0.4-0.8,0.7-1.7,0.9-2.6c0.1-0.5,0.3-1,0.5-1.4c2.1-3.6,11.5-20,16.3-36.1c5.3-18,6.3-29.6,3.6-39.3c0-0.2-0.1-0.3-0.1-0.4
	c-1-3.7-5.2-1.9-10.1,1.8c-0.3,0.3-0.7,0.5-1,0.8c-10.7,8.6-18,20.6-20.7,34.1c-1.5,7.3-2.9,14.6-2.9,16.8"/>
<path class="st0" d="M377.2,608.3c6.7,1.8,11.3,5.2,11.3,9c0,5.7-10,10.3-22.4,10.5"/>
<path class="st0" d="M355,608.1l-0.4,0.1l-0.4,0.1h-0.1c-6.1,1.6-10.4,4.4-11.4,7.6l0,0c-0.1,0.5-0.2,0.9-0.2,1.4
	c0,1.4,0.6,2.7,1.5,3.7"/>
<path class="st0" d="M354.7,607.7l-0.3,1.9c-0.2,1.4,0.3,2.8,1.3,3.7c2.4,2.2,5.3,3.7,8.5,4.4c5.5,0.9,10-1.8,10-4"/>
<line class="st0" x1="374.3" y1="613.8" x2="374.6" y2="606.2"/>
<path class="st0" d="M373.5,615.4L373.5,615.4"/>
<path class="st0" d="M367,639.8c12-0.4,21.4-5.9,21.4-12.6"/>
<line class="st0" x1="388.5" y1="627.2" x2="388.5" y2="617.4"/>
<line class="st0" x1="342.6" y1="623.9" x2="342.6" y2="617.4"/>
<path class="st0" d="M375.6,612.1l-1.3-0.1"/>
<path class="st0" d="M333,636.7c-1.8-1.9-2.8-4.4-2.9-7.1c0-5.5,4.9-10.4,12.6-13.7l0,0"/>
<path class="st0" d="M387.9,615c9.1,3.3,15.1,8.6,15.1,14.7c0,9.8-15.8,17.8-35.5,18.1"/>
<path class="st0" d="M403,689.6c0,4.3-3,8.3-8.1,11.4c-0.8,0.5-1.7,1-2.7,1.5c-4.3,2-8.9,3.4-13.5,4.2c-1.2,0.2-2.4,0.4-3.6,0.5
	c-2.8,0.3-5.7,0.5-8.5,0.5c-5.1,0-10.2-0.5-15.2-1.6"/>
<line class="st0" x1="403" y1="629.6" x2="403" y2="689.6"/>
<line class="st0" x1="330.1" y1="640.5" x2="330.1" y2="629.6"/>
<path class="st0" d="M378.6,706.6l6.5,4.8c1.7,1,3.6,1.6,5.5,1.7c1.9,0,3.8-0.6,5.4-1.7c0.9-0.8,1.6-1.8,2-2.9l0,0
	c0.7-2.4-0.1-4.9-2-6.4l-1.2-1"/>
<path class="st0" d="M375.1,707.1l10.1,9.2c1.6,1.1,3.5,1.8,5.5,2.1c1.4,0.2,4-0.7,5.5-2.1c0.8-0.9,1.4-2,1.8-3.2l0.2-4.6"/>
<path class="st0" d="M344.4,715.1l2.4,0.8c15.9,5.4,29.5,4.8,40.5,1.6"/>
<path class="st0" d="M318.2,702.8c-6.8-5.7,0.9-7.7,0.9-7.7"/>
<path class="st0" d="M397.8,713.4c3.2-1.6,6.2-3.4,9.1-5.5c7.3-5.2,12-13.4,12.8-22.3c0.6-7.2,2.4-14.2,5.4-20.8
	C461.4,577,508.9,534,508.9,534"/>
<path class="st0" d="M317.5,708.6c-1.2-2.4-1.8-5-1.7-7.7"/>
<path class="st0" d="M336.8,723.2c20.1,7.8,49.6,8.2,64.3-0.8c19.2-11.7,21-31.4,20.9-38.6c0-2.2,0.4-4.5,1.1-6.6
	c13.9-40.1,66.7-110.2,66.7-110.2s14.7-2.8,14.7,27.1l6-3l-1.6-57l-59.3-3.8c0,0-43.5,79.1-56.3,87.1"/>
<ellipse class="st0" cx="174.6" cy="371.4" rx="4.5" ry="1.3"/>
<path class="st0" d="M179.1,383c0,0.7-2,1.3-4.5,1.3s-4.5-0.6-4.5-1.3c0-0.2,0.1-0.4,0.3-0.5"/>
<path class="st0" d="M179.1,380.9c0.6,0.1,1.1,0.2,1.6,0.4l0,0c1.7,0.5,2.8,1.2,2.8,2s-1,1.4-2.7,1.9c-2,0.6-4.1,0.8-6.3,0.8
	c-2.1,0-4.2-0.2-6.3-0.8l0,0c-1.6-0.5-2.6-1.2-2.6-1.9c0-1,1.8-1.9,4.4-2.3"/>
<path class="st0" d="M168.4,385.1L168.4,385.1"/>
<path class="st0" d="M165.7,387c0,1.5,4,2.7,8.9,2.7c1.3,0,2.6-0.1,3.8-0.3c3-0.4,5.1-1.4,5.1-2.4c0-0.1,0-0.2-0.1-0.4"/>
<polyline class="st0" points="179.1,371.4 179.1,380.9 179.1,382.1 179.1,383 "/>
<polyline class="st0" points="170.2,371.4 170.2,380.9 170.2,382.4 170.2,382.6 170.2,383 "/>
<path class="st0" d="M180.7,381.2L180.7,381.2c0.5-3,1.5-5.9,2.8-8.6c5.1-9.7,25.4-16.7,28.6-18.2s2.8,0.9,2.8,0.9
	c-3.7,0.5-24.7,25.8-27.1,28.8"/>
<line class="st0" x1="183.6" y1="386.6" x2="183.5" y2="386.7"/>
<path class="st0" d="M178.5,389.5c-0.3,0.6-11.2,19.1-17.1,27s-26.9,15.9-26.9,15.9l-6-4.2c4.9-14.6,9.5-23.1,12.1-27.4
	c1.4-2.2,3.3-3.9,5.7-5l19.4-8.8v-3.8"/>
<line class="st0" x1="170.4" y1="382.6" x2="170.2" y2="382.6"/>
<line class="st0" x1="183.6" y1="387" x2="183.6" y2="383.2"/>
<path class="st0" d="M174.8,395.6h0.8c9.6,0,17.4-3,17.4-6.8c0-1.9-1.9-3.5-5-4.8c-1.5-0.6-3-1-4.5-1.3"/>
<path class="st0" d="M158.6,390.2c-0.2-0.4-0.4-0.9-0.4-1.4c0-2.3,3-4.4,7.5-5.6"/>
<path class="st0" d="M170.8,402.2c1.6,0.2,3.2,0.3,4.8,0.3c9.6,0,17.4-3,17.4-6.8"/>
<path class="st0" d="M180.4,389.1L180.4,389.1"/>
<line class="st0" x1="192.9" y1="388.8" x2="192.9" y2="395.6"/>
<line class="st0" x1="158.2" y1="390.4" x2="158.2" y2="388.8"/>
<path class="st0" d="M168.7,405.5c3.8,0.9,7.6,1.3,11.5,1.3c12.1,0,22-3.8,22-8.5c0-2.9-3.7-5.4-9.3-7c-0.3-0.1-0.6-0.2-0.9-0.3"/>
<path class="st0" d="M204.8,438.9c0,0.8-0.7,1.6-1.9,2.3c-3.5,2-11.4,3.3-20.5,3.3c-2.8,0-5.6-0.1-8.4-0.4c-3.1-0.3-6.1-0.8-9.1-1.7
	c-1.6-0.4-3-1.1-4.3-2.1c-0.4-0.3-0.7-0.8-0.7-1.4"/>
<polyline class="st0" points="204.8,438.9 204.8,438.4 204.6,435.8 204.4,433.3 202.2,398.2 "/>
<line class="st0" x1="159.9" y1="438.9" x2="159.1" y2="419"/>
<path class="st0" d="M160.6,440.3c1.2,1,2.7,1.7,4.3,2.1l-13.3,1.3c-0.9,0.1-1.8-0.3-2.3-1c0.4-0.8,1.1-1.4,2-1.5L160.6,440.3z"/>
<path class="st0" d="M221.7,434.3c0,0.4-0.1,0.7-0.2,1.1c-0.4,0.8-1.1,1.4-2.1,1.5l-14.7,1.5l-0.2-2.5l-0.2-2.6l14.5-1.5
	c1.4-0.1,2.6,0.9,2.8,2.3C221.7,434.2,221.7,434.3,221.7,434.3z"/>
<path class="st0" d="M164.8,442.4c3,0.9,6,1.4,9.1,1.7l-22.2,2.2c-1.4,0.1-2.6-0.9-2.8-2.3c0-0.1,0-0.2,0-0.3c0-0.4,0.1-0.7,0.2-1.1
	c0.4-0.8,1.1-1.4,2-1.5l9.3-0.9C161.8,441.3,163.3,442,164.8,442.4z"/>
<path class="st0" d="M221.5,435.4c0.3,0.4,0.4,0.8,0.5,1.3c0,0.1,0,0.2,0,0.3c0,1.3-1,2.4-2.3,2.5l-16.8,1.7
	c1.2-0.7,1.9-1.5,1.9-2.3v-0.5l-0.2-2.5"/>
<line class="st0" x1="221.7" y1="434.1" x2="222" y2="436.7"/>
<path class="st0" d="M182.3,444.5c0,0-0.6,6.3,7.8,5.5s4.2-6.2,4.2-6.2"/>
<path class="st0" d="M182.3,444.5c0,0-0.6,8.3,7.8,7.5s4.2-8.2,4.2-8.2"/>
<path class="st0" d="M221.5,435.4c108.4,33.2,202.2,30.9,202.2,30.9s80.6,3.4,116.4-20.5c0,0-7.1-40.8-23.7-51.3
	s-11.5-19.8-11.5-19.8"/>
<path class="st0" d="M215.1,465.7c0,0,0.3,37.3,2.6,52.5c0.2,1.2-0.5,2.4-1.6,2.8c-4,1.4-8.2,2-12.4,2c-7.3-0.2-13.7-4.7-16.4-11.5
	L174.8,481c0,0-6.1-12.5-6.1-18.1v-5.7"/>
<path class="st0" d="M202.2,463.8l0.4,16.7c0,0.1-0.1,0.2-0.2,0.2c0,0-0.1,0-0.1,0l-16.7-9.9c-1.1-0.7-1.8-1.8-1.8-3.1l-0.3-7.1"/>
<path class="st0" d="M203.4,497l0.8,12.6c0,0.1,0,0.2-0.1,0.2c-0.1,0-0.1,0-0.1-0.1l-12.4-20c-0.1-0.1,0-0.2,0-0.2
	c0.1,0,0.1,0,0.2,0l10.7,5.9C202.9,495.7,203.3,496.3,203.4,497z"/>
<path class="st0" d="M519.6,335.8c-4.3,0.8-7,1.9-7,3.2s2.9,2.5,7.5,3.3"/>
<path class="st0" d="M539.1,342.9c7.7-0.6,13.2-2.1,13.2-4c0-1.4-3.4-2.7-8.6-3.4"/>
<line class="st0" x1="537.6" y1="334.9" x2="537.5" y2="334.9"/>
<path class="st0" d="M511.6,374.8c0,1,1.5,1.8,4,2.5c2.4,0.6,4.8,1,7.2,1.3l0,0c2.6,0.3,5.5,0.4,8.6,0.4c4.5,0,9-0.3,13.4-1.1
	c3-0.6,5.2-1.4,6-2.3c0.2-0.2,0.4-0.5,0.4-0.8"/>
<polyline class="st0" points="511.6,374.8 511.7,372.2 511.8,367.1 512.6,338.9 "/>
<line class="st0" x1="552.3" y1="338.9" x2="551.3" y2="374.8"/>
<ellipse class="st0" cx="531.6" cy="319.3" rx="3.1" ry="0.7"/>
<path class="st0" d="M528.6,325.3c0,0.1,0,0.1,0.1,0.1c0.9,0.5,2,0.7,3,0.6c1.7,0,3.1-0.3,3.1-0.7"/>
<line class="st0" x1="528.8" y1="325.1" x2="528.8" y2="325.1"/>
<path class="st0" d="M534.7,324.3c1.5,0.3,2.5,0.9,2.5,1.5c0,1-2.5,1.8-5.6,1.8s-5.6-0.8-5.6-1.8c0-0.6,1-1.1,2.5-1.5"/>
<path class="st0" d="M537.2,327.8c0,0.3-0.3,0.6-0.7,0.9c-0.9,0.4-1.9,0.7-2.9,0.8c-0.6,0.1-1.3,0.1-1.9,0.1
	c-1.7,0.1-3.3-0.2-4.8-0.9l0,0c-0.5-0.3-0.7-0.5-0.7-0.9"/>
<path class="st0" d="M526.8,328.7c-2,1.3-3.7,2.9-5,4.9c-1.3-0.5-2.1-1.2-2.1-1.9C519.6,330.3,522.5,329.2,526.8,328.7z"/>
<path class="st0" d="M536.5,328.7c4.3,0.5,7.2,1.7,7.2,3s-2.5,2.4-6.3,2.9c-1-1.9-2.3-3.6-3.8-5.1c-0.6,0.1-1.3,0.1-1.9,0.1
	c-1.7,0.1-3.3-0.2-4.8-0.9"/>
<path class="st0" d="M519.8,339c-0.2-0.2-0.2-0.4-0.3-0.7"/>
<path class="st0" d="M539.3,340.8c2.7-0.6,4.4-1.5,4.4-2.5"/>
<polyline class="st0" points="519.6,331.7 519.6,335.8 519.6,338.3 "/>
<polyline class="st0" points="543.7,338.3 543.7,335.5 543.7,331.7 "/>
<line class="st0" x1="526.1" y1="327.8" x2="526.1" y2="325.7"/>
<path class="st0" d="M533.6,329.5c1.5,1.5,2.8,3.2,3.8,5.1c0.1,0.1,0.1,0.2,0.2,0.3l0,0l0.3,0.6c0.6,1.1,1.1,2.3,1.4,3.5
	c0.1,0.6,0.1,1.3,0,1.9c0,0.6-0.1,1.3-0.2,2.1c-0.7,6.1-3.5,16.6-10,16.6c-5.4,0-8.2-11.8-9.1-17.3c-0.1-0.6-0.2-1.1-0.2-1.5
	c0-0.6,0-1.2,0-1.8c0-0.5,0.1-1.1,0.3-1.6c0.1-0.6,0.3-1.2,0.6-1.8c0.3-0.7,0.7-1.4,1.1-2c1.3-1.9,3-3.6,5-4.9l0,0"/>
<line class="st0" x1="528.8" y1="325.1" x2="528.8" y2="325.1"/>
<path class="st0" d="M528.6,324.3c-1.1-0.6-4.4-4.9-4.4-4.9c-3-5.4,4.7-11.5,11.3-14c3.3-1.3,5.4-0.2,6.6,1.3
	c1.2,1.4,1.7,3.3,1.5,5.2c-1.5,13.1-6.3,16.1-6.3,16.1v-2.1"/>
<line class="st0" x1="534.7" y1="325.3" x2="534.7" y2="319.3"/>
<line class="st0" x1="528.6" y1="325.3" x2="528.6" y2="319.3"/>
<path class="st0" d="M675,497.8c0,0,26.2-7,41.3-8.7c1.7-0.2,3.2-0.3,4.5-0.3c13.6-0.4,4.3-6.6,4.3-6.6l-7.2-4.1"/>
<path class="st0" d="M551.8,369.4c0,0,8.9,4,7.8,13.6s0.2,30.4,24.8,58.8c0,0,10.5,4,53.2-6c0,0,10.7,6.8,23,1.7l10-2.8
	c4.4-1.2,9.1-0.2,12.5,2.8c5.7,5.1,7.2,4.9-3.2,6.6s-17,3.8-11.1,6.8s39.9,21.9,39.9,21.9l3.2,1.8"/>
<path class="st0" d="M506,369.5c-2.1,2.9-2.3,7.8,6.6,15.2c16.9,14.2,32.7,59.8,32.7,59.8"/>
<path class="st0" d="M511.6,365.7c-0.6,0.2-1.1,0.4-1.6,0.7"/>
<path class="st0" d="M978.2,627.2l-41.8,63.1c-4.5,6.8-13.3,9.4-20.7,6.1l-22.4-9.9c-1.1-0.5-1.8-1.6-1.6-2.8l8.5-68"/>
<path class="st0" d="M957.9,630.2l-6.9,8.7c-1.4,1.8-3.6,2.9-5.9,2.9h-28c-2.7,0-4.8-2.2-4.8-4.8c0-0.2,0-0.4,0-0.6l0.6-16.1"/>
<path class="st0" d="M934.1,667.9l-7.1,10.4c-3.4,4.9-9.7,6.8-15.2,4.4l0,0c-2.9-1.3-4.8-4.2-4.6-7.4L908,661c0.1-2.8,2.5-5,5.3-5
	h14.5c4.2,0,7.6,3.5,7.6,7.7C935.4,665.2,935,666.6,934.1,667.9z"/>
<path class="st0" d="M346.7,726.2l17.9,62.8c0.9,3.3,3.6,5.7,6.9,6.5l10.8,2.4c1.8,0.4,3.6-0.4,4.4-2l8-13.9c2-3.5,3-7.5,2.8-11.5
	l-2.3-45.3"/>
<path class="st0" d="M364.7,729l19.5,60c0.1,0.3,0.4,0.4,0.7,0.3c0.1,0,0.2-0.1,0.2-0.2l5.5-8.4c2.1-3,3.1-6.6,3-10.3l-1.5-44.2"/>
<path class="st0" d="M370.5,729l6.8,20.2c0.4,1,1.5,1.6,2.6,1.2c0.3-0.1,0.5-0.2,0.7-0.4l5.7-5.6c0.7-0.7,1.1-1.8,1.1-2.8v-14.1"/>
<path class="st0" d="M383,772.6l3.1,10.3c0,0.2,0.2,0.3,0.4,0.2c0.1,0,0.2-0.1,0.2-0.2l2.8-19.1c0-0.2-0.1-0.5-0.4-0.5
	c-0.2,0-0.3,0-0.4,0.2l-5.6,8.1C383,771.9,382.9,772.2,383,772.6z"/>
<path class="st0" d="M525.6,404.6c0,0,4.6,38.6,3.1,47.3"/>
<path class="st0" d="M556.5,379.6c0,0.3-0.1,0.6-0.2,0.9c-0.5,1.2-1.9,1.8-3.1,1.3l-7.4-3.1c-0.4-0.2-0.7-0.4-1-0.7
	c3-0.6,5.2-1.4,6-2.3l4.2,1.8C555.9,377.8,556.5,378.6,556.5,379.6z"/>
<path class="st0" d="M511.8,367.1l-0.1,5.1l-4.7-2c-0.4-0.2-0.7-0.4-1-0.8c-0.3-0.4-0.5-0.9-0.5-1.4c0-0.3,0.1-0.6,0.2-0.9
	c0.5-1.2,1.9-1.8,3.1-1.3l1.2,0.5L511.8,367.1z"/>
<path class="st0" d="M616,511c0,0-45.2,2.9-53.5,4.9c-13.7,3.2-53.6,18.1-53.6,18.1"/>
<path class="st0" d="M397,532.7l38.7-7.3c0,0,12.9-3.3,13.9,4.9"/>
<polyline class="st0" points="365,538.3 365.8,538.2 385.8,534.8 "/>
<polyline class="st0" points="249.5,560.8 352.8,540 353.8,539.8 "/>
<path class="st0" d="M327.2,495.5c0,0.6-0.5,1.1-1.4,1.6c-1.4,0.6-2.8,0.8-4.3,0.8c-1.1,0-2.2-0.1-3.2-0.4c-1.5-0.4-2.5-1.1-2.5-2
	c0-1.3,2.6-2.4,5.7-2.4S327.2,494.2,327.2,495.5z"/>
<path class="st0" d="M323.6,495.5c0,0.2-0.2,0.4-0.5,0.6c-0.5,0.2-1,0.3-1.6,0.3c-0.4,0-0.8,0-1.2-0.1c-0.5-0.2-0.9-0.4-0.9-0.7
	c0-0.5,0.9-0.9,2.1-0.9S323.6,495,323.6,495.5z"/>
<path class="st0" d="M361.4,534.8c0,0.2-0.2,0.4-0.5,0.6c-0.5,0.2-1,0.3-1.6,0.3c-0.4,0-0.8,0-1.2-0.2c-0.5-0.2-0.9-0.4-0.9-0.7
	c0-0.5,0.9-0.9,2.1-0.9S361.4,534.4,361.4,534.8z"/>
<path class="st0" d="M245.1,556.3c0,0.2-0.2,0.4-0.5,0.6c-0.5,0.2-1,0.3-1.6,0.3c-0.4,0-0.8,0-1.2-0.2c-0.6-0.2-0.9-0.4-0.9-0.7
	c0-0.5,0.9-0.9,2.1-0.9S245.1,555.8,245.1,556.3z"/>
<path class="st0" d="M365,534.8c0,0.6-0.5,1.2-1.4,1.6c-1.4,0.6-2.8,0.8-4.3,0.8c-1.1,0-2.2-0.1-3.2-0.4c-1.5-0.4-2.5-1.1-2.5-2
	c0-1.3,2.6-2.4,5.7-2.4S365,533.5,365,534.8z"/>
<path class="st0" d="M249.2,556.3c0,0.6-0.6,1.2-1.5,1.6c-1.5,0.6-3,0.8-4.6,0.8c-1.2,0-2.3-0.1-3.5-0.4c-1.6-0.4-2.6-1.1-2.6-2
	c0-1.3,2.7-2.4,6.1-2.4S249.2,555,249.2,556.3z"/>
<path class="st1" d="M327.2,495.5v2.5c0,0.5,0.2,0.9,0.5,1.3l1.6,1.9c0.3,0.4,0.9,0.6,1.4,0.5l35-6.7c0.8-0.1,1.3-0.9,1.2-1.7
	c-0.1-0.6-0.6-1-1.2-1.2c-23-4-90.3-15.7-112.8-20.5c-22-4.6-91.3-11.4-99.2-20.8c-0.5-0.6-0.3-1.6,0.3-2c0.6-0.4,1.4-0.4,1.9,0.1
	c2.6,2.7,12.5,6.2,46.3,7c5,0.1,10,0.6,14.9,1.4l181.4,29.4"/>
<path class="st0" d="M217.2,515c0.5,2.6,2.7,4.5,5.3,4.6l91.6-15.3c0.5-0.1,1-0.5,1.1-1l0.3-1c0.2-0.5,0.2-1,0.2-1.5v-5.3"/>
<path class="st0" d="M236.9,556.3l4.4,73.3c0,0,5.4,5.2,13.5,0l-5.7-73.3"/>
<path class="st0" d="M237.5,566.8c0,0,7.5,3.9,12.3-1.6"/>
<line class="st0" x1="365" y1="534.8" x2="365" y2="568.9"/>
<path class="st0" d="M354,545.2c0,0,4.5,2.7,11,0"/>
<path class="st0" d="M253.7,615.4L355,594c0,0-0.8-51.7-1.4-59.1"/>
<path class="st0" d="M240.6,617.9l-15.9,3.4c-2.6,0.6-5.1-1.1-5.6-3.6c-0.1-0.2-0.1-0.5-0.1-0.7l-2.6-41.9c0,0-1.2-5.8,4.1-7
	c6.8-1.5,16.8-4.2,16.8-4.2"/>
<path class="st0" d="M219.1,618.1l-16.9-26.6c-0.7-1.1-1.1-2.3-1.1-3.6l-1.9-41.8c-0.1-1.2,0.8-2.2,2-2.3l18-2.2l16.2,23"/>
<line class="st0" x1="205.9" y1="522.9" x2="219.1" y2="541.5"/>
<line class="st0" x1="208.5" y1="526.5" x2="208.9" y2="542.8"/>
<polygon class="st0" points="762.5,472.1 711.9,441.1 678,446.7 730.6,478.3 "/>
<line class="st0" x1="762.5" y1="472.1" x2="757.6" y2="529.9"/>
<line class="st0" x1="730.6" y1="478.3" x2="728.3" y2="519.2"/>
<ellipse class="st0" cx="635.1" cy="454.7" rx="4.9" ry="3.1"/>
<ellipse class="st0" cx="713.1" cy="477.5" rx="4.9" ry="3.1"/>
<ellipse class="st0" cx="675" cy="456.6" rx="4.9" ry="3.1"/>
<ellipse class="st0" cx="663.6" cy="473.2" rx="4.9" ry="3.1"/>
<ellipse class="st0" cx="667.4" cy="494.7" rx="4.9" ry="3.1"/>
<ellipse class="st0" cx="635.1" cy="486.4" rx="4.9" ry="3.1"/>
<ellipse class="st0" cx="616.9" cy="481.5" rx="4.9" ry="3.1"/>
<ellipse class="st0" cx="590.9" cy="486.4" rx="4.9" ry="3.1"/>
<ellipse class="st0" cx="614.7" cy="493.7" rx="4.9" ry="3.1"/>
<ellipse class="st0" cx="642.3" cy="505.1" rx="4.9" ry="3.1"/>
<ellipse class="st0" cx="562.5" cy="466.3" rx="4.9" ry="3.1"/>
<ellipse class="st0" cx="548.8" cy="448.4" rx="4.9" ry="3.1"/>
<ellipse class="st0" cx="587.2" cy="445.6" rx="4.9" ry="3.1"/>
<ellipse class="st0" cx="587.9" cy="463.2" rx="4.9" ry="3.1"/>
<ellipse class="st0" cx="504" cy="511.3" rx="4.9" ry="3.1"/>
<ellipse class="st0" cx="474" cy="509.2" rx="4.9" ry="3.1"/>
<ellipse class="st0" cx="459.1" cy="521.6" rx="4.9" ry="3.1"/>
<ellipse class="st0" cx="501.3" cy="524.7" rx="4.9" ry="3.1"/>
<ellipse class="st0" cx="467.4" cy="483.3" rx="4.9" ry="3.1"/>
<ellipse class="st0" cx="459.1" cy="476.3" rx="4.9" ry="3.1"/>
<ellipse class="st0" cx="447.6" cy="485" rx="3.5" ry="3"/>
<ellipse class="st0" cx="413.4" cy="483.3" rx="3" ry="2.8"/>
<ellipse class="st0" cx="431.8" cy="469.7" rx="3.2" ry="2.9"/>
<polyline class="st0" points="638.1,451.5 646.4,444 627.5,444 629.4,445.6 613.7,448.7 616.9,451.5 631.3,448.4 635.1,451.5 "/>
<polyline class="st0" points="637.3,457.5 653.8,470.1 616.9,475.7 597.4,462.3 630.1,456.6 "/>
<polyline class="st0" points="653.8,470.1 653.8,474.4 620.7,479.5 "/>
<polyline class="st0" points="597.4,462.3 597.4,467.6 613.2,479.5 "/>
<path class="st0" d="M624.7,492.3l9.3-0.6c0.7,0,1.4,0,2.1,0.3l14,5c0.4,0.2,0.7,0.6,0.5,1.1c-0.1,0.2-0.3,0.4-0.5,0.5l-5.7,1.7
	c-1.4,0.4-2.9,0.4-4.3,0.1l-11.3-2.8c-1.5-0.4-2.9-1.3-3.8-2.6l-0.9-1.3c-0.3-0.4-0.2-0.9,0.2-1.2
	C624.4,492.3,624.6,492.3,624.7,492.3z"/>
<path class="st0" d="M258.2,545.3l66.6-12.8c1.2-0.2,2.4,0.6,2.7,1.8v0c0.2,1.2-0.6,2.4-1.8,2.7L259,549.8c-1.2,0.2-2.4-0.6-2.7-1.8
	v0C256.1,546.8,256.9,545.6,258.2,545.3z"/>
<path class="st0" d="M243.3,523.7L310,511c1.2-0.2,2.4,0.6,2.7,1.8l0,0c0.2,1.2-0.6,2.4-1.8,2.7l-66.6,12.8
	c-1.2,0.2-2.4-0.6-2.7-1.8l0,0C241.3,525.2,242.1,524,243.3,523.7z"/>
<line class="st0" x1="632" y1="537" x2="632" y2="537"/>
<path class="st0" d="M625.5,538.3l-29.9,5.7c-1.2,0.2-2.1,1.4-1.8,2.7c0.2,1.1,1.2,1.9,2.3,1.9c0.1,0,0.3,0,0.4,0l29.4-5.6"/>
<path class="st0" d="M619.8,514.9c0.8,1.4,1.5,2.8,2,4.3l-40.2,7.7c-0.1,0-0.3,0-0.4,0c-1.3,0-2.3-1-2.3-2.2c0-1.1,0.8-2.1,1.9-2.3
	L619.8,514.9z"/>
<path class="st0" d="M638.9,511.3h2.1c1.9-0.1,3.8-0.6,5.5-1.3l0.7-0.3"/>
<path class="st0" d="M450,482.9l1.4-1.7c0.3-0.4,0.2-0.9-0.1-1.2c-0.1-0.1-0.2-0.1-0.3-0.2l-19-4.3c-0.5-0.1-1.1-0.2-1.6-0.1l-6,0.4
	c-0.7,0.1-1.3,0.5-1.5,1.1l-0.7,1.9c-0.2,0.6,0.1,1.3,0.7,1.5c0.1,0,0.1,0,0.2,0.1l21.1,4.6"/>
<polygon class="st0" points="472.4,483.3 534.5,472.6 540,478.3 529.8,477.9 475.5,488.1 "/>
<path class="st0" d="M474.5,520.9l7.8-10.3c0.6-0.8,1.7-1.1,2.6-0.6l8.8,4.5c0.9,0.5,1.3,1.6,0.8,2.5c-0.1,0.3-0.3,0.5-0.6,0.7
	l-10.1,7.3c-1.4,1-3.1,1.1-4.6,0.4l-4.1-2c-0.8-0.4-1.2-1.3-0.8-2.2C474.3,521.1,474.4,521,474.5,520.9z"/>
<path class="st0" d="M716.3,550c0,0-36.4,1.6-74,24.2c0,0-80.7-9.3-136.1,24.6l-37.1-2.8"/>
<line class="st0" x1="374.6" y1="606.7" x2="374.5" y2="606.7"/>
<line class="st0" x1="406.7" y1="601.5" x2="378.2" y2="606.1"/>
<line class="st0" x1="361.8" y1="608.8" x2="361.8" y2="608.8"/>
<path class="st0" d="M231.8,619.8l10,14.5l35.3-8c0,0,3.8,2,10.6,0.9s44.8-9.1,44.8-9.1s2.7,0.4,4.3-5.3l10.5-1.7"/>
<path class="st0" d="M279.4,622.3l50.7-10.7c0,0,1.6,1.8-2.5,2.7s-45.4,10.1-45.4,10.1S279.1,624.9,279.4,622.3z"/>
<line class="st0" x1="716.3" y1="489.1" x2="716.3" y2="514.6"/>
<line class="st0" x1="706.4" y1="490.6" x2="706.4" y2="510.5"/>
<path class="st0" d="M680.9,468.6l4.3-0.9l-4.5-3.7c-0.4-0.3-0.9-0.5-1.4-0.4l-15,2.5c-0.1,0-0.2,0.1-0.2,0.3c0,0.1,0,0.1,0.1,0.2
	l17.3,11.9c0.4,0.3,0.9,0.4,1.3,0.3l16.1-3.8c0.1,0,0.1-0.1,0.1-0.2c0,0,0,0-0.1-0.1l-5.9-4.5l-6.2,0.8l2.9,2.3l-5.2,1.3l-9.8-6.5
	c-0.1-0.1-0.2-0.2-0.1-0.4c0-0.1,0.1-0.1,0.2-0.1l3.5-0.6L680.9,468.6z"/>
</svg>
