<svg xmlns="http://www.w3.org/2000/svg" viewBox="0 0 1080 1080"><defs><style>.a{fill:none;stroke:red;stroke-linecap:round;stroke-linejoin:round;stroke-width:4px;}</style></defs><title>drone-10(red)</title><path class="a" d="M216,514.2l-74.83,10.2-12.64-6.87-.1-.65c1.76-1.27,13.46-5.05,89-8.07C217.41,508.81,223.08,508.81,216,514.2Z"/><path class="a" d="M107.61,520.91l-94.48,7a7.07,7.07,0,0,1,4.34-2.27C20.31,525.25,95,513.72,107.61,520.91Z"/><path class="a" d="M112.62,513.82s1.51-14.08,8.51-1.61c0,0,1,2.46-3,4A4.08,4.08,0,0,1,112.62,513.82Z"/><path class="a" d="M121,512c3.82-.33,6.67.19,6.92,1.42.33,1.61-3.9,3.83-9.44,5s-10.31.74-10.64-.87c-.23-1.12,1.73-2.53,4.8-3.67"/><path class="a" d="M107.82,517.46l1.87,13.6s10.77,4.25,20.55-2l-1.72-11.55-.1-.65-.52-3.51"/><path class="a" d="M109.18,527.35l-6.72,2.44s1.42,17.43,9.36,21.54l216-65.2"/><path class="a" d="M138.72,543.21s1.91-12.74-9.18-18.81"/><path class="a" d="M297.54,472l-30.43-15.87S221.94,430.76,200.78,406c0,0-11.2-12.85,18.78-30.05s44.81-18.45,53.22-13c8.21,5.28,53.86,23.06,64.16,24.76l-27.12-.57,92.41,35.72,32.69-1.33,103.94,39.41,66-12.76L585.91,343s-2.83-13,7.66-19.55,17.86-10.21,17.86-10.21,5.1-6.8,12.47,7.65,55,111.41,55,111.41l70-48.19s32.88-19.56,47.05-23.53,23.53-9.07,7.65,4-89.85,71.15-89.85,71.15,15.59,4.82,14.45,9.07-11.05,24.38-21.54,30.61S685.41,487,685.41,487l-10.21,25.8,49.61,19.56-26.36,4.53L902,617.94l21.26-7.37s46.77,22.68,72,32.6a443,443,0,0,0,47.62,15.59s27.78,5.39,11.62,15.31-78.8,44.22-129.83,44.22-93.54-10.49-140.59-28.06-145.14-53.58-145.14-53.58-120.19-51.3-129-58.67l-11.33,5.1s-2.84,7.65-13.89,13-95.53,46.77-135.22,57.82-56.12,14.46-56.12,14.46L246,689.94s-27.21,3.12-28.06,3.12-9.07,4.25-9.07,4.25l23.24-1.41L203.8,709.79l-24.37-21s-34.87,6-63.78-28.91c0,0-4.54-16.44-4.54-21.55s1.7-10.77,5.1-11.33c0,0-6.23-14.18,10.21-32s118.77-49.84,118.77-49.84l119.05-40.86L297.54,472,157.7,512.25"/><path class="a" d="M245.19,545.14l34.39,22.06s-64.11,20.6-64.46,21.55-51.38,26.45-51.38,26.45L138.85,639v8.69L116.21,627"/><path class="a" d="M279.58,567.2S259.74,604.81,235.36,615s-83.71,30.8-83.71,30.8-14.42-.23-1.92-17.22"/><path class="a" d="M250.82,543.21,279.58,560s11,5.11,2.46,19.47S260.87,618,243.87,623.14,163,645.82,162.42,645.82s-23.32,8.51-51.06-4.72"/><line class="a" x1="509.94" y1="577.98" x2="364.24" y2="504.28"/><path class="a" d="M713.76,435.68s-9.36,8.88-25.8,14.93-34.58,12.85-46.68,11.15l37.61-29.48"/><polyline class="a" points="676.84 428.11 658.67 437.19 604.91 448.15"/><path class="a" d="M633,339s-12.26.84-14.53,3.67l40.25,94.49"/><polyline class="a" points="689.5 450.02 774.32 382.76 786.33 378.4"/><path class="a" d="M704,537.35l22.86-4s188.22,69.54,193.51,76l-17.76,6.23Z"/><polygon class="a" points="322.2 389.38 334.01 389.76 417.63 420.65 402.7 420.65 322.2 389.38"/><path class="a" d="M451.3,427.71s75.27-20.76,76-20.57S535,412,534.7,418.29c-.34,7.32-3.78,7.47-9.35,9.26-6.2,2-41.79,12.39-41.79,12.39"/><path class="a" d="M528,402.51s-58.39,4.35-64,3.4,9.64-1.63,9.64-1.63S522.32,400.43,528,402.51Z"/><polyline class="a" points="596.21 400.01 552.84 404.87 539.52 399.2 595.49 396.02"/><path class="a" d="M532.11,395.28c.92-1.85,3.51-6,5.7.14a1.65,1.65,0,0,1-.08,1.27,3.28,3.28,0,0,1-2.36,1.86c-1.33.19-2.49-1-3.12-1.82A1.38,1.38,0,0,1,532.11,395.28Z"/><ellipse class="a" cx="534.84" cy="399.39" rx="6.85" ry="2.08"/><line class="a" x1="527.99" y1="399.39" x2="527.99" y2="407.46"/><path class="a" d="M541.69,399.39v7.75s1.31,6.15-8.41,5"/><path class="a" d="M541.69,407.14s6.52.4,6.9,5.12-1.47,10-20.35,14.4"/><polyline class="a" points="232.15 695.9 336.04 686.26 333.63 683.71 327.11 683.71 320.02 680.59 246.04 689.95"/><path class="a" d="M360.56,677.47c1.7-.71,12.9-3.26,12.9-3.26l103.6-9.64s-.28,7.66-7.51,8.79-81.64,14.88-81.64,14.88-10.48,2.41-16.3-1.55A89,89,0,0,1,360.56,677.47Z"/><path class="a" d="M340.43,676.77s2.27-17.44,11.06-2.84c0,0,.85,5.1-2.69,6.66S340.57,680.18,340.43,676.77Z"/><path class="a" d="M341,673.94c-4.42,1.88-7.2,4.75-6.66,7.27.72,3.31,6.93,4.79,13.87,3.29,6.38-1.37,11.16-4.78,11.33-7.9a2.42,2.42,0,0,0,0-.6.83.83,0,0,0,0-.22c-.56-2.57-4.39-4-9.31-3.87"/><path class="a" d="M359.52,675.91V676l0,.52v0l1,20.57c-18.71,12.76-26.21,0-26.21,0V686.42"/><line class="a" x1="334.35" y1="684.47" x2="334.35" y2="681.21"/><path class="a" d="M334.35,692.07l-8.09,3.83s-3,19.56,14.17,30.19l30.19-13.61s9.12-16.13-10.46-23.51"/><line class="a" x1="583.94" y1="612.82" x2="472.2" y2="665.02"/><polyline class="a" points="444.9 677.78 444.89 677.78 370.62 712.48"/><line class="a" x1="547.54" y1="596.58" x2="373.46" y2="674.21"/><path class="a" d="M706.84,525.25l75.51-32.79s20.51,4.54,8.51,20.7l-50.27,25.32"/><polygon class="a" points="789.46 513.86 794.63 519.68 788.21 524.02 782.97 517.13 789.46 513.86"/><path class="a" d="M786.33,489.39s-71.87,6.81-77.68,6.1-2.41-2.22,5.11-3S780,486.84,786.33,489.39Z"/><path class="a" d="M800.64,485l72.56-5.67s4.4,4.82-3.68,5.67-47.91,7.1-47.91,7.1-6.37,1.12-11.62-.72A26.37,26.37,0,0,1,800.64,485Z"/><path class="a" d="M788.93,483.15a3,3,0,0,1,.3-1.48s4.46-11.34,7.51,0a4.44,4.44,0,0,1-.1,1.71"/><path class="a" d="M800.64,485.8c0,1.58-3.81,2.86-8.51,2.86s-8.5-1.28-8.5-2.86c0-1.2,2.19-2.23,5.3-2.65.09,1.62,1.57,3.09,4.55,2.73a3.34,3.34,0,0,0,3.16-2.5C799,483.88,800.64,484.78,800.64,485.8Z"/><path class="a" d="M800.64,485.8v10.4a8.2,8.2,0,0,1-8.26,1.82"/><polyline class="a" points="783.63 492.82 783.63 492.81 783.63 489.64"/><line class="a" x1="783.63" y1="488.89" x2="783.63" y2="485.8"/><path class="a" d="M800.64,492.82s6.73.71,8.57,5.66-3.76,12-18.53,16.75"/><path class="a" d="M714.29,407.91l-36.77-46.5-5.43,5.53s-1.7-1,3.11,6.66,27.18,42.51,27.18,42.51"/><path class="a" d="M723.09,428.34l4.84,7.62,2.41-3.68L741,438.8s-4.68,13.46-7.8,14.59-7.45,2.13-8.82,0"/><line class="a" x1="778.85" y1="493.98" x2="776.54" y2="490.3"/><path class="a" d="M738.29,445.56s0,2,11.18,1.59l26,41.51"/><line class="a" x1="763.15" y1="489.01" x2="736.6" y2="449.07"/><line class="a" x1="769.23" y1="498.16" x2="764.72" y2="491.37"/><polyline class="a" points="685.41 486.98 651.68 504.28 675.21 512.78"/><line class="a" x1="651.68" y1="504.28" x2="538.86" y2="460.91"/><line class="a" x1="728.14" y1="443.63" x2="602.25" y2="485.27"/><line class="a" x1="428.97" y1="537.01" x2="279.44" y2="583.93"/><path class="a" d="M229.08,697.4c6.94,10.77,15.07,9.08,22.91,3.6a12.1,12.1,0,0,0,4.93-7.4"/><path class="a" d="M257.28,688.52a17.1,17.1,0,0,0-.56-3.43"/><path class="a" d="M234.62,695.67s5.65,9.63,13.78,4.67a10,10,0,0,0,4.91-6.4"/><path class="a" d="M253.23,689a5.16,5.16,0,0,0-.78-2h0"/></svg>