<svg id="Layer_2" data-name="Layer 2" xmlns="http://www.w3.org/2000/svg" viewBox="0 0 1014.19 385.41"><defs><style>.cls-1{fill:none;stroke:#e30613;stroke-miterlimit:10;stroke-width:4px;}</style></defs><path class="cls-1" d="M550.67,380.76" transform="translate(-51.1 -292.03)"/><path class="cls-1" d="M131.51,527.39c45.87-58.65,153.75-96.78,153.75-96.78s-233.35-73-231.15-90.18,48.28-28.9,48.28-28.9c-8.17,19.48,8.38,27.75,8.38,27.75L368,415.11l109.27,1.44a23.82,23.82,0,0,0,3.48-.2l134.34-19" transform="translate(-51.1 -292.03)"/><path class="cls-1" d="M1063.29,580.44,1014.63,607a25.32,25.32,0,0,1-6.57,2.42l-23.36,5.11a378.09,378.09,0,0,1-110.58.38,45.63,45.63,0,0,1-5-1L708.61,571,588.79,532.84l-237.87-80a.05.05,0,0,0-.07.06l2.49,11.43,233.15,78.55L858,621.44A241.9,241.9,0,0,0,909.82,629c24.66.88,45.31-3.94,61.27-5.66a144.47,144.47,0,0,0,39.59-10.05c17-9.54,34.07-19.07,52.61-30Z" transform="translate(-51.1 -292.03)"/><path class="cls-1" d="M54.11,340.43C36,361.28,269.6,436.7,269.6,436.7" transform="translate(-51.1 -292.03)"/><path class="cls-1" d="M1061.79,581.85c1.16-1,1.65-1.86,1.47-2.51q-.9-3.27-24.09-.42a280.39,280.39,0,0,1-81.49,13.83l-27-3.56-6.93,3.09a.19.19,0,0,1-.2-.31l11.74-11L606,485.08l-6.28,3.77-132-40.64-40.48-12.94-12.68,2.36-11.89-5.34L363.34,443l3.62,3.09-16.13,6.71" transform="translate(-51.1 -292.03)"/><path class="cls-1" d="M406,482.08l-42,19.75a36.26,36.26,0,0,0-6.71,11.32,36.94,36.94,0,0,0-1.67,6.49c-1.71,8.44-12.08,22.31-25.32,21.9-8.91-.27-17.22-7-21.61-16.45-38.5,15.61-93,29.78-154.38,19.06-7.56-1.32-14.82-2.95-21.79-4.82l.73,14.21a4.93,4.93,0,0,1-1.36,3.67l-6.83,7.1" transform="translate(-51.1 -292.03)"/><path class="cls-1" d="M175.6,487a61.92,61.92,0,0,0,23.31,20.05,59.58,59.58,0,0,0,12.44,4.47,29.35,29.35,0,0,0,9.2.67,272.71,272.71,0,0,0,94.91-25.52c13.77-6.56,24.33-18.66,28.05-33.45,2.45-9.76,1.65-18.8-2.76-25.54-1.26-1.93-4-6.13-6.89-8.24-1.82-1.34-3.2-.88-5.45-.58-5.48.73-11.43,2.73-17.64,4.14a198.53,198.53,0,0,0-25.51,7.59A248.07,248.07,0,0,1,368,415.11" transform="translate(-51.1 -292.03)"/><path class="cls-1" d="M634.72,373.29l-50.05-11.52a2.52,2.52,0,0,0-1.51.11l-30.8,12.26a.52.52,0,0,0,0,1l62.73,22.29a262.13,262.13,0,0,0,30.25-41.14,285.76,285.76,0,0,0,27.44-60.12c3-.59,7.32-2.07,11.52-2.1,4.57,0,7.92,1.48,11.11,2.1" transform="translate(-51.1 -292.03)"/><path class="cls-1" d="M552,374.57c-6.84,3.88,52.89,24.95,56.75,23.71" transform="translate(-51.1 -292.03)"/><path class="cls-1" d="M687.88,382l7.54-85.88-17.6,1.05A298,298,0,0,1,643.89,369,322.86,322.86,0,0,1,620,401.7a0,0,0,0,0,0,.07Z" transform="translate(-51.1 -292.03)"/><line class="cls-1" x1="626.72" y1="5.14" x2="621.69" y2="4.1"/><path class="cls-1" d="M625.07,400.37c-.32-1.37,87.73,25.69,141.71,16.41a24.3,24.3,0,0,0,3.46-.86l24.87-9.5a.7.7,0,0,0-.25-1.36h-19l-88-23.05" transform="translate(-51.1 -292.03)"/><path class="cls-1" d="M758.24,417.86" transform="translate(-51.1 -292.03)"/><path class="cls-1" d="M770.24,415.92c-37.48,21.71-150.35-14.13-150.35-14.13" transform="translate(-51.1 -292.03)"/><line class="cls-1" x1="428.75" y1="159.91" x2="593.95" y2="116.85"/><path class="cls-1" d="M137.12,520.65a15.05,15.05,0,0,1,6,10.41,14.82,14.82,0,0,1-2.89,10.2" transform="translate(-51.1 -292.03)"/><path class="cls-1" d="M63.85,404.43s29.74,35.4,36.24,80.23c0,0-.21,19.27,9,27.65,0,0,9-7.12,11.73,5.6" transform="translate(-51.1 -292.03)"/><path class="cls-1" d="M125.07,561s-2.67,6.6,14,31.73,22,84.21,22,84.21-21.52-77.45-32.67-88-8.8-28-8.8-28Z" transform="translate(-51.1 -292.03)"/><polyline class="cls-1" points="60.32 260.12 65.32 273.69 68.25 273.69"/><path class="cls-1" d="M101.55,524.2v-3.55s-8.38-11.54-8.8-20.28c-.32-6.7-7.54-33.31-7.54-33.31L63.85,404.43" transform="translate(-51.1 -292.03)"/><path class="cls-1" d="M87.47,538.41c5-6.78,19.2-23.09,36.34-19.71,0,0,8.77,5,9.2,14.46a16,16,0,0,1-11.11,15.62c-9.64,3.29-26.77,7.05-34.52-4A5.39,5.39,0,0,1,87.47,538.41Z" transform="translate(-51.1 -292.03)"/><line class="cls-1" x1="50.45" y1="228.62" x2="57.99" y2="220.28"/></svg>