<svg xmlns="http://www.w3.org/2000/svg" viewBox="0 0 1080 1080"><defs><style>.a{fill:none;stroke:red;stroke-linecap:round;stroke-linejoin:round;stroke-width:4px;}</style></defs><title>drone-1(red)</title><path class="a" d="M428.58,740.66a6.38,6.38,0,0,0-3.2-3.21,4.75,4.75,0,0,0-1-.31"/><path class="a" d="M414,757.27a3.12,3.12,0,1,1,3.67-5"/><path class="a" d="M417.64,747.05a13.35,13.35,0,0,0-4.67,6c-1.76,5-1.53,9.71.85,11.54"/><line class="a" x1="416.01" y1="758.4" x2="413.97" y2="757.27"/><path class="a" d="M409.23,773.32a26,26,0,0,1-8.39-2.85c-7.32-4.63-8.24-16.4-2-26.3a25.92,25.92,0,0,1,2.5-3.38"/><polyline class="a" points="424.39 746.49 436.48 729.64 425.02 719.11"/><polyline class="a" points="432.82 744.76 442.99 729.86 429.16 717.12"/><path class="a" d="M393.26,738.13l13.83,4.56s4.61,1.43,3-2.61l-1.28-22.73-11.29-1c.95.2,1.77.35,2.38.45,4.4.74,8.53,19.22,10.19,23.27"/><path class="a" d="M381.15,712.76h0v12.73"/><path class="a" d="M391.82,742.88c2.45-1.64,1.9-6.79-1.23-11.51s-7.65-7.23-10.1-5.59l-7.11,7.49-.48.42a2.41,2.41,0,0,1,.48-.42c2.17-1.45,6.19.77,9,5s3.27,8.78,1.1,10.23"/><path class="a" d="M361.11,694.49c1.25-9.87-4.25-15-4.25-15"/><path class="a" d="M354.18,676.89a11.68,11.68,0,0,0-8.26-3.9"/><path class="a" d="M357.21,702.44a13.45,13.45,0,0,0,2.87-4.26"/><path class="a" d="M598.4,617.21s-10.17,1-19.41,2.57-39.07,18.43-46.41,22.35c-6.13,3.29-31.09,21-39.08,26.65-1.21.86-2.39,1.75-3.52,2.72-7.56,6.47-31.3,20.26-31.3,20.26"/><path class="a" d="M621,625.47a35,35,0,0,0-3.32-8.11h0c-.17-.34-.39-.7-.59-1.05,0,0-.06-.1-.08-.15-3.73-6.42-8.81-5.26-8.81-5.26-4.56,3.4-8,5.68-9.79,6.31l12,6,7.23,3.65,3.54,1.77C621.43,628.25,621.39,627.11,621,625.47Z"/><path class="a" d="M617.67,617.36s-6.23,5.68-7.27,5.89l7.23,3.65c1.13-.44,2.3-1,3.36-1.43A35,35,0,0,0,617.67,617.36Z"/><path class="a" d="M565.62,537.05l-70.8,38.87S467,590.19,453.21,596s-32,12.84-40.8,17.77-23.91,13.25-32,23-16.34,20.83-18.65,30.1"/><path class="a" d="M556.44,531.47,500,561.24a468.42,468.42,0,0,1-63.23,30.49c-37.29,14.8-58.1,26.6-66.59,39.49C361.8,643.88,358.6,656,358.6,665.16"/><path class="a" d="M99.47,457.89s-4.09,2.31-4.54,3.8c-.23.8,1.13,3.27,2.73,2.26,2.25-1.42,2.3-2.11,2.3-2.11"/><path class="a" d="M237.3,388.65h0c-.34-.23-4.64-2.9-17.91,0-13.85,3-72.1,23.62-85.29,31.93s-25.35,17.81-33.17,33.51c0,0-3.69,7.19.76,9.61"/><circle class="a" cx="966.5" cy="368.44" r="0.63"/><ellipse class="a" cx="954.13" cy="374.86" rx="1.25" ry="1.26"/><path class="a" d="M785,244.72c0,1.66-29.83,19.38-33.5,21.28s-5.92,1.66-5.92,1.66"/><path class="a" d="M985.09,417.71S969.7,430,958.45,436.38,924.54,456,922.29,461.86c0,0,.88,2.81,11.89-3.49s50.91-34,50.91-36.26Z"/><path class="a" d="M945.67,384l-20,68a.7.7,0,0,0,0,.32c1,1.58,19.13-8.21,21.71-9.61,4.76-2.58,11.54-6.28,20.23-12.08,7.1-4.74,13-9.21,17.48-12.87v-5c0,1.66-7.81,5-7.81,5V374.33s7.81-3.33,7.81-5"/><path class="a" d="M985.09,361c0,1.67-29.83,19.38-33.5,21.28s-5.92,1.67-5.92,1.67"/><line class="a" x1="985.09" y1="369.34" x2="985.09" y2="361.01"/><path class="a" d="M985.09,370.39c0,1.66-7,4.47-7,4.47v41.23s7-2.8,7-4.47Z"/><path class="a" d="M925.72,452.33s-7.61,4.63-7.85,7.76"/><path class="a" d="M946.85,379.32c4,2.08,38.24-21.4,38.24-21.4"/><path class="a" d="M952.59,373.67c-5.74,2.32-5.74,5.65-5.74,5.65,4,2.08,38.24-21.4,38.24-21.4S961,370.27,952.59,373.67Z"/><line class="a" x1="945.67" y1="383.96" x2="946.85" y2="379.32"/><line class="a" x1="985.09" y1="357.92" x2="985.09" y2="361.01"/><path class="a" d="M745.57,267.66l-20,68a.75.75,0,0,0,0,.33c1,1.57,19.13-8.21,21.71-9.61,4.76-2.58,11.54-6.28,20.23-12.08,7.1-4.74,13-9.21,17.48-12.87v-5c0,1.67-7.81,5-7.81,5V258s7.81-3.32,7.81-5"/><line class="a" x1="784.99" y1="253.04" x2="784.99" y2="244.72"/><path class="a" d="M785,254.1c0,1.66-7,4.47-7,4.47V299.8s7-2.81,7-4.47Z"/><path class="a" d="M746.75,263c4,2.08,38.24-21.4,38.24-21.4"/><line class="a" x1="745.57" y1="267.66" x2="746.75" y2="263.03"/><line class="a" x1="784.99" y1="241.63" x2="784.99" y2="244.72"/><path class="a" d="M725.57,336s-7.62,6.7-6.75,7.44l82,70.61,121.61,47.91"/><path class="a" d="M722.15,346.27c-3.19-2.73,14.82-14,26.55-19.5C777.23,313.32,785,306.93,785,306.93v-5.51"/><line class="a" x1="777.6" y1="311.78" x2="808.8" y2="330.94"/><polyline class="a" points="808.8 330.94 797.86 337.61 928 412.49 939.19 405.71"/><polygon class="a" points="812.58 329.86 799.7 337.57 927.85 411.53 939.63 404.47 812.58 329.86"/><path class="a" d="M863.59,375.43s-15.41,8.91-38.92,20.41c-23,11.24-23.8,18.19-23.8,18.19"/><path class="a" d="M861.29,374.34s-15.43,8.37-38.52,19.78c-22.71,11.23-23.4,18.62-23.4,18.62"/><path class="a" d="M865.86,376.73s-21.41,11.56-40.1,21.19c-21.42,11-22.87,16.91-22.87,16.91"/><path class="a" d="M295.18,593.84l47.14,31.06c14.62-21,31.73-28.88,31.73-28.88C390.21,580.68,446,561.25,446,561.25l29.12-16.06s-96.43-64.9-101.4-67.56-33.21,6.94-33.21,6.94l-87.2-57.77,26.1-11.93S245.47,392,237.3,388.65s-51.32,12.13-88.61,27.1-47.78,50.1-47.78,50.1l171.45,113"/><polygon class="a" points="283.39 414.33 255.6 426.99 340.6 483.4 369.11 470.41 283.39 414.33"/><path class="a" d="M565.36,619.47c1.8-.65,17.08-6.09,25.7-5.67l6.53,3c8.64,4.17,80.13,40.62,113.88,57.84C677.72,657.43,606.23,621,597.59,616.81l-6.53-3c-8.62-.42-23.9,5-25.7,5.67l-.08,0h-.06v0h-.05c-3.22,1.13-45.45,16.13-62.06,23.79-13.84,6.37-38.48,28.77-41.8,34.94a50.66,50.66,0,0,0-4.61,12.48S736.58,834.57,742.5,837.9s24.16-11.41,54-33,52.56-31.62,64.17-36.61S885.52,764,885.52,764l-56.83-29.25c-18.47-1.9-41.2,9.75-41.2,9.75l-96.38-50.39a23.39,23.39,0,0,1,7-3.81"/><path class="a" d="M884.58,763.48a63,63,0,0,0-25.79,3.79s-10.21,4.59-23.26,10.87a263.8,263.8,0,0,0-26.2,15S777,816.39,764.85,824.68s-16,7.67-17,6.45c-2-2.59,4.34-8.26,14-19.51,9.32-10.83,43-27.33,43-27.33s44.4-16,52.39-19.07,27.3-1.74,27.3-1.74c-12.55-5.71-29.6-.94-29.6-.94S819,774,802.41,779.9s-38.36,22.58-50.91,35.18-9,22.82-9,22.82"/><polygon class="a" points="788.64 738.16 814.45 722.7 717.16 671.25 691.35 686.71 788.64 738.16"/><path class="a" d="M828.69,734.73s-1.3-.89-6.63-3.75c-5.18-2.77-33.42,7.18-33.42,7.18"/><path class="a" d="M342.32,624.9c-6.58,8.47-8.94,30.66-8.94,30.66l10.82,20"/><path class="a" d="M374.05,596s42.8-18.72,71.93-34.77"/><path class="a" d="M475.1,545.19s80.1-43.5,97.33-50.09,29.48-13.56,41.19-8.2,31.76,14.16,31.76,14.16l5.36,2.23,43.34,30.76s.88,2.24-12.25,14.35c-10.74,9.91-53.22,47.3-73.64,62.5,0,0-8.66,6.42-9.79,6.31"/><path class="a" d="M362.76,701.75c15.63,17.06,51.61,16.39,67.23,15.33s48.33-15.22,48.33-15.22c-42.9,18.6-43.24-10.52-43.24-10.52-30.93,18.38-63.71.18-63.71.18"/><path class="a" d="M519.81,521.3s4.49,0,12.3,2.08,24.33,8.09,24.33,8.09,8.23-1.55,11.9-3.33,46.41-21.87,56.59-24.13a156,156,0,0,1,20.45-2.95"/><line class="a" x1="591.06" y1="613.8" x2="694.08" y2="534.05"/><path class="a" d="M650.74,503.3c-2.11-1.5-13.73.71-24,2.49s-55.65,24-57.54,25-3.55,6.3-3.55,6.3l39.3,32S654.77,542.4,671,535.51s23.09-1.46,23.09-1.46"/><line class="a" x1="629.2" y1="584.28" x2="657.03" y2="570.41"/><path class="a" d="M591.06,613.8s-12.24-3.35-41.9,7.71-34.88,12.65-50.26,19.79c-10.24,4.75-25.63,14-36.58,28.17-9.32,12-9.89,17.47-8.59,18.3a16.53,16.53,0,0,0,3,1.43"/><path class="a" d="M561.79,617.32,604.92,569l-71.92,43S502.63,629.11,494.93,633s-10.75,5.2-18.52,8.68c-7,3.12-11.38,5.51-15.16,7.39a65.29,65.29,0,0,0-10.39,6.42A38.61,38.61,0,0,0,440,667c-5.79,9.65-5.13,20.48-4.87,24.37,0,0,9.56-6.89,18.13-4.63"/><path class="a" d="M362.76,701.75a9.07,9.07,0,0,0,1.24-.33c6.88-2.33,9.69-12.4,6.3-22.49s-11.73-16.38-18.61-14c-4.06,1.38-6.7,5.45-7.49,10.64"/><line class="a" x1="334.55" y1="681.11" x2="344.2" y2="675.53"/><path class="a" d="M344.2,675.53l-10.7-19.77-.23-.4c-1.7-2.75-21.24-34.41-38.09-61.52-12.29-19.78-23.14-37.12-24.61-39.07-3.54-4.76-7.34-4.52-8.28-1.9-.65,1.8,2.71,10,10.07,25.94,3.37,7.33,7.6,16.3,12.66,27.07,16.1,34.23,49.53,75.23,49.53,75.23"/><path class="a" d="M355.29,701.75c1.48,1.61,7.47,0,7.47,0,3.1-4.43,5.46-18.81-4.15-28-8.31-7.94-14.66.94-14.41,1.78"/><path class="a" d="M354,698.18c4.12,13.38,20,37.26,20,37.26"/><polygon class="a" points="636.18 497 792.92 407.19 781.67 397.51 621.17 490.31 636.18 497"/><polygon class="a" points="687.99 529.73 853.12 434.61 835.89 427.82 675.18 520.64 687.99 529.73"/><line class="a" x1="391.82" y1="742.88" x2="383.45" y2="748.47"/><line class="a" x1="424.39" y1="731.94" x2="424.39" y2="748.4"/><path class="a" d="M413.44,766.76a5.33,5.33,0,0,1-1-.08c-3.69-1.46-4.77-7.11-2.64-13.94a14.66,14.66,0,0,1,7.82-8.72"/><path class="a" d="M413.53,772.76a7.56,7.56,0,0,1-6.48-.17c-4.46-2.54-4.72-14.42-.65-22.73a26.53,26.53,0,0,1,7.09-9"/><path class="a" d="M424.31,763.15l0,0"/><polyline class="a" points="417.64 739.33 417.64 744.02 417.64 755.56"/><ellipse class="a" cx="434.4" cy="766.42" rx="2.89" ry="2.66" transform="matrix(0.33, -0.95, 0.95, 0.33, -431.81, 926.98)"/><ellipse class="a" cx="952.25" cy="443.21" rx="1.44" ry="1.45"/><ellipse class="a" cx="932.29" cy="455.99" rx="1.88" ry="1.89"/><circle class="a" cx="765.72" cy="252.62" r="0.63"/><ellipse class="a" cx="753.35" cy="259.03" rx="1.25" ry="1.26"/><polyline class="a" points="760.05 283.72 755.79 302.09 761.73 307.55"/><path class="a" d="M770.6,286.08l-4.2-2.94c-3.28-2-6.35.58-6.35.58l6,5.54"/><path class="a" d="M769.2,308l4.72-20.33a5.24,5.24,0,0,0-7.47,0L761.73,308l7.47-.14"/><ellipse class="a" cx="769.84" cy="290.82" rx="1.52" ry="1.19" transform="translate(167.17 851.2) rotate(-63.61)"/><ellipse class="a" cx="355.6" cy="678.12" rx="1.88" ry="1.89"/><ellipse class="a" cx="360.48" cy="696.3" rx="1.88" ry="1.89"/><ellipse class="a" cx="422.57" cy="720.57" rx="1.58" ry="1.46"/><ellipse class="a" cx="785.41" cy="803.6" rx="3.23" ry="3.24"/><ellipse class="a" cx="762.63" cy="820.67" rx="2.43" ry="2.44"/><path class="a" d="M752.49,257.38c-5.74,2.32-5.74,5.65-5.74,5.65,4,2.08,38.24-21.4,38.24-21.4S760.92,254,752.49,257.38Z"/><path class="a" d="M352.75,699.07a24.17,24.17,0,0,0,4.32,18.47c6.56,8.87,70.26,104.67,70.26,104.67s4.74,6.17,5,1.21a8.61,8.61,0,0,0-1.53-5.24c-7.9-11.72-50.1-74.34-56.75-82.74C366.71,726.17,353.94,709.42,352.75,699.07Z"/><path class="a" d="M346.83,689.7c-2.84-6.49-8.34-10.34-12.28-8.59-3.14,1.38-4.35,5.91-3.24,11l5.32-6.23c2.34-1,5.63,1.25,7.32,5.11s1.18,7.84-1.17,8.87l-7.45.72c2.91,3.58,6.65,5.32,9.55,4C348.81,702.86,349.69,696.18,346.83,689.7Z"/><path class="a" d="M344.87,704.6l11.28-7.91h0c1.41-3,1.24-7.58-.75-12.11-2.6-5.91-7.39-9.75-11.2-9.05"/><path class="a" d="M331.31,692.09l-2,2.3a6,6,0,0,0-1.23,2.2c-.46,1.66-.29,4.07,4.61,4.22l2.61-.25,7.45-.72c2.35-1,2.86-5,1.17-8.87s-5-6.15-7.32-5.11l-5.32,6.23"/><path class="a" d="M427.8,785.12a26,26,0,0,1-8.39-2.85c-6.91-4.36-8.11-15.08-3-24.59.32-.58.66-1.14,1-1.71a21.54,21.54,0,0,1,1.32-1.91c5-6.73,12.31-10.28,18.52-9.35,1.65.25,8,4.29,9,6.24"/><path class="a" d="M439.32,755.53a4.33,4.33,0,0,0-2.55.11c-3.2,1-7,4.62-8.38,8.9-2,6.5-1.4,12.7,2.12,13.81a4.27,4.27,0,0,0,.54.13c3.77.59,8.42-2.92,10.91-9S443.14,756.69,439.32,755.53Z"/><path class="a" d="M444,749.25c-5-2.13-14.23,2.68-19,12.4-4.08,8.32-3.92,20.4.65,22.74,4.81,2.46,14.7-2.1,19.77-11.8S449.59,751.65,444,749.25Z"/><path class="a" d="M428.82,777.2h0c3.22-.76,8.29-2.84,10.29-7.73,2.48-6.07,1.25-12.43-2.35-13.83-3.2,1-7,4.62-8.38,8.9"/><path class="a" d="M425,717.35v11.51c0,3.75-1.72,4.62-6,9.26s-8.93,2-8.93,2l-1.28-22.73h.05"/><ellipse class="a" cx="422.42" cy="728.05" rx="1.88" ry="1.89"/><ellipse class="a" cx="413.53" cy="730.63" rx="1.48" ry="1.48"/></svg>