<svg width="184" height="123" viewBox="0 0 184 123" fill="none" xmlns="http://www.w3.org/2000/svg">
<g clip-path="url(#clip0)">
<path d="M139.152 2.16857C139.152 2.16857 139.04 2.16062 139.027 2.27727C139.014 2.39128 139.123 2.40453 139.123 2.40453C139.123 2.40453 139.233 2.41779 139.249 2.30113C139.262 2.18183 139.152 2.16857 139.152 2.16857Z" stroke="#F51919" stroke-width="0.4946" stroke-miterlimit="10" stroke-linecap="round" stroke-linejoin="round"/>
<path d="M136.01 3.26375C136.01 3.26375 135.867 3.25579 135.846 3.40426C135.827 3.55273 135.971 3.56864 135.971 3.56864C135.971 3.56864 136.115 3.5872 136.133 3.43608C136.154 3.28231 136.01 3.26375 136.01 3.26375Z" stroke="#F51919" stroke-width="0.4911" stroke-miterlimit="10" stroke-linecap="round" stroke-linejoin="round"/>
<path d="M179.605 26.4703C179.605 26.4703 179.493 26.4624 179.48 26.579C179.467 26.693 179.577 26.7063 179.577 26.7063C179.577 26.7063 179.686 26.7195 179.702 26.6029C179.715 26.4862 179.605 26.4703 179.605 26.4703Z" stroke="#F51919" stroke-width="0.4933" stroke-miterlimit="10" stroke-linecap="round" stroke-linejoin="round"/>
<path d="M177.199 41.45C177.199 41.45 176.915 41.4685 176.915 41.7602C176.915 42.0518 177.199 42.0491 177.199 42.0491C177.199 42.0491 177.484 42.0491 177.484 41.7495C177.484 41.45 177.199 41.45 177.199 41.45Z" stroke="#F51919" stroke-width="0.9866" stroke-miterlimit="10" stroke-linecap="round" stroke-linejoin="round"/>
<path d="M172.575 44.3608C172.575 44.3608 172.204 44.3847 172.204 44.7665C172.204 45.1483 172.575 45.143 172.575 45.143C172.575 45.143 172.945 45.143 172.945 44.7532C172.945 44.3635 172.575 44.3608 172.575 44.3608Z" stroke="#F51919" stroke-width="0.9866" stroke-miterlimit="10" stroke-linecap="round" stroke-linejoin="round"/>
<path d="M109.571 70.6057L115.271 67.7556" stroke="#F51919" stroke-width="0.9797" stroke-miterlimit="10"/>
<path d="M68.4762 102.771C68.33 102.466 68.1108 102.235 67.8211 102.111C67.7559 102.082 67.688 102.06 67.6176 102.047" stroke="#F51919" stroke-width="0.9797" stroke-miterlimit="10" stroke-linecap="round" stroke-linejoin="round"/>
<path d="M65.4827 106.188C65.1878 105.998 65.1017 105.597 65.2948 105.3C65.4853 105.003 65.8794 104.921 66.1743 105.112C66.1952 105.125 66.216 105.141 66.2343 105.157" stroke="#F51919" stroke-width="0.9797" stroke-miterlimit="10" stroke-linecap="round" stroke-linejoin="round"/>
<path d="M66.237 104.086C65.8221 104.391 65.4515 104.834 65.2792 105.321C64.9191 106.342 64.9661 107.318 65.4541 107.694" stroke="#F51919" stroke-width="0.9797" stroke-miterlimit="10" stroke-linecap="round" stroke-linejoin="round"/>
<path d="M65.4827 106.188L65.9029 106.422" stroke="#F51919" stroke-width="0.9797" stroke-miterlimit="10" stroke-linecap="round" stroke-linejoin="round"/>
<path d="M64.5146 109.489C64.097 109.46 63.1523 109.131 62.7948 108.903C61.2968 107.951 61.1089 105.528 62.3798 103.492C62.5364 103.24 62.706 103.009 62.8939 102.795" stroke="#F51919" stroke-width="0.9797" stroke-miterlimit="10" stroke-linecap="round" stroke-linejoin="round"/>
<path d="M67.6201 103.972L70.0941 100.507L67.748 98.3406" stroke="#F51919" stroke-width="0.9797" stroke-miterlimit="10" stroke-linecap="round" stroke-linejoin="round"/>
<path d="M69.3451 103.614L71.4277 100.549L68.5961 97.9297" stroke="#F51919" stroke-width="0.9797" stroke-miterlimit="10" stroke-linecap="round" stroke-linejoin="round"/>
<path d="M61.2419 102.251L64.0761 103.187C64.0761 103.187 65.0208 103.481 64.6815 102.651L64.4206 97.9747L62.1084 97.7705C62.3041 97.8129 62.4711 97.8421 62.5964 97.8633C63.4967 98.0171 64.3449 101.816 64.6842 102.649" stroke="#F51919" stroke-width="0.9797" stroke-miterlimit="10"/>
<path d="M58.7628 97.0337C58.7576 97.031 58.7549 97.031 58.7549 97.031V99.6505" stroke="#F51919" stroke-width="0.9797" stroke-miterlimit="10"/>
<path d="M60.9471 103.229C61.4482 102.893 61.336 101.832 60.694 100.862C60.052 99.8915 59.1282 99.3772 58.6245 99.7112L57.1683 101.252L57.0717 101.336C57.1004 101.305 57.1343 101.275 57.1683 101.252C57.6145 100.952 58.4366 101.411 59.0055 102.272C59.5744 103.134 59.6762 104.078 59.23 104.377" stroke="#F51919" stroke-width="0.9797" stroke-miterlimit="10" stroke-linecap="round" stroke-linejoin="round"/>
<path d="M54.6499 93.2527C54.9083 91.2245 53.7861 90.1958 53.7861 90.1958" stroke="#F51919" stroke-width="0.9797" stroke-miterlimit="10" stroke-linecap="round" stroke-linejoin="round"/>
<path d="M53.1989 89.6128C53.1989 89.6128 52.6326 88.8943 51.5443 88.8545" stroke="#F51919" stroke-width="0.9797" stroke-miterlimit="10" stroke-linecap="round" stroke-linejoin="round"/>
<path d="M53.8566 94.9098C54.1828 94.6447 54.4464 94.0349 54.4464 94.0349" stroke="#F51919" stroke-width="0.9797" stroke-miterlimit="10" stroke-linecap="round" stroke-linejoin="round"/>
<path d="M103.263 77.3823C103.263 77.3823 101.178 77.5918 99.2889 77.9099C97.3968 78.2281 91.2849 81.7012 89.7817 82.5072C88.5265 83.1833 83.414 86.8182 81.7778 87.9874C81.5298 88.165 81.2871 88.3479 81.0549 88.5468C79.5073 89.8777 74.6428 92.7146 74.6428 92.7146" stroke="#F51919" stroke-width="0.9797" stroke-miterlimit="10"/>
<path d="M107.891 79.0791C107.789 78.6602 107.572 78.077 107.209 77.4142C107.209 77.4142 107.212 77.4168 107.209 77.4142C107.173 77.3452 107.131 77.2683 107.089 77.1968C107.084 77.1861 107.076 77.1755 107.071 77.1649C106.309 75.8446 105.268 76.0832 105.268 76.0832C104.334 76.7832 103.624 77.2524 103.264 77.3823L105.722 78.6231L107.202 79.3734L107.924 79.7393C107.979 79.6492 107.971 79.4185 107.891 79.0791Z" stroke="#F51919" stroke-width="0.9797" stroke-miterlimit="10" stroke-linecap="round" stroke-linejoin="round"/>
<path d="M107.209 77.4116C107.209 77.4116 105.933 78.5782 105.722 78.6232L107.202 79.3736C107.434 79.2834 107.671 79.1774 107.891 79.0793C107.789 78.6604 107.572 78.0771 107.209 77.4116Z" stroke="#F51919" stroke-width="0.9797" stroke-miterlimit="10" stroke-linecap="round" stroke-linejoin="round"/>
<path d="M96.5461 60.894L82.044 68.8876C82.044 68.8876 76.3496 71.8226 73.5233 73.0183C70.6944 74.2166 66.9599 75.6589 65.1644 76.6744C63.3689 77.6898 60.266 79.3999 58.6166 81.4042C56.9673 83.4086 55.271 85.6887 54.796 87.5949" stroke="#F51919" stroke-width="0.9797" stroke-miterlimit="10"/>
<path d="M94.6672 59.7461L83.0983 65.8705C83.0983 65.8705 77.7876 69.0971 70.1489 72.1407C62.5103 75.1844 58.2487 77.6129 56.508 80.2642C54.7987 82.8677 54.1436 85.3573 54.1436 87.245" stroke="#F51919" stroke-width="0.9797" stroke-miterlimit="10"/>
<path d="M1.06478 44.6445C1.06478 44.6445 0.224454 45.1191 0.133114 45.4267C0.0835295 45.591 0.362768 46.1001 0.691591 45.8906C1.15351 45.5963 1.16395 45.4558 1.16395 45.4558" stroke="#F51919" stroke-width="0.9804" stroke-miterlimit="10" stroke-linecap="round" stroke-linejoin="round"/>
<path d="M29.2966 30.3703C29.2966 30.3703 29.294 30.3703 29.2914 30.3676C29.2209 30.3199 28.3414 29.7738 25.6247 30.3703C22.7854 30.9933 10.8564 35.2274 8.15273 36.9375C5.46995 38.6343 2.96202 40.6015 1.35966 43.8308C1.35966 43.8308 0.602846 45.3102 1.51363 45.8086" stroke="#F51919" stroke-width="0.9797" stroke-miterlimit="10"/>
<path d="M141.483 0.766113C141.483 1.10813 135.371 4.75096 134.619 5.14335C133.868 5.53573 133.406 5.48536 133.406 5.48536" stroke="#F51919" stroke-width="0.9797" stroke-miterlimit="10"/>
<path d="M183.736 36.6113C183.736 36.6113 180.563 39.1486 178.243 40.4769C175.923 41.8078 171.249 44.5519 170.784 45.7582C170.784 45.7582 170.965 46.3388 173.238 45.0344C175.508 43.73 183.739 37.9926 183.739 37.5234C183.739 37.0541 183.736 36.6113 183.736 36.6113Z" stroke="#F51919" stroke-width="0.9866" stroke-miterlimit="10" stroke-linecap="round" stroke-linejoin="round"/>
<path d="M175.605 29.6173L171.479 43.7035C171.479 43.7035 171.471 43.7538 171.481 43.7697C171.682 44.0959 175.424 42.0676 175.959 41.7787C176.941 41.2457 178.34 40.4795 180.132 39.2759C181.596 38.2949 182.805 37.3696 183.739 36.6087V35.572C183.739 35.9167 182.126 36.6087 182.126 36.6087V27.6209C182.126 27.6209 183.739 26.9316 183.739 26.5869" stroke="#F51919" stroke-width="0.9866" stroke-miterlimit="10" stroke-linecap="round" stroke-linejoin="round"/>
<path d="M183.736 24.8635C183.736 25.2082 177.583 28.8775 176.826 29.2726C176.069 29.6676 175.605 29.6172 175.605 29.6172" stroke="#F51919" stroke-width="0.9866" stroke-miterlimit="10"/>
<path d="M183.872 26.6081V24.8821" stroke="#F51919" stroke-width="0.9874" stroke-miterlimit="10" stroke-linecap="round" stroke-linejoin="round"/>
<path d="M183.872 26.8254C183.872 27.1701 182.421 27.7534 182.421 27.7534V36.301C182.421 36.301 183.872 35.7178 183.872 35.3731V26.8254Z" stroke="#F51919" stroke-width="0.9874" stroke-miterlimit="10"/>
<path d="M171.489 43.7803C171.489 43.7803 169.918 44.74 169.868 45.3896" stroke="#F51919" stroke-width="0.9866" stroke-miterlimit="10" stroke-linecap="round" stroke-linejoin="round"/>
<path d="M175.847 28.6575C176.664 29.0897 183.734 24.2246 183.734 24.2246" stroke="#F51919" stroke-width="0.9866" stroke-miterlimit="10" stroke-linecap="round" stroke-linejoin="round"/>
<path d="M177.032 27.4856C175.847 27.9655 175.847 28.6548 175.847 28.6548C176.664 29.087 183.734 24.2219 183.734 24.2219C183.734 24.2219 178.77 26.783 177.032 27.4856Z" stroke="#F51919" stroke-width="0.9866" stroke-miterlimit="10"/>
<path d="M175.605 29.6175L175.847 28.6577" stroke="#F51919" stroke-width="0.9866" stroke-miterlimit="10" stroke-linecap="round" stroke-linejoin="round"/>
<path d="M183.872 24.2405V24.8821" stroke="#F51919" stroke-width="0.9874" stroke-miterlimit="10" stroke-linecap="round" stroke-linejoin="round"/>
<path d="M133.408 5.48529L129.308 19.4707C129.308 19.4707 129.301 19.5211 129.311 19.537C129.509 19.8604 133.228 17.8481 133.758 17.5591C134.731 17.0289 136.122 16.268 137.902 15.0749C139.356 14.0992 140.556 13.1819 141.483 12.4289V11.4003C141.483 11.7423 139.883 12.4289 139.883 12.4289V3.5048C139.883 3.5048 141.483 2.82077 141.483 2.47876" stroke="#F51919" stroke-width="0.9797" stroke-miterlimit="10" stroke-linecap="round" stroke-linejoin="round"/>
<path d="M142.829 2.50014V0.77417" stroke="#F51919" stroke-width="0.9892" stroke-miterlimit="10" stroke-linecap="round" stroke-linejoin="round"/>
<path d="M141.483 2.69629C141.483 3.0383 140.042 3.61628 140.042 3.61628V12.0977C140.042 12.0977 141.483 11.5197 141.483 11.1777V2.69629Z" stroke="#F51919" stroke-width="0.9797" stroke-miterlimit="10"/>
<path d="M133.651 4.53098C134.463 4.95783 141.485 0.129883 141.485 0.129883" stroke="#F51919" stroke-width="0.9797" stroke-miterlimit="10" stroke-linecap="round" stroke-linejoin="round"/>
<path d="M133.408 5.48546L133.651 4.53101" stroke="#F51919" stroke-width="0.9797" stroke-miterlimit="10" stroke-linecap="round" stroke-linejoin="round"/>
<path d="M142.829 0.129883V0.77414" stroke="#F51919" stroke-width="0.9892" stroke-miterlimit="10" stroke-linecap="round" stroke-linejoin="round"/>
<path d="M129.311 19.5371C129.311 19.5371 127.75 20.9158 127.928 21.0695L144.734 35.5905L169.644 45.4452" stroke="#F51919" stroke-width="0.9797" stroke-miterlimit="10" stroke-linecap="round" stroke-linejoin="round"/>
<path d="M128.612 21.6529C127.959 21.0935 131.647 18.7789 134.05 17.6415C139.896 14.8763 141.485 13.5613 141.485 13.5613V12.4265" stroke="#F51919" stroke-width="0.9797" stroke-miterlimit="10" stroke-linecap="round" stroke-linejoin="round"/>
<path d="M139.969 14.5581L146.36 18.5005" stroke="#F51919" stroke-width="0.9797" stroke-miterlimit="10" stroke-linecap="round" stroke-linejoin="round"/>
<path d="M146.36 18.5005L144.118 19.8712L170.777 35.2724L173.071 33.8778" stroke="#F51919" stroke-width="0.9797" stroke-miterlimit="10" stroke-linecap="round" stroke-linejoin="round"/>
<path d="M147.133 18.2778L144.497 19.8633L170.745 35.0762L173.159 33.626L147.133 18.2778Z" stroke="#F51919" stroke-width="0.9797" stroke-miterlimit="10"/>
<path d="M157.585 27.6499C157.585 27.6499 154.429 29.4846 149.612 31.8495C144.907 34.1588 144.737 35.5904 144.737 35.5904" stroke="#F51919" stroke-width="0.9797" stroke-miterlimit="10" stroke-linecap="round" stroke-linejoin="round"/>
<path d="M157.112 27.4272C157.112 27.4272 153.949 29.1479 149.22 31.4943C144.567 33.8035 144.426 35.3227 144.426 35.3227" stroke="#F51919" stroke-width="0.9797" stroke-miterlimit="10"/>
<path d="M158.046 27.918C158.046 27.918 153.662 30.2961 149.834 32.2766C145.447 34.5461 145.149 35.7524 145.149 35.7524" stroke="#F51919" stroke-width="0.9797" stroke-miterlimit="10"/>
<path d="M41.1525 72.5729L50.8084 78.9624C53.8043 74.6329 57.3066 73.0209 57.3066 73.0209C60.6183 69.8659 72.041 65.8705 72.041 65.8705L78.0068 62.5697C78.0068 62.5697 58.2539 49.2206 57.2361 48.6717C56.2183 48.1203 50.4352 50.1008 50.4352 50.1008L32.5744 38.2205L37.9217 35.7654C37.9217 35.7654 30.9746 31.07 29.2992 30.3727C27.6264 29.6755 18.7873 32.8676 11.1487 35.9457C3.50745 39.0265 1.36227 46.2511 1.36227 46.2511L36.4811 69.4841" stroke="#F51919" stroke-width="0.9797" stroke-miterlimit="10" stroke-linecap="round" stroke-linejoin="round"/>
<path d="M38.7359 35.6514L33.0441 38.2549L50.4561 49.8568L56.294 47.187L38.7359 35.6514Z" stroke="#F51919" stroke-width="0.9797" stroke-miterlimit="10"/>
<path d="M96.4939 77.8436C96.8645 77.711 99.9935 76.5922 101.758 76.6797L103.094 77.2974C104.866 78.1538 119.506 85.6515 126.422 89.1936C119.506 85.6515 104.866 78.1538 103.094 77.2974L101.758 76.6797C99.9935 76.5922 96.8645 77.7137 96.4939 77.8436ZM96.4939 77.8436C96.4887 77.8436 96.4835 77.8462 96.4783 77.8489C96.4756 77.8515 96.473 77.8515 96.4704 77.8515C96.4678 77.8515 96.4678 77.8515 96.4652 77.8515V77.8542C96.4626 77.8542 96.46 77.8542 96.4574 77.8542C96.4574 77.8542 96.4574 77.8542 96.4548 77.8568C95.7945 78.0901 87.1459 81.1736 83.7429 82.7484C80.9087 84.0608 75.8616 88.666 75.1804 89.936C74.4889 91.2271 74.2357 92.5024 74.2357 92.5024C74.2357 92.5024 131.566 122.085 132.779 122.769C133.993 123.453 137.727 120.423 143.839 115.971C149.951 111.52 154.607 109.468 156.984 108.442C159.362 107.416 162.076 107.562 162.076 107.562L150.437 101.546C146.652 101.156 141.997 103.55 141.997 103.55L122.254 93.1838C122.583 92.8921 123.087 92.6297 123.684 92.399" stroke="#F51919" stroke-width="0.9797" stroke-miterlimit="10" stroke-linecap="round" stroke-linejoin="round"/>
<path d="M161.883 107.466C158.814 107.297 156.601 108.246 156.601 108.246C156.601 108.246 154.508 109.192 151.835 110.483C149.215 111.748 146.47 113.564 146.47 113.564C146.47 113.564 139.849 118.35 137.357 120.054C134.864 121.759 134.071 121.632 133.883 121.38C133.484 120.847 134.773 119.681 136.757 117.369C138.667 115.142 145.559 111.748 145.559 111.748C145.559 111.748 154.654 108.447 156.29 107.824C157.929 107.199 161.883 107.466 161.883 107.466ZM161.883 107.466C159.312 106.292 155.818 107.273 155.818 107.273C155.818 107.273 148.445 109.619 145.05 110.841C141.655 112.064 137.192 115.486 134.622 118.079C132.051 120.67 132.779 122.772 132.779 122.772" stroke="#F51919" stroke-width="0.9797" stroke-miterlimit="10"/>
<path d="M142.232 102.256L147.516 99.0775L127.589 88.4963L122.301 91.6752L142.232 102.256Z" stroke="#F51919" stroke-width="0.9797" stroke-miterlimit="10"/>
<path d="M150.434 101.551C150.434 101.551 150.168 101.368 149.077 100.782C148.015 100.212 142.232 102.259 142.232 102.259" stroke="#F51919" stroke-width="0.9797" stroke-miterlimit="10"/>
<path d="M50.8084 78.9624C49.4592 80.7043 48.9764 85.2698 48.9764 85.2698L51.192 89.3766" stroke="#F51919" stroke-width="0.9797" stroke-miterlimit="10" stroke-linecap="round" stroke-linejoin="round"/>
<path d="M57.3066 73.021C57.3066 73.021 66.0726 69.1714 72.0384 65.8706" stroke="#F51919" stroke-width="0.9797" stroke-miterlimit="10" stroke-linecap="round" stroke-linejoin="round"/>
<path d="M78.0067 62.5673C78.0067 62.5673 94.4139 53.6193 97.9423 52.2645C101.471 50.907 103.981 49.4753 106.382 50.5783C108.786 51.6785 112.885 53.492 112.885 53.492L113.984 53.9507L122.862 60.2766C122.862 60.2766 123.042 60.7379 120.352 63.2301C118.152 65.2689 109.451 72.9576 105.268 76.0834C105.268 76.0834 103.493 77.4037 103.263 77.3825" stroke="#F51919" stroke-width="0.9797" stroke-miterlimit="10"/>
<path d="M54.9943 94.7694C58.1964 98.2797 65.5662 98.1418 68.7657 97.9218C71.9679 97.7017 78.6644 94.7933 78.6644 94.7933C69.8749 98.6191 69.807 92.6299 69.807 92.6299C63.4706 96.4106 56.7559 92.667 56.7559 92.667" stroke="#F51919" stroke-width="0.9797" stroke-miterlimit="10" stroke-linecap="round" stroke-linejoin="round"/>
<path d="M87.1642 57.6542C87.1642 57.6542 88.0828 57.6436 89.6826 58.0837C91.2823 58.5238 94.6671 59.7461 94.6671 59.7461C94.6671 59.7461 96.353 59.4279 97.1046 59.062C97.8562 58.6962 106.612 54.5628 108.697 54.0989C110.782 53.6349 112.885 53.4944 112.885 53.4944" stroke="#F51919" stroke-width="0.9797" stroke-miterlimit="10" stroke-linecap="round" stroke-linejoin="round"/>
<path d="M122.86 60.2764L101.758 76.6797" stroke="#F51919" stroke-width="0.9797" stroke-miterlimit="10"/>
<path d="M113.984 53.9504C113.551 53.6428 111.171 54.0962 109.062 54.4647C106.954 54.8306 97.6631 59.404 97.2768 59.5976C96.888 59.7938 96.5487 60.894 96.5487 60.894L104.6 67.4718C104.6 67.4718 114.809 61.9943 118.131 60.5785C121.453 59.1601 122.86 60.2789 122.86 60.2789" stroke="#F51919" stroke-width="0.9797" stroke-miterlimit="10" stroke-linecap="round" stroke-linejoin="round"/>
<path d="M101.758 76.6799C101.758 76.6799 99.2498 75.9906 93.1744 78.2654C87.099 80.5402 86.029 80.8689 82.8791 82.3351C80.7809 83.3134 77.6284 85.2197 75.384 88.1281C73.4763 90.6017 73.3589 91.7232 73.6251 91.8929C73.8913 92.0626 74.2332 92.1872 74.2332 92.1872" stroke="#F51919" stroke-width="0.9797" stroke-miterlimit="10" stroke-linecap="round" stroke-linejoin="round"/>
<path d="M95.7632 77.4036L104.597 67.4719L89.8652 76.3218C89.8652 76.3218 83.6463 79.8295 82.0674 80.6248C80.4677 81.4308 79.8648 81.6959 78.2729 82.4091C76.8428 83.0507 75.9425 83.5439 75.17 83.931C74.0974 84.4692 73.6381 84.8271 73.0431 85.2513C72.6725 85.5138 71.5947 86.2959 70.8066 87.6162C69.6217 89.602 69.7574 91.8291 69.8096 92.6297C69.8096 92.6297 71.7695 91.2113 73.5233 91.6779" stroke="#F51919" stroke-width="0.9797" stroke-miterlimit="10" stroke-linecap="round" stroke-linejoin="round"/>
<path d="M54.9943 94.7694C55.0805 94.7535 55.164 94.7297 55.2501 94.7031C56.6593 94.2233 57.2361 92.1526 56.5393 90.0767C55.8425 88.0008 54.1384 86.7096 52.7291 87.1895C51.8966 87.4732 51.3564 88.311 51.1946 89.3794" stroke="#F51919" stroke-width="0.9797" stroke-miterlimit="10" stroke-linecap="round" stroke-linejoin="round"/>
<path d="M49.2165 90.5221L51.1921 89.3767" stroke="#F51919" stroke-width="0.9797" stroke-miterlimit="10"/>
<path d="M51.192 89.3768L48.9998 85.3098C48.9842 85.2806 48.9685 85.2541 48.9529 85.2276C48.6058 84.6629 44.6025 78.1487 41.1525 72.5731C38.6341 68.5061 36.4106 64.9375 36.1105 64.5371C35.385 63.5588 34.6073 63.6092 34.4142 64.1474C34.2811 64.5186 34.9674 66.1942 36.4785 69.4817C37.17 70.9903 38.0339 72.8356 39.0699 75.0494C42.3686 82.0885 49.2164 90.5222 49.2164 90.5222" stroke="#F51919" stroke-width="0.9797" stroke-miterlimit="10"/>
<path d="M53.4651 94.7693C53.7678 95.1007 54.9943 94.7693 54.9943 94.7693C55.6311 93.8573 56.1139 90.9011 54.1436 89.0107C52.4421 87.3776 51.1398 89.2043 51.192 89.3793" stroke="#F51919" stroke-width="0.9797" stroke-miterlimit="10"/>
<path d="M53.2041 94.0349C54.047 96.7869 57.3066 101.697 57.3066 101.697" stroke="#F51919" stroke-width="0.9797" stroke-miterlimit="10" stroke-linecap="round" stroke-linejoin="round"/>
<path d="M111.001 52.6541L143.108 34.1827L140.804 32.1917L107.927 51.2781L111.001 52.6541Z" stroke="#F51919" stroke-width="0.9797" stroke-miterlimit="10" stroke-linecap="round" stroke-linejoin="round"/>
<path d="M121.615 59.3881L155.439 39.8245L151.908 38.4272L118.99 57.5163L121.615 59.3881Z" stroke="#F51919" stroke-width="0.9797" stroke-miterlimit="10" stroke-linecap="round" stroke-linejoin="round"/>
<path d="M60.9471 103.229L59.2325 104.378" stroke="#F51919" stroke-width="0.9797" stroke-miterlimit="10" stroke-linecap="round" stroke-linejoin="round"/>
<path d="M67.6201 100.979V104.364" stroke="#F51919" stroke-width="0.9797" stroke-miterlimit="10" stroke-linecap="round" stroke-linejoin="round"/>
<path d="M65.3758 108.14C65.3053 108.14 65.2427 108.134 65.1748 108.121C64.418 107.822 64.1962 106.66 64.632 105.255C64.8904 104.428 65.6028 103.707 66.2344 103.463" stroke="#F51919" stroke-width="0.9797" stroke-miterlimit="10" stroke-linecap="round" stroke-linejoin="round"/>
<path d="M65.394 109.375C64.9086 109.556 64.4467 109.556 64.0683 109.338C63.1549 108.816 63.1001 106.374 63.9352 104.664C64.3162 103.885 64.8329 103.256 65.3888 102.808" stroke="#F51919" stroke-width="0.9797" stroke-miterlimit="10" stroke-linecap="round" stroke-linejoin="round"/>
<path d="M67.6022 107.397C67.5991 107.4 67.5991 107.4 67.6022 107.397" stroke="#F51919" stroke-width="0.9797" stroke-miterlimit="10" stroke-linecap="round" stroke-linejoin="round"/>
<path d="M66.237 102.498V103.463V105.836" stroke="#F51919" stroke-width="0.9797" stroke-miterlimit="10" stroke-linecap="round" stroke-linejoin="round"/>
<path d="M136.375 8.78882L135.501 12.5669L136.717 13.6884" stroke="#F51919" stroke-width="0.9797" stroke-miterlimit="10"/>
<path d="M138.534 9.27424L137.675 8.66976C137.002 8.26676 136.375 8.78906 136.375 8.78906L137.607 9.92911" stroke="#F51919" stroke-width="0.9797" stroke-miterlimit="10"/>
<path d="M138.249 13.7787L139.215 9.59764C138.385 8.86324 137.685 9.59764 137.685 9.59764L136.72 13.7787L138.249 13.7495" stroke="#F51919" stroke-width="0.9797" stroke-miterlimit="10"/>
<path d="M134.825 3.36973C133.648 3.84695 133.648 4.53098 133.648 4.53098C134.46 4.95783 141.483 0.129883 141.483 0.129883C141.483 0.129883 136.553 2.66979 134.825 3.36973Z" stroke="#F51919" stroke-width="0.9797" stroke-miterlimit="10"/>
<path d="M52.9431 94.2178C52.9431 94.2178 52.4864 96.1903 53.8304 98.0144C55.1744 99.8384 68.2203 119.543 68.2203 119.543C68.2203 119.543 69.1911 120.813 69.2433 119.789C69.2642 119.407 69.1416 119.031 68.9302 118.713C67.3148 116.3 58.6688 103.42 57.3065 101.694C55.8034 99.7907 53.1858 96.3467 52.9431 94.2178Z" stroke="#F51919" stroke-width="0.9797" stroke-miterlimit="10" stroke-linecap="round" stroke-linejoin="round"/>
<path d="M51.7322 92.2906C51.1502 90.9543 50.0229 90.1642 49.2165 90.5222C48.5719 90.8058 48.3265 91.7391 48.551 92.781L49.6418 91.5005C50.122 91.2857 50.7953 91.7577 51.1398 92.5504C51.4869 93.3458 51.3799 94.1624 50.9023 94.3745L49.3757 94.5229C49.9707 95.26 50.7379 95.6179 51.3303 95.3528C52.1367 94.9975 52.3168 93.6215 51.7322 92.2906Z" stroke="#F51919" stroke-width="0.9797" stroke-miterlimit="10" stroke-linecap="round" stroke-linejoin="round"/>
<path d="M51.3303 95.3554L53.6399 93.7275C53.9296 93.1177 53.8931 92.1686 53.4859 91.238C52.9536 90.0237 51.9723 89.2336 51.192 89.3768" stroke="#F51919" stroke-width="0.9797" stroke-miterlimit="10" stroke-linecap="round" stroke-linejoin="round"/>
<path d="M48.551 92.7809L48.1491 93.2554C48.0369 93.388 47.9455 93.5391 47.8986 93.7088C47.8046 94.0508 47.8385 94.544 48.8433 94.5758L49.3783 94.5227L50.9049 94.3743C51.3851 94.1622 51.4895 93.3456 51.1424 92.5502C50.7953 91.7548 50.1246 91.2855 49.6445 91.5003L48.551 92.7809Z" stroke="#F51919" stroke-width="0.9797" stroke-miterlimit="10" stroke-linecap="round" stroke-linejoin="round"/>
<path d="M68.3169 111.915C67.8993 111.886 66.9546 111.557 66.5971 111.329C65.1826 110.43 64.9373 108.227 65.976 106.27C66.0412 106.151 66.1091 106.034 66.1822 105.918C66.2657 105.78 66.357 105.65 66.4536 105.525C67.4766 104.141 68.9745 103.412 70.2481 103.603C70.5847 103.656 71.8791 104.486 72.0853 104.886" stroke="#F51919" stroke-width="0.9797" stroke-miterlimit="10" stroke-linecap="round" stroke-linejoin="round"/>
<path d="M70.6761 105.83C70.5248 105.783 70.3447 105.793 70.1542 105.854C69.4965 106.048 68.711 106.803 68.437 107.684C68.022 109.023 68.1499 110.298 68.8702 110.526C68.9067 110.536 68.9433 110.547 68.9798 110.552C69.7523 110.674 70.7048 109.953 71.2163 108.699C71.7435 107.416 71.459 106.069 70.6761 105.83Z" stroke="#F51919" stroke-width="0.9797" stroke-miterlimit="10" stroke-linecap="round" stroke-linejoin="round"/>
<path d="M71.626 104.539C70.603 104.102 68.711 105.091 67.7376 107.09C66.9025 108.8 66.9338 111.284 67.8707 111.767C68.8571 112.273 70.8823 111.334 71.9183 109.338C72.9544 107.342 72.7821 105.032 71.626 104.539Z" stroke="#F51919" stroke-width="0.9797" stroke-miterlimit="10" stroke-linecap="round" stroke-linejoin="round"/>
<path d="M68.5257 110.287C69.1886 110.128 70.2272 109.701 70.6343 108.696C71.1432 107.45 70.8901 106.141 70.1542 105.852C69.4965 106.045 68.711 106.801 68.437 107.681" stroke="#F51919" stroke-width="0.9797" stroke-miterlimit="10" stroke-linecap="round" stroke-linejoin="round"/>
<path d="M67.748 97.9773C67.748 97.9773 67.748 99.576 67.748 100.345C67.748 101.116 67.3957 101.294 66.511 102.248C65.6263 103.2 64.6816 102.651 64.6816 102.651L64.4207 97.9746H64.4311" stroke="#F51919" stroke-width="0.9797" stroke-miterlimit="10" stroke-linecap="round" stroke-linejoin="round"/>
<path d="M177.41 27.5863C177.41 27.5863 177.264 27.5757 177.246 27.7269C177.228 27.8753 177.371 27.8912 177.371 27.8912C177.371 27.8912 177.515 27.9098 177.533 27.756C177.554 27.6049 177.41 27.5863 177.41 27.5863Z" stroke="#F51919" stroke-width="0.4933" stroke-miterlimit="10" stroke-linecap="round" stroke-linejoin="round"/>
<path d="M69.8462 107.782C69.8488 107.782 69.9297 107.76 69.9975 107.792C70.0314 107.808 70.0628 107.835 70.0863 107.877C70.1097 107.922 70.1254 107.988 70.1254 108.094C70.1254 108.203 70.1045 108.28 70.081 108.341C70.0445 108.429 69.9871 108.49 69.9349 108.529C69.9088 108.548 69.8853 108.561 69.867 108.569L69.8488 108.577L69.8436 108.58H69.8409C69.8357 108.582 69.7548 108.601 69.6896 108.572C69.6557 108.556 69.6243 108.532 69.6035 108.49C69.58 108.447 69.5643 108.383 69.5643 108.283C69.5669 108.174 69.5852 108.097 69.6087 108.036C69.6452 107.946 69.7052 107.88 69.76 107.835C69.7861 107.813 69.8122 107.798 69.8279 107.79L69.8462 107.782ZM69.8462 107.532L69.8409 107.535C69.8357 107.54 69.7313 107.578 69.6191 107.694C69.5643 107.755 69.5069 107.837 69.4599 107.949C69.4156 108.055 69.3869 108.19 69.3895 108.338C69.3869 108.484 69.4129 108.596 69.4573 108.672C69.5226 108.792 69.6139 108.832 69.6896 108.842C69.7653 108.853 69.8279 108.834 69.8409 108.834H69.8436C69.8514 108.829 69.9558 108.802 70.068 108.688C70.1254 108.633 70.1828 108.55 70.2298 108.444C70.2741 108.336 70.3029 108.201 70.3029 108.049C70.3029 107.898 70.2768 107.779 70.2324 107.699C70.1645 107.575 70.068 107.538 69.9897 107.527C69.9114 107.511 69.8514 107.53 69.8462 107.532Z" fill="#F51919"/>
<path d="M142.508 114.431L142.513 114.429C142.532 114.423 142.6 114.415 142.66 114.442C142.696 114.458 142.725 114.484 142.748 114.527C142.772 114.572 142.787 114.635 142.787 114.744C142.787 114.855 142.767 114.93 142.743 114.991C142.707 115.078 142.649 115.139 142.597 115.179C142.571 115.197 142.547 115.211 142.529 115.219L142.511 115.227L142.506 115.229H142.503C142.503 115.229 142.5 115.229 142.498 115.232C142.477 115.237 142.409 115.25 142.349 115.224C142.313 115.211 142.284 115.187 142.263 115.144C142.239 115.102 142.224 115.038 142.224 114.938C142.224 114.829 142.245 114.752 142.268 114.691C142.305 114.601 142.365 114.532 142.42 114.49C142.446 114.468 142.469 114.452 142.487 114.444L142.508 114.431ZM142.508 114.182L142.503 114.185C142.495 114.187 142.393 114.227 142.281 114.344C142.226 114.405 142.169 114.487 142.122 114.596C142.078 114.704 142.049 114.839 142.049 114.988C142.049 115.131 142.075 115.245 142.117 115.322C142.179 115.444 142.273 115.481 142.349 115.492C142.425 115.502 142.485 115.486 142.5 115.481H142.503C142.511 115.478 142.613 115.449 142.727 115.335C142.785 115.28 142.842 115.197 142.889 115.091C142.934 114.983 142.962 114.847 142.962 114.696C142.962 114.545 142.936 114.426 142.892 114.346C142.824 114.222 142.727 114.182 142.649 114.174C142.573 114.163 142.513 114.179 142.508 114.182Z" fill="#F51919"/>
<path d="M138.142 118.35C138.14 118.35 138.074 118.368 138.022 118.344C137.996 118.334 137.973 118.313 137.957 118.281C137.939 118.249 137.926 118.204 137.926 118.119C137.926 118.034 137.941 117.976 137.96 117.928C137.988 117.859 138.033 117.806 138.074 117.772C138.098 117.753 138.116 117.74 138.129 117.735L138.145 117.727L138.147 117.724C138.163 117.721 138.215 117.713 138.26 117.735C138.286 117.748 138.312 117.766 138.327 117.801C138.343 117.835 138.359 117.886 138.359 117.971C138.359 118.058 138.343 118.116 138.327 118.161C138.299 118.23 138.254 118.278 138.213 118.305C138.192 118.321 138.174 118.331 138.16 118.336L138.145 118.344L138.142 118.35ZM138.147 117.727V117.719V117.727ZM138.147 117.727V117.719V117.727ZM138.145 117.48L138.14 117.483C138.134 117.485 138.046 117.517 137.949 117.621C137.902 117.671 137.85 117.745 137.813 117.838C137.774 117.931 137.751 118.05 137.751 118.175C137.751 118.299 137.772 118.395 137.811 118.464C137.866 118.57 137.946 118.602 138.012 118.61C138.074 118.617 138.127 118.604 138.142 118.602H138.145H138.147C138.153 118.599 138.241 118.572 138.338 118.477C138.385 118.429 138.437 118.358 138.476 118.265C138.515 118.172 138.539 118.053 138.539 117.925C138.539 117.796 138.515 117.695 138.476 117.623C138.419 117.515 138.333 117.483 138.267 117.475C138.2 117.464 138.15 117.477 138.145 117.48Z" fill="#F51919"/>
<path d="M138.38 10.6262C138.377 10.6262 138.294 10.65 138.247 10.5943C138.221 10.5625 138.208 10.5148 138.208 10.4432C138.208 10.2179 138.348 10.141 138.385 10.1277C138.429 10.1171 138.557 10.1039 138.557 10.3239C138.555 10.5493 138.421 10.6103 138.38 10.6262ZM138.382 9.8785L138.377 9.88115C138.257 9.92888 138.033 10.1145 138.033 10.4962C138.033 10.6341 138.064 10.7428 138.124 10.8091C138.221 10.9125 138.351 10.8833 138.377 10.8754L138.38 10.8727C138.521 10.8303 138.729 10.6368 138.729 10.2709C138.729 9.90502 138.521 9.83608 138.382 9.8785Z" fill="#F51919"/>
<path d="M66.9546 99.9607C66.9546 99.9607 66.4171 99.9925 66.4171 100.528C66.4171 101.064 66.9546 101.053 66.9546 101.053C66.9546 101.053 67.4922 101.053 67.4922 100.507C67.4949 99.9607 66.9546 99.9607 66.9546 99.9607Z" stroke="#F51919" stroke-width="0.9797" stroke-miterlimit="10" stroke-linecap="round" stroke-linejoin="round"/>
<path d="M66.9598 98.6376C66.9755 98.6323 67.0199 98.627 67.0564 98.6482C67.0773 98.6588 67.0929 98.6747 67.1086 98.7012C67.1217 98.7278 67.1321 98.7649 67.1321 98.8338C67.1321 98.9054 67.1217 98.9531 67.106 98.9876C67.0851 99.038 67.0486 99.0751 67.0147 99.1016C66.9964 99.1149 66.9807 99.1202 66.9703 99.1255L66.9572 99.1308H66.9546C66.952 99.1308 66.8972 99.144 66.8555 99.1255C66.8346 99.1175 66.8163 99.1016 66.8033 99.0777C66.7902 99.0539 66.7798 99.0194 66.7798 98.9505C66.7798 98.8789 66.7928 98.8338 66.8085 98.7967C66.832 98.741 66.8659 98.7013 66.9024 98.6721C66.9207 98.6588 66.9364 98.6482 66.9468 98.6429L66.9598 98.6376ZM66.9572 98.3884L66.952 98.391C66.9442 98.3937 66.8685 98.4229 66.7824 98.513C66.7406 98.5581 66.6963 98.6217 66.6623 98.7065C66.6258 98.7914 66.6049 98.8921 66.6049 99.0061C66.6049 99.1149 66.6232 99.2023 66.6571 99.2633C66.7067 99.3561 66.7798 99.3879 66.8372 99.3932C66.892 99.4012 66.9364 99.3906 66.952 99.3853H66.9546H66.9572C66.9625 99.3826 67.0407 99.3614 67.1269 99.2739C67.1686 99.2289 67.2156 99.1679 67.2495 99.083C67.2861 98.9982 67.3069 98.8948 67.3069 98.7808C67.3069 98.6668 67.2861 98.5766 67.2521 98.513C67.1999 98.4149 67.1243 98.3857 67.0668 98.3804C67.0068 98.3725 66.9598 98.3857 66.9572 98.3884Z" fill="#F51919"/>
<path d="M65.3914 101.71C65.381 101.713 65.3444 101.718 65.3183 101.705L65.2818 101.671C65.2713 101.652 65.2635 101.628 65.2635 101.575C65.2635 101.519 65.2713 101.485 65.2818 101.456C65.2974 101.416 65.3262 101.384 65.3522 101.363L65.3888 101.339L65.3966 101.334C65.4071 101.331 65.4436 101.326 65.4697 101.342L65.5062 101.382C65.514 101.403 65.5219 101.429 65.5219 101.482C65.5219 101.541 65.5141 101.575 65.5036 101.599C65.488 101.639 65.4645 101.665 65.4358 101.687L65.4018 101.705L65.394 101.708H65.3914C65.394 101.708 65.3914 101.71 65.3914 101.71ZM65.394 101.087L65.3888 101.09C65.3836 101.095 65.3157 101.119 65.2426 101.199C65.2061 101.238 65.167 101.291 65.1356 101.368C65.1043 101.443 65.0861 101.533 65.0861 101.631C65.0861 101.724 65.1017 101.801 65.133 101.856C65.1774 101.938 65.24 101.965 65.2896 101.97C65.3314 101.978 65.3679 101.97 65.3836 101.965L65.3888 101.962H65.3914C65.4071 101.957 65.4671 101.938 65.5375 101.869C65.5767 101.83 65.6158 101.774 65.6471 101.702C65.6785 101.631 65.6967 101.538 65.6967 101.437C65.6967 101.339 65.6785 101.26 65.6498 101.204C65.6028 101.119 65.5375 101.093 65.488 101.087C65.4384 101.074 65.4018 101.085 65.394 101.087Z" fill="#F51919"/>
<path d="M53.4703 89.4934C53.4703 89.4934 53.084 89.5173 53.084 89.899C53.084 90.2808 53.4703 90.2755 53.4703 90.2755C53.4703 90.2755 53.8565 90.2755 53.8565 89.8831C53.8565 89.4934 53.4703 89.4934 53.4703 89.4934Z" stroke="#F51919" stroke-width="0.9797" stroke-miterlimit="10" stroke-linecap="round" stroke-linejoin="round"/>
<path d="M54.6264 93.2529C54.6264 93.2529 54.2402 93.2768 54.2402 93.6586C54.2402 94.0404 54.6264 94.035 54.6264 94.035C54.6264 94.035 55.0126 94.0351 55.0126 93.6427C55.0126 93.2529 54.6264 93.2529 54.6264 93.2529Z" stroke="#F51919" stroke-width="0.9797" stroke-miterlimit="10" stroke-linecap="round" stroke-linejoin="round"/>
</g>
<defs>
<clipPath id="clip0">
<rect width="184" height="123" fill="white"/>
</clipPath>
</defs>
</svg>
