<svg width="188" height="133" viewBox="0 0 188 133" fill="none" xmlns="http://www.w3.org/2000/svg">
<g clip-path="url(#clip0)">
<path d="M86.2291 46.699C74.3422 41.1689 62.4247 35.6695 50.5378 30.1393L45.2989 32.4436L23.5165 20.7381L26.3657 19.3248L17.1748 14.9622C5.44104 19.4477 -0.226683 22.8887 0.171589 25.1929C0.324771 26.0532 1.33577 26.7905 3.20459 27.3435L61.383 61.2003C61.3524 60.7395 61.383 60.0636 61.6588 59.3569C62.057 58.3738 62.6698 58.0973 64.4773 56.684C66.4993 55.0864 66.5606 54.7485 68.0005 53.8575C68.7051 53.4274 69.2566 53.1509 70.1144 52.7208C72.4121 51.6147 73.9133 50.9081 76.0272 50.0479C80.1631 48.3888 84.0846 47.2828 86.2291 46.699Z" stroke="white" stroke-miterlimit="10"/>
<path d="M26.3963 19.3248L50.5684 30.1393L45.3296 32.4436L23.5471 20.7381L26.3963 19.3248Z" stroke="white" stroke-miterlimit="10"/>
<path d="M61.383 61.231C61.5055 60.6165 61.2911 59.234 62.2714 58.4659C63.3131 57.6364 65.6414 53.796 77.6815 49.5255C79.9486 48.7267 82.2157 47.5899 86.2597 46.699C101.118 55.5165 115.946 64.3647 130.805 73.1822C125.566 75.3328 122.38 76.6539 120.542 77.422C115.701 79.419 113.526 80.2792 111.259 82.4913C109.451 84.2732 108.379 86.1166 107.736 87.407C92.2951 78.6817 76.8237 69.9563 61.383 61.231Z" stroke="white" stroke-miterlimit="10"/>
<path d="M126.424 98.3444L168.549 122.923C169.682 121.694 171.061 120.373 172.685 119.113C177.403 115.396 182.213 113.583 185.705 112.631C183.316 110.972 180.926 109.343 178.536 107.684L175.503 108.76L153.721 95.4565L159.818 93.4287L130.774 73.1823C125.535 75.3329 122.349 76.654 120.511 77.422C115.671 79.419 113.495 80.2793 111.228 82.4913C109.421 84.2733 108.349 86.1166 107.705 87.407L126.424 98.3444Z" stroke="white" stroke-miterlimit="10"/>
<path d="M185.705 113.03C183.745 114.843 181.141 116.901 177.832 118.867C174.523 120.803 171.459 122.093 168.947 122.954" stroke="white" stroke-miterlimit="10"/>
<path d="M157.305 94.2582L159.848 93.4287L178.567 107.653L177.035 108.206" stroke="white" stroke-miterlimit="10"/>
<path d="M153.752 95.4564L157.305 94.2889" stroke="white" stroke-miterlimit="10"/>
<path d="M155.529 96.5317L153.752 95.4564" stroke="white" stroke-miterlimit="10"/>
<path d="M164.811 102.185L155.559 96.5317" stroke="white" stroke-miterlimit="10"/>
<path d="M167.109 103.598L164.811 102.185" stroke="white" stroke-miterlimit="10"/>
<path d="M175.534 108.729L167.109 103.567" stroke="white" stroke-miterlimit="10"/>
<path d="M177.066 108.207L175.534 108.76" stroke="white" stroke-miterlimit="10"/>
<path d="M76.0884 69.5262L74.1583 71.0931C72.4733 69.5262 69.9305 71.0931 69.9305 71.0931L50.5377 81.7847C18.2164 106.179 34.5149 117.976 34.5149 117.976C44.6249 122.8 63.4662 112.354 63.4662 112.354L82.0012 101.509" stroke="white" stroke-miterlimit="10" stroke-linecap="square" stroke-linejoin="round"/>
<path d="M78.6619 76.0702L59.2691 87.6221C36.6594 99.8806 34.4843 116.993 34.4843 116.993" stroke="white" stroke-miterlimit="10" stroke-linecap="square" stroke-linejoin="round"/>
<path d="M44.3798 77.76C44.3798 79.1425 43.3075 80.2793 41.9595 80.2793C40.6115 80.2793 39.5392 79.1425 39.5392 77.76C39.5392 77.3299 39.6312 76.9305 39.815 76.5925C40.2132 75.7937 41.0404 75.2407 41.9595 75.2407C43.3075 75.2407 44.3798 76.3775 44.3798 77.76Z" stroke="white" stroke-miterlimit="10"/>
<path d="M40.6115 75.7324L44.7168 73.6432" stroke="white" stroke-miterlimit="10"/>
<path d="M43.2156 80.0027L54.3059 73.5509" stroke="white" stroke-miterlimit="10"/>
<path d="M54.4285 73.2437L61.9651 69.5262C63.4969 64.6413 58.3193 64.9792 58.3193 64.9792L49.251 70.1407" stroke="white" stroke-miterlimit="10"/>
<path d="M58.3194 64.9792L63.1293 62.2141" stroke="white" stroke-miterlimit="10"/>
<path d="M61.9957 69.5262L68.7664 65.7166" stroke="white" stroke-miterlimit="10"/>
<path d="M83.7169 104.12C84.6475 104.12 85.4019 103.061 85.4019 101.755C85.4019 100.448 84.6475 99.389 83.7169 99.389C82.7863 99.389 82.0319 100.448 82.0319 101.755C82.0319 103.061 82.7863 104.12 83.7169 104.12Z" stroke="white" stroke-miterlimit="10"/>
<path d="M84.5441 103.813L95.3894 98.068" stroke="white" stroke-miterlimit="10"/>
<path d="M90.1812 94.6884L100.015 88.9125C100.015 88.9125 104.151 88.6974 103.324 93.7053L95.3893 98.068" stroke="white" stroke-miterlimit="10"/>
<path d="M82.614 99.9728L86.2291 97.5764" stroke="white" stroke-miterlimit="10"/>
<path d="M100.015 88.9125L105.07 85.9016" stroke="white" stroke-miterlimit="10"/>
<path d="M103.324 93.7052L110.401 88.9739" stroke="white" stroke-miterlimit="10"/>
<path d="M69.9305 71.0931C70.7271 70.7244 76.3029 74.2883 75.6289 73.8274L83.2267 78.1287C89.4152 78.2823 87.7915 94.3811 87.7915 94.3811" stroke="white" stroke-miterlimit="10"/>
<path d="M133.715 75.2408L151.515 64.4263" stroke="white" stroke-miterlimit="10" stroke-linecap="square" stroke-linejoin="round"/>
<path d="M164.811 51.0309L147.134 61.5382" stroke="white" stroke-miterlimit="10" stroke-linecap="square" stroke-linejoin="round"/>
<path d="M129.059 72.1684L141.773 64.5798" stroke="white" stroke-miterlimit="10" stroke-linecap="square" stroke-linejoin="round"/>
<path d="M167.446 55.4551L151.883 64.2111" stroke="white" stroke-miterlimit="10" stroke-linecap="square" stroke-linejoin="round"/>
<path d="M163.617 51.6454C163.494 51.7376 166.864 52.0141 166.864 56.0388" stroke="white" stroke-miterlimit="10"/>
<path d="M164.811 51.0309L165.761 50.4779" stroke="white" stroke-miterlimit="10"/>
<path d="M168.58 58.5888L168.488 58.2816L159.113 29.2483C160.829 27.7122 163.004 26.0224 165.638 24.3941C168.733 22.4893 171.643 21.2296 174.063 20.3694C177.188 29.9857 180.344 39.6327 183.469 49.249C181.906 50.8774 179.701 52.8744 176.79 54.7485C173.696 56.7147 170.816 57.8822 168.58 58.5888Z" stroke="white" stroke-miterlimit="10"/>
<path d="M168.58 58.5888C170.111 56.9297 172.317 54.902 175.289 52.9972C178.383 51.0309 181.263 49.8942 183.469 49.2183" stroke="white" stroke-miterlimit="10"/>
<path d="M174.554 21.9055L179.119 18.8025L187.819 45.2243L183.469 48.5424" stroke="white" stroke-miterlimit="10"/>
<path d="M158.163 28.8182C161.135 26.2068 165.271 23.1652 170.663 20.6459C173.481 19.3248 176.147 18.3724 178.536 17.6965C169.254 12.1663 160.001 6.60546 150.719 1.07532C145.173 3.01087 139.046 5.991 133.133 10.6609C132.306 11.3061 131.51 11.982 130.774 12.6272C139.935 18.0037 149.064 23.411 158.163 28.8182Z" stroke="white" stroke-miterlimit="10"/>
<path d="M174.064 20.7074C174.738 20.4616 175.595 20.0929 176.453 19.6013C177.587 18.9254 178.353 18.2188 178.874 17.6658" stroke="white" stroke-miterlimit="10"/>
<path d="M158.163 28.8182L159.113 29.2484" stroke="white" stroke-miterlimit="10"/>
<path d="M150.749 1.04457L150.014 0.184326C146.552 1.56686 142.723 3.28735 138.648 5.53013C135.002 7.55785 131.816 9.6163 129.028 11.5826L130.774 12.5657" stroke="white" stroke-miterlimit="10"/>
<path d="M129.059 11.6133L119.96 29.2483L139.383 17.6657" stroke="white" stroke-miterlimit="10"/>
<path d="M136.595 19.3248C136.595 19.3248 140.731 19.1098 139.904 24.1176" stroke="white" stroke-miterlimit="10"/>
<path d="M122.441 27.6508C122.441 27.6508 126.577 27.4357 125.75 32.4436" stroke="white" stroke-miterlimit="10"/>
<path d="M129.671 23.5032C129.671 23.5032 133.807 23.2881 132.98 28.296" stroke="white" stroke-miterlimit="10"/>
<path d="M100.015 40.4929L88.4962 48.0201" stroke="white" stroke-miterlimit="10"/>
<path d="M109.145 41.9062L93.1223 51.031" stroke="white" stroke-miterlimit="10"/>
<path d="M101.823 36.376L93.5511 30.6001L102.221 35.0549" stroke="white" stroke-miterlimit="10"/>
<path d="M105.898 36.6833L119.96 29.2483" stroke="white" stroke-miterlimit="10"/>
<path d="M104.213 36.5912L113.649 41.1689L104.029 35.7002" stroke="white" stroke-miterlimit="10"/>
<path d="M78.6619 76.0702L83.0123 73.4587" stroke="white" stroke-miterlimit="10"/>
<path d="M44.3492 119.021V121.633C46.5856 122.339 46.3712 121.172 46.3712 121.172C46.3712 121.049 46.3099 118.775 46.3099 118.775" stroke="white" stroke-miterlimit="10"/>
<path d="M101.976 56.0388L116.59 56.4997C125.873 57.1141 122.441 68.2051 122.441 68.2051" stroke="white" stroke-miterlimit="10"/>
<path d="M121.828 58.5889C122.594 57.5443 124.218 55.6702 126.945 54.3184C129.028 53.2738 130.958 52.9359 132.306 52.813C133.041 52.7515 133.777 52.9973 134.267 53.5196C134.726 54.0112 134.88 54.5949 134.726 54.9943C134.665 55.1479 134.665 55.4244 134.512 55.5166C134.114 55.8238 133.807 56.2539 133.623 56.7455C133.501 57.0527 133.225 57.2371 132.98 57.575C131.816 59.2955 129.763 59.5413 129.181 59.6028C129.089 59.6028 129.028 59.6028 128.936 59.6335C128.507 59.7256 127.129 59.9714 127.098 59.9714C127.098 59.9714 125.934 60.1865 125.444 60.2787C125.321 60.3094 125.168 60.3401 125.045 60.3708C124.371 60.6166 123.667 60.8624 122.993 61.1082" stroke="white" stroke-miterlimit="10"/>
<path d="M45.9117 121.848V125.043" stroke="white" stroke-linecap="round" stroke-linejoin="round"/>
<path d="M45.1151 123.445V125.934" stroke="white" stroke-linecap="round" stroke-linejoin="round"/>
<path d="M45.1151 121.97V123.107V123.445" stroke="white" stroke-linecap="round" stroke-linejoin="round"/>
<path d="M47.6273 124.09L50.1395 121.202L47.4435 118.499" stroke="white" stroke-linecap="round" stroke-linejoin="round"/>
<path d="M46.0035 124.275L48.6383 121.356L46.3712 119.083" stroke="white" stroke-linecap="round" stroke-linejoin="round"/>
<path d="M48.6172 129.066C48.7325 128.747 48.5937 128.404 48.3074 128.3C48.021 128.196 47.6955 128.37 47.5803 128.689C47.4651 129.008 47.6038 129.351 47.8901 129.455C48.1765 129.559 48.502 129.385 48.6172 129.066Z" stroke="white" stroke-linecap="round" stroke-linejoin="round"/>
<path d="M46.7694 132.846C46.1567 132.754 45.5746 132.539 45.0232 132.232C43.5833 131.31 43.3382 129.037 44.3798 127.04C44.4411 126.917 44.5023 126.794 44.5943 126.671C44.6862 126.517 44.7781 126.395 44.87 126.272C45.9116 124.858 47.4434 124.09 48.7302 124.305C49.0672 124.367 50.3845 125.227 50.599 125.626" stroke="white" stroke-linecap="round" stroke-linejoin="round"/>
<path d="M49.1591 126.579C48.9753 126.548 48.7915 126.548 48.6383 126.61C47.9643 126.825 47.1371 127.593 46.8614 128.484C46.4325 129.866 46.555 131.187 47.3209 131.402C47.3516 131.402 47.3822 131.433 47.4435 131.433C48.24 131.556 49.2204 130.819 49.7718 129.528C50.262 128.238 49.9556 126.825 49.1591 126.579Z" stroke="white" stroke-linecap="round" stroke-linejoin="round"/>
<path d="M50.1395 125.258C49.0672 124.797 47.1371 125.811 46.1261 127.869C45.2683 129.62 45.2989 132.201 46.2793 132.693C47.2903 133.215 49.4042 132.263 50.4765 130.204C51.5181 128.146 51.3343 125.749 50.1395 125.258Z" stroke="white" stroke-linecap="round" stroke-linejoin="round"/>
<path d="M46.9227 131.157C47.5967 131.003 48.6689 130.542 49.0978 129.528C49.6187 128.238 49.3736 126.886 48.6077 126.61C47.9337 126.825 47.1065 127.593 46.8307 128.484" stroke="white" stroke-linecap="round" stroke-linejoin="round"/>
<path d="M43.5526 130.112C43.6139 130.081 43.6752 130.051 43.7364 129.989" stroke="white" stroke-linecap="round" stroke-linejoin="round"/>
<path d="M45.1151 123.691C44.9007 123.414 44.6249 123.199 44.2879 123.046C42.6948 122.308 40.6116 123.414 39.6312 125.504C38.6508 127.623 39.1104 129.928 40.7035 130.696C41.5613 131.095 42.8787 131.126 43.7671 130.604" stroke="white" stroke-linecap="round" stroke-linejoin="round"/>
<path d="M45.1764 125.657C45.0845 124.828 44.6862 124.182 44.0735 123.937C42.9705 123.507 41.5 124.551 40.826 126.272C40.152 127.992 40.489 129.743 41.6225 130.204C42.174 130.419 43.185 130.419 43.7671 130.02" stroke="white" stroke-linecap="round" stroke-linejoin="round"/>
<path d="M44.0509 127.208C44.1661 126.889 44.0274 126.546 43.741 126.442C43.4547 126.338 43.1292 126.513 43.0139 126.832C42.8987 127.151 43.0374 127.494 43.3238 127.598C43.6101 127.702 43.9357 127.527 44.0509 127.208Z" stroke="white" stroke-linecap="round" stroke-linejoin="round"/>
<path d="M123.452 108.882C125.995 109.927 129.059 108.268 130.315 105.226C130.928 103.721 130.989 102.185 130.591 100.864" stroke="white" stroke-miterlimit="10"/>
<path d="M125.26 97.6685C123.759 98.2522 121.798 99.6962 121.063 101.478C119.806 104.55 120.879 107.869 123.422 108.913" stroke="white" stroke-miterlimit="10"/>
<path d="M119.5 94.2889L121.583 100.464" stroke="white" stroke-miterlimit="10"/>
<path d="M126.761 98.621C125.444 99.2047 123.605 100.679 122.809 102.461C121.767 104.735 121.798 107.07 122.717 108.514" stroke="white" stroke-miterlimit="10"/>
<path d="M128.15 104.768C128.768 103.428 128.484 101.978 127.517 101.53C126.549 101.081 125.264 101.804 124.646 103.144C124.029 104.484 124.312 105.934 125.28 106.382C126.247 106.831 127.533 106.108 128.15 104.768Z" stroke="white" stroke-miterlimit="10"/>
<path d="M125.26 106.332C126.087 106.148 127.251 105.656 127.711 104.673C128.354 103.322 127.925 101.693 127.006 101.386" stroke="white" stroke-linecap="round" stroke-linejoin="round"/>
<path d="M126.789 103.958C126.904 103.639 126.765 103.296 126.479 103.192C126.193 103.088 125.867 103.262 125.752 103.581C125.637 103.9 125.775 104.243 126.062 104.347C126.348 104.451 126.674 104.277 126.789 103.958Z" stroke="white" stroke-linecap="round" stroke-linejoin="round"/>
<path d="M44.8393 126.302C44.7168 126.057 44.5023 125.842 44.2573 125.749C43.6139 125.534 42.8786 126.087 42.6029 126.917C42.3272 127.777 42.6335 128.637 43.2769 128.822C43.4301 128.883 43.6139 128.883 43.7671 128.852" stroke="white" stroke-linecap="round" stroke-linejoin="round"/>
<path d="M45.1457 125.903C44.9619 125.626 44.6862 125.411 44.3798 125.289C43.4914 125.012 42.4497 125.719 42.0821 126.886C41.7145 128.054 42.1434 129.221 43.0625 129.498C43.1237 129.528 43.4914 129.467 43.5527 129.467" stroke="white" stroke-linecap="round" stroke-linejoin="round"/>
<path d="M100.138 35.8537C100.23 35.7308 100.352 35.6387 100.506 35.5465" stroke="white" stroke-miterlimit="10"/>
<path d="M100.322 35.7002C100.169 35.8231 100.046 36.0074 100.015 36.2225C99.8929 37.052 101.302 38.0351 102.589 38.2809C104.458 38.6496 105.989 37.4821 105.989 37.4514C105.989 37.4207 106.786 37.7894 106.755 37.8201" stroke="white" stroke-miterlimit="10"/>
<path d="M100.015 40.493C100.015 39.1105 100.015 37.7586 100.015 36.3761" stroke="white" stroke-miterlimit="10"/>
<path d="M100.015 40.7387V40.4929" stroke="white" stroke-miterlimit="10"/>
<path d="M104.304 37.3285C103.967 34.6863 103.569 33.5496 103.048 33.5496C102.528 33.5496 102.068 34.3484 101.731 36.9291" stroke="white" stroke-miterlimit="10"/>
<path d="M106.081 41.1996C105.407 41.4146 104.611 41.5375 103.722 41.5375C102.129 41.5375 100.751 41.1074 100.015 40.4929" stroke="white" stroke-miterlimit="10"/>
<path d="M140.027 24.0254L111.657 40.4929L109.023 41.9676" stroke="white" stroke-miterlimit="10"/>
<path d="M105.959 37.6664C105.99 38.8953 106.02 40.1242 106.081 41.3532" stroke="white" stroke-miterlimit="10"/>
<path d="M46.6162 70.7552L38.3444 64.9792L47.0145 69.4341" stroke="white" stroke-miterlimit="10"/>
<path d="M58.4419 75.5479L48.8221 70.0792" stroke="white" stroke-miterlimit="10"/>
<path d="M49.0059 70.9702L58.4419 75.5479" stroke="white" stroke-miterlimit="10"/>
<path d="M45.2376 69.9257C45.0845 70.0486 44.8394 70.3865 44.8087 70.6016C44.6862 71.4311 46.0955 72.4142 47.3822 72.66C49.251 73.0287 50.7828 71.8612 50.7828 71.8305L50.7522 72.0456" stroke="white" stroke-miterlimit="10"/>
<path d="M44.8087 74.872C44.8087 73.4895 44.8087 72.1377 44.8087 70.7551" stroke="white" stroke-miterlimit="10"/>
<path d="M49.0978 71.7075C48.7608 69.0653 48.3625 67.9286 47.8417 67.9286C47.3209 67.9286 46.8614 68.7274 46.5244 71.3081" stroke="white" stroke-miterlimit="10"/>
<path d="M50.7522 75.3944C50.0782 75.6094 49.3736 75.9167 48.5158 75.9167C46.9227 75.9167 45.4521 75.3022 44.7169 74.6877" stroke="white" stroke-miterlimit="10"/>
<path d="M50.7522 72.0455C50.7828 73.2745 50.7216 74.1654 50.7522 75.3943" stroke="white" stroke-miterlimit="10"/>
<path d="M87.9754 94.6884L79.7036 88.9125L88.3736 93.3673" stroke="white" stroke-miterlimit="10"/>
<path d="M99.801 99.4811L90.1812 94.0125" stroke="white" stroke-miterlimit="10"/>
<path d="M90.365 94.9034L99.801 99.4812" stroke="white" stroke-miterlimit="10"/>
<path d="M86.6579 93.8896C86.5047 94.0125 86.229 94.3198 86.1984 94.5348C86.0758 95.3644 87.4851 96.3475 88.7718 96.5933C90.6407 96.9619 92.1725 95.7945 92.1725 95.7637C92.1725 95.733 92.969 96.1017 92.9384 96.1324" stroke="white" stroke-miterlimit="10"/>
<path d="M86.1678 98.8054C86.1678 97.4228 86.1678 96.071 86.1678 94.6885" stroke="white" stroke-miterlimit="10"/>
<path d="M90.4876 95.6407C90.1506 92.9986 89.7523 91.8618 89.2315 91.8618C88.7107 91.8618 88.2511 92.6606 87.9141 95.2414" stroke="white" stroke-miterlimit="10"/>
<path d="M92.2338 99.5119C91.5598 99.727 90.7633 99.8498 89.8748 99.8498C88.2817 99.8498 86.7806 99.389 86.0453 98.7745" stroke="white" stroke-miterlimit="10"/>
<path d="M92.1419 95.9788C92.1725 97.2077 92.1113 98.2523 92.1419 99.4812" stroke="white" stroke-miterlimit="10"/>
<path d="M143.703 61.5689L135.431 55.793L144.101 60.2478" stroke="white" stroke-miterlimit="10"/>
<path d="M155.529 66.3618L145.909 60.8931" stroke="white" stroke-miterlimit="10"/>
<path d="M146.093 61.7839L155.529 66.3617" stroke="white" stroke-miterlimit="10"/>
<path d="M142.263 60.7701C142.11 60.893 141.926 61.2003 141.895 61.4153C141.773 62.2448 143.182 63.228 144.469 63.4738C146.338 63.8424 147.87 62.675 147.87 62.6442C147.87 62.6135 148.666 62.9822 148.635 63.0129" stroke="white" stroke-miterlimit="10"/>
<path d="M141.895 65.6859C141.895 64.3033 141.895 62.9515 141.895 61.569" stroke="white" stroke-miterlimit="10"/>
<path d="M146.184 62.5214C145.847 59.8792 145.449 58.7424 144.928 58.7424C144.408 58.7424 143.948 59.5412 143.611 62.122" stroke="white" stroke-miterlimit="10"/>
<path d="M147.869 66.0852C147.195 66.3003 146.491 66.7304 145.633 66.7304C144.04 66.7304 142.539 66.3003 141.803 65.6858" stroke="white" stroke-miterlimit="10"/>
<path d="M147.839 62.8593C147.869 64.0882 147.808 64.9791 147.839 66.2081" stroke="white" stroke-miterlimit="10"/>
</g>
<defs>
<clipPath id="clip0">
<rect width="188" height="133" fill="white"/>
</clipPath>
</defs>
</svg>
